<?xml version="1.0" encoding="utf-8"?>
<!-- Generator: Adobe Illustrator 22.0.1, SVG Export Plug-In . SVG Version: 6.00 Build 0)  -->
<svg version="1.1" id="Layer_1" xmlns="http://www.w3.org/2000/svg" xmlns:xlink="http://www.w3.org/1999/xlink" x="0px" y="0px"
	 viewBox="0 0 1592 797" style="enable-background:new 0 0 1592 797;" xml:space="preserve">
<style type="text/css">
	.st0{fill:#402B58;}
	.st1{fill:#DBDBDB;}
	.st2{clip-path:url(#SVGID_2_);fill:#00A6B4;}
	.st3{fill:#FDC619;}
	.st4{fill:none;}
	.st5{fill:#00A6B4;}
	.st6{fill:#E83F46;}
</style>
<rect x="796.3" y="398.4" class="st0" width="398.4" height="398.4"/>
<rect x="1194.7" y="398.4" class="st1" width="398.4" height="398.4"/>
<g>
	<defs>
		<rect id="SVGID_1_" x="1194.7" y="398.4" width="398.4" height="398.4"/>
	</defs>
	<clipPath id="SVGID_2_">
		<use xlink:href="#SVGID_1_"  style="overflow:visible;"/>
	</clipPath>
	<circle class="st2" cx="1393.9" cy="410.9" r="199.2"/>
</g>
<polygon class="st3" points="1593.2,796.9 1194.7,398.5 1194.9,796.9 "/>
<rect x="-0.6" y="398.4" class="st1" width="398.4" height="398.4"/>
<path class="st4" d="M1054.4,355.7c-2.8,0-5.6,0-8.4,0"/>
<rect x="397.9" y="398.4" class="st1" width="398.4" height="398.4"/>
<rect x="-0.6" y="0" class="st5" width="398.4" height="398.4"/>
<rect x="397.9" y="0" class="st6" width="398.4" height="398.4"/>
<rect x="796.3" y="0" class="st1" width="398.4" height="398.4"/>
<path class="st3" d="M1095.1,199.3H796.3V0l298.8,0c55,0,99.6,44.6,99.6,99.6v0C1194.7,154.7,1150.1,199.3,1095.1,199.3z"/>
<path class="st5" d="M1095.1,398.5H796.3V199.2h298.8c55,0,99.6,44.6,99.6,99.6v0C1194.7,353.9,1150.1,398.5,1095.1,398.5z"/>
<path class="st3" d="M198.7,398.4H-0.6V0l199.2,0c110,0,199.2,89.2,199.2,199.2v0C397.9,309.2,308.7,398.4,198.7,398.4z"/>
<circle class="st0" cx="597.1" cy="199.2" r="199.2"/>
<rect x="522.4" y="498" class="st5" width="149.4" height="298.8"/>
<rect x="397.9" y="398.4" class="st3" width="398.4" height="137"/>
<rect x="123.9" y="498" class="st6" width="149.4" height="298.8"/>
<rect x="-0.6" y="398.4" class="st0" width="398.4" height="137"/>
<rect x="1194.7" y="0.1" class="st0" width="398.4" height="137"/>
<rect x="1194.7" y="136.9" class="st5" width="398.4" height="124.7"/>
<rect x="1194.7" y="261.1" class="st6" width="398.4" height="137.4"/>
<rect x="796.3" y="398.5" class="st6" width="398.4" height="137"/>
<rect x="796.3" y="534.8" class="st5" width="398.4" height="125.2"/>
<rect x="796.3" y="659.4" class="st0" width="398.4" height="137.5"/>
</svg>
