<?xml version="1.0" encoding="utf-8"?>
<!-- Generator: Adobe Illustrator 22.0.1, SVG Export Plug-In . SVG Version: 6.00 Build 0)  -->
<svg version="1.1" id="Layer_1" xmlns="http://www.w3.org/2000/svg" xmlns:xlink="http://www.w3.org/1999/xlink" x="0px" y="0px"
	 viewBox="0 0 1592 797" style="enable-background:new 0 0 1592 797;" xml:space="preserve">
<style type="text/css">
	.st0{fill:#FFFFFF;}
	.st1{fill:#1D252C;}
</style>
<rect x="0" y="0" class="st0" width="1592" height="797"/>
<g>
	<g>
		<path class="st1" d="M407.6,470.8c-14,9.8-31.5,16-55.5,16h-61.8V307.5H351c23.5,0,41.8,5.8,55.5,14.5c25.5,16.5,38,46.5,38,75
			C444.6,425.8,431.6,453.8,407.6,470.8z M389,344c-10-7.5-23.3-11.8-38-11.8h-29.8V462h29.5c16,0,30-4.5,39.8-13
			c13.3-11.5,21.3-30.3,21.3-52C411.8,374,403.1,354.7,389,344z"/>
		<path class="st1" d="M513.4,370.5c37.3,0,61.3,26.3,61.3,59.3c0,33.3-24,59.8-61.3,59.8c-37.3,0-61-26.5-61-59.8
			C452.3,396.8,476.1,370.5,513.4,370.5z M545.1,429.8c0-20.3-12-37-31.8-37c-19.8,0-31.5,16.8-31.5,37s11.8,37.5,31.5,37.5
			C533.1,467.3,545.1,450,545.1,429.8z"/>
		<path class="st1" d="M743.7,394.5c23,8.8,32.8,26.5,32.8,42.5c0,25-20.3,49.8-57,49.8h-76.3V307.5h75.3c34,0,53,22.5,53,47
			C771.5,369.2,762.7,386,743.7,394.5z M740,357.5c0-12-8.3-26-29.3-26h-36.5V385h35.5C731.5,385,740,371,740,357.5z M744.2,435.3
			c0-16-12.5-28-32.5-28h-37.5v55.5h37.5C734,462.8,744.2,449,744.2,435.3z"/>
		<path class="st1" d="M786.2,429.8c0-32,22.5-59.3,59.5-59.3c30.8,0,58.3,20,58.3,62v4.2h-88.5c0.8,15.8,13.5,30.5,31.3,30.5
			c14,0,22.8-8.8,26.3-16.5h28.8c-5,20.8-26.8,38.8-56,38.8C809.8,489.5,786.2,464.5,786.2,429.8z M873.8,418.3
			c-1.5-14.3-10.8-26.3-28-26.3c-14.5,0-27.3,10-29.8,26.3H873.8z"/>
		<path class="st1" d="M926.1,395.8h-19V373h19v-36.3h29.3V373h23v22.8h-23v54.8c0,11,2,13.3,14.8,13.3h8.3v23
			c-11.8,0.5-15.5,0.5-17.8,0.5c-27,0-34.5-9.8-34.5-34.5V395.8z"/>
		<path class="st1" d="M1008.4,395.8h-19V373h19v-36.3h29.3V373h23v22.8h-23v54.8c0,11,2,13.3,14.8,13.3h8.3v23
			c-11.8,0.5-15.5,0.5-17.8,0.5c-27,0-34.5-9.8-34.5-34.5V395.8z"/>
		<path class="st1" d="M1068.1,429.8c0-32,22.5-59.3,59.5-59.3c30.8,0,58.3,20,58.3,62v4.2h-88.5c0.8,15.8,13.5,30.5,31.3,30.5
			c14,0,22.8-8.8,26.3-16.5h28.8c-5,20.8-26.8,38.8-56,38.8C1091.6,489.5,1068.1,464.5,1068.1,429.8z M1155.7,418.3
			c-1.5-14.3-10.8-26.3-28-26.3c-14.5,0-27.3,10-29.8,26.3H1155.7z"/>
		<path class="st1" d="M1227.5,428v58.8h-29V373h27l1,15.3c7.5-10,18-17.3,32.3-17.3h3v28.8c-3.8-0.8-5.5-0.8-7-0.8
			C1233.5,399,1227.5,411.5,1227.5,428z"/>
		<path class="st1" d="M1301.7,486.8h-34.5v-34.5h34.5V486.8z"/>
	</g>
</g>
</svg>
