<svg xmlns="http://www.w3.org/2000/svg" viewBox="0 0 266.9 48.04">
  <title>do_better</title>
  <g id="Layer_2" data-name="Layer 2">
    <g id="Layer_1-2" data-name="Layer 1">
      <g>
        <path d="M31,43.09c-3.69,2.58-8.31,4.23-14.65,4.23H0V0H16A26.81,26.81,0,0,1,30.69,3.83c6.73,4.35,10,12.27,10,19.8A23.71,23.71,0,0,1,31,43.09ZM26.07,9.64A16.65,16.65,0,0,0,16,6.53H8.18V40.79H16a15.77,15.77,0,0,0,10.49-3.44c3.5-3,5.61-8,5.61-13.72C32.07,17.55,29.76,12.47,26.07,9.64Z" style="fill: #fff"/>
        <path d="M58.87,16.63C68.7,16.63,75,23.56,75,32.27S68.7,48,58.87,48s-16.1-7-16.1-15.77S49,16.63,58.87,16.63Zm8.38,15.64c0-5.34-3.17-9.77-8.38-9.77s-8.32,4.43-8.32,9.77,3.11,9.9,8.32,9.9S67.25,37.62,67.25,32.27Z" style="fill: #fff"/>
        <path d="M119.65,23c6.08,2.31,8.65,7,8.65,11.22,0,6.6-5.35,13.13-15.05,13.13H93.12V0H113c9,0,14,5.94,14,12.41A11.76,11.76,0,0,1,119.65,23Zm-1-9.77c0-3.17-2.17-6.86-7.72-6.86h-9.63V20.46h9.37C116.42,20.46,118.66,16.76,118.66,13.2Zm1.13,20.52c0-4.22-3.3-7.39-8.58-7.39h-9.9V41h9.9C117.08,41,119.79,37.35,119.79,33.72Z" style="fill: #fff"/>
        <path d="M130.88,32.27c0-8.45,5.93-15.64,15.7-15.64C154.7,16.63,162,21.91,162,33v1.12H138.6a8.38,8.38,0,0,0,8.25,8.05,7.48,7.48,0,0,0,6.92-4.35h7.59C160,43.29,154.3,48,146.58,48,137.08,48,130.88,41.45,130.88,32.27Zm23.09-3c-.39-3.77-2.83-6.93-7.39-6.93a7.87,7.87,0,0,0-7.85,6.93Z" style="fill: #fff"/>
        <path d="M167.77,23.3h-5v-6h5V7.72h7.72v9.57h6.07v6h-6.07V37.75c0,2.9.53,3.5,3.89,3.5h2.18v6.07c-3.1.13-4.09.13-4.68.13-7.13,0-9.11-2.57-9.11-9.11Z" style="fill: #fff"/>
        <path d="M189.48,23.3h-5v-6h5V7.72h7.72v9.57h6.07v6H197.2V37.75c0,2.9.53,3.5,3.9,3.5h2.17v6.07c-3.1.13-4.09.13-4.68.13-7.13,0-9.11-2.57-9.11-9.11Z" style="fill: #fff"/>
        <path d="M205.25,32.27c0-8.45,5.94-15.64,15.71-15.64,8.12,0,15.38,5.28,15.38,16.37v1.12H213a8.38,8.38,0,0,0,8.25,8.05,7.48,7.48,0,0,0,6.92-4.35h7.59C234.42,43.29,228.68,48,221,48,211.46,48,205.25,41.45,205.25,32.27Zm23.1-3c-.39-3.77-2.84-6.93-7.39-6.93a7.87,7.87,0,0,0-7.85,6.93Z" style="fill: #fff"/>
        <path d="M247.29,31.81V47.32h-7.65v-30h7.13l.26,4a10.4,10.4,0,0,1,8.51-4.56h.8v7.59a8.09,8.09,0,0,0-1.85-.2C248.88,24.15,247.29,27.45,247.29,31.81Z" style="fill: #fff"/>
        <path d="M266.9,47.32h-9.11V38.21h9.11Z" style="fill: #fff"/>
      </g>
    </g>
  </g>
</svg>
