<svg xmlns="http://www.w3.org/2000/svg" xmlns:xlink="http://www.w3.org/1999/xlink" version="1.1" xml:space="preserve" width="603" height="232"><rect id="backgroundrect" width="100%" height="100%" x="0" y="0" fill="none" stroke="none"/>
<style type="text/css">
	.st0{fill:#FFFFFF;}
</style>


<g class="currentLayer"><title>Layer 1</title><path class="st0" d="M235.79998168945315,120.5000061035156 c0,-30.7 -13,-58.5 -33.8,-78.1 c-19.5,-25.8 -50.4,-42.4 -85.1,-42.4 c-45,0 -83.6,28.1 -99.2,67.7 c-11.2,16.8 -17.7,37 -17.7,58.6 c0,58.5 47.6,106.2 106.2,106.2 c11.6,0 22.8,-1.9 33.2,-5.3 C193.3999816894531,221.8000061035156 235.79998168945315,176.0000061035156 235.79998168945315,120.5000061035156 zM128.59998168945313,220.8000061035156 c-21.1,0 -40.6,-6.5 -56.8,-17.7 c13.7,6.4 29,10 45.1,10 c23.6,0 45.4,-7.7 63.1,-20.8 c-11.4,12.7 -26,22.5 -42.6,28 C134.49998168945314,220.70000610351565 131.59998168945313,220.8000061035156 128.59998168945313,220.8000061035156 zM23.999981689453136,70.90000610351564 c8.9,-13.2 20.9,-24.1 35,-31.8 c-22.9,19.7 -37.5,48.9 -37.5,81.4 c0,6.8 0.6000000000000001,13.5 1.9,20 c-3.8,-10.6 -5.9,-22 -5.9,-33.9 C17.29998168945312,94.0000061035156 19.699981689453125,82.0000061035156 23.999981689453136,70.90000610351564 zM116.89998168945311,206.20000610351565 c-28.8,0 -54.7,-12.3 -72.9,-31.9 c-9.9,-15.5 -15.7,-34 -15.7,-53.8 c0,-40.9 24.6,-76.1 59.7,-91.7 c5.9,-1.1 12,-1.7000000000000002 18.2,-1.7000000000000002 c54.7,0 99.2,44.5 99.2,99.2 c0,13.7 -2.8,26.8 -7.9,38.7 C179.29998168945315,190.0000061035156 149.99998168945314,206.20000610351565 116.89998168945311,206.20000610351565 zM117.89998168945311,20.800006103515614 c3.5,-0.4 7.1,-0.6000000000000001 10.7,-0.6000000000000001 c26.1,0 49.9,10 67.7,26.4 c12.6,16.7 20.1,37.5 20.1,60 c0,10.5 -1.6,20.6 -4.6,30.1 c0.30000000000000004,-3.4 0.5,-6.8 0.5,-10.3 C212.29998168945315,71.80000610351561 170.8999816894531,26.70000610351562 117.89998168945311,20.800006103515614 zM116.89998168945311,7.000006103515631 c18,0 34.9,4.8 49.5,13.2 c-11.8,-4.5 -24.5,-6.9 -37.8,-6.9 c-15,0 -29.2,3.1 -42.2,8.7 c-17.2,3.3 -33,10.7 -46.2,21.2 C58.499981689453136,21.100006103515625 86.09998168945313,7.000006103515631 116.89998168945311,7.000006103515631 zM6.999981689453122,126.30000610351561 c0,-9.1 1.2,-17.9 3.5,-26.3 c-0.1,2.2 -0.2,4.4 -0.2,6.6 c0,28 10.9,53.5 28.6,72.5 c15.3,23.4 39.6,40.5 67.9,46.4 c-0.2,0 -0.4,0 -0.6000000000000001,0 C51.499981689453136,225.5000061035156 6.999981689453122,181.0000061035156 6.999981689453122,126.30000610351561 zM167.3999816894531,213.0000061035156 c15.8,-11.2 28.4,-26.5 36.2,-44.4 c12.5,-17.5 19.9,-38.9 19.9,-62 c0,-9.6 -1.3,-18.9 -3.7,-27.8 c5.8,12.7 9.1,26.8 9.1,41.7 C228.8999816894531,162.10000610351562 203.49998168945314,197.8000061035156 167.3999816894531,213.0000061035156 z" id="svg_1"/><g id="svg_2" class="">
	<path class="st0" d="M289.3999816894531,113.0000061035156 v-52.2 h21.5 c4.6,0 8.3,1.3 11.1,4 c2.8,2.7 4.2,6 4.2,9.9 c0,4.4 -2,7.8 -6,10.1 v0.1 c2.2,1 4.1,2.5 5.6,4.5 c1.6,2 2.3,4.6 2.3,7.6 c0,10.6 -6.4,16 -19.2,16 H289.3999816894531 zM298.1999816894531,82.20000610351565 h11.5 c2.5,0 4.4,-0.6000000000000001 5.7,-1.7000000000000002 c1.3,-1.1 2,-2.7 2,-4.9 c0,-2.2 -0.7000000000000001,-3.9 -2,-5 c-1.4,-1.1 -3.3,-1.7000000000000002 -5.8,-1.7000000000000002 h-11.4 V82.20000610351565 zM298.1999816894531,104.90000610351564 h9.3 c1.5,0 2.8,0 3.8,-0.1 c1,0 2,-0.2 3.2,-0.5 c1.1,-0.30000000000000004 2,-0.7000000000000001 2.6,-1.3 c0.6000000000000001,-0.5 1.2,-1.3 1.6,-2.3 c0.4,-1 0.7000000000000001,-2.2 0.7000000000000001,-3.7 c0,-3 -1,-5 -2.9,-6 c-1.9,-1 -4.9,-1.5 -8.9,-1.5 h-9.4 V104.90000610351564 z" id="svg_3"/>
	<path class="st0" d="M335.49998168945314,113.0000061035156 V58.600006103515625 h8.8 v54.4 H335.49998168945314 z" id="svg_4"/>
	<path class="st0" d="M376.5999816894531,113.0000061035156 v-4 h-0.1 c-0.2,0.30000000000000004 -0.5,0.7000000000000001 -0.9,1.1 c-0.4,0.4 -1,1 -1.9,1.6 c-0.9,0.7000000000000001 -2,1.2 -3.5,1.7000000000000002 c-1.5,0.4 -3.1,0.7000000000000001 -4.9,0.7000000000000001 c-4.6,0 -8.1,-1.1 -10.4,-3.3 c-2.3,-2.2 -3.5,-5 -3.5,-8.2 c0,-3.4 1,-6 3.1,-7.8 c2,-1.8 5.5,-3.3 10.4,-4.5 c4.4,-1.1 7.2,-2 8.6,-2.7 c1.3,-0.7000000000000001 2,-1.8 2,-3.2 c0,-1.3 -0.6000000000000001,-2.5 -1.8,-3.4 c-1.2,-0.9 -3,-1.3 -5.4,-1.3 c-2.7,0 -4.7,0.6000000000000001 -6,1.9 c-1.3,1.2 -2.2,2.9 -2.8,5.1 l-7.2,-2.8 c0.8,-3.4 2.6,-6.1 5.3,-8.3 c2.7,-2.1 6.2,-3.2 10.5,-3.2 c4.8,0 8.6,1.2 11.6,3.7 c2.9,2.4 4.4,6.2 4.4,11.4 v25.6 H376.5999816894531 zM366.49998168945314,96.30000610351561 c-2.8,0.7000000000000001 -4.6,1.5 -5.6,2.4 c-0.9,0.9 -1.4,2 -1.4,3.3 c0,3.2 2.2,4.8 6.5,4.8 c3.2,0 5.6,-0.6000000000000001 7.2,-1.9 c1.6,-1.3 2.4,-2.9 2.4,-4.7 v-7.9 h-0.1 c-0.2,0.4 -0.5,0.7000000000000001 -0.8,1 c-0.30000000000000004,0.30000000000000004 -1.2,0.7000000000000001 -2.5,1.3 C370.79998168945315,95.10000610351562 368.8999816894531,95.70000610351565 366.49998168945314,96.30000610351561 z" id="svg_5"/>
	<path class="st0" d="M416.79998168945315,97.30000610351561 l8.4,1.8 c-0.8,4.8 -2.6,8.5 -5.4,11.1 c-2.8,2.6 -6.6,4 -11.3,4 c-5.4,0 -9.8,-1.8 -13.2,-5.5 c-3.4,-3.7 -5.1,-8.8 -5.1,-15.4 c0,-6.3 1.7000000000000002,-11.4 5.2,-15.2 c3.5,-3.8 7.8,-5.7 13.1,-5.7 c4.5,0 8.2,1.4 11.2,4.1 c2.9,2.7 4.6,6.2 5.1,10.5 l-8,1.3 c-0.8,-5.5 -3.6,-8.3 -8.3,-8.3 c-3,0 -5.4,1.2 -7.2,3.5 c-1.8,2.3 -2.7,5.6 -2.7,9.7 c0,4.2 0.9,7.4 2.6,9.7 c1.7000000000000002,2.3 4.2,3.5 7.3,3.5 C413.1999816894531,106.40000610351564 415.89998168945317,103.40000610351564 416.79998168945315,97.30000610351561 z" id="svg_6"/>
	<path class="st0" d="M431.89998168945317,113.0000061035156 V58.600006103515625 h8.5 v31.8 h0.1 l15.1,-16.9 h10.8 l-14.3,15.9 l15.8,23.6 h-9.6 l-12.5,-18.7 H445.6999816894531 l-5.3,5.8 v12.9 H431.89998168945317 z" id="svg_7"/>
	<path class="st0" d="M490.39998168945317,113.0000061035156 v-52.2 h32.5 v8.1 h-23.7 v13.4 h21.6 v7.8 h-21.6 v14.7 h23.7 v8.1 H490.39998168945317 z" id="svg_8"/>
	<path class="st0" d="M534.4999816894531,129.8000061035156 l7.5,-18.6 l-15.4,-37.7 h8.9 l10.4,27.2 h0.1 l10.4,-27.2 h8.8 L542.6999816894531,129.8000061035156 H534.4999816894531 z" id="svg_9"/>
	<path class="st0" d="M595.5999816894531,99.90000610351564 l6.1,5 c-3.8,6.2 -9.3,9.2 -16.4,9.2 c-5.5,0 -9.9,-1.9 -13.4,-5.7 c-3.5,-3.8 -5.2,-8.9 -5.2,-15.2 c0,-6.3 1.7000000000000002,-11.4 5.1,-15.2 c3.4,-3.8 7.8,-5.7 13,-5.7 c5.3,0 9.6,1.9 12.9,5.7 c3.4,3.8 5,8.8 5,15.2 v2.5 h-27.6 c0.1,3.3 1,5.9 2.7,7.9 c1.7000000000000002,2 4.1,2.9 7.1,2.9 c1.4,0 2.7,-0.2 3.9,-0.6000000000000001 c1.1,-0.4 2.1,-1 3,-1.8 c0.9,-0.8 1.5,-1.5 2,-2.1 C594.3999816894532,101.5000061035156 594.9999816894531,100.80000610351561 595.5999816894531,99.90000610351564 zM575.3999816894532,89.40000610351564 h19.2 c-0.1,-2.8 -1,-5.1 -2.7,-6.8 c-1.6,-1.8 -4,-2.6 -7,-2.6 c-2.8,0 -5.1,0.9 -6.8,2.8 C576.3999816894532,84.60000610351562 575.4999816894531,86.80000610351561 575.3999816894532,89.40000610351564 z" id="svg_10"/>
	<path class="st0" d="M289.3999816894531,178.20000610351565 v-52.2 h20.8 c5.3,0 9.6,1.5 12.9,4.4 c3.3,2.9 4.9,7 4.9,12.1 c0,5.1 -1.6,9.1 -4.8,12 c-3.2,2.9 -7.5,4.4 -13,4.4 h-12.1 v19.4 H289.3999816894531 zM298.1999816894531,150.70000610351565 h11.9 c2.6,0 4.7,-0.7000000000000001 6.4,-2.2 c1.7000000000000002,-1.5 2.5,-3.5 2.5,-6 c0,-2.9 -0.9,-5 -2.6,-6.3 c-1.7000000000000002,-1.3 -3.9,-2 -6.4,-2 h-11.8 V150.70000610351565 z" id="svg_11"/>
	<path class="st0" d="M332.79998168945315,178.20000610351565 v-39.5 h8 v4.2 h0.1 c0.8,-1.5 1.9,-2.7 3.4,-3.6 c1.5,-0.9 3.1,-1.3 4.8,-1.3 c1.1,0 2.3,0.2 3.5,0.7000000000000001 l-1.3,8.3 c-1.4,-0.4 -2.5,-0.6000000000000001 -3.1,-0.6000000000000001 c-4.6,0 -6.9,3.3 -6.9,9.8 v22 H332.79998168945315 z" id="svg_12"/>
	<path class="st0" d="M385.5999816894531,173.8000061035156 c-3.4,3.7 -7.8,5.5 -13.1,5.5 c-5.3,0 -9.7,-1.8 -13.2,-5.5 c-3.5,-3.7 -5.2,-8.8 -5.2,-15.4 c0,-6.5 1.8,-11.6 5.3,-15.3 c3.6,-3.7 7.9,-5.6 13,-5.6 c5.1,0 9.4,1.9 12.9,5.6 c3.5,3.7 5.3,8.8 5.3,15.3 C390.6999816894531,165.0000061035156 388.99998168945314,170.10000610351562 385.5999816894531,173.8000061035156 zM372.49998168945314,171.60000610351562 c2.9,0 5.3,-1.2 7.1,-3.5 c1.8,-2.3 2.7,-5.6 2.7,-9.7 s-0.9,-7.4 -2.7,-9.7 c-1.8,-2.3 -4.2,-3.5 -7.1,-3.5 c-3,0 -5.4,1.1 -7.2,3.4 c-1.8,2.3 -2.7,5.5 -2.7,9.8 c0,4.3 0.9,7.5 2.7,9.8 C367.1999816894531,170.5000061035156 369.5999816894531,171.60000610351562 372.49998168945314,171.60000610351562 z" id="svg_13"/>
	<path class="st0" d="M393.29998168945315,192.70000610351565 v-8.9 h1.6 c2,0 3,-1.2 3,-3.6 v-41.6 h8.5 v43.7 c0,6.9 -3.2,10.4 -9.5,10.4 H393.29998168945315 zM397.79998168945315,132.20000610351565 v-8.4 h8.8 v8.4 H397.79998168945315 z" id="svg_14"/>
	<path class="st0" d="M442.4999816894531,165.10000610351562 l6.1,5 c-3.8,6.2 -9.3,9.2 -16.4,9.2 c-5.5,0 -9.9,-1.9 -13.4,-5.7 c-3.5,-3.8 -5.2,-8.9 -5.2,-15.2 c0,-6.3 1.7000000000000002,-11.4 5.1,-15.2 c3.4,-3.8 7.8,-5.7 13,-5.7 c5.3,0 9.6,1.9 12.9,5.7 c3.4,3.8 5,8.8 5,15.2 v2.5 h-27.6 c0.1,3.3 1,5.9 2.7,7.9 c1.7000000000000002,2 4.1,2.9 7.1,2.9 c1.4,0 2.7,-0.2 3.9,-0.6000000000000001 c1.1,-0.4 2.1,-1 3,-1.8 c0.9,-0.8 1.5,-1.5 2,-2.1 C441.39998168945317,166.70000610351565 441.89998168945317,166.0000061035156 442.4999816894531,165.10000610351562 zM422.29998168945315,154.60000610351562 h19.2 c-0.1,-2.8 -1,-5.1 -2.7,-6.8 c-1.6,-1.8 -4,-2.6 -7,-2.6 c-2.8,0 -5.1,0.9 -6.8,2.8 C423.39998168945317,149.8000061035156 422.4999816894531,152.0000061035156 422.29998168945315,154.60000610351562 z" id="svg_15"/>
	<path class="st0" d="M480.89998168945317,162.5000061035156 l8.4,1.8 c-0.8,4.8 -2.6,8.5 -5.4,11.1 c-2.8,2.6 -6.6,4 -11.3,4 c-5.4,0 -9.8,-1.8 -13.2,-5.5 c-3.4,-3.7 -5.1,-8.8 -5.1,-15.4 c0,-6.3 1.7000000000000002,-11.4 5.2,-15.2 c3.5,-3.8 7.8,-5.7 13.1,-5.7 c4.5,0 8.2,1.4 11.2,4.1 c2.9,2.7 4.6,6.2 5.1,10.5 l-8,1.3 c-0.8,-5.5 -3.6,-8.3 -8.3,-8.3 c-3,0 -5.4,1.2 -7.2,3.5 c-1.8,2.3 -2.7,5.6 -2.7,9.7 s0.9,7.4 2.6,9.7 c1.7000000000000002,2.3 4.2,3.5 7.3,3.5 C477.29998168945315,171.60000610351562 479.9999816894531,168.60000610351562 480.89998168945317,162.5000061035156 z" id="svg_16"/>
	<path class="st0" d="M499.39998168945317,165.0000061035156 v-19 h-6 v-7.3 h6.2 v-9.7 h8 v9.7 h9.9 v7.3 h-9.8 v18.1 c0,2.2 0.30000000000000004,3.7 1,4.6 c0.7000000000000001,0.9 2,1.3 4.1,1.3 h3.1 v8.2 h-3.8 c-4.8,0 -8.1,-1.1 -10,-3.2 C500.29998168945315,172.90000610351564 499.39998168945317,169.60000610351562 499.39998168945317,165.0000061035156 z" id="svg_17"/>
</g></g></svg>