<svg xmlns="http://www.w3.org/2000/svg" viewBox="0 0 480.14 152.12">
  <title>Asset 1</title>
  <g id="Layer_2" data-name="Layer 2">
    <g id="Layer_1-2" data-name="Layer 1">
      <g>
        <path d="M131,152.12V0h62.54V20.11H153.74v44.4H188V84.23H153.74V132h40.43v20.11Zm150.07,0H220.36V0h60.35q13.53,0,13.54,13.94V53.17c0,3.58-.57,6.37-1.69,8.36a15.41,15.41,0,0,1-5.68,5.37l-9.36,5.78,10,6.17a15.51,15.51,0,0,1,5.77,5.58A17.38,17.38,0,0,1,295,93v45.2q0,13.94-13.94,13.93m-9.56-132.8H243.06v44.6h17.53l11-7.77Zm.6,70.08L261,82H243.06v50.77h29.08Zm54,62.72V0h62.54V20.11H348.88v44.4h34.26V84.23H348.88V132h40.43v20.11Zm94.22,0V0h22.7V131.81h37.05v20.31ZM50.84,19.31V0H83.33Q97.07,0,97.07,13.94V69.29q0,13.54-13.54,13.94H75.76l25.1,68.09v.8H77.15L52.06,81.33V67.57H74.37V19.31Z"/>
        <polygon points="8.76 152.12 8.76 44.8 0 44.8 0 41.81 11.75 0 31.07 0 31.07 152.12 8.76 152.12"/>
      </g>
    </g>
  </g>
</svg>
