<svg xmlns="http://www.w3.org/2000/svg" viewBox="0 0 465.61 136.72">
  <title>Asset 1</title>
  <g id="Layer_2" data-name="Layer 2">
    <g id="Layer_1-2" data-name="Layer 1">
      <path d="M36.2,87.79c.13,20.06,13,27.24,31.36,27.24C83,115,100,105.33,100,90.32,100,76,93.2,68.66,82,65.47v-.26c10.1-2.13,17.67-10,17.67-22.86,0-15.68-18.2-23.25-31.09-23.25C51.88,19.1,38.19,26.8,37.4,45H1.2C2,26.8,15.68,19.1,32.42,19.1c12.89,0,31.09,7.57,31.09,23.25,0,12.89-7.57,20.73-17.67,22.86v.26C57,68.66,63.78,76,63.78,90.32S46.77,115,31.36,115C13,115,.13,107.85,0,87.79Z" style="fill: #231f20"/>
      <g>
        <path d="M183.8,52.38h1.44a9.72,9.72,0,0,0,2.3-.27,5.31,5.31,0,0,0,1.91-.87,4.46,4.46,0,0,0,1.3-1.57,5.19,5.19,0,0,0,.48-2.32,4.42,4.42,0,0,0-1.33-3.43,5.36,5.36,0,0,0-3.74-1.21,5.84,5.84,0,0,0-3,.77,6.07,6.07,0,0,0-2.17,2.24l-2.44-1.23a8.24,8.24,0,0,1,3.16-3.27,8.94,8.94,0,0,1,4.43-1.07,9.79,9.79,0,0,1,3,.47A7.41,7.41,0,0,1,191.66,42a6.71,6.71,0,0,1,1.72,2.24,7.06,7.06,0,0,1,.64,3,6.27,6.27,0,0,1-.37,2.13,6.74,6.74,0,0,1-1,1.82,6.89,6.89,0,0,1-1.49,1.41,6.82,6.82,0,0,1-1.78.91l.12.08a5.85,5.85,0,0,1,2.13.87,6.48,6.48,0,0,1,1.66,1.56,7,7,0,0,1,1.08,2.09,8.16,8.16,0,0,1-.31,5.8,7.16,7.16,0,0,1-1.89,2.48A8.39,8.39,0,0,1,189.37,68a10.89,10.89,0,0,1-3.36.52,10.17,10.17,0,0,1-5.26-1.32,8,8,0,0,1-3.37-4.21l2.94-.89A5.8,5.8,0,0,0,182.39,65a6.74,6.74,0,0,0,3.85,1,6.31,6.31,0,0,0,2.21-.39,5.84,5.84,0,0,0,1.83-1.1,5.09,5.09,0,0,0,1.24-1.72A5.36,5.36,0,0,0,192,60.5a5.47,5.47,0,0,0-.58-2.61,4.94,4.94,0,0,0-1.55-1.72,6.49,6.49,0,0,0-2.23-1,11.66,11.66,0,0,0-2.61-.29h-1.2Z" style="fill: #231f20"/>
        <path d="M209.18,52.38h1.43a9.6,9.6,0,0,0,2.3-.27,5.28,5.28,0,0,0,1.92-.87,4.33,4.33,0,0,0,1.29-1.57,5.06,5.06,0,0,0,.49-2.32,4.43,4.43,0,0,0-1.34-3.43,5.33,5.33,0,0,0-3.73-1.21,5.9,5.9,0,0,0-3.06.77,6,6,0,0,0-2.16,2.24l-2.44-1.23A8.29,8.29,0,0,1,207,41.22a9,9,0,0,1,4.43-1.07,9.85,9.85,0,0,1,3.06.47A7.37,7.37,0,0,1,217,42a6.58,6.58,0,0,1,1.72,2.24,6.92,6.92,0,0,1,.64,3A6,6,0,0,1,219,49.4a6.71,6.71,0,0,1-1,1.82,7.12,7.12,0,0,1-1.49,1.41,7,7,0,0,1-1.78.91l.12.08a5.73,5.73,0,0,1,2.12.87,6.52,6.52,0,0,1,1.67,1.56,7.53,7.53,0,0,1,1.08,2.09,7.61,7.61,0,0,1,.39,2.44,7.82,7.82,0,0,1-.7,3.36,7.28,7.28,0,0,1-1.89,2.48A8.39,8.39,0,0,1,214.75,68a11,11,0,0,1-3.37.52,10.2,10.2,0,0,1-5.26-1.32,8,8,0,0,1-3.36-4.21l2.94-.89A5.68,5.68,0,0,0,207.77,65a6.72,6.72,0,0,0,3.85,1,6.21,6.21,0,0,0,2.2-.39,5.78,5.78,0,0,0,1.84-1.1,5.09,5.09,0,0,0,1.24-1.72,5.52,5.52,0,0,0,.44-2.21,5.36,5.36,0,0,0-.58-2.61,4.85,4.85,0,0,0-1.55-1.72,6.35,6.35,0,0,0-2.22-1,11.8,11.8,0,0,0-2.61-.29h-1.2Z" style="fill: #231f20"/>
        <path d="M247.79,68H245V40.62h2.79Z" style="fill: #231f20"/>
        <path d="M278.89,63.83H279V40.62h2.79V68h-3.48L261.94,44.56h-.07V68h-2.79V40.62h3.48Z" style="fill: #231f20"/>
        <path d="M301.83,68H299V43.17h-9.17V40.62H311v2.55h-9.16Z" style="fill: #231f20"/>
        <path d="M321.9,65.45h14.66V68H319.12V40.62h17v2.55H321.9v9.32h13.27v2.56H321.9Z" style="fill: #231f20"/>
        <path d="M348.71,68h-2.79V40.62h8.44A10.68,10.68,0,0,1,361,42.44a6.43,6.43,0,0,1,2.42,5.49,6.82,6.82,0,0,1-1.8,4.81,7.71,7.71,0,0,1-5.2,2.27l7.89,13h-3.4l-7.51-12.72h-4.64Zm0-15.27h5a11,11,0,0,0,3.15-.39,5.72,5.72,0,0,0,2.07-1A3.65,3.65,0,0,0,360,49.8a4.82,4.82,0,0,0,.35-1.87,4.75,4.75,0,0,0-.35-1.84,3.84,3.84,0,0,0-1.12-1.53,5.28,5.28,0,0,0-2.07-1,11.44,11.44,0,0,0-3.15-.37h-5Z" style="fill: #231f20"/>
        <path d="M375.52,68h-2.79V40.62h2.79Z" style="fill: #231f20"/>
        <path d="M413.5,54.31a15.08,15.08,0,0,1-1.08,5.77,13.62,13.62,0,0,1-7.53,7.54,15.4,15.4,0,0,1-11.33,0A13.56,13.56,0,0,1,386,60.08a15.79,15.79,0,0,1,0-11.53A13.79,13.79,0,0,1,389,44a14.1,14.1,0,0,1,4.53-3,15.4,15.4,0,0,1,11.33,0,14.1,14.1,0,0,1,4.53,3,13.67,13.67,0,0,1,3,4.55A15,15,0,0,1,413.5,54.31Zm-3,0a13.16,13.16,0,0,0-.77-4.51A11.67,11.67,0,0,0,407.49,46,10.89,10.89,0,0,0,404,43.44a12,12,0,0,0-9.44,0A10.78,10.78,0,0,0,391,46a11.52,11.52,0,0,0-2.23,3.77,13.59,13.59,0,0,0,0,9A11.41,11.41,0,0,0,391,62.59a10.64,10.64,0,0,0,3.54,2.59,12,12,0,0,0,9.44,0,10.74,10.74,0,0,0,3.54-2.59,11.56,11.56,0,0,0,2.22-3.77A13.11,13.11,0,0,0,410.48,54.31Z" style="fill: #231f20"/>
        <path d="M425.73,68h-2.79V40.62h8.43a10.69,10.69,0,0,1,6.6,1.82,6.43,6.43,0,0,1,2.42,5.49,6.82,6.82,0,0,1-1.8,4.81A7.73,7.73,0,0,1,433.38,55l7.89,13h-3.4l-7.5-12.72h-4.64Zm0-15.27h4.95a11.05,11.05,0,0,0,3.15-.39,5.89,5.89,0,0,0,2.07-1A3.74,3.74,0,0,0,437,49.8a5,5,0,0,0,.35-1.87,4.94,4.94,0,0,0-.35-1.84,3.94,3.94,0,0,0-1.12-1.53,5.42,5.42,0,0,0-2.07-1,11.49,11.49,0,0,0-3.15-.37h-4.95Z" style="fill: #231f20"/>
        <path d="M462.7,45.14a6,6,0,0,0-5.29-2.67,8,8,0,0,0-2.13.29,6,6,0,0,0-1.88.89,4.45,4.45,0,0,0-1.33,1.55,4.62,4.62,0,0,0-.51,2.23,3.86,3.86,0,0,0,1.05,2.88A8.4,8.4,0,0,0,455.2,52a28.49,28.49,0,0,0,3.39,1.18A15.67,15.67,0,0,1,462,54.56a8.05,8.05,0,0,1,2.59,2.3,6.5,6.5,0,0,1,1.05,3.91,7,7,0,0,1-.8,3.35,7.64,7.64,0,0,1-2.09,2.49,9.75,9.75,0,0,1-2.9,1.55,10,10,0,0,1-3.23.54,12.27,12.27,0,0,1-4.77-1A9.05,9.05,0,0,1,448,64.64l2.55-1.82A6.67,6.67,0,0,0,453,65.24a7.32,7.32,0,0,0,3.74.91,6.84,6.84,0,0,0,2.08-.33,5.84,5.84,0,0,0,1.87-1,5.41,5.41,0,0,0,1.37-1.56,4.16,4.16,0,0,0,.54-2.13,4.35,4.35,0,0,0-.6-2.38,5.24,5.24,0,0,0-1.59-1.59,9.88,9.88,0,0,0-2.24-1.06c-.84-.28-1.7-.57-2.59-.85a26.59,26.59,0,0,1-2.59-1,9.09,9.09,0,0,1-2.25-1.37,6.28,6.28,0,0,1-1.58-2.09,7.31,7.31,0,0,1-.6-3.15,7.5,7.5,0,0,1,.75-3.45,7,7,0,0,1,2-2.43,8.31,8.31,0,0,1,2.85-1.43,12,12,0,0,1,7.46.27,9,9,0,0,1,3.52,2.59Z" style="fill: #231f20"/>
        <path d="M179.52,97.46h7.09v1.41H178V83.66h1.55Z" style="fill: #231f20"/>
        <path d="M213.42,91.27a8.33,8.33,0,0,1-.6,3.2,7.63,7.63,0,0,1-4.18,4.19,8.57,8.57,0,0,1-6.3,0A7.71,7.71,0,0,1,199.83,97a7.53,7.53,0,0,1-1.66-2.52,8.7,8.7,0,0,1,0-6.4,7.57,7.57,0,0,1,1.66-2.53,7.85,7.85,0,0,1,2.51-1.66,8.57,8.57,0,0,1,6.3,0,7.85,7.85,0,0,1,2.51,1.66,7.75,7.75,0,0,1,1.67,2.53A8.33,8.33,0,0,1,213.42,91.27Zm-1.68,0a7.22,7.22,0,0,0-.43-2.5,6.46,6.46,0,0,0-1.23-2.1,6.08,6.08,0,0,0-2-1.44,6.74,6.74,0,0,0-5.24,0,6.08,6.08,0,0,0-2,1.44,6.46,6.46,0,0,0-1.23,2.1,7.48,7.48,0,0,0,0,5,6.57,6.57,0,0,0,1.23,2.1,5.92,5.92,0,0,0,2,1.43,6.63,6.63,0,0,0,5.24,0,5.92,5.92,0,0,0,2-1.43,6.57,6.57,0,0,0,1.23-2.1A7.22,7.22,0,0,0,211.74,91.27Z" style="fill: #231f20"/>
        <path d="M237.39,96.55h0V83.66H239V98.87h-1.93l-9.07-13h0v13h-1.55V83.66h1.93Z" style="fill: #231f20"/>
        <path d="M252.77,83.66h5a8.87,8.87,0,0,1,2.84.48,7.79,7.79,0,0,1,2.58,1.43A7.1,7.1,0,0,1,265.1,88a8.14,8.14,0,0,1,0,6.65A7.26,7.26,0,0,1,263.24,97a7.79,7.79,0,0,1-2.58,1.43,8.85,8.85,0,0,1-2.84.47h-5Zm1.55,13.8h3a7.91,7.91,0,0,0,3-.53,6.32,6.32,0,0,0,2.13-1.4,5.64,5.64,0,0,0,1.25-2,6.6,6.6,0,0,0,0-4.58,5.59,5.59,0,0,0-1.25-2,6.45,6.45,0,0,0-2.13-1.39,7.91,7.91,0,0,0-3-.53h-3Z" style="fill: #231f20"/>
        <path d="M293.6,91.27a8.33,8.33,0,0,1-.6,3.2,7.54,7.54,0,0,1-4.18,4.19,8.54,8.54,0,0,1-6.29,0,7.63,7.63,0,0,1-4.18-4.19,8.83,8.83,0,0,1,0-6.4,7.54,7.54,0,0,1,4.18-4.19,8.54,8.54,0,0,1,6.29,0A7.46,7.46,0,0,1,293,88.07,8.33,8.33,0,0,1,293.6,91.27Zm-1.67,0a7.46,7.46,0,0,0-.43-2.5,6.31,6.31,0,0,0-1.24-2.1,6,6,0,0,0-2-1.44,6.32,6.32,0,0,0-2.62-.53,6.25,6.25,0,0,0-2.62.53,6,6,0,0,0-2,1.44,6.13,6.13,0,0,0-1.23,2.1,7.48,7.48,0,0,0,0,5,6.22,6.22,0,0,0,1.23,2.1,5.82,5.82,0,0,0,2,1.43,6.1,6.1,0,0,0,2.62.54,6.17,6.17,0,0,0,2.62-.54,5.88,5.88,0,0,0,2-1.43,6.41,6.41,0,0,0,1.24-2.1A7.46,7.46,0,0,0,291.93,91.27Z" style="fill: #231f20"/>
        <path d="M317.57,96.55h.05V83.66h1.54V98.87h-1.93l-9.06-13h-.05v13h-1.54V83.66h1.93Z" style="fill: #231f20"/>
      </g>
      <rect x="136.55" width="2" height="136.72" style="fill: #231f20"/>
    </g>
  </g>
</svg>
