<svg xmlns="http://www.w3.org/2000/svg" viewBox="0 0 304.21 50">
  <title>Asset 1</title>
  <g id="Layer_2" data-name="Layer 2">
    <g id="Layer_1-2" data-name="Layer 1">
      <path d="M222.21,44l6-44h12L234.1,44Z" style="fill: #1d252c"/>
      <path d="M286.21,44l4,6h-12l-4-6H250.52a8,8,0,0,1-6.44-3.14,8.46,8.46,0,0,1-1.79-7.1L246,10.08A11.48,11.48,0,0,1,250,3a11.31,11.31,0,0,1,7.57-3h38.07a8.12,8.12,0,0,1,6.65,2.9,8.55,8.55,0,0,1,1.78,7.18L298.21,44Zm5.34-34.4c.17-1.07-.28-1.6-1.34-1.6H259.76a1.73,1.73,0,0,0-1.92,1.6L254.9,34.26c-.18,1.16.28,1.74,1.4,1.74h30.45a1.76,1.76,0,0,0,1.86-1.74Z" style="fill: #1d252c"/>
      <path d="M121.48,44h-10l5.46-33.92a12,12,0,0,1,3.95-7.18A11.37,11.37,0,0,1,128.51,0h40.36l-1.32,8.49H131a1.73,1.73,0,0,0-1.92,1.59l-4.62,24.18c-.18,1.16.28,1.74,1.39,1.74h38.36l-2,8Z" style="fill: #1d252c"/>
      <path d="M13.82,44H0L5.47,10.08a11.87,11.87,0,0,1,4-7.18A11.33,11.33,0,0,1,17.05,0H57.4L56.08,8.49H19.53a1.71,1.71,0,0,0-1.91,1.59L14.45,34.26c-.18,1.16.29,1.74,1.4,1.74H52.21l-2,8Z" style="fill: #1d252c"/>
      <path d="M95.72,28.36,100.12,0h12.32l-5.26,33.76a11.56,11.56,0,0,1-4.08,7.1A12,12,0,0,1,95.32,44H56.21l2-8h31L62.39,0h8.53a6.85,6.85,0,0,1,5.73,2.89Z" style="fill: #1d252c"/>
      <path d="M182.31,44H168.49l7.72-44h12l-6,34.26c-.18,1.16.29,1.74,1.4,1.74h24.57c8.81,0,8,8,8,8Z" style="fill: #1d252c"/>
      <path d="M270.21,32l-4-8h12l4,8Z" style="fill: #ff4438"/>
    </g>
  </g>
</svg>
