<svg xmlns="http://www.w3.org/2000/svg" xmlns:xlink="http://www.w3.org/1999/xlink" viewBox="0 0 118.57 28.02">
  <defs>
    <linearGradient id="linear-gradient" x1="125.93" y1="1347.22" x2="125.93" y2="1333.62" gradientTransform="translate(-413.88 -1234.79) rotate(-16.87)" gradientUnits="userSpaceOnUse">
      <stop offset="0" stop-color="#1d71b8"/>
      <stop offset="1" stop-color="#e6007e"/>
    </linearGradient>
    <linearGradient id="linear-gradient-2" x1="131.78" y1="1337.79" x2="145.53" y2="1337.79" xlink:href="#linear-gradient"/>
    <linearGradient id="linear-gradient-3" x1="135.28" y1="1353.24" x2="121.5" y2="1353.24" xlink:href="#linear-gradient"/>
    <linearGradient id="linear-gradient-4" x1="141.38" y1="1343.91" x2="141.38" y2="1357.32" xlink:href="#linear-gradient"/>
    <linearGradient id="linear-gradient-5" x1="9401.8" y1="3820.63" x2="9392.81" y2="3820.63" gradientTransform="matrix(-0.97, -0.23, -0.23, 0.97, 10125.39, -1579.46)" gradientUnits="userSpaceOnUse">
      <stop offset="0" stop-color="#2fac66"/>
      <stop offset="1" stop-color="#36a9e1"/>
    </linearGradient>
    <linearGradient id="linear-gradient-6" x1="9404.12" y1="3832.67" x2="9404.12" y2="3823.38" xlink:href="#linear-gradient-5"/>
    <linearGradient id="linear-gradient-7" x1="9391.83" y1="3834.69" x2="9401.13" y2="3834.69" xlink:href="#linear-gradient-5"/>
    <linearGradient id="linear-gradient-8" x1="9390.05" y1="3822.7" x2="9390.05" y2="3831.91" xlink:href="#linear-gradient-5"/>
  </defs>
  <title>Asset 1</title>
  <g id="Layer_2" data-name="Layer 2">
    <g id="Layer_1-2" data-name="Layer 1">
      <g>
        <path d="M8.92,19.47A3,3,0,0,0,7.81,17.6a3.37,3.37,0,0,0-2.2-.75,3.29,3.29,0,0,0-2.15.73,3.52,3.52,0,0,0-1.2,1.89ZM.71,17.7a5.34,5.34,0,0,1,2-2,5.51,5.51,0,0,1,2.89-.77,5.55,5.55,0,0,1,2.23.45,5.2,5.2,0,0,1,1.77,1.21,5.56,5.56,0,0,1,1.16,1.76,5.49,5.49,0,0,1,.42,2.12c0,.2,0,.44-.05.73H2.18a3.43,3.43,0,0,0,1.2,2.07A3.54,3.54,0,0,0,5.72,24a4.08,4.08,0,0,0,1.73-.38,3.43,3.43,0,0,0,1.33-1.07l1.57,1.17a5.34,5.34,0,0,1-2,1.64A5.9,5.9,0,0,1,5.72,26a5.61,5.61,0,0,1-4-1.6A5.26,5.26,0,0,1,0,20.45,5.55,5.55,0,0,1,.71,17.7" style="fill: #3b2b49"/>
        <path d="M12,15.08h1.72v-3.6H15.9v3.6h3v2h-3v4.77a2.43,2.43,0,0,0,.3,1.38,1.37,1.37,0,0,0,1.15.41h1.59v2h-2.1a4.24,4.24,0,0,1-1.36-.2,2.68,2.68,0,0,1-.92-.52,2.33,2.33,0,0,1-.55-.8,3.87,3.87,0,0,1-.28-1,8.77,8.77,0,0,1-.06-1.08v-5H12Z" style="fill: #3b2b49"/>
        <path d="M42.07,9.06H44.3V21.89a2.43,2.43,0,0,0,.3,1.38,1.38,1.38,0,0,0,1.15.41h1v2H45.24a4.28,4.28,0,0,1-1.36-.2A2.78,2.78,0,0,1,43,25a2.33,2.33,0,0,1-.55-.8,3.46,3.46,0,0,1-.27-1,7.08,7.08,0,0,1-.07-1.08Z" style="fill: #3b2b49"/>
        <path d="M21,15.08h2.22V25.7H21Zm.11-4.46a1.37,1.37,0,0,1,1-.4,1.36,1.36,0,0,1,1,.4,1.34,1.34,0,0,1,.4,1,1.43,1.43,0,0,1-2.42,1,1.34,1.34,0,0,1-.41-1,1.31,1.31,0,0,1,.41-1" style="fill: #3b2b49"/>
        <path d="M25.81,14.1a8.56,8.56,0,0,1,1.87-2.72A8.76,8.76,0,0,1,30.5,9.57,9.11,9.11,0,0,1,34,8.9a9,9,0,0,1,3.49.67,8.44,8.44,0,0,1,2.87,1.91l-1.67,1.44a6.53,6.53,0,0,0-2.12-1.44A6.39,6.39,0,0,0,34,11a6.5,6.5,0,0,0-2.57.53,6.65,6.65,0,0,0-2.1,1.42A6.91,6.91,0,0,0,28,15a6.23,6.23,0,0,0-.51,2.46A6.14,6.14,0,0,0,28,19.94,6.72,6.72,0,0,0,29.39,22a6.81,6.81,0,0,0,2.08,1.38,6.16,6.16,0,0,0,2.5.52,6.27,6.27,0,0,0,2.49-.51A7,7,0,0,0,38.57,22l1.53,1.5A8.64,8.64,0,0,1,34,26a8.93,8.93,0,0,1-4.41-1.12,8.54,8.54,0,0,1-3.24-3.1,8.42,8.42,0,0,1-.51-7.67" style="fill: #3b2b49"/>
        <path d="M51,22.94a3.46,3.46,0,0,0,2.53,1,3.57,3.57,0,0,0,3.56-3.55A3.35,3.35,0,0,0,56,18,3.59,3.59,0,0,0,51,18a3.46,3.46,0,0,0-1,2.5,3.36,3.36,0,0,0,1,2.47m-2.45-5.27a5.53,5.53,0,0,1,2.07-2,5.74,5.74,0,0,1,2.89-.75,5.89,5.89,0,0,1,2.89.74,5.61,5.61,0,0,1,2.1,2,5.3,5.3,0,0,1,.78,2.79,5.2,5.2,0,0,1-.78,2.77,5.61,5.61,0,0,1-2.1,2,5.89,5.89,0,0,1-2.89.74,5.71,5.71,0,0,1-2.87-.74,5.6,5.6,0,0,1-2.08-2,5.23,5.23,0,0,1-.77-2.78,5.31,5.31,0,0,1,.76-2.78" style="fill: #3b2b49"/>
        <path d="M60.86,15.08H63.1v5.7a6.57,6.57,0,0,0,.11,1.35,2.74,2.74,0,0,0,.4,1,1.78,1.78,0,0,0,.84.65,4.47,4.47,0,0,0,2.77,0,1.71,1.71,0,0,0,.85-.65,2.59,2.59,0,0,0,.41-1,6.5,6.5,0,0,0,.12-1.35v-5.7h2.2v6.31c0,3.07-1.66,4.6-5,4.6s-5-1.53-5-4.6Z" style="fill: #3b2b49"/>
        <path d="M75.65,23a3.75,3.75,0,0,0,5.14,0,3.5,3.5,0,0,0,0-5,3.72,3.72,0,0,0-5.13,0,3.57,3.57,0,0,0,0,5m-2.75-4.7a5.45,5.45,0,0,1,1.23-1.78A5.6,5.6,0,0,1,76,15.32a5.88,5.88,0,0,1,2.24-.43,4.69,4.69,0,0,1,3.66,1.56V9.16h2.2V20.3A5.7,5.7,0,0,1,78.21,26,5.9,5.9,0,0,1,76,25.56a5.46,5.46,0,0,1-3.06-2.93,5.42,5.42,0,0,1-.45-2.18,5.28,5.28,0,0,1,.46-2.19" style="fill: #3b2b49"/>
      </g>
      <g>
        <path d="M97.49,4.05,91.75,5.78a1.69,1.69,0,0,0-1.13,2.1L94,19Z" style="fill: url(#linear-gradient)"/>
        <path d="M114.52,6.94,112.79,1.2a1.69,1.69,0,0,0-2.1-1.13L99.56,3.43Z" style="fill: url(#linear-gradient-2)"/>
        <path d="M94.6,21.08l1.73,5.74A1.69,1.69,0,0,0,98.43,28l11.12-3.35Z" style="fill: url(#linear-gradient-3)"/>
        <path d="M111.63,24l5.74-1.73a1.69,1.69,0,0,0,1.13-2.1L115.14,9Z" style="fill: url(#linear-gradient-4)"/>
        <path d="M101.32,7.66l1.92-2a1.46,1.46,0,0,1,2.06-.07l4.33,4Z" style="fill: url(#linear-gradient-5)"/>
        <path d="M98.21,17.25l-2-1.92a1.46,1.46,0,0,1-.07-2.06l4-4.33Z" style="fill: url(#linear-gradient-6)"/>
        <path d="M107.8,20.36l-1.92,2.05a1.46,1.46,0,0,1-2.06.07l-4.33-4Z" style="fill: url(#linear-gradient-7)"/>
        <path d="M110.91,10.77l2,1.92a1.46,1.46,0,0,1,.07,2.06l-4,4.33Z" style="fill: url(#linear-gradient-8)"/>
      </g>
    </g>
  </g>
</svg>
