<svg xmlns="http://www.w3.org/2000/svg" viewBox="0 0 436.97 123.42">
  <title>Asset 1</title>
  <g id="Layer_2" data-name="Layer 2">
    <g id="Layer_1-2" data-name="Layer 1">
      <rect width="436.97" height="123.42" style="fill: #002d6a"/>
      <g>
        <path d="M35.52,43.5h38v8.75H46.69v6.8H72.28v8.44H46.69V79.92H35.52Z" style="fill: #fdbe57"/>
        <path d="M78.37,43.5H89.54V79.92H78.37Z" style="fill: #fdbe57"/>
        <path d="M94.16,43.5h17.31l21,26.46h.1V43.5H143.7V79.92H126.4l-21-26.46h-.1V79.92H94.16Z" style="fill: #fdbe57"/>
        <path d="M148.74,43.5H166L187,70h.1V43.5h11.16V79.92H181L160,53.46h-.1V79.92H148.74Z" style="fill: #fdbe57"/>
        <path d="M203.31,43.5h39.83V52H214.47v5.84h27.16v7.54H214.47v5.84h29.32v8.75H203.31Z" style="fill: #fdbe57"/>
        <path d="M247.21,56.28c0-10.66,6-13.18,16-13.18h16.8c12.67,0,14.43,4.58,14.43,11.67v1.16h-11c0-3.62-2.07-4.08-5.64-4.08H265.77c-5.63,0-7.09,1.36-7.09,7.6V64c0,6.24,1.46,7.6,7.09,7.6h11.92c2.92,0,5.84-.46,5.84-4v-1H269.65V59h25V69.35c0,10.47-5.43,11-18,11H263.26c-10.06,0-16-2.52-16-13.18Z" style="fill: #fdbe57"/>
        <path d="M315.06,43.5H329.6l20,36.42H337.19l-3.47-6.44H311.09l-3.27,6.44H295.35Zm.2,22.13h14.29L322.3,52Z" style="fill: #fdbe57"/>
        <path d="M352.08,43.5h17.3l21,26.46h.1V43.5h11.17V79.92h-17.3l-21-26.46h-.1V79.92H352.08Z" style="fill: #fdbe57"/>
      </g>
    </g>
  </g>
</svg>
