<svg xmlns="http://www.w3.org/2000/svg" xmlns:xlink="http://www.w3.org/1999/xlink" viewBox="0 0 683.99 307.76">
  <defs>
    <clipPath id="clip-path">
      <path d="M532.75,38.9a427.86,427.86,0,0,1,49.12,17.28A293,293,0,0,1,623,77.42a181.78,181.78,0,0,1,31.93,25.09,109,109,0,0,1,21.25,29.21,74.28,74.28,0,0,1,0,66.43,109.07,109.07,0,0,1-21.25,29.22A181.74,181.74,0,0,1,623,252.45a292,292,0,0,1-41.11,21.24,456.87,456.87,0,0,1-49,17.26c-21.42,6.33-23.26-7.39-21.32-15.93.74-3.22,2.1-6.67,3-10.3a18.89,18.89,0,0,0,.46-9.45c-.69-2.73-4.78-4.64-13.21-4.51A83.18,83.18,0,0,0,483,253.52c-39.51,11.25-39.8,11.54-68.93,22.5-54.48,20.49-79.27,29.15-131.34,30.52-46.68,1.22-100.17-10.42-118-15.56a428.7,428.7,0,0,1-49.13-17.29,292.36,292.36,0,0,1-41.1-21.24,181.37,181.37,0,0,1-31.93-25.08,109.07,109.07,0,0,1-21.25-29.22,74.28,74.28,0,0,1,0-66.43,109,109,0,0,1,21.25-29.21A181.41,181.41,0,0,1,74.5,77.42a293.42,293.42,0,0,1,41.1-21.24A428.72,428.72,0,0,1,164.73,38.9a565,565,0,0,1,56-13c19.66-3.54,40.31-6.3,61.74-8.17s43.54-2.84,66.26-2.84,44.88,1,66.26,2.84,42.08,4.63,61.74,8.17A565,565,0,0,1,532.75,38.9Z" style="fill: none"/>
    </clipPath>
  </defs>
  <title>Asset 1</title>
  <g id="Layer_2" data-name="Layer 2">
    <g id="Layer_1-2" data-name="Layer 1">
      <g style="clip-path: url(#clip-path)">
        <polygon points="13.49 135.88 76.05 307.76 13.49 307.76 13.49 135.88" style="fill: #d1c6ae"/>
        <polygon points="13.49 134.07 76.71 307.76 76.05 307.76 13.49 135.88 13.49 134.07" style="fill: #d1c6ae"/>
        <polygon points="13.49 132.25 77.37 307.76 76.71 307.76 13.49 134.07 13.49 132.25" style="fill: #d0c5ac"/>
        <polygon points="13.49 130.45 78.02 307.76 77.37 307.76 13.49 132.25 13.49 130.45" style="fill: #cfc4ab"/>
        <polygon points="13.49 128.64 78.68 307.76 78.02 307.76 13.49 130.45 13.49 128.64" style="fill: #cec3a9"/>
        <polygon points="13.49 126.83 79.34 307.76 78.68 307.76 13.49 128.64 13.49 126.83" style="fill: #cec2a8"/>
        <polygon points="13.49 125.02 80 307.76 79.34 307.76 13.49 126.83 13.49 125.02" style="fill: #cdc1a6"/>
        <polygon points="13.49 123.21 80.66 307.76 80 307.76 13.49 125.02 13.49 123.21" style="fill: #ccc0a5"/>
        <polygon points="13.49 121.4 81.31 307.76 80.66 307.76 13.49 123.21 13.49 121.4" style="fill: #cbbfa3"/>
        <polygon points="13.49 119.59 81.97 307.76 81.31 307.76 13.49 121.4 13.49 119.59" style="fill: #cabea2"/>
        <polygon points="13.49 117.78 82.63 307.76 81.97 307.76 13.49 119.59 13.49 117.78" style="fill: #cabda1"/>
        <polygon points="13.49 115.97 83.29 307.76 82.63 307.76 13.49 117.78 13.49 115.97" style="fill: #c9bd9f"/>
        <polygon points="13.49 114.16 83.95 307.76 83.29 307.76 13.49 115.97 13.49 114.16" style="fill: #c8bc9e"/>
        <polygon points="13.49 112.35 84.61 307.76 83.95 307.76 13.49 114.16 13.49 112.35" style="fill: #c7bb9d"/>
        <polygon points="13.49 110.54 85.27 307.76 84.61 307.76 13.49 112.35 13.49 110.54" style="fill: #c6ba9b"/>
        <polygon points="13.49 108.74 85.92 307.76 85.27 307.76 13.49 110.54 13.49 108.74" style="fill: #c6b99a"/>
        <polygon points="13.49 106.92 86.58 307.76 85.92 307.76 13.49 108.74 13.49 106.92" style="fill: #c5b899"/>
        <polygon points="13.49 105.11 87.25 307.76 86.58 307.76 13.49 106.92 13.49 105.11" style="fill: #c4b797"/>
        <polygon points="13.49 103.31 87.9 307.76 87.25 307.76 13.49 105.11 13.49 103.31" style="fill: #c3b696"/>
        <polygon points="13.49 101.5 88.56 307.76 87.9 307.76 13.49 103.31 13.49 101.5" style="fill: #c3b595"/>
        <polygon points="13.49 99.69 89.22 307.76 88.56 307.76 13.49 101.5 13.49 99.69" style="fill: #c2b594"/>
        <polygon points="13.49 97.88 89.88 307.76 89.22 307.76 13.49 99.69 13.49 97.88" style="fill: #c1b492"/>
        <polygon points="13.49 96.07 90.54 307.76 89.88 307.76 13.49 97.88 13.49 96.07" style="fill: #c1b391"/>
        <polygon points="13.49 94.26 91.19 307.76 90.54 307.76 13.49 96.07 13.49 94.26" style="fill: #c0b290"/>
        <polygon points="13.49 92.45 91.85 307.76 91.19 307.76 13.49 94.26 13.49 92.45" style="fill: #bfb18f"/>
        <polygon points="13.49 90.64 92.51 307.76 91.85 307.76 13.49 92.45 13.49 90.64" style="fill: #beb08e"/>
        <polygon points="13.49 90.29 13.96 90.12 93.17 307.76 92.51 307.76 13.49 90.64 13.49 90.29" style="fill: #beb08c"/>
        <polygon points="13.96 90.12 14.53 89.91 93.83 307.76 93.17 307.76 13.96 90.12" style="fill: #bdaf8b"/>
        <polygon points="14.53 89.91 15.12 89.7 94.49 307.76 93.83 307.76 14.53 89.91" style="fill: #bcae8a"/>
        <polygon points="15.12 89.7 15.7 89.48 95.15 307.76 94.49 307.76 15.12 89.7" style="fill: #bcad89"/>
        <polygon points="15.7 89.48 16.28 89.27 95.8 307.76 95.15 307.76 15.7 89.48" style="fill: #bbad88"/>
        <polygon points="16.28 89.27 16.86 89.06 96.46 307.76 95.8 307.76 16.28 89.27" style="fill: #bbac87"/>
        <polygon points="16.86 89.06 17.44 88.85 97.12 307.76 96.46 307.76 16.86 89.06" style="fill: #baab86"/>
        <polygon points="17.44 88.85 18.03 88.64 97.78 307.76 97.12 307.76 17.44 88.85" style="fill: #b9aa85"/>
        <polygon points="18.03 88.64 18.6 88.42 98.44 307.76 97.78 307.76 18.03 88.64" style="fill: #b9aa84"/>
        <polygon points="18.6 88.42 19.19 88.21 99.1 307.76 98.44 307.76 18.6 88.42" style="fill: #b8a983"/>
        <polygon points="19.19 88.21 19.77 88 99.76 307.76 99.1 307.76 19.19 88.21" style="fill: #b7a882"/>
        <polygon points="19.77 88 20.35 87.79 100.42 307.76 99.76 307.76 19.77 88" style="fill: #b7a781"/>
        <polygon points="20.35 87.79 20.93 87.58 101.07 307.76 100.42 307.76 20.35 87.79" style="fill: #b6a780"/>
        <polygon points="20.93 87.58 21.51 87.37 101.73 307.76 101.07 307.76 20.93 87.58" style="fill: #b6a67f"/>
        <polygon points="21.51 87.37 22.1 87.15 102.39 307.76 101.73 307.76 21.51 87.37" style="fill: #b5a57e"/>
        <polygon points="22.1 87.15 22.68 86.94 103.05 307.76 102.39 307.76 22.1 87.15" style="fill: #b4a57d"/>
        <polygon points="22.68 86.94 23.26 86.73 103.71 307.76 103.05 307.76 22.68 86.94" style="fill: #b4a47c"/>
        <polygon points="23.26 86.73 23.84 86.52 104.37 307.76 103.71 307.76 23.26 86.73" style="fill: #b3a37b"/>
        <polygon points="23.84 86.52 24.42 86.31 105.03 307.76 104.37 307.76 23.84 86.52" style="fill: #b3a37a"/>
        <polygon points="24.42 86.31 25 86.09 105.68 307.76 105.03 307.76 24.42 86.31" style="fill: #b2a279"/>
        <polygon points="25 86.09 25.58 85.88 106.34 307.76 105.68 307.76 25 86.09" style="fill: #b2a178"/>
        <polygon points="25.58 85.88 26.17 85.67 107 307.76 106.34 307.76 25.58 85.88" style="fill: #b1a177"/>
        <polygon points="26.17 85.67 26.75 85.46 107.66 307.76 107 307.76 26.17 85.67" style="fill: #b0a076"/>
        <polygon points="26.75 85.46 27.33 85.25 108.32 307.76 107.66 307.76 26.75 85.46" style="fill: #b0a076"/>
        <polygon points="27.33 85.25 27.91 85.04 108.97 307.76 108.32 307.76 27.33 85.25" style="fill: #af9f75"/>
        <polygon points="27.91 85.04 28.49 84.83 109.64 307.76 108.97 307.76 27.91 85.04" style="fill: #af9f74"/>
        <polygon points="28.49 84.83 29.07 84.61 110.29 307.76 109.64 307.76 28.49 84.83" style="fill: #ae9e73"/>
        <polygon points="29.07 84.61 29.66 84.4 110.95 307.76 110.29 307.76 29.07 84.61" style="fill: #ae9d72"/>
        <polygon points="29.66 84.4 30.24 84.19 111.61 307.76 110.95 307.76 29.66 84.4" style="fill: #ad9d72"/>
        <polygon points="30.24 84.19 30.82 83.98 112.27 307.76 111.61 307.76 30.24 84.19" style="fill: #ad9c71"/>
        <polygon points="30.82 83.98 31.4 83.77 112.93 307.76 112.27 307.76 30.82 83.98" style="fill: #ad9c70"/>
        <polygon points="31.4 83.77 31.98 83.56 113.59 307.76 112.93 307.76 31.4 83.77" style="fill: #ac9b6f"/>
        <polygon points="31.98 83.56 32.56 83.34 114.25 307.76 113.59 307.76 31.98 83.56" style="fill: #ac9b6f"/>
        <polygon points="32.56 83.34 33.14 83.13 114.91 307.76 114.25 307.76 32.56 83.34" style="fill: #ab9a6e"/>
        <polygon points="33.14 83.13 33.73 82.92 115.56 307.76 114.91 307.76 33.14 83.13" style="fill: #ab9a6d"/>
        <polygon points="33.73 82.92 34.31 82.71 116.22 307.76 115.56 307.76 33.73 82.92" style="fill: #aa996d"/>
        <polygon points="34.31 82.71 34.89 82.5 116.88 307.76 116.22 307.76 34.31 82.71" style="fill: #aa996c"/>
        <polygon points="34.89 82.5 35.47 82.29 117.54 307.76 116.88 307.76 34.89 82.5" style="fill: #a9986b"/>
        <polygon points="35.47 82.29 36.05 82.08 118.2 307.76 117.54 307.76 35.47 82.29" style="fill: #a9986b"/>
        <polygon points="36.05 82.08 36.63 81.86 118.85 307.76 118.2 307.76 36.05 82.08" style="fill: #a9976a"/>
        <polygon points="36.63 81.86 37.21 81.65 119.51 307.76 118.85 307.76 36.63 81.86" style="fill: #a8976a"/>
        <polygon points="37.21 81.65 37.8 81.44 120.17 307.76 119.51 307.76 37.21 81.65" style="fill: #a89769"/>
        <polygon points="37.8 81.44 38.38 81.23 120.83 307.76 120.17 307.76 37.8 81.44" style="fill: #a89668"/>
        <polygon points="38.38 81.23 38.96 81.02 121.49 307.76 120.83 307.76 38.38 81.23" style="fill: #a79668"/>
        <polygon points="38.96 81.02 39.54 80.81 122.15 307.76 121.49 307.76 38.96 81.02" style="fill: #a79567"/>
        <polygon points="39.54 80.81 40.12 80.59 122.81 307.76 122.15 307.76 39.54 80.81" style="fill: #a69567"/>
        <polygon points="40.12 80.59 40.71 80.38 123.46 307.76 122.81 307.76 40.12 80.59" style="fill: #a69566"/>
        <polygon points="40.71 80.38 41.29 80.17 124.12 307.76 123.46 307.76 40.71 80.38" style="fill: #a69466"/>
        <polygon points="41.29 80.17 41.87 79.96 124.78 307.76 124.12 307.76 41.29 80.17" style="fill: #a69465"/>
        <polygon points="41.87 79.96 42.45 79.75 125.44 307.76 124.78 307.76 41.87 79.96" style="fill: #a59465"/>
        <polygon points="42.45 79.75 43.03 79.54 126.1 307.76 125.44 307.76 42.45 79.75" style="fill: #a59365"/>
        <polygon points="43.03 79.54 43.61 79.32 126.76 307.76 126.1 307.76 43.03 79.54" style="fill: #a59364"/>
        <polygon points="43.61 79.32 44.19 79.11 127.42 307.76 126.76 307.76 43.61 79.32" style="fill: #a49364"/>
        <polygon points="44.19 79.11 44.78 78.9 128.07 307.76 127.42 307.76 44.19 79.11" style="fill: #a49263"/>
        <polygon points="44.78 78.9 45.36 78.69 128.73 307.76 128.07 307.76 44.78 78.9" style="fill: #a49263"/>
        <polygon points="45.36 78.69 45.94 78.48 129.39 307.76 128.73 307.76 45.36 78.69" style="fill: #a49263"/>
        <polygon points="45.94 78.48 46.52 78.27 130.05 307.76 129.39 307.76 45.94 78.48" style="fill: #a49262"/>
        <polygon points="46.52 78.27 47.1 78.05 130.71 307.76 130.05 307.76 46.52 78.27" style="fill: #a39162"/>
        <polygon points="47.1 78.05 47.68 77.84 131.37 307.76 130.71 307.76 47.1 78.05" style="fill: #a39162"/>
        <polygon points="47.68 77.84 48.26 77.63 132.03 307.76 131.37 307.76 47.68 77.84" style="fill: #a39162"/>
        <polygon points="48.26 77.63 48.85 77.42 132.69 307.76 132.03 307.76 48.26 77.63" style="fill: #a39161"/>
        <polygon points="48.85 77.42 49.43 77.21 133.34 307.76 132.69 307.76 48.85 77.42" style="fill: #a39161"/>
        <polygon points="49.43 77.21 51.69 76.38 135.9 307.76 133.34 307.76 49.43 77.21" style="fill: #a39161"/>
        <polygon points="51.69 76.38 53.94 75.56 138.46 307.76 135.9 307.76 51.69 76.38" style="fill: #a39262"/>
        <polygon points="53.94 75.56 56.21 74.74 141.02 307.76 138.46 307.76 53.94 75.56" style="fill: #a49263"/>
        <polygon points="56.21 74.74 58.46 73.92 143.58 307.76 141.02 307.76 56.21 74.74" style="fill: #a59364"/>
        <polygon points="58.46 73.92 60.72 73.09 146.13 307.76 143.58 307.76 58.46 73.92" style="fill: #a59365"/>
        <polygon points="60.72 73.09 62.98 72.28 148.69 307.76 146.13 307.76 60.72 73.09" style="fill: #a69466"/>
        <polygon points="62.98 72.28 65.24 71.45 151.25 307.76 148.69 307.76 62.98 72.28" style="fill: #a69566"/>
        <polygon points="65.24 71.45 67.5 70.63 153.81 307.76 151.25 307.76 65.24 71.45" style="fill: #a79567"/>
        <polygon points="67.5 70.63 69.76 69.81 156.37 307.76 153.81 307.76 67.5 70.63" style="fill: #a79668"/>
        <polygon points="69.76 69.81 72.02 68.99 158.92 307.76 156.37 307.76 69.76 69.81" style="fill: #a89769"/>
        <polygon points="72.02 68.99 74.28 68.17 161.48 307.76 158.92 307.76 72.02 68.99" style="fill: #a8976a"/>
        <polygon points="74.28 68.17 76.53 67.34 164.04 307.76 161.48 307.76 74.28 68.17" style="fill: #a9986b"/>
        <polygon points="76.53 67.34 78.79 66.52 166.6 307.76 164.04 307.76 76.53 67.34" style="fill: #a9986c"/>
        <polygon points="78.79 66.52 81.05 65.7 169.16 307.76 166.6 307.76 78.79 66.52" style="fill: #aa996c"/>
        <polygon points="81.05 65.7 83.31 64.88 171.71 307.76 169.16 307.76 81.05 65.7" style="fill: #ab9a6d"/>
        <polygon points="83.31 64.88 85.57 64.05 174.27 307.76 171.71 307.76 83.31 64.88" style="fill: #ab9a6e"/>
        <polygon points="85.57 64.05 87.83 63.23 176.83 307.76 174.27 307.76 85.57 64.05" style="fill: #ac9b6f"/>
        <polygon points="87.83 63.23 90.09 62.41 179.39 307.76 176.83 307.76 87.83 63.23" style="fill: #ac9b70"/>
        <polygon points="90.09 62.41 92.35 61.59 181.95 307.76 179.39 307.76 90.09 62.41" style="fill: #ad9c71"/>
        <polygon points="92.35 61.59 94.6 60.76 184.51 307.76 181.95 307.76 92.35 61.59" style="fill: #ad9d72"/>
        <polygon points="94.6 60.76 96.86 59.94 187.06 307.76 184.51 307.76 94.6 60.76" style="fill: #ae9d72"/>
        <polygon points="96.86 59.94 99.12 59.12 189.62 307.76 187.06 307.76 96.86 59.94" style="fill: #ae9e73"/>
        <polygon points="99.12 59.12 101.38 58.3 192.18 307.76 189.62 307.76 99.12 59.12" style="fill: #af9f74"/>
        <polygon points="101.38 58.3 103.64 57.47 194.74 307.76 192.18 307.76 101.38 58.3" style="fill: #b09f75"/>
        <polygon points="103.64 57.47 105.9 56.65 197.29 307.76 194.74 307.76 103.64 57.47" style="fill: #b0a076"/>
        <polygon points="105.9 56.65 108.16 55.83 199.85 307.76 197.29 307.76 105.9 56.65" style="fill: #b1a177"/>
        <polygon points="108.16 55.83 110.42 55.01 202.41 307.76 199.85 307.76 108.16 55.83" style="fill: #b1a178"/>
        <polygon points="110.42 55.01 112.67 54.19 204.97 307.76 202.41 307.76 110.42 55.01" style="fill: #b2a279"/>
        <polygon points="112.67 54.19 114.93 53.37 207.53 307.76 204.97 307.76 112.67 54.19" style="fill: #b2a279"/>
        <polygon points="114.93 53.37 117.19 52.54 210.08 307.76 207.53 307.76 114.93 53.37" style="fill: #b3a37a"/>
        <polygon points="117.19 52.54 119.45 51.72 212.64 307.76 210.08 307.76 117.19 52.54" style="fill: #b3a47b"/>
        <polygon points="119.45 51.72 121.71 50.9 215.2 307.76 212.64 307.76 119.45 51.72" style="fill: #b4a47c"/>
        <polygon points="121.71 50.9 123.97 50.08 217.76 307.76 215.2 307.76 121.71 50.9" style="fill: #b5a57d"/>
        <polygon points="123.97 50.08 126.23 49.26 220.32 307.76 217.76 307.76 123.97 50.08" style="fill: #b5a67e"/>
        <polygon points="126.23 49.26 128.49 48.43 222.88 307.76 220.32 307.76 126.23 49.26" style="fill: #b6a67f"/>
        <polygon points="128.49 48.43 130.75 47.61 225.43 307.76 222.88 307.76 128.49 48.43" style="fill: #b6a780"/>
        <polygon points="130.75 47.61 133 46.79 228 307.76 225.43 307.76 130.75 47.61" style="fill: #b7a881"/>
        <polygon points="133 46.79 135.26 45.97 230.55 307.76 228 307.76 133 46.79" style="fill: #b7a882"/>
        <polygon points="135.26 45.97 137.52 45.14 233.11 307.76 230.55 307.76 135.26 45.97" style="fill: #b8a983"/>
        <polygon points="137.52 45.14 139.78 44.32 235.67 307.76 233.11 307.76 137.52 45.14" style="fill: #b9a983"/>
        <polygon points="139.78 44.32 142.04 43.5 238.22 307.76 235.67 307.76 139.78 44.32" style="fill: #b9aa84"/>
        <polygon points="142.04 43.5 144.3 42.68 240.78 307.76 238.22 307.76 142.04 43.5" style="fill: #baab85"/>
        <polygon points="144.3 42.68 146.56 41.85 243.34 307.76 240.78 307.76 144.3 42.68" style="fill: #baab86"/>
        <polygon points="146.56 41.85 148.81 41.03 245.9 307.76 243.34 307.76 146.56 41.85" style="fill: #bbac87"/>
        <polygon points="148.81 41.03 151.08 40.21 248.46 307.76 245.9 307.76 148.81 41.03" style="fill: #bbad88"/>
        <polygon points="151.08 40.21 153.33 39.39 251.01 307.76 248.46 307.76 151.08 40.21" style="fill: #bcad89"/>
        <polygon points="153.33 39.39 155.59 38.56 253.57 307.76 251.01 307.76 153.33 39.39" style="fill: #bcae8a"/>
        <polygon points="155.59 38.56 157.85 37.74 256.13 307.76 253.57 307.76 155.59 38.56" style="fill: #bdaf8b"/>
        <polygon points="157.85 37.74 160.11 36.92 258.69 307.76 256.13 307.76 157.85 37.74" style="fill: #bdaf8c"/>
        <polygon points="160.11 36.92 162.37 36.1 261.25 307.76 258.69 307.76 160.11 36.92" style="fill: #beb08d"/>
        <polygon points="162.37 36.1 164.63 35.28 263.81 307.76 261.25 307.76 162.37 36.1" style="fill: #bfb18e"/>
        <polygon points="164.63 35.28 166.88 34.45 266.36 307.76 263.81 307.76 164.63 35.28" style="fill: #bfb18f"/>
        <polygon points="166.88 34.45 169.15 33.63 268.92 307.76 266.36 307.76 166.88 34.45" style="fill: #c0b290"/>
        <polygon points="169.15 33.63 171.41 32.81 271.48 307.76 268.92 307.76 169.15 33.63" style="fill: #c0b290"/>
        <polygon points="171.41 32.81 173.66 31.99 274.04 307.76 271.48 307.76 171.41 32.81" style="fill: #c1b391"/>
        <polygon points="173.66 31.99 175.92 31.17 276.6 307.76 274.04 307.76 173.66 31.99" style="fill: #c1b492"/>
        <polygon points="175.92 31.17 178.18 30.34 279.15 307.76 276.6 307.76 175.92 31.17" style="fill: #c2b493"/>
        <polygon points="178.18 30.34 180.44 29.52 281.71 307.76 279.15 307.76 178.18 30.34" style="fill: #c2b594"/>
        <polygon points="180.44 29.52 182.7 28.7 284.27 307.76 281.71 307.76 180.44 29.52" style="fill: #c3b695"/>
        <polygon points="182.7 28.7 184.96 27.88 286.83 307.76 284.27 307.76 182.7 28.7" style="fill: #c3b696"/>
        <polygon points="184.96 27.88 187.22 27.06 289.38 307.76 286.83 307.76 184.96 27.88" style="fill: #c4b797"/>
        <polygon points="187.22 27.06 189.47 26.24 291.94 307.76 289.38 307.76 187.22 27.06" style="fill: #c5b898"/>
        <polygon points="189.47 26.24 191.73 25.41 294.5 307.76 291.94 307.76 189.47 26.24" style="fill: #c5b899"/>
        <polygon points="191.73 25.41 194 24.59 297.06 307.76 294.5 307.76 191.73 25.41" style="fill: #c6b99a"/>
        <polygon points="194 24.59 196.25 23.77 299.62 307.76 297.06 307.76 194 24.59" style="fill: #c6b99b"/>
        <polygon points="196.25 23.77 198.51 22.95 302.17 307.76 299.62 307.76 196.25 23.77" style="fill: #c7ba9c"/>
        <polygon points="198.51 22.95 200.77 22.12 304.73 307.76 302.17 307.76 198.51 22.95" style="fill: #c7bb9d"/>
        <polygon points="200.77 22.12 203.03 21.3 307.29 307.76 304.73 307.76 200.77 22.12" style="fill: #c8bb9e"/>
        <polygon points="203.03 21.3 205.29 20.48 309.85 307.76 307.29 307.76 203.03 21.3" style="fill: #c8bc9e"/>
        <polygon points="205.29 20.48 207.54 19.66 312.41 307.76 309.85 307.76 205.29 20.48" style="fill: #c9bd9f"/>
        <polygon points="207.54 19.66 209.81 18.83 314.97 307.76 312.41 307.76 207.54 19.66" style="fill: #c9bda0"/>
        <polygon points="209.81 18.83 212.06 18.01 317.53 307.76 314.97 307.76 209.81 18.83" style="fill: #cabea1"/>
        <polygon points="212.06 18.01 214.32 17.19 320.08 307.76 317.53 307.76 212.06 18.01" style="fill: #cabea2"/>
        <polygon points="214.32 17.19 216.58 16.37 322.64 307.76 320.08 307.76 214.32 17.19" style="fill: #cbbfa3"/>
        <polygon points="216.58 16.37 218.84 15.54 325.2 307.76 322.64 307.76 216.58 16.37" style="fill: #cbc0a4"/>
        <polygon points="218.84 15.54 220.57 14.92 221.17 14.92 327.76 307.76 325.2 307.76 218.84 15.54" style="fill: #ccc0a5"/>
        <polygon points="223.73 14.92 330.31 307.76 327.76 307.76 221.17 14.92 223.73 14.92" style="fill: #ccc1a6"/>
        <polygon points="226.28 14.92 332.87 307.76 330.31 307.76 223.73 14.92 226.28 14.92" style="fill: #cdc1a6"/>
        <polygon points="228.84 14.92 335.43 307.76 332.87 307.76 226.28 14.92 228.84 14.92" style="fill: #cdc2a7"/>
        <polygon points="231.4 14.92 337.99 307.76 335.43 307.76 228.84 14.92 231.4 14.92" style="fill: #cec3a8"/>
        <polygon points="233.96 14.92 340.55 307.76 337.99 307.76 231.4 14.92 233.96 14.92" style="fill: #cec3a9"/>
        <polygon points="236.52 14.92 343.1 307.76 340.55 307.76 233.96 14.92 236.52 14.92" style="fill: #cfc4aa"/>
        <polygon points="239.08 14.92 345.66 307.76 343.1 307.76 236.52 14.92 239.08 14.92" style="fill: #cfc4ab"/>
        <polygon points="241.63 14.92 348.22 307.76 345.66 307.76 239.08 14.92 241.63 14.92" style="fill: #d0c5ab"/>
        <polygon points="244.19 14.92 350.78 307.76 348.22 307.76 241.63 14.92 244.19 14.92" style="fill: #d0c5ac"/>
        <polygon points="246.75 14.92 353.34 307.76 350.78 307.76 244.19 14.92 246.75 14.92" style="fill: #d1c6ad"/>
        <polygon points="249.31 14.92 355.9 307.76 353.34 307.76 246.75 14.92 249.31 14.92" style="fill: #d1c6ae"/>
        <polygon points="250.79 14.92 357.38 307.76 355.9 307.76 249.31 14.92 250.79 14.92" style="fill: #d1c6ae"/>
        <polygon points="252.27 14.92 358.86 307.76 357.38 307.76 250.79 14.92 252.27 14.92" style="fill: #d0c5ac"/>
        <polygon points="253.75 14.92 360.34 307.76 358.86 307.76 252.27 14.92 253.75 14.92" style="fill: #cfc4ab"/>
        <polygon points="255.23 14.92 361.82 307.76 360.34 307.76 253.75 14.92 255.23 14.92" style="fill: #cfc3a9"/>
        <polygon points="256.71 14.92 363.3 307.76 361.82 307.76 255.23 14.92 256.71 14.92" style="fill: #cec3a8"/>
        <polygon points="258.19 14.92 364.78 307.76 363.3 307.76 256.71 14.92 258.19 14.92" style="fill: #cdc2a7"/>
        <polygon points="259.67 14.92 366.26 307.76 364.78 307.76 258.19 14.92 259.67 14.92" style="fill: #ccc1a5"/>
        <polygon points="261.16 14.92 367.75 307.76 366.26 307.76 259.67 14.92 261.16 14.92" style="fill: #cbc0a4"/>
        <polygon points="262.64 14.92 369.23 307.76 367.75 307.76 261.16 14.92 262.64 14.92" style="fill: #cbbfa3"/>
        <polygon points="264.12 14.92 370.71 307.76 369.23 307.76 262.64 14.92 264.12 14.92" style="fill: #cabea1"/>
        <polygon points="265.6 14.92 372.19 307.76 370.71 307.76 264.12 14.92 265.6 14.92" style="fill: #c9bda0"/>
        <polygon points="267.08 14.92 373.67 307.76 372.19 307.76 265.6 14.92 267.08 14.92" style="fill: #c8bc9f"/>
        <polygon points="268.56 14.92 375.15 307.76 373.67 307.76 267.08 14.92 268.56 14.92" style="fill: #c8bb9d"/>
        <polygon points="270.05 14.92 376.63 307.76 375.15 307.76 268.56 14.92 270.05 14.92" style="fill: #c7ba9c"/>
        <polygon points="271.53 14.92 378.11 307.76 376.63 307.76 270.05 14.92 271.53 14.92" style="fill: #c6ba9b"/>
        <polygon points="273.01 14.92 379.6 307.76 378.11 307.76 271.53 14.92 273.01 14.92" style="fill: #c6b99a"/>
        <polygon points="274.49 14.92 381.08 307.76 379.6 307.76 273.01 14.92 274.49 14.92" style="fill: #c5b898"/>
        <polygon points="275.97 14.92 382.56 307.76 381.08 307.76 274.49 14.92 275.97 14.92" style="fill: #c4b797"/>
        <polygon points="277.45 14.92 384.04 307.76 382.56 307.76 275.97 14.92 277.45 14.92" style="fill: #c3b696"/>
        <polygon points="278.93 14.92 385.52 307.76 384.04 307.76 277.45 14.92 278.93 14.92" style="fill: #c3b595"/>
        <polygon points="280.41 14.92 387 307.76 385.52 307.76 278.93 14.92 280.41 14.92" style="fill: #c2b594"/>
        <polygon points="281.89 14.92 388.48 307.76 387 307.76 280.41 14.92 281.89 14.92" style="fill: #c1b492"/>
        <polygon points="283.37 14.92 389.96 307.76 388.48 307.76 281.89 14.92 283.37 14.92" style="fill: #c1b391"/>
        <polygon points="284.86 14.92 391.44 307.76 389.96 307.76 283.37 14.92 284.86 14.92" style="fill: #c0b290"/>
        <polygon points="286.34 14.92 392.92 307.76 391.44 307.76 284.86 14.92 286.34 14.92" style="fill: #bfb18f"/>
        <polygon points="287.82 14.92 394.41 307.76 392.92 307.76 286.34 14.92 287.82 14.92" style="fill: #bfb18e"/>
        <polygon points="289.3 14.92 395.88 307.76 394.41 307.76 287.82 14.92 289.3 14.92" style="fill: #beb08d"/>
        <polygon points="290.78 14.92 397.37 307.76 395.88 307.76 289.3 14.92 290.78 14.92" style="fill: #bdaf8c"/>
        <polygon points="292.26 14.92 398.85 307.76 397.37 307.76 290.78 14.92 292.26 14.92" style="fill: #bdae8b"/>
        <polygon points="293.75 14.92 400.33 307.76 398.85 307.76 292.26 14.92 293.75 14.92" style="fill: #bcae89"/>
        <polygon points="295.23 14.92 401.81 307.76 400.33 307.76 293.75 14.92 295.23 14.92" style="fill: #bbad88"/>
        <polygon points="296.71 14.92 403.3 307.76 401.81 307.76 295.23 14.92 296.71 14.92" style="fill: #bbac87"/>
        <polygon points="298.19 14.92 404.78 307.76 403.3 307.76 296.71 14.92 298.19 14.92" style="fill: #baab86"/>
        <polygon points="299.67 14.92 406.26 307.76 404.78 307.76 298.19 14.92 299.67 14.92" style="fill: #baab85"/>
        <polygon points="301.15 14.92 407.74 307.76 406.26 307.76 299.67 14.92 301.15 14.92" style="fill: #b9aa84"/>
        <polygon points="302.63 14.92 409.22 307.76 407.74 307.76 301.15 14.92 302.63 14.92" style="fill: #b8a983"/>
        <polygon points="304.11 14.92 410.7 307.76 409.22 307.76 302.63 14.92 304.11 14.92" style="fill: #b8a982"/>
        <polygon points="305.59 14.92 412.18 307.76 410.7 307.76 304.11 14.92 305.59 14.92" style="fill: #b7a881"/>
        <polygon points="307.07 14.92 413.66 307.76 412.18 307.76 305.59 14.92 307.07 14.92" style="fill: #b7a780"/>
        <polygon points="308.56 14.92 415.14 307.76 413.66 307.76 307.07 14.92 308.56 14.92" style="fill: #b6a77f"/>
        <polygon points="310.04 14.92 416.62 307.76 415.14 307.76 308.56 14.92 310.04 14.92" style="fill: #b5a67e"/>
        <polygon points="311.52 14.92 418.1 307.76 416.62 307.76 310.04 14.92 311.52 14.92" style="fill: #b5a57d"/>
        <polygon points="313 14.92 419.59 307.76 418.1 307.76 311.52 14.92 313 14.92" style="fill: #b4a57d"/>
        <polygon points="314.48 14.92 421.07 307.76 419.59 307.76 313 14.92 314.48 14.92" style="fill: #b4a47c"/>
        <polygon points="315.96 14.92 422.55 307.76 421.07 307.76 314.48 14.92 315.96 14.92" style="fill: #b3a37b"/>
        <polygon points="317.44 14.92 424.03 307.76 422.55 307.76 315.96 14.92 317.44 14.92" style="fill: #b3a37a"/>
        <polygon points="318.92 14.92 425.51 307.76 424.03 307.76 317.44 14.92 318.92 14.92" style="fill: #b2a279"/>
        <polygon points="320.4 14.92 427 307.76 425.51 307.76 318.92 14.92 320.4 14.92" style="fill: #b1a178"/>
        <polygon points="321.88 14.92 428.48 307.76 427 307.76 320.4 14.92 321.88 14.92" style="fill: #b1a177"/>
        <polygon points="323.37 14.92 429.96 307.76 428.48 307.76 321.88 14.92 323.37 14.92" style="fill: #b0a076"/>
        <polygon points="324.85 14.92 431.44 307.76 429.96 307.76 323.37 14.92 324.85 14.92" style="fill: #b0a076"/>
        <polygon points="326.33 14.92 432.92 307.76 431.44 307.76 324.85 14.92 326.33 14.92" style="fill: #af9f75"/>
        <polygon points="327.81 14.92 434.4 307.76 432.92 307.76 326.33 14.92 327.81 14.92" style="fill: #af9f74"/>
        <polygon points="329.29 14.92 435.88 307.76 434.4 307.76 327.81 14.92 329.29 14.92" style="fill: #ae9e73"/>
        <polygon points="330.77 14.92 437.36 307.76 435.88 307.76 329.29 14.92 330.77 14.92" style="fill: #ae9d72"/>
        <polygon points="332.25 14.92 438.84 307.76 437.36 307.76 330.77 14.92 332.25 14.92" style="fill: #ad9d72"/>
        <polygon points="333.74 14.92 440.32 307.76 438.84 307.76 332.25 14.92 333.74 14.92" style="fill: #ad9c71"/>
        <polygon points="335.22 14.92 441.81 307.76 440.32 307.76 333.74 14.92 335.22 14.92" style="fill: #ad9c70"/>
        <polygon points="336.7 14.92 443.29 307.76 441.81 307.76 335.22 14.92 336.7 14.92" style="fill: #ac9b6f"/>
        <polygon points="338.18 14.92 444.77 307.76 443.29 307.76 336.7 14.92 338.18 14.92" style="fill: #ac9b6f"/>
        <polygon points="339.66 14.92 446.25 307.76 444.77 307.76 338.18 14.92 339.66 14.92" style="fill: #ab9a6e"/>
        <polygon points="341.14 14.92 447.73 307.76 446.25 307.76 339.66 14.92 341.14 14.92" style="fill: #ab9a6d"/>
        <polygon points="342.62 14.92 449.21 307.76 447.73 307.76 341.14 14.92 342.62 14.92" style="fill: #aa996d"/>
        <polygon points="344.1 14.92 450.69 307.76 449.21 307.76 342.62 14.92 344.1 14.92" style="fill: #aa996c"/>
        <polygon points="345.58 14.92 452.17 307.76 450.69 307.76 344.1 14.92 345.58 14.92" style="fill: #a9986b"/>
        <polygon points="347.06 14.92 453.65 307.76 452.17 307.76 345.58 14.92 347.06 14.92" style="fill: #a9986b"/>
        <polygon points="348.55 14.92 455.13 307.76 453.65 307.76 347.06 14.92 348.55 14.92" style="fill: #a9976a"/>
        <polygon points="350.03 14.92 456.62 307.76 455.13 307.76 348.55 14.92 350.03 14.92" style="fill: #a8976a"/>
        <polygon points="351.51 14.92 458.1 307.76 456.62 307.76 350.03 14.92 351.51 14.92" style="fill: #a89669"/>
        <polygon points="352.99 14.92 459.58 307.76 458.1 307.76 351.51 14.92 352.99 14.92" style="fill: #a79668"/>
        <polygon points="354.47 14.92 461.06 307.76 459.58 307.76 352.99 14.92 354.47 14.92" style="fill: #a79668"/>
        <polygon points="355.96 14.92 462.54 307.76 461.06 307.76 354.47 14.92 355.96 14.92" style="fill: #a79567"/>
        <polygon points="357.44 14.92 464.02 307.76 462.54 307.76 355.96 14.92 357.44 14.92" style="fill: #a69567"/>
        <polygon points="358.92 14.92 465.5 307.76 464.02 307.76 357.44 14.92 358.92 14.92" style="fill: #a69466"/>
        <polygon points="360.4 14.92 466.99 307.76 465.5 307.76 358.92 14.92 360.4 14.92" style="fill: #a69466"/>
        <polygon points="361.88 14.92 468.47 307.76 466.99 307.76 360.4 14.92 361.88 14.92" style="fill: #a59465"/>
        <polygon points="363.36 14.92 469.95 307.76 468.47 307.76 361.88 14.92 363.36 14.92" style="fill: #a59365"/>
        <polygon points="364.84 14.92 471.43 307.76 469.95 307.76 363.36 14.92 364.84 14.92" style="fill: #a59364"/>
        <polygon points="366.32 14.92 472.91 307.76 471.43 307.76 364.84 14.92 366.32 14.92" style="fill: #a49364"/>
        <polygon points="367.8 14.92 474.39 307.76 472.91 307.76 366.32 14.92 367.8 14.92" style="fill: #a49263"/>
        <polygon points="369.28 14.92 475.87 307.76 474.39 307.76 367.8 14.92 369.28 14.92" style="fill: #a49263"/>
        <polygon points="370.76 14.92 477.35 307.76 475.87 307.76 369.28 14.92 370.76 14.92" style="fill: #a49263"/>
        <polygon points="372.25 14.92 478.83 307.76 477.35 307.76 370.76 14.92 372.25 14.92" style="fill: #a39262"/>
        <polygon points="373.73 14.92 480.31 307.76 478.83 307.76 372.25 14.92 373.73 14.92" style="fill: #a39162"/>
        <polygon points="375.21 14.92 481.8 307.76 480.31 307.76 373.73 14.92 375.21 14.92" style="fill: #a39162"/>
        <polygon points="376.69 14.92 483.28 307.76 481.8 307.76 375.21 14.92 376.69 14.92" style="fill: #a39161"/>
        <polygon points="378.17 14.92 484.76 307.76 483.28 307.76 376.69 14.92 378.17 14.92" style="fill: #a39161"/>
        <polygon points="588.26 14.92 671.66 244.07 496.67 307.76 484.76 307.76 378.17 14.92 588.26 14.92" style="fill: #a39161"/>
        <polygon points="634.1 14.92 684 152.02 684 239.58 671.66 244.07 588.26 14.92 634.1 14.92" style="fill: #a39161"/>
        <polygon points="684 152.02 634.1 14.92 684 14.92 684 152.02" style="fill: #a39161"/>
      </g>
      <path d="M348.74,28.38c22.32,0,44.09,1,65.09,2.79s41.25,4.54,60.52,8A552.54,552.54,0,0,1,529,51.84,411,411,0,0,1,576.6,68.57a277.1,277.1,0,0,1,39.19,20.24A167.32,167.32,0,0,1,645.36,112,95.71,95.71,0,0,1,664,137.56a60.9,60.9,0,0,1,0,54.75,95.59,95.59,0,0,1-18.67,25.57,167.76,167.76,0,0,1-29.57,23.18,278.16,278.16,0,0,1-39.19,20.25A442,442,0,0,1,529,278c-36.48,10.8,64.64-73.73-120.89-10.75-54.6,18.53-75.69,24.47-125.72,25.79-44.81,1.18-96.84-10.11-114-15a415.24,415.24,0,0,1-47.57-16.73,279.4,279.4,0,0,1-39.2-20.25,168,168,0,0,1-29.56-23.18,95.59,95.59,0,0,1-18.67-25.57,60.9,60.9,0,0,1,0-54.75A95.71,95.71,0,0,1,52.12,112,167.6,167.6,0,0,1,81.68,88.81a278.34,278.34,0,0,1,39.2-20.24,411.45,411.45,0,0,1,47.57-16.73,553.41,553.41,0,0,1,54.68-12.66c19.27-3.47,39.51-6.17,60.52-8S326.42,28.38,348.74,28.38Z" style="fill: #00502f"/>
      <path d="M226.86,57.52a4.82,4.82,0,0,0-1.21-.58,3.91,3.91,0,0,1-.33,1.31,59,59,0,0,1-3.73,7.85c-1.82,3.25-17.15,32.34-74.59,40.79l-4.79,29.49h2.85l4.39-27C206.9,100.9,222.22,71.81,224,68.56a59.83,59.83,0,0,0,3.74-7.86C228.68,58.52,227.58,57.93,226.86,57.52ZM341.67,202.43c-2.58-3.86-2.9-9.86-2.9-12.58,0-26.38,14.89-43.3,26.8-43.3a9.94,9.94,0,0,1,5.6,1.63,9.45,9.45,0,0,0-8.05-4.08c-11.92,0-26.81,16.91-26.81,43.3C336.31,190.81,336.81,199.38,341.67,202.43Zm-91.2-.4c-2.62-3.87-3-9.85-3-12.56,0-26.38,15-43.3,27-43.3a9.87,9.87,0,0,1,5.6,1.63,9.43,9.43,0,0,0-8-4.09c-11.91,0-27,16.92-27,43.3C245,190.42,245.61,199,250.47,202Zm-57.15-49.6.3.31a50.87,50.87,0,0,1,3.21-4.51l1-6.6c.54-3-1-4.67-2.52-5a5.62,5.62,0,0,1,.07,2.55ZM432.24,202c-2.62-3.87-3-9.85-3-12.56,0-26.38,15-43.3,26.95-43.3a9.87,9.87,0,0,1,5.6,1.63,9.43,9.43,0,0,0-8.05-4.09c-11.91,0-26.95,16.92-26.95,43.3C426.79,190.42,427.38,199,432.24,202Zm123-62.36h-2c-.08.44-.17.92-.27,1.39-.79,3.8-3.61,4-3.83,4h-18s-7.25,35.66-8.76,47.68c-.31,2.5-.51,7.4,2.15,9.84a4.15,4.15,0,0,0,1.2.76c-1.32-2.59-1.15-6.13-.9-8.14,1.51-12,8.77-47.68,8.77-47.68h18c.22,0,3-.22,3.82-4C555.78,141.6,556.16,139.68,555.19,139.67ZM578.39,202c-2.61-3.87-3-9.85-3-12.56,0-26.38,15-43.3,27-43.3a9.91,9.91,0,0,1,5.6,1.63,9.46,9.46,0,0,0-8.06-4.09c-11.91,0-26.95,16.92-26.95,43.3C572.94,190.42,573.53,199,578.39,202Zm-460.78-91.2.47-2.41s-12.74-.57-22.79,2.2S74.89,120,74.89,120a5.06,5.06,0,0,1-4.2.86,1.53,1.53,0,0,0,.44,1.21,4.66,4.66,0,0,0,6.22.38s10.34-6.6,20.39-9.38C104.84,111.12,113.27,110.83,117.61,110.83Zm420.28,10c.5-2.39.26-3.42-2.25-3.87a9.62,9.62,0,0,1-.2,1.42c-.63,3.07-3.23,18.81-3.23,18.81h2.86C535.83,132.68,537.42,123.2,537.89,120.88ZM340.26,219.49c8.25,0,18.48-7.42,25-16l1.62-8.14-.3-.31c-5.51,10.86-18.61,22-28.74,22a20.92,20.92,0,0,1-13.48-5.2A21.32,21.32,0,0,0,340.26,219.49ZM275.4,194.62c-5.67,10.86-18.77,22-28.89,22A20.88,20.88,0,0,1,233,211.44,21.33,21.33,0,0,0,249,219.11c8.15,0,18.23-7.24,24.81-15.74l1.92-8.44ZM162.28,138.84h-.2a5.76,5.76,0,0,1-.24.8c-1.64,4.11-2.59,7-8.43,7H139.62s-10.07,51.71-13.16,69.61a29.21,29.21,0,0,1-6.35,13.4c-2.72,3.11-6.24,5.68-11.61,5.7-6.91,0-6.13.09-8.19,0a28,28,0,0,1-3.27-.19c.37,2.82,2.74,2.52,5.73,2.65,2.06.09,1.28,0,8.19,0,5.37,0,8.35-2.59,11.07-5.7,3.76-4.29,6.27-9.85,6.88-13.41,3.09-17.89,13.17-69.61,13.17-69.61h13.79c5.84,0,6.79-2.87,8.42-7C165.68,138.6,162.28,138.84,162.28,138.84Zm377.77,65.35c.81,2.15,1.58,3.25.2,4.15a48,48,0,0,1-18,7.47c-8.42,1.48-13.4.46-16.78-2a6.2,6.2,0,0,0,.62.81c3.38,3.66,8.53,5.46,18.62,3.68a48,48,0,0,0,18-7.46c1.43-.94.55-2.08-.29-4.39S540.62,203.9,540.05,204.19ZM510.76,145H500.25c.25,2.51,1.28,2.46,1.28,2.46h8.77Zm92.56,49.62c-5.66,10.86-18.76,22-28.89,22A20.86,20.86,0,0,1,561,211.44a21.33,21.33,0,0,0,15.94,7.67c8.15,0,18.23-7.25,24.8-15.74l1.93-8.44ZM631,143.88c.92,1.66,1.23,4.18.57,8.68,0,0-4,24.82-6.52,41.05-.81,5.14-.94,5-2.09,10.39-.82,3.84-2.21,7.59-4.81,10.14-1.49,1.46-3,2.84-6,2.79l-7.37-.28c-1.25,0-2.24,0-3,0-.26,2.64,1,2.49,5.48,2.49l7.36.28c2.23,0,4.28-1.54,5.77-3a19.46,19.46,0,0,0,5-9.93c1.15-5.37,1.29-5.26,2.1-10.4,2.56-16.23,6.51-41,6.51-41C635.16,147.6,633.6,145.55,631,143.88Zm-146.15,0c.92,1.66,1.23,4.18.57,8.68,0,0-4,24.82-6.52,41.05-.81,5.14-.95,5-2.1,10.39-.82,3.84-1.9,7.8-4.49,10.34a8.22,8.22,0,0,1-6.28,2.59l-7.36-.28c-1.25,0-2.24,0-3,0-.25,2.64,1,2.49,5.48,2.49l7.37.28c2.23,0,4.27-1.44,5.76-2.9a19.68,19.68,0,0,0,5-10c1.15-5.37,1.28-5.26,2.1-10.4,2.55-16.23,6.51-41,6.51-41C489,147.6,487.45,145.55,484.89,143.88Zm-181.77,0c.92,1.66,1.23,4.18.56,8.68,0,0-3.95,24.82-6.51,41.05-.81,5.14-.95,5-2.1,10.39-.82,3.84-2.1,8-4.7,10.55a7.64,7.64,0,0,1-6.07,2.38l-7.36-.28c-1.25,0-2.24,0-3,0-.25,2.64,1,2.49,5.48,2.49l7.37.28c2.08,0,4.48-1.44,6-2.9,2.59-2.55,4-6.19,4.8-10,1.15-5.37,1.28-5.26,2.1-10.4,2.56-16.23,6.51-41,6.51-41C307.24,147.6,305.68,145.55,303.12,143.88Zm-78,0c-.89-2.56-1.7-4.84-3.84-5.84a23.54,23.54,0,0,1,1.39,3.38,27,27,0,0,1,1.49,6.83c.29,2.48.61,3.87-1.22,6.28-1.44,1.9-7,1.32-9.65.23-8.34-3.1-14.6-.62-18.91,5.9-3.73,5.43-5.51,15.06-7.9,28.4,0,0-2.37,12.93-2.57,13.81-.53,2.68-1.48,6.26-3.76,8.82a7.66,7.66,0,0,1-5.86,2.95l-7.43-.1c-1-.05-1.74-.09-2.39-.17,0,2.29,1.09,2.45,4.84,2.62l7.44.11c1.76,0,4.08-1.51,5.45-3.05a19.6,19.6,0,0,0,4.17-8.73c.2-.87,2.57-13.8,2.57-13.8,2.38-13.35,4.17-23,7.89-28.4,4.32-6.52,10.57-9,18.91-5.9,2.68,1.09,7.12,1,9.07-.72,1.56-1.37,2.1-3.32,1.8-5.8A26.55,26.55,0,0,0,225.11,143.87Zm169.24.43c.91,1.66,1.21,4.18.48,8.64l-8.78,48.89C378.6,243.57,360.59,254,340.93,254c-12.21,0-20.1-3.1-29-7.76l-.27-.14c.35,1.37,1.75,2.09,2.73,2.6,8.94,4.65,16.83,7.76,29,7.76,19.65,0,37.67-10.4,45.11-52.15l8.79-48.88C398.48,148,396.9,146,394.35,144.3Zm62.82,50.32c-5.67,10.86-18.77,22-28.89,22a20.88,20.88,0,0,1-13.49-5.21,21.33,21.33,0,0,0,15.94,7.67c8.16,0,18.24-7.25,24.81-15.74l1.92-8.44Z" style="fill: #a39161"/>
      <g>
        <path d="M361.16,211.3c-3.28,16-11.86,32.29-27,32.29-6.71,0-14.22-3.8-19.75-7.1-2.59-1.54-3.44-3-5.75.51-.3.46-.77,1.34-1.07,1.92-1.71,3.27.74,4.5,2.23,5.28,8.94,4.65,16.83,7.76,29,7.76,19.66,0,37.67-10.4,45.12-52.15l8.78-48.88c1.64-10.09-1.93-10.24-6.1-13A43,43,0,0,0,368,133.71c-35,0-55.24,28.24-55.24,52.14,0,20.17,12.51,29.17,22.93,29.17,10.13,0,23.23-11.17,28.74-22l.3.32Zm-17.57-9.78c-8.64,0-9.39-12-9.39-16.14,0-26.38,14.9-43.29,26.81-43.29,5.65,0,10.27,4,10.27,12.41C371.28,174.67,354.9,201.52,343.59,201.52Z" style="fill: #231f20;fill-rule: evenodd"/>
        <path d="M270.4,206.89c-1.81,8.08-2,7.75,4.43,7.75l7.36.28a8,8,0,0,0,6.17-2.59c2.6-2.54,3.78-6.5,4.6-10.34,1.16-5.37,1.29-5.26,2.1-10.39,2.56-16.23,6.52-41,6.52-41,1.49-10.09-1.94-10.24-6.11-13a43.26,43.26,0,0,0-18.76-4.19c-35,0-55.25,28.25-55.25,52.15,0,20.17,12.51,29.17,22.94,29.17,10.12,0,23.22-11.17,28.89-22l.29.31Zm-18-5.75c-8.64,0-9.53-11.95-9.53-16.14,0-26.38,15-43.3,27-43.3,5.66,0,10.27,4,10.27,12.42C280.13,174.29,263.75,201.14,252.44,201.14Z" style="fill: #231f20;fill-rule: evenodd"/>
        <path d="M452.17,206.89c-1.81,8.08-2,7.75,4.43,7.75l7.36.28a8,8,0,0,0,6.18-2.59c2.59-2.54,3.77-6.5,4.59-10.34,1.16-5.37,1.29-5.26,2.1-10.39,2.56-16.23,6.52-41,6.52-41,1.49-10.09-1.94-10.24-6.11-13a43.22,43.22,0,0,0-18.76-4.19c-35,0-55.24,28.25-55.24,52.15,0,20.17,12.5,29.17,22.93,29.17,10.12,0,23.22-11.17,28.89-22l.29.31Zm-18-5.75c-8.64,0-9.53-11.95-9.53-16.14,0-26.38,15-43.3,26.95-43.3,5.66,0,10.27,4,10.27,12.42C461.9,174.29,445.52,201.14,434.21,201.14Z" style="fill: #231f20;fill-rule: evenodd"/>
        <path d="M598.32,206.89c-1.8,8.08-2,7.75,4.43,7.75l7.37.28a7.76,7.76,0,0,0,6.07-2.59c2.59-2.54,3.88-6.5,4.7-10.34,1.15-5.37,1.28-5.26,2.09-10.39,2.56-16.23,6.52-41,6.52-41,1.49-10.09-1.94-10.24-6.1-13a43.3,43.3,0,0,0-18.77-4.19c-35,0-55.24,28.25-55.24,52.15,0,20.17,12.5,29.17,22.93,29.17,10.13,0,23.23-11.17,28.89-22l.3.31Zm-18-5.75c-8.63,0-9.53-11.95-9.53-16.14,0-26.38,15-43.3,26.95-43.3,5.66,0,10.28,4,10.28,12.42C608.06,174.29,591.68,201.14,580.36,201.14Z" style="fill: #231f20;fill-rule: evenodd"/>
        <path d="M193.3,137.16l-2.09,13.26.3.31C198.81,139.24,208.64,133,214,133c4.32,0,5.36,2.94,6.56,6.36a27,27,0,0,1,1.49,6.83c.3,2.47.61,3.87-1.22,6.28-1.44,1.9-7,1.32-9.65.23-8.34-3.1-14.6-.62-18.91,5.9-3.73,5.43-5.51,15.05-7.9,28.4,0,0-2.37,12.93-2.57,13.81-.53,2.68-1.48,6.36-3.76,8.93a7.58,7.58,0,0,1-5.86,2.84l-7.43-.1c-5.57-.25-5.35-.47-4.16-7.68l9.49-51.47c1.34-7.14,2.69-14.94,2.69-14.94,1.64-7.2,9.89-6.78,17.53-6.34C192,132.15,193.89,133.9,193.3,137.16Z" style="fill: #231f20"/>
        <path d="M92.8,226.82,116,106.41s-12.74-.58-22.79,2.2S72.78,118,72.78,118a4.66,4.66,0,0,1-6.22-.38c-3-3,9.86-11.68,9.86-11.68s9.1-5.74,14.37-7.85a164.69,164.69,0,0,1,29.39-8.91c13.79-2.77,20.73-2.31,29-3.64,10.29-1.64,22.85-5.88,29.88-8.9,7.18-3.09,17.64-8.33,21-10.06a116.29,116.29,0,0,0,17.23-12.25c2.92-2.75,3.9-1.91,5-1.27.72.41,1.82,1,.91,3.18a59.75,59.75,0,0,1-3.73,7.86c-1.82,3.25-17.15,32.34-74.59,40.79l-4.79,29.49h17.62s3.4-.24,2,3.25c-1.64,4.12-2.59,7-8.43,7H137.51s-10.07,51.72-13.16,69.62A29.58,29.58,0,0,1,118,227.74c-2.72,3.11-6.23,5.57-11.61,5.59-6.91,0-6.13.09-8.19,0C94.24,233.16,91.36,233.75,92.8,226.82Z" style="fill: #231f20"/>
        <path d="M508.65,143H497s-1.35.07-1.35-3.67,2.73-4.09,2.73-4.09l11.42-.07,2.23-12s2.37-10.91,11.7-10.91,10.41.36,9.63,4.18c-.63,3.08-3.23,18.82-3.23,18.82s15.51,0,20.52,0c1,0,.6,1.94.2,3.85-.79,3.79-3.61,4-3.83,4H529s-7.25,35.66-8.76,47.68c-.31,2.5-.51,7.4,2.15,9.84s8.91.86,9.91.43c0,0,2.59-1,3.16-1.29s1.51-.14,2.37,2.23,1.73,3.44.29,4.38a48,48,0,0,1-17.95,7.47c-10.1,1.77-15.25,0-18.63-3.69s-2.63-13.12-1.7-19.22C500.84,184.52,508.65,143,508.65,143Z" style="fill: #231f20;fill-rule: evenodd"/>
      </g>
      <g>
        <path d="M358.7,208.51c-3.27,16-11.85,32.29-27,32.29-6.7,0-14.22-3.8-19.75-7.1-2.58-1.55-3.44-3-5.75.51-.3.46-.76,1.34-1.07,1.92-1.7,3.27.75,4.51,2.24,5.28,8.93,4.65,16.83,7.76,29,7.76,19.66,0,37.68-10.4,45.12-52.14l8.79-48.89c1.63-10.09-1.94-10.24-6.11-13a42.9,42.9,0,0,0-18.61-4.19c-35,0-55.24,28.24-55.24,52.14,0,20.17,12.5,29.17,22.93,29.17,10.12,0,23.22-11.17,28.74-22l.29.31Zm-17.57-9.78c-8.64,0-9.38-11.95-9.38-16.14,0-26.38,14.89-43.29,26.8-43.29,5.66,0,10.27,4,10.27,12.41C368.82,171.88,352.45,198.73,341.13,198.73Z" style="fill: #fff;fill-rule: evenodd"/>
        <path d="M267.94,204.1c-1.8,8.08-2,7.75,4.43,7.75l7.36.28a8.55,8.55,0,0,0,6.48-2.31c2.6-2.54,3.48-6.78,4.3-10.62,1.15-5.37,1.28-5.26,2.09-10.39,2.56-16.23,6.52-41.05,6.52-41.05,1.49-10.09-1.93-10.24-6.11-13a43.22,43.22,0,0,0-18.76-4.19c-35,0-55.24,28.25-55.24,52.15,0,20.17,12.51,29.17,22.93,29.17,10.12,0,23.23-11.17,28.89-22l.3.31Zm-18-5.75c-8.63,0-9.53-11.95-9.53-16.14,0-26.38,15-43.3,26.95-43.3,5.66,0,10.28,4,10.28,12.42C277.68,171.5,261.3,198.35,250,198.35Z" style="fill: #fff;fill-rule: evenodd"/>
        <path d="M449.71,204.1c-1.8,8.08-2,7.75,4.43,7.75l7.37.28a8.55,8.55,0,0,0,6.47-2.31c2.6-2.54,3.48-6.78,4.3-10.62,1.15-5.37,1.28-5.26,2.09-10.39,2.56-16.23,6.52-41.05,6.52-41.05,1.49-10.09-1.94-10.24-6.1-13A43.3,43.3,0,0,0,456,130.53c-35,0-55.24,28.25-55.24,52.15,0,20.17,12.51,29.17,22.93,29.17,10.13,0,23.23-11.17,28.89-22l.3.31Zm-18-5.75c-8.63,0-9.53-11.95-9.53-16.14,0-26.38,15-43.3,26.95-43.3,5.66,0,10.28,4,10.28,12.42C459.45,171.5,443.07,198.35,431.75,198.35Z" style="fill: #fff;fill-rule: evenodd"/>
        <path d="M595.87,204.1c-1.81,8.08-2,7.75,4.43,7.75l7.36.28a8.57,8.57,0,0,0,6.48-2.31c2.59-2.54,3.47-6.78,4.29-10.62,1.15-5.37,1.29-5.26,2.1-10.39,2.56-16.23,6.51-41.05,6.51-41.05,1.49-10.09-1.93-10.24-6.1-13a43.26,43.26,0,0,0-18.76-4.19c-35,0-55.25,28.25-55.25,52.15,0,20.17,12.51,29.17,22.93,29.17,10.13,0,23.23-11.17,28.89-22l.3.31Zm-18-5.75c-8.63,0-9.52-11.95-9.52-16.14,0-26.38,15-43.3,27-43.3,5.65,0,10.27,4,10.27,12.42C605.6,171.5,589.22,198.35,577.9,198.35Z" style="fill: #fff;fill-rule: evenodd"/>
        <path d="M190.84,134.37l-2.08,13.26.29.31c7.3-11.49,17.13-17.69,22.49-17.69,4.32,0,5.35,2.94,6.55,6.36a26.53,26.53,0,0,1,1.49,6.83c.3,2.47.61,3.87-1.22,6.28-1.44,1.9-7,1.32-9.65.23-8.34-3.1-14.59-.62-18.91,5.9-3.72,5.43-5.51,15.05-7.89,28.4,0,0-2.37,12.93-2.57,13.81-.54,2.68-1.28,6.55-3.56,9.11a7.9,7.9,0,0,1-6.06,2.66l-7.44-.1c-5.56-.25-5.35-.47-4.15-7.68l9.48-51.47c1.34-7.14,2.7-14.94,2.7-14.94,1.63-7.2,9.89-6.78,17.52-6.34C189.56,129.36,191.44,131.11,190.84,134.37Z" style="fill: #fff"/>
        <path d="M90.34,224l23.17-120.41s-12.73-.57-22.79,2.2-20.39,9.39-20.39,9.39a4.68,4.68,0,0,1-6.23-.39c-3-3,9.86-11.68,9.86-11.68s9.1-5.74,14.37-7.85a165,165,0,0,1,29.39-8.91c13.79-2.77,20.73-2.31,29-3.63a143.9,143.9,0,0,0,29.87-8.91c7.18-3.09,17.65-8.33,21-10.05a117.19,117.19,0,0,0,17.24-12.26c2.91-2.75,3.89-1.91,5-1.27.72.41,1.82,1,.91,3.18A58.51,58.51,0,0,1,217,61.3c-1.82,3.25-17.14,32.34-74.59,40.79l-4.79,29.49h17.62s3.4-.24,2,3.26c-1.64,4.11-2.59,7-8.43,7H135.06S125,193.54,121.89,211.44c-.62,3.55-2.25,9.39-6,13.67a15.36,15.36,0,0,1-11.94,5.43c-6.91,0-6.13.09-8.19,0C91.78,230.37,88.9,231,90.34,224Z" style="fill: #fff"/>
        <path d="M506.19,140.2H494.51s-1.34.07-1.34-3.66,2.73-4.1,2.73-4.1l11.42-.07,2.22-12s2.37-10.91,11.71-10.91,10.41.36,9.62,4.19c-.63,3.07-3.23,18.81-3.23,18.81s15.52-.05,20.53,0c1,0,.59,1.94.19,3.85-.79,3.79-3.61,4-3.82,4h-18s-7.25,35.66-8.76,47.68c-.31,2.5-.5,7.4,2.16,9.84s8.9.86,9.91.43c0,0,2.58-1,3.16-1.29s1.5-.14,2.37,2.23,1.72,3.44.28,4.38A47.94,47.94,0,0,1,517.73,211c-10.09,1.77-15.25,0-18.62-3.69s-2.64-13.12-1.7-19.22C498.38,181.73,506.19,140.2,506.19,140.2Z" style="fill: #fff;fill-rule: evenodd"/>
      </g>
    </g>
  </g>
</svg>
