<svg xmlns="http://www.w3.org/2000/svg" viewBox="0 0 357.63 100.73">
  <title>Asset 1</title>
  <g id="Layer_2" data-name="Layer 2">
    <g id="Layer_1-2" data-name="Layer 1">
      <g>
        <path d="M75.84,50.22A6,6,0,0,0,79,49.61a11.3,11.3,0,0,0,2.31-1.54,9.61,9.61,0,0,0,1.85-2.26l.92-1.54c.41-.68.78-.77,1.08-.25a4.09,4.09,0,0,1,0,2.82,11.16,11.16,0,0,1-2.57,3.59,12.1,12.1,0,0,1-3.84,2.26,11.93,11.93,0,0,1-6,.4h-.41a17.17,17.17,0,0,1-3.44,6.11,7.32,7.32,0,0,1-6.21,2.41,5,5,0,0,1-3.08-1.18,7.4,7.4,0,0,1-1.89-2.57,11.46,11.46,0,0,1-.92-3.12,9.1,9.1,0,0,1-.06-2.88,25.7,25.7,0,0,1,1.74-7.38A18.75,18.75,0,0,1,60.45,41a3.25,3.25,0,0,1,.93-.82,8.47,8.47,0,0,1,1-.41,4.89,4.89,0,0,1,1.39-2.62A5.08,5.08,0,0,1,67,35.86a3.83,3.83,0,0,1,2.21.52,6.54,6.54,0,0,1,2.21,2A11.23,11.23,0,0,1,73,42.17a17.66,17.66,0,0,1,.25,5.69,6.6,6.6,0,0,1,0,.93c0,.27-.09.58-.16.92a9,9,0,0,0,2.77.51M60.15,52.07c0,.55,0,1.18.05,1.9a9.23,9.23,0,0,0,.36,2.1,3.65,3.65,0,0,0,1,1.69,3.12,3.12,0,0,0,1.95.77,2.82,2.82,0,0,0,1.84-.46A5.82,5.82,0,0,0,67,56.53a16.71,16.71,0,0,0,1.34-2.15A10.76,10.76,0,0,0,69.28,52a16.27,16.27,0,0,1-2.61-1.85A8,8,0,0,1,64.87,48a15.64,15.64,0,0,1-1.74-3.29,3.75,3.75,0,0,0-.92,1.23,20.9,20.9,0,0,0-1,2,17.53,17.53,0,0,0-.78,2.25,8.73,8.73,0,0,0-.3,1.9m9.74-3.8c0-.88,0-1.88,0-3a20,20,0,0,0-.32-3,7,7,0,0,0-.76-2.2,1.41,1.41,0,0,0-1.44-.78,1.67,1.67,0,0,0-1.59,1.55A5,5,0,0,0,66,43.66a8.55,8.55,0,0,0,3.89,4.61" style="fill: #231f20"/>
        <path d="M114,48.89c-.21.34-.68,1.21-1.43,2.61a30.89,30.89,0,0,1-2.93,4.42,23.5,23.5,0,0,1-4.25,4.2,9.09,9.09,0,0,1-5.33,2A6.74,6.74,0,0,1,95.52,61a7.22,7.22,0,0,1-2.26-3.08,11.86,11.86,0,0,1-.74-4,38.69,38.69,0,0,1,.1-4.1c.1-1.26.22-2.31.35-3.13s.1-1.26-.1-1.34c-.41-.06-1,.62-1.84,2.06s-1.66,3-2.52,4.82-1.6,3.46-2.26,5a16.59,16.59,0,0,0-1,2.67c0,.81-.2,1.35-.61,1.58a1.75,1.75,0,0,1-1.39.16,3.88,3.88,0,0,1-1.49-.82A2.33,2.33,0,0,1,81,59.25a16,16,0,0,1-.25-4.47c.1-1.8.25-3.55.46-5.22s.54-3.79,1-6.31c0-1.37.07-2.94.2-4.72.13-1.57.26-3.51.4-5.8s.38-5,.72-8q.92-9.33,3.06-14.62C88,6.54,89.71,4.81,91.67,4.88A4.77,4.77,0,0,1,93,5.19a5.1,5.1,0,0,1,1.78,1.08,5.31,5.31,0,0,1,1.38,2.1,6.79,6.79,0,0,1,.2,3.38,30.29,30.29,0,0,1-.81,3.6c-.41,1.43-.89,3-1.42,4.71S93,23.57,92.35,25.45l-1.89,5.49q-2.23,6.36-5,13.43l-.71,10.26a71.83,71.83,0,0,1,2.94-7,33.27,33.27,0,0,1,2.91-4.82c1-1.44,2.11-2.15,3.2-2.15a3.92,3.92,0,0,1,2.8.71,2.54,2.54,0,0,1,.61,1.9,9.74,9.74,0,0,1-.51,2.61,12.2,12.2,0,0,0-.57,2.77q-.09,1-.09,2.67a14.48,14.48,0,0,0,.35,3.18,7,7,0,0,0,1.28,2.71,3.17,3.17,0,0,0,2.67,1.19,6.58,6.58,0,0,0,4.26-1.64,23.22,23.22,0,0,0,3.74-3.95,39.66,39.66,0,0,0,3.08-4.72c.88-1.6,1.64-3,2.26-4,.2-.41.44-.58.71-.51s.47.32.57.76a5.11,5.11,0,0,1,0,1.85,10.83,10.83,0,0,1-.93,2.72M91.92,8.68c-.48-.07-.93.22-1.34.87a11.06,11.06,0,0,0-1.13,2.67c-.34,1.12-.66,2.43-1,3.89s-.57,3-.78,4.47Q86.89,26,86.27,33q2.57-6.57,4.21-11.9c.48-1.51.9-3,1.28-4.41a35.7,35.7,0,0,0,.82-3.9,12.5,12.5,0,0,0,.15-2.87c-.06-.75-.34-1.16-.81-1.23" style="fill: #231f20"/>
        <path d="M149.29,49.09c-.21.35-.67,1.15-1.39,2.41a24.37,24.37,0,0,1-2.82,4A18.05,18.05,0,0,1,140.93,59a9,9,0,0,1-5.29,1.44,8,8,0,0,1-4.15-1.08A6.55,6.55,0,0,1,129.24,57a7.91,7.91,0,0,1-.93-3.13c-.1-1.12-.15-2.17-.15-3.13V48.27c0-.68-.15-1.06-.41-1.12s-.52.54-.92,1.84-1,2.74-1.65,4.32a22,22,0,0,1-2.46,4.3,3.86,3.86,0,0,1-3.38,1.84,2.41,2.41,0,0,1-2.16-1.27,8,8,0,0,1-.77-2.83,17.09,17.09,0,0,1,0-3.49c.13-1.23.24-2.35.32-3.38a13.46,13.46,0,0,0,.1-2.67c-.07-.69-.29-1-.62-1-.14,0-.33.25-.57.76s-1.48,2.89-1.76,3.43c-.27.35.43-1.36.13-1.42a.87.87,0,0,1-.62-.73,4.22,4.22,0,0,1,0-1.79,9.19,9.19,0,0,1,1.12-2.82,3.42,3.42,0,0,1,1-1.13,2.4,2.4,0,0,1,1.34-.41,2.48,2.48,0,0,1,1.44.51A4.13,4.13,0,0,1,119.64,43a9.31,9.31,0,0,1,.52,3.69c-.07,1.38-.17,2.67-.31,3.9s-.22,2.29-.26,3.18.22,1.41.77,1.54,1-.57,1.64-1.9,1.41-2.87,2.15-4.61,1.44-3.43,2.06-5.08,1.06-2.74,1.33-3.29c.47-1.16,1.18-1.7,2.1-1.63a3.81,3.81,0,0,1,2.62,1.54c.27.27.36.85.26,1.74s-.26,2-.46,3.17-.39,2.52-.57,3.86a13.76,13.76,0,0,0,0,3.74,6.53,6.53,0,0,0,1.18,3,3.71,3.71,0,0,0,3,1.34A6.63,6.63,0,0,0,140.05,56a17.57,17.57,0,0,0,3.75-3.44,29.22,29.22,0,0,0,3-4.36c.85-1.54,1.58-2.85,2.2-3.95.2-.41.45-.58.72-.51s.46.32.57.77a5.1,5.1,0,0,1-.06,1.84,11,11,0,0,1-.92,2.72" style="fill: #231f20"/>
        <path d="M179.4,61.09a9.93,9.93,0,0,0,4.1-.87,13.63,13.63,0,0,0,3.64-2.41,18.79,18.79,0,0,0,3.08-3.64,50.25,50.25,0,0,0,2.61-4.46,45.24,45.24,0,0,1-1.33-9.44,47.93,47.93,0,0,1,.62-10c.27-1.78.66-3.94,1.17-6.51a72.46,72.46,0,0,1,1.85-7.29,32.36,32.36,0,0,1,2.36-5.79c.85-1.57,1.76-2.26,2.72-2.05,1.91.41,3,2.13,3.38,5.18s-.07,7.68-1.23,13.9c-.82,4.23-1.8,8.24-2.92,12a80.39,80.39,0,0,1-3.85,10.36,17.28,17.28,0,0,0,2.88,7,6.87,6.87,0,0,0,6,2.83,11.91,11.91,0,0,0,7.07-2.36,27,27,0,0,0,6.06-6.21,48.16,48.16,0,0,0,4.92-8.77,109.32,109.32,0,0,0,3.85-10.26c1.13-3.55,2.09-7.08,2.92-10.56s1.47-6.7,1.94-9.64.81-5.46,1-7.55a19.39,19.39,0,0,0,.05-4.25c.07-.21.34-.32.82-.36a3.32,3.32,0,0,1,1.49.25,4,4,0,0,1,1.38.93,1.78,1.78,0,0,1,.52,1.54q-.31,2.06-.88,5.74t-1.49,8.36c-.6,3.11-1.36,6.41-2.24,9.9s-1.95,7-3.13,10.47a104.32,104.32,0,0,1-4.05,10,47.29,47.29,0,0,1-5.09,8.46,26.7,26.7,0,0,1-6.2,6,13.57,13.57,0,0,1-7.49,2.42,9.56,9.56,0,0,1-7.28-2.87,20.77,20.77,0,0,1-4.72-7.8,29.16,29.16,0,0,1-6.51,8.16,10.52,10.52,0,0,1-7.65,2.61,13.34,13.34,0,0,1-9.53-4.72A27.33,27.33,0,0,1,165,49.15a54,54,0,0,1-1.84-13.24,107.06,107.06,0,0,1,.51-13.59A94.34,94.34,0,0,1,165.44,11a28.77,28.77,0,0,1,2.05-6.52c.08-.27.4-.37,1-.31a5.5,5.5,0,0,1,1.74.52,5,5,0,0,1,1.44,1,.85.85,0,0,1,.16,1.18,22.73,22.73,0,0,0-2.32,6.67A75.4,75.4,0,0,0,168,24.22a116.8,116.8,0,0,0-.26,12.51,59.42,59.42,0,0,0,1.49,11.9,25.55,25.55,0,0,0,3.75,8.88,7.81,7.81,0,0,0,6.46,3.58m15.48-16A65.15,65.15,0,0,0,197.81,36c.64-2.76,1-4.63,1.18-5.59.75-4.79,1.2-8.27,1.33-10.45s0-3.32-.3-3.39c-.15,0-.4.37-.77,1.12a24.11,24.11,0,0,0-1.19,3c-.41,1.23-.82,2.63-1.22,4.2s-.76,3.15-1,4.72a56.67,56.67,0,0,0-.82,6.77,60.41,60.41,0,0,0,0,8.72Z" style="fill: #231f20"/>
        <path d="M254.32,48.79c-.2.34-.68,1.18-1.43,2.51A29.08,29.08,0,0,1,250,55.5a22.58,22.58,0,0,1-4.15,4,8.4,8.4,0,0,1-5.13,1.75A7,7,0,0,1,236,59.71a10.2,10.2,0,0,1-2.66-3.44,11.66,11.66,0,0,1-1.13-3.79,12.48,12.48,0,0,1-.11-2.56c.08-.41.16-1,.26-1.8s.23-1.56.36-2.31S233,44,233.09,43a2,2,0,0,1,.93-1,2.47,2.47,0,0,1,1.28-.25,2.32,2.32,0,0,1,1.17.41,1.22,1.22,0,0,1,.52,1.08c0,.06-.09.49-.26,1.28s-.32,1.73-.45,2.82a27.9,27.9,0,0,0-.22,3.54,13.39,13.39,0,0,0,.41,3.43A5.26,5.26,0,0,0,238,56.89a4,4,0,0,0,3.07.92,6.9,6.9,0,0,0,4-1.64,22.78,22.78,0,0,0,3.64-3.64,34.49,34.49,0,0,0,3-4.41q1.34-2.31,2.26-3.95c.2-.48.44-.7.72-.67s.46.28.56.72a5.06,5.06,0,0,1-.05,1.84,11.3,11.3,0,0,1-.93,2.73M237,31.66a2,2,0,0,1,2,1.48,9.88,9.88,0,0,1,.32,2.31A2.43,2.43,0,0,1,238,37.2a2.62,2.62,0,0,1-1.95.51,2.24,2.24,0,0,1-1.79-1.24,4.56,4.56,0,0,1-.36-1.74,6.22,6.22,0,0,1,.82-2,2.28,2.28,0,0,1,2.36-1.17Z" style="fill: #231f20"/>
        <path d="M258.83,58.12a9,9,0,0,0,5.08-1.53,19.62,19.62,0,0,0,4.15-3.75,18.94,18.94,0,0,0,2.73-4.23,50.49,50.49,0,0,0,2.71-7c.15-.44.55,2.08.82,2.15s.46.33.58.77a5.05,5.05,0,0,1-.06,1.79,9.4,9.4,0,0,1-1,2.67c-.2.34-.68,1.2-1.43,2.57a22.78,22.78,0,0,1-3.14,4.26,20.48,20.48,0,0,1-4.92,3.89,11.64,11.64,0,0,1-6.61,1.49,10.48,10.48,0,0,1-7-2.62,14.36,14.36,0,0,1-3.69-6,30.61,30.61,0,0,1-1.39-8.06c-.13-2.93-.2-5.81-.2-8.61a37,37,0,0,1,.51-5.69c.34-2.16.81-4.34,1.39-6.57a54.5,54.5,0,0,1,2.15-6.51,38.81,38.81,0,0,1,2.82-5.7,14.81,14.81,0,0,1,3.34-3.94,5.42,5.42,0,0,1,3.74-1.34,5.78,5.78,0,0,1,3.13,1,5.43,5.43,0,0,1,1.9,2.87,18,18,0,0,1,.66,5,71.88,71.88,0,0,1-.35,7.59,41.78,41.78,0,0,1-2.06,9.18A80.79,80.79,0,0,1,258.89,41q-2.1,4.37-4.16,7.8a37.75,37.75,0,0,1-3.28,4.87q2.88,4.41,7.38,4.41m1.65-33.24c.07-.68.24-1.84.51-3.49a39.1,39.1,0,0,0,.51-5,16.33,16.33,0,0,0-.36-4.46c-.3-1.29-.93-2-1.89-2.05s-2,.6-3.13,2a23,23,0,0,0-3.18,5.74,68,68,0,0,0-4.47,18.42,39.6,39.6,0,0,0-.15,8.15,26.43,26.43,0,0,0,1.39,6.41c1-1.43,2.06-3.07,3.13-4.92a60,60,0,0,0,3-6.11c1-2.21,1.85-4.56,2.67-7a47,47,0,0,0,1.84-7.7Z" style="fill: #231f20"/>
        <path d="M270,50.53c-.06-.27.33-.51.47-.79.13-.55.19-1,.87-1.16s1.15-.1,1.38.31A3.59,3.59,0,0,1,273.2,50a14,14,0,0,0,1.85,4,1.47,1.47,0,0,1,.61-.11,4.81,4.81,0,0,0,1-.15,4.9,4.9,0,0,0,1.55-.66,5,5,0,0,0,1.43-1.44,5.23,5.23,0,0,0,.72-2.57,22.07,22.07,0,0,0-.16-4.15,10,10,0,0,0-.82-2.87,11.12,11.12,0,0,0-1.17-2,15.87,15.87,0,0,1-1-1.54,13.49,13.49,0,0,1-.57,2.1c-.31.92-.55,1.79-.92,2.93-.32,1-.64,2.27-.95,3.09s-.67.81-.74,1-.26.31-.56.31a2.33,2.33,0,0,1-.88-.16,1.77,1.77,0,0,1-.71-.51c-.22-.24.11-.49.24-.9.62-1.57.82-3.16,1.29-4.59.41-1.16.83-2.36,1.23-3.59s.72-2.12.93-2.67c.34-1.09.65-2,.92-2.87a1.74,1.74,0,0,1,1.85-1.23,2.57,2.57,0,0,1,1.95.66,3.94,3.94,0,0,1,.87,1.58,7.13,7.13,0,0,1,.25,1.9v1.58a8.42,8.42,0,0,0,.52,2.41c.33,1.05.68,2.14,1,3.26s.67,2.22,1,3.27a6.51,6.51,0,0,1,.37,2.41,10.28,10.28,0,0,1-.93,3.42,8,8,0,0,1-1.79,2.45,7.09,7.09,0,0,1-2.31,1.43,4.06,4.06,0,0,1-2.26.26,7.86,7.86,0,0,0,5.64,2.14,8.82,8.82,0,0,0,5.18-1.59A20.17,20.17,0,0,0,292,52.84a33.55,33.55,0,0,0,3.23-4.56c.93-1.57,1.69-2.91,2.31-4,.21-.41.44-.58.72-.51s.46.33.56.77a4.9,4.9,0,0,1-.05,1.85,11.56,11.56,0,0,1-.92,2.71c-.21.35-.69,1.21-1.44,2.57a21.37,21.37,0,0,1-3.23,4.26,22.3,22.3,0,0,1-5,3.89,11.87,11.87,0,0,1-6.72,1.49Q276.18,61,273.61,58a17.5,17.5,0,0,1-3.6-7.54Z" style="fill: #231f20"/>
        <path d="M313.72,50.22a6,6,0,0,0,3.12-.61,6.58,6.58,0,0,0,2.05-1.51A10.56,10.56,0,0,0,321,44.25l.81-.63c.42-.68.9-.12,1.2.4s1-.5.63.87c-.62,1.36-1.83,4.16-3.23,5.54a11.22,11.22,0,0,1-3.86,2.26,11.87,11.87,0,0,1-6,.4h-.41a17.17,17.17,0,0,1-3.44,6.11,7.33,7.33,0,0,1-6.21,2.41,5,5,0,0,1-3.08-1.18,7.28,7.28,0,0,1-1.89-2.57,11.46,11.46,0,0,1-.92-3.12,8.81,8.81,0,0,1-.06-2.88,25,25,0,0,1,1.75-7.38A17.7,17.7,0,0,1,298.33,41a3.23,3.23,0,0,1,.92-.82,7.33,7.33,0,0,1,1-.41,5,5,0,0,1,1.38-2.62,5.13,5.13,0,0,1,3.23-1.28,3.87,3.87,0,0,1,2.21.52,6.52,6.52,0,0,1,2.2,2,10.65,10.65,0,0,1,1.59,3.75,17.66,17.66,0,0,1,.25,5.69,6.71,6.71,0,0,1,0,.93c0,.27-.08.58-.16.92a9,9,0,0,0,2.78.51M298,52.07c0,.55,0,1.18.05,1.9a9.23,9.23,0,0,0,.36,2.1,3.65,3.65,0,0,0,1,1.69,3.09,3.09,0,0,0,2,.77,2.84,2.84,0,0,0,1.84-.46,6,6,0,0,0,1.64-1.54,15.64,15.64,0,0,0,1.33-2.15,11.3,11.3,0,0,0,.93-2.41,17.21,17.21,0,0,1-2.61-1.85A8.22,8.22,0,0,1,302.73,48,15.58,15.58,0,0,1,301,44.68a3.89,3.89,0,0,0-.93,1.23c-.34.62-.66,1.29-1,2a16.07,16.07,0,0,0-.76,2.25,7.74,7.74,0,0,0-.31,1.9m9.74-3.8c0-.88,0-1.88-.05-3a17.71,17.71,0,0,0-.31-3,6.75,6.75,0,0,0-.77-2.2,1.38,1.38,0,0,0-1.43-.78,1.66,1.66,0,0,0-1.59,1.55,5.12,5.12,0,0,0,.25,2.77,8.66,8.66,0,0,0,3.9,4.61" style="fill: #231f20"/>
        <path d="M356.59,49.09c-.21.35-.67,1.15-1.39,2.41a25,25,0,0,1-2.82,4A18.26,18.26,0,0,1,348.23,59a9,9,0,0,1-5.29,1.44,8,8,0,0,1-4.15-1.08A6.66,6.66,0,0,1,336.53,57a8.07,8.07,0,0,1-.92-3.13c-.11-1.12-.15-2.17-.15-3.13V48.27c0-.68-.14-1.06-.41-1.12s-.52.54-.93,1.84a43.71,43.71,0,0,1-1.64,4.32,22,22,0,0,1-2.46,4.3,3.86,3.86,0,0,1-3.38,1.84,2.38,2.38,0,0,1-2.15-1.27,7.4,7.4,0,0,1-.78-2.83,17.09,17.09,0,0,1,.05-3.49c.14-1.23.25-2.35.31-3.38a13.58,13.58,0,0,0,.11-2.67c-.07-.69-.28-1-.62-1-.14,0-.32.25-.57.76s-.5,1.05-.76,1.6a.89.89,0,0,1-.87.41.86.86,0,0,1-.62-.73,4.4,4.4,0,0,1,.05-1.79,9,9,0,0,1,1.13-2.82,3.29,3.29,0,0,1,1-1.13,2.4,2.4,0,0,1,1.34-.41,2.5,2.5,0,0,1,1.44.51A4,4,0,0,1,326.94,43a9.13,9.13,0,0,1,.51,3.69c-.07,1.38-.16,2.67-.3,3.9s-.22,2.29-.26,3.18.22,1.41.77,1.54,1-.57,1.64-1.9,1.4-2.87,2.16-4.61,1.44-3.43,2.05-5.08,1.06-2.74,1.33-3.29c.48-1.16,1.18-1.7,2.1-1.63a3.83,3.83,0,0,1,2.62,1.54c.27.27.36.85.25,1.74s-.25,2-.45,3.17-.4,2.52-.57,3.86a13.76,13.76,0,0,0,0,3.74,6.42,6.42,0,0,0,1.18,3,3.7,3.7,0,0,0,3,1.34A6.64,6.64,0,0,0,347.35,56a17.57,17.57,0,0,0,3.75-3.44,29.22,29.22,0,0,0,3-4.36c.85-1.54,1.59-2.85,2.2-3.95.21-.41.44-.58.72-.51s.46.32.56.77a4.84,4.84,0,0,1-.05,1.84,11,11,0,0,1-.92,2.72" style="fill: #231f20"/>
        <path d="M46.43,63.66c.41-3.48,1.85-11.37,2.08-15s.7-7.11.77-9.29c.06-1.16.2-2.94.4-5.32s.45-4.79.72-7.18q.42-4.08,1-8.9L50,19.65a2.09,2.09,0,0,1-.82,1,.64.64,0,0,1-.77-.1,1.53,1.53,0,0,1-.46-1A4.48,4.48,0,0,1,48,18c.14-.48.43-1.31.87-2.51s1-2.44,1.49-3.73q.93-2.27,2-4.81a2,2,0,0,1,.51-1.13A2.19,2.19,0,0,1,54,5.26a4.26,4.26,0,0,1,2,.26,4,4,0,0,1,1.85,1,2.73,2.73,0,0,1,.61,1.29,2.55,2.55,0,0,1-.15,1.33c-.17.45-.33.84-.46,1.18s-.48,1.93-1,4.78S55.62,21.52,55,25.83,53.72,34.88,53.17,40s-.93,10.19-1.55,15.15c-.29,2.26-1,7.79-1.19,9.71,2.76.88,3.85,1.41,4.86,1.59,1.16.2,1.52,1,1.76.43.1-.24.41-.1.55.17a1.43,1.43,0,0,1,0,1.47c-.2.27-.41-.06-1-.2a1.24,1.24,0,0,1-.69-.28c-.21-.2-.74-.17-1.22-.44-.69-.35-2.26.78-4.72,0-.34,2.33-.4,2.56-.94,5.36a46.82,46.82,0,0,1-1.7,6.71,45.47,45.47,0,0,1-2.88,7.44,35,35,0,0,1-4.61,7.08,20,20,0,0,1-6.06,4.87,14.6,14.6,0,0,1-7.64,1.59,35.8,35.8,0,0,1-7.79-1.28,27.4,27.4,0,0,1-8.57-4A23,23,0,0,1,3,88,19.61,19.61,0,0,1,.1,79.85a8.47,8.47,0,0,1,1.24-5.76c1.35-2.49,2.71-3.79,5.55-5.75a35.33,35.33,0,0,1,11-4.72,56.13,56.13,0,0,1,16.61-1.4c2.4.14,4.58.33,6.57.56s3.76.54,5.33.88m-10.92,2A47.16,47.16,0,0,0,23,66a35.67,35.67,0,0,0-10.57,3.43,24.08,24.08,0,0,0-7.3,5.09,6.4,6.4,0,0,0-2,5.08,11.51,11.51,0,0,0,1.2,4.63,18.09,18.09,0,0,0,3.9,5.33,26.81,26.81,0,0,0,6.87,4.72,26.47,26.47,0,0,0,10.06,2.51A12.2,12.2,0,0,0,32,95.49,19.17,19.17,0,0,0,37.58,91a31.75,31.75,0,0,0,4.31-6.62,19.8,19.8,0,0,0,1.88-4.56,37.09,37.09,0,0,0,1.38-6,56.68,56.68,0,0,0,.71-6.87c-1.37-.27-2.88-.51-4.56-.72s-3.61-.41-5.79-.61" style="fill: #231f20"/>
        <path d="M46.85,63.82S68.51,69.66,78,71.33c19.77,3.53,37.67,2.36,60.66,1.31,16.28-.74,49.27-2.24,83.89-4.07,35.85-1.91,72.4-2.51,89.34-1.63,15.83.81,20,.76,41.55,4a24,24,0,0,1,3.7.81l.07,3.1s-7.84-1.28-26.59-3.26c-15.51-1.64-43.36-2.39-80.64-.81-34.32,1.45-41.54,1.91-61.09,3-14.94.82-20,1-41.28,1.9-14.9.62-26.81,1.52-40.73,1.19-12.22-.29-17.36-.53-24-1.55-11.67-1.78-14.62-3.25-20-4.46-2.44-.55-12.94-3.13-12.94-3.13Z" style="fill: #231f20"/>
      </g>
    </g>
  </g>
</svg>
