<svg xmlns="http://www.w3.org/2000/svg" viewBox="0 0 254 186.24">
  <title>Asset 2</title>
  <g id="Layer_2" data-name="Layer 2">
    <g id="_199_red_reversed_copy" data-name="199 red reversed copy">
      <rect x="0.5" y="0.5" width="253" height="185.24" style="fill: #fff;stroke: #231f20;stroke-width: 0.9995109999999999px"/>
      <g>
        <path d="M25,114.29c0,6.87-2.55,10.66-7,10.66-3.94,0-6.61-3.7-6.68-10.38s2.93-10.5,7-10.5S25,107.86,25,114.29Zm-11,.31c0,5.25,1.61,8.24,4.1,8.24,2.8,0,4.13-3.27,4.13-8.42,0-5-1.27-8.24-4.1-8.24C15.73,106.18,14,109.11,14,114.6Z" style="fill: #231f20"/>
        <path d="M33.41,107h-.07l-3.51,1.9-.53-2.08,4.42-2.37h2.33v20.2H33.41Z" style="fill: #231f20"/>
        <path d="M49.34,107h-.06l-3.51,1.9-.53-2.08,4.41-2.37H52v20.2H49.34Z" style="fill: #231f20"/>
        <path d="M67.79,124.61v-5.5H58.41v-1.8l9-12.9h3V117H73.2v2.15H70.37v5.5Zm0-7.65v-6.74c0-1,0-2.11.1-3.17h-.1c-.62,1.19-1.11,2.06-1.67,3l-4.94,6.86V117Z" style="fill: #231f20"/>
        <path d="M81.87,124.61v-1.68L84,120.85c5.16-4.91,7.49-7.52,7.52-10.57,0-2-1-3.94-4-3.94a6.89,6.89,0,0,0-4.29,1.71l-.87-1.93a8.88,8.88,0,0,1,5.72-2.05c4.35,0,6.18,3,6.18,5.87,0,3.73-2.7,6.75-7,10.85l-1.61,1.49v.06h9.07v2.27Z" style="fill: #231f20"/>
        <path d="M110.91,104.41v1.81l-8.79,18.39H99.3l8.76-17.87v-.06H98.18v-2.27Z" style="fill: #231f20"/>
        <path d="M113.74,124.61v-1.68l2.14-2.08c5.16-4.91,7.49-7.52,7.52-10.57,0-2-1-3.94-4-3.94a6.84,6.84,0,0,0-4.28,1.71l-.87-1.93a8.85,8.85,0,0,1,5.71-2.05c4.35,0,6.19,3,6.19,5.87,0,3.73-2.71,6.75-7,10.85l-1.62,1.49v.06h9.07v2.27Z" style="fill: #231f20"/>
        <path d="M137.85,122.68a11.75,11.75,0,0,0,2.2-.09,7.62,7.62,0,0,0,4.23-2,8.87,8.87,0,0,0,2.67-5.37h-.09a6,6,0,0,1-4.76,2.17,5.85,5.85,0,0,1-6-6.18,6.92,6.92,0,0,1,6.9-7.18c4.13,0,6.67,3.36,6.67,8.51,0,4.45-1.49,7.55-3.47,9.48a10.14,10.14,0,0,1-5.88,2.7,12.45,12.45,0,0,1-2.51.16Zm1-11.62c0,2.52,1.52,4.29,3.89,4.29a4.51,4.51,0,0,0,4-2.11,1.78,1.78,0,0,0,.25-1c0-3.45-1.27-6.09-4.13-6.09C140.49,106.15,138.84,108.2,138.84,111.06Z" style="fill: #231f20"/>
        <path d="M165.31,104.41v1.81l-8.79,18.39h-2.83l8.76-17.87v-.06h-9.88v-2.27Z" style="fill: #231f20"/>
        <path d="M180.19,106.71h-7.7l-.78,5.19a11.11,11.11,0,0,1,1.65-.12,8.55,8.55,0,0,1,4.34,1.08,5.74,5.74,0,0,1,2.89,5.19c0,4-3.13,6.9-7.51,6.9a9.94,9.94,0,0,1-5-1.24l.69-2.09a9,9,0,0,0,4.31,1.12c2.58,0,4.79-1.67,4.79-4.38s-1.77-4.47-5.81-4.47a19.87,19.87,0,0,0-2.8.22l1.31-9.7h9.66Z" style="fill: #231f20"/>
        <path d="M197.49,114.29c0,6.87-2.54,10.66-7,10.66-3.94,0-6.61-3.7-6.68-10.38s2.92-10.5,7-10.5C195.07,104.07,197.49,107.86,197.49,114.29Zm-11,.31c0,5.25,1.61,8.24,4.1,8.24,2.79,0,4.13-3.27,4.13-8.42,0-5-1.27-8.24-4.1-8.24C188.27,106.18,186.53,109.11,186.53,114.6Z" style="fill: #231f20"/>
      </g>
      <g>
        <path d="M127,165.83l-.77-3.57a9.31,9.31,0,0,1-2.13.48c-2,0-2.61-.78-2.61-3.68V147.64h3.77l1.55-4.16h-5.32V137.2l-5.91,1v5.33h-2.32v4.16h2.32V160c0,2.13,0,2.51.39,3.48.68,2,3.09,3.39,6.09,3.39a13.72,13.72,0,0,0,4.94-1.07Z" style="fill: #231f20"/>
        <path d="M110.15,166.32v-16a9.35,9.35,0,0,0-.58-4.16c-.67-2-3-3.3-5.9-3.3a8.43,8.43,0,0,0-6.49,2.81c0-.29.1-1.64.1-2.32v-8.62l-6.1,1v30.57h6.1V153.74c0-2.12.27-3.35,1-4.17a5.11,5.11,0,0,1,3.77-1.64c1.74,0,2.33,1,2.33,3.1v15.29Z" style="fill: #231f20"/>
        <path d="M81.16,157.22a7.45,7.45,0,0,1-.49,3A2.86,2.86,0,0,1,78,162c-3.58,0-4-2.51-4-7.26,0-4.25.77-6.77,3.87-6.77a4.38,4.38,0,0,1,3.29,1.45v7.84ZM86.79,143l-4.43.72s-.33,1.27-.43,1.76a7,7,0,0,0-5.13-2.38c-7.06,0-9.39,6.39-9.39,12.39,0,5.61,2.42,11.13,9.1,11.13a6,6,0,0,0,4.65-2.23v1.94c0,3.48-.29,5.13-4.75,5.13a15.79,15.79,0,0,1-6.87-1.93l-1.45,4.16A18.88,18.88,0,0,0,76.71,176c2.32,0,5.61-.39,7.74-2.22s2.32-5.14,2.32-8.33l0-22.46Z" style="fill: #231f20"/>
        <path d="M64.53,137.18A3.59,3.59,0,0,0,61,133.51a3.73,3.73,0,1,0,3.58,3.67Z" style="fill: #231f20"/>
        <polygon points="63.85 166.32 63.85 142.99 57.85 143.96 57.85 166.32 63.85 166.32 63.85 166.32" style="fill: #231f20"/>
        <path d="M53.33,166.32V149.67a10.18,10.18,0,0,0-.39-3.29c-.68-1.94-3-3.29-5.52-3.29a8.36,8.36,0,0,0-4.06,1,7.92,7.92,0,0,0-2.62,2.13l-.37-3-5,.81v22.36h6V152.87a4.89,4.89,0,0,1,1.25-3.59,4.24,4.24,0,0,1,2.81-1.16c1.64,0,2.13,1.07,2.13,3.68v14.52Z" style="fill: #231f20"/>
        <polygon points="33.65 166.32 22.95 149.67 32.59 135.34 25.23 135.34 16.43 149.48 16.43 135.34 10.13 135.34 10.13 166.32 16.43 166.32 16.43 150.15 25.78 166.32 33.65 166.32 33.65 166.32" style="fill: #231f20"/>
        <g>
          <path d="M218.56,166.05V149.4a10.18,10.18,0,0,0-.39-3.29c-.68-1.94-3-3.29-5.51-3.29a8.38,8.38,0,0,0-4.07,1,7.75,7.75,0,0,0-2.61,2.12l-.38-3-5,.81v22.36h6V152.6a4.85,4.85,0,0,1,1.26-3.59,4.22,4.22,0,0,1,2.8-1.16c1.65,0,2.13,1.07,2.13,3.68v14.52Z" style="fill: #231f20"/>
          <polygon points="234.89 152.79 242.25 143.2 234.99 143.2 229.08 153.08 236.88 166.05 243.9 166.05 234.89 152.79 234.89 152.79" style="fill: #231f20"/>
          <polygon points="223.08 135.68 223.08 166.05 229.08 166.05 229.08 153.08 229.08 134.71 223.08 135.68 223.08 135.68" style="fill: #231f20"/>
          <path d="M176.33,143.11a4.88,4.88,0,0,0-2.23-.49c-2.23,0-4.45,2-5.42,3.59l-.58-3.1-4.84.78v22.16h6V151.89a4,4,0,0,1,.87-2.88,3.64,3.64,0,0,1,2.64-1.06,4.89,4.89,0,0,1,2,.48l1.52-5.32Z" style="fill: #231f20"/>
          <polygon points="162.39 135.07 145.65 135.07 145.65 166.05 151.74 166.05 151.74 152.3 159.68 152.3 159.68 147.29 151.74 147.29 151.74 140.03 161.62 140.03 162.39 135.07 162.39 135.07" style="fill: #231f20"/>
          <path d="M197.82,163.53c-2-1.55-2.25-2.68-2.25-5l0-7.74a12.46,12.46,0,0,0-.39-4.07c-.87-2.52-3.48-4-7.36-4a15,15,0,0,0-6.29,1.35A32.67,32.67,0,0,0,178,146l2.21,3.95a12.72,12.72,0,0,1,6.81-2.4c2.23,0,2.77,1,2.77,3.51v.87h-1.41c-7.26,0-10.94,2.51-10.94,7.84,0,4.55,2.71,7.16,7.84,7.16a8.1,8.1,0,0,0,4.55-1.26,8.67,8.67,0,0,0,1.45-1.27,6.55,6.55,0,0,0,3.2,2.82l3.37-3.68Zm-8.16-7.69v5.31a4.38,4.38,0,0,1-3.26,1.42,2.71,2.71,0,0,1-2.61-3c0-2.7,1.36-3.72,5.52-3.72Z" style="fill: #231f20"/>
        </g>
      </g>
      <g>
        <polygon points="168.95 33.62 181.58 46.24 206.66 21.17 194.03 8.54 168.95 8.54 168.95 33.62 168.95 33.62" style="fill: #231f20"/>
        <polygon points="194.03 83.96 206.66 71.33 181.58 46.24 168.95 58.88 168.95 83.96 194.03 83.96 194.03 83.96" style="fill: #231f20"/>
        <polygon points="206.66 71.33 219.29 83.96 244.37 83.96 244.37 58.88 231.74 46.24 206.66 71.33 206.66 71.33" style="fill: #231f20"/>
        <polygon points="231.74 46.24 244.37 33.62 244.37 8.54 219.29 8.54 206.66 21.17 231.74 46.24 231.74 46.24" style="fill: #231f20"/>
      </g>
      <rect x="0.5" y="0.5" width="253" height="185.24" style="fill: #ed174f"/>
      <g>
        <path d="M127,165.83l-.77-3.57a9.31,9.31,0,0,1-2.13.48c-2,0-2.61-.78-2.61-3.68V147.64h3.77l1.55-4.16h-5.32V137.2l-5.91,1v5.33h-2.32v4.16h2.32V160c0,2.13,0,2.51.39,3.48.68,2,3.09,3.39,6.09,3.39a13.72,13.72,0,0,0,4.94-1.07Z" style="fill: #fff"/>
        <path d="M110.15,166.32v-16a9.35,9.35,0,0,0-.58-4.16c-.67-2-3-3.3-5.9-3.3a8.43,8.43,0,0,0-6.49,2.81c0-.29.1-1.64.1-2.32v-8.62l-6.1,1v30.57h6.1V153.74c0-2.12.27-3.35,1-4.17a5.11,5.11,0,0,1,3.77-1.64c1.74,0,2.33,1,2.33,3.1v15.29Z" style="fill: #fff"/>
        <path d="M81.16,157.22a7.45,7.45,0,0,1-.49,3A2.86,2.86,0,0,1,78,162c-3.58,0-4-2.51-4-7.26,0-4.25.77-6.77,3.87-6.77a4.38,4.38,0,0,1,3.29,1.45v7.84ZM86.79,143l-4.43.72s-.33,1.27-.43,1.76a7,7,0,0,0-5.13-2.38c-7.06,0-9.39,6.39-9.39,12.39,0,5.61,2.42,11.13,9.1,11.13a6,6,0,0,0,4.65-2.23v1.94c0,3.48-.29,5.13-4.75,5.13a15.79,15.79,0,0,1-6.87-1.93l-1.45,4.16A18.88,18.88,0,0,0,76.71,176c2.32,0,5.61-.39,7.74-2.22s2.32-5.14,2.32-8.33l0-22.46Z" style="fill: #fff"/>
        <path d="M64.53,137.18A3.59,3.59,0,0,0,61,133.51a3.73,3.73,0,1,0,3.58,3.67Z" style="fill: #fff"/>
        <polygon points="63.85 166.32 63.85 142.99 57.85 143.96 57.85 166.32 63.85 166.32 63.85 166.32" style="fill: #fff"/>
        <path d="M53.33,166.32V149.67a10.18,10.18,0,0,0-.39-3.29c-.68-1.94-3-3.29-5.52-3.29a8.36,8.36,0,0,0-4.06,1,7.92,7.92,0,0,0-2.62,2.13l-.37-3-5,.81v22.36h6V152.87a4.89,4.89,0,0,1,1.25-3.59,4.24,4.24,0,0,1,2.81-1.16c1.64,0,2.13,1.07,2.13,3.68v14.52Z" style="fill: #fff"/>
        <polygon points="33.65 166.32 22.95 149.67 32.59 135.34 25.23 135.34 16.43 149.48 16.43 135.34 10.13 135.34 10.13 166.32 16.43 166.32 16.43 150.15 25.78 166.32 33.65 166.32 33.65 166.32" style="fill: #fff"/>
        <g>
          <path d="M218.56,166.05V149.4a10.18,10.18,0,0,0-.39-3.29c-.68-1.94-3-3.29-5.51-3.29a8.38,8.38,0,0,0-4.07,1,7.75,7.75,0,0,0-2.61,2.12l-.38-3-5,.81v22.36h6V152.6a4.85,4.85,0,0,1,1.26-3.59,4.22,4.22,0,0,1,2.8-1.16c1.65,0,2.13,1.07,2.13,3.68v14.52Z" style="fill: #fff"/>
          <polygon points="234.89 152.79 242.25 143.2 234.99 143.2 229.08 153.08 236.88 166.05 243.9 166.05 234.89 152.79 234.89 152.79" style="fill: #fff"/>
          <polygon points="223.08 135.68 223.08 166.05 229.08 166.05 229.08 153.08 229.08 134.71 223.08 135.68 223.08 135.68" style="fill: #fff"/>
          <path d="M176.33,143.11a4.88,4.88,0,0,0-2.23-.49c-2.23,0-4.45,2-5.42,3.59l-.58-3.1-4.84.78v22.16h6V151.89a4,4,0,0,1,.87-2.88,3.64,3.64,0,0,1,2.64-1.06,4.89,4.89,0,0,1,2,.48l1.52-5.32Z" style="fill: #fff"/>
          <polygon points="162.39 135.07 145.65 135.07 145.65 166.05 151.74 166.05 151.74 152.3 159.68 152.3 159.68 147.29 151.74 147.29 151.74 140.03 161.62 140.03 162.39 135.07 162.39 135.07" style="fill: #fff"/>
          <path d="M197.82,163.53c-2-1.55-2.25-2.68-2.25-5l0-7.74a12.46,12.46,0,0,0-.39-4.07c-.87-2.52-3.48-4-7.36-4a15,15,0,0,0-6.29,1.35A32.67,32.67,0,0,0,178,146l2.21,3.95a12.72,12.72,0,0,1,6.81-2.4c2.23,0,2.77,1,2.77,3.51v.87h-1.41c-7.26,0-10.94,2.51-10.94,7.84,0,4.55,2.71,7.16,7.84,7.16a8.1,8.1,0,0,0,4.55-1.26,8.67,8.67,0,0,0,1.45-1.27,6.55,6.55,0,0,0,3.2,2.82l3.37-3.68Zm-8.16-7.69v5.31a4.38,4.38,0,0,1-3.26,1.42,2.71,2.71,0,0,1-2.61-3c0-2.7,1.36-3.72,5.52-3.72Z" style="fill: #fff"/>
        </g>
      </g>
      <g>
        <polygon points="168.95 33.62 181.58 46.24 206.66 21.17 194.03 8.54 168.95 8.54 168.95 33.62 168.95 33.62" style="fill: #fff"/>
        <polygon points="194.03 83.96 206.66 71.33 181.58 46.24 168.95 58.88 168.95 83.96 194.03 83.96 194.03 83.96" style="fill: #fff"/>
        <polygon points="206.66 71.33 219.29 83.96 244.37 83.96 244.37 58.88 231.74 46.24 206.66 71.33 206.66 71.33" style="fill: #fff"/>
        <polygon points="231.74 46.24 244.37 33.62 244.37 8.54 219.29 8.54 206.66 21.17 231.74 46.24 231.74 46.24" style="fill: #fff"/>
      </g>
      <g>
        <g>
          <path d="M17.28,125.07a5.45,5.45,0,0,1-4.17-1.8c-1.67-1.71-2.95-4.85-2.95-9,0-5.84,3.17-10.41,7.15-10.41a6.6,6.6,0,0,1,5.9,4,16.07,16.07,0,0,1,1.34,6.53C24.55,120.79,21.6,125.07,17.28,125.07ZM14,119.39c.66,2.3,2,3.51,3.39,3.51s2.61-1.15,3.26-3a15.47,15.47,0,0,0,.75-5.5,16.47,16.47,0,0,0-.56-5c-.65-2.3-1.9-3.42-3.42-3.42-1.24,0-2.33,1-3.08,2.64a14.33,14.33,0,0,0-.9,5.56A18.37,18.37,0,0,0,14,119.39Z" style="fill: #fff;stroke: #fff;stroke-width: 0.499756px"/>
          <path d="M32.35,124.57v-17c-.15.07-1.27.87-2.2,1.34s-2.33,1-2.52,1.09L27,108.48l6.09-4.28h2.14v20.37Z" style="fill: #fff;stroke: #fff;stroke-width: 0.499756px"/>
          <path d="M64.51,120.72c-.47,0-.87,0-.87,0a11,11,0,0,1,.06,1.18v3l-2.79.65v-3.73c0-.5.06-1.15.06-1.15a11.71,11.71,0,0,1-1.18.06H51.71v-2.14l7-14.45h3.11l-5.9,12.15c-.5,1-1.12,2-1.21,2.18.09,0,.58-.07,1.08-.07h4.47c.38,0,.69,0,.69,0s0-.62,0-.8c0-.62.06-1.43.12-2.33l.38-5,2.26-.62v7.15c0,.4,0,.93,0,1.21v.43s.44,0,.78,0h1.71v2.33Z" style="fill: #fff;stroke: #fff;stroke-width: 0.499756px"/>
          <path d="M88.91,124.61H76.67v-1.77a40.34,40.34,0,0,0,4.78-4.66c3.27-3.61,4.45-6,4.45-8.11a3.42,3.42,0,0,0-3.45-3.7c-1.4,0-2.43.44-4.41,1.83,0,0-.22.16-.25.16l-1.37-1.55a10.41,10.41,0,0,1,7-3,5.67,5.67,0,0,1,5.84,5.78,10,10,0,0,1-2.39,5.9c-.81,1-1.84,2.18-3,3.36a30.06,30.06,0,0,1-3.64,3.48c.19,0,1.68-.12,2.8-.12H89.5Z" style="fill: #fff;stroke: #fff;stroke-width: 0.499756px"/>
          <path d="M105.54,107.18c-.31.4-2.17,3.2-2.42,3.63a57.85,57.85,0,0,0-3,5.32,34.69,34.69,0,0,0-3,7.82l-.18,1-3.39.84a25.06,25.06,0,0,1,1.55-5.13c.84-2,1.84-4.19,3-6.31a39.79,39.79,0,0,1,5-7.51c-.1,0-1.25.06-2.46.06H92.4l.68-2.49h13Z" style="fill: #fff;stroke: #fff;stroke-width: 0.499756px"/>
          <path d="M120.77,124.61H108.53v-1.77a39.54,39.54,0,0,0,4.79-4.66c3.26-3.61,4.44-6,4.44-8.11a3.42,3.42,0,0,0-3.45-3.7c-1.4,0-2.42.44-4.41,1.83,0,0-.22.16-.25.16l-1.37-1.55a10.41,10.41,0,0,1,7-3,5.67,5.67,0,0,1,5.84,5.78,10,10,0,0,1-2.39,5.9,43.31,43.31,0,0,1-3,3.36,30.06,30.06,0,0,1-3.64,3.48c.19,0,1.68-.12,2.8-.12h6.49Z" style="fill: #fff;stroke: #fff;stroke-width: 0.499756px"/>
          <path d="M141.84,121.72a14.65,14.65,0,0,1-4.91,3.35,10.37,10.37,0,0,1-3.48,1.09L132,124.42a9.59,9.59,0,0,0,2.79-.84,14.08,14.08,0,0,0,6.59-5.59,9.48,9.48,0,0,0,.78-1.62,6.34,6.34,0,0,1-9.85-5.53,6.94,6.94,0,0,1,7.11-7,6.24,6.24,0,0,1,4.76,2,7.63,7.63,0,0,1,2.08,5.78A14.58,14.58,0,0,1,141.84,121.72Zm-2.58-15.66c-2.27,0-3.79,1.93-3.79,4.78s1.37,4.35,3.6,4.35a5.33,5.33,0,0,0,3.7-1.52,8.22,8.22,0,0,0,.31-2.39C143.08,108.11,141.56,106.06,139.26,106.06Z" style="fill: #fff;stroke: #fff;stroke-width: 0.499756px"/>
          <path d="M161.89,107.18c-.32.4-2.18,3.2-2.43,3.63a55.53,55.53,0,0,0-3,5.32,34.2,34.2,0,0,0-3,7.82l-.19,1-3.39.84a25.09,25.09,0,0,1,1.56-5.13c.84-2,1.83-4.19,3-6.31a40.31,40.31,0,0,1,5-7.51c-.09,0-1.24.06-2.45.06h-8.21l.69-2.49h13Z" style="fill: #fff;stroke: #fff;stroke-width: 0.499756px"/>
          <path d="M172.53,124.45a11.87,11.87,0,0,1-5.19,1.21,7.44,7.44,0,0,1-2.33-.28l-.56-2.17a5.67,5.67,0,0,0,2.46.43c3.66,0,6.46-2.33,6.46-5.37a4,4,0,0,0-.72-2.33c-.71-1-1.86-1.49-3.6-1.49a11.55,11.55,0,0,0-4.07.71l1-10.81h9.54l-.44,2.46h-6.49l-.5,5.56a11.55,11.55,0,0,1,2-.16,6.53,6.53,0,0,1,5.16,2.11,6.13,6.13,0,0,1,1.3,3.83A7.15,7.15,0,0,1,172.53,124.45Z" style="fill: #fff;stroke: #fff;stroke-width: 0.499756px"/>
          <path d="M187.51,125.07a5.44,5.44,0,0,1-4.17-1.8c-1.68-1.71-3-4.85-3-9,0-5.84,3.17-10.41,7.15-10.41a6.6,6.6,0,0,1,5.9,4,16.07,16.07,0,0,1,1.34,6.53C194.78,120.79,191.82,125.07,187.51,125.07Zm-3.33-5.68c.65,2.3,2,3.51,3.39,3.51s2.61-1.15,3.26-3a15.5,15.5,0,0,0,.74-5.5,16.5,16.5,0,0,0-.55-5c-.66-2.3-1.9-3.42-3.42-3.42-1.24,0-2.33,1-3.08,2.64a14.33,14.33,0,0,0-.9,5.56A18.37,18.37,0,0,0,184.18,119.39Z" style="fill: #fff;stroke: #fff;stroke-width: 0.499756px"/>
        </g>
        <path d="M44,124.57v-17c-.16.07-1.28.87-2.21,1.34s-2.33,1-2.51,1.09l-.66-1.56,6.09-4.28h2.15v20.37Z" style="fill: #fff;stroke: #fff;stroke-width: 0.499756px"/>
      </g>
    </g>
  </g>
</svg>
