<svg xmlns="http://www.w3.org/2000/svg" viewBox="0 0 194.1 41.1">
  <title>Asset 1</title>
  <g id="Layer_2" data-name="Layer 2">
    <g id="Capa_1" data-name="Capa 1">
      <g>
        <path d="M194.1,7c0-3.9-2.1-7-4.6-7H4.6C2,0,0,3.1,0,7V33.7c0,3.9,2.1,7,4.6,7H189.4c2.6,0,4.6-3.1,4.6-7V7Z" style="fill: #fff"/>
        <rect x="71.4" y="30.3" width="47.6" height="8.4" style="fill: #fff"/>
        <path d="M188.1,31.3c0,3.2-2,5.8-4.4,5.8H9.4C7,37.1,5,34.5,5,31.3V9.1C5,5.9,7,3.3,9.4,3.3H183.7c2.4,0,4.4,2.6,4.4,5.8Z" style="fill: #fff"/>
        <path d="M188.1,31.3c0,3.2-2,5.8-4.4,5.8H9.4C7,37.1,5,34.5,5,31.3V9.1C5,5.9,7,3.3,9.4,3.3H183.7c2.4,0,4.4,2.6,4.4,5.8Z" style="fill: none;stroke: #774d28;stroke-width: 1.9869999885559082px"/>
        <path d="M185.3,29.5c0,2.7-1.9,4.8-4.2,4.8H12.1c-2.3,0-4.2-2.2-4.2-4.8V11c0-2.7,1.9-4.8,4.2-4.8h169c2.3,0,4.2,2.2,4.2,4.8Z" style="fill: none;stroke: #774d28;stroke-width: 0.9940000176429749px"/>
        <path d="M23.3,23.5l.3.1-1.1,3.9h-10v-.4H13a1.43,1.43,0,0,0,1.2-.6,4.66,4.66,0,0,0,.2-1.6V15.6a2.94,2.94,0,0,0-.3-1.7,1.29,1.29,0,0,0-1.1-.5h-.5V13h5.8v.4a3.71,3.71,0,0,0-1.4.2.9.9,0,0,0-.6.6,4.66,4.66,0,0,0-.2,1.6v9.1c0,.6,0,1,.2,1.2s.2.3.4.3a5,5,0,0,0,1.5.1h.9a9.1,9.1,0,0,0,2.1-.2,3.13,3.13,0,0,0,1.1-.9,6.49,6.49,0,0,0,1-1.9" style="fill: #784e28"/>
        <path d="M23.3,23.5l.3.1-1.1,3.9h-10v-.4H13a1.43,1.43,0,0,0,1.2-.6,4.66,4.66,0,0,0,.2-1.6V15.6a2.94,2.94,0,0,0-.3-1.7,1.29,1.29,0,0,0-1.1-.5h-.5V13h5.8v.4a3.71,3.71,0,0,0-1.4.2.9.9,0,0,0-.6.6,4.66,4.66,0,0,0-.2,1.6v9.1c0,.6,0,1,.2,1.2s.2.3.4.3a5,5,0,0,0,1.5.1h.9a9.1,9.1,0,0,0,2.1-.2,3.13,3.13,0,0,0,1.1-.9A6.49,6.49,0,0,0,23.3,23.5Z" style="fill: none;stroke: #774d28;stroke-width: 0.4970000088214874px"/>
        <path d="M32.9,22.6h-5L27,24.9a4.51,4.51,0,0,0-.3,1.3.86.86,0,0,0,.3.6,1.74,1.74,0,0,0,1.2.3v.4h-4v-.4c.5-.1.9-.2,1-.4a6.31,6.31,0,0,0,1.1-2.1l4.5-11.9h.3l4.5,12a6.17,6.17,0,0,0,1,1.9,2.2,2.2,0,0,0,1.2.5v.4H32.7v-.4c.5,0,.9-.1,1-.3a.86.86,0,0,0,.3-.6,4.12,4.12,0,0,0-.4-1.5Zm-.3-.8L30.4,16l-2.2,5.8Z" style="fill: #784e28"/>
        <path d="M32.9,22.6h-5L27,24.9a4.51,4.51,0,0,0-.3,1.3.86.86,0,0,0,.3.6,1.74,1.74,0,0,0,1.2.3v.4h-4v-.4c.5-.1.9-.2,1-.4a6.31,6.31,0,0,0,1.1-2.1l4.5-11.9h.3l4.5,12a6.17,6.17,0,0,0,1,1.9,2.2,2.2,0,0,0,1.2.5v.4H32.7v-.4c.5,0,.9-.1,1-.3a.86.86,0,0,0,.3-.6,4.12,4.12,0,0,0-.4-1.5Zm-.3-.8L30.4,16l-2.2,5.8Z" style="fill: none;stroke: #774d28;stroke-width: 0.4970000088214874px"/>
        <path d="M55.2,13v.4a1.87,1.87,0,0,0-1,.5,5.65,5.65,0,0,0-.9,1.6L48.8,27.8h-.3L43.7,15.3a8.66,8.66,0,0,0-.5-1.2,2.65,2.65,0,0,0-.6-.5,2,2,0,0,0-.9-.2V13H47v.4a5,5,0,0,0-1.2.3.86.86,0,0,0-.3.6,4.92,4.92,0,0,0,.4,1.7l3.3,8.5,3-8.4a5.44,5.44,0,0,0,.4-1.7.86.86,0,0,0-.3-.6,1.88,1.88,0,0,0-.9-.4h-.2V13Z" style="fill: #784e28"/>
        <path d="M55.2,13v.4a1.87,1.87,0,0,0-1,.5,5.65,5.65,0,0,0-.9,1.6L48.8,27.8h-.3L43.7,15.3a8.66,8.66,0,0,0-.5-1.2,2.65,2.65,0,0,0-.6-.5,2,2,0,0,0-.9-.2V13H47v.4a5,5,0,0,0-1.2.3.86.86,0,0,0-.3.6,4.92,4.92,0,0,0,.4,1.7l3.3,8.5,3-8.4a5.44,5.44,0,0,0,.4-1.7.86.86,0,0,0-.3-.6,1.88,1.88,0,0,0-.9-.4h-.2V13Z" style="fill: none;stroke: #774d28;stroke-width: 0.4970000088214874px"/>
        <path d="M61.5,27.1v.4H56v-.4h.5a1.66,1.66,0,0,0,1.2-.5c.2-.2.2-.8.2-1.6V15.6a5.76,5.76,0,0,0-.1-1.5,1.76,1.76,0,0,0-.4-.5,1.61,1.61,0,0,0-.9-.3H56v-.4h5.5v.4H61a1.29,1.29,0,0,0-1.1.5c-.2.2-.2.8-.2,1.6v9.4a5.76,5.76,0,0,0,.1,1.5,1.76,1.76,0,0,0,.4.5,1.61,1.61,0,0,0,.9.3Z" style="fill: #784e28"/>
        <path d="M61.5,27.1v.4H56v-.4h.5a1.66,1.66,0,0,0,1.2-.5c.2-.2.2-.8.2-1.6V15.6a5.76,5.76,0,0,0-.1-1.5,1.76,1.76,0,0,0-.4-.5,1.61,1.61,0,0,0-.9-.3H56v-.4h5.5v.4H61a1.29,1.29,0,0,0-1.1.5c-.2.2-.2.8-.2,1.6v9.4a5.76,5.76,0,0,0,.1,1.5,1.76,1.76,0,0,0,.4.5,1.61,1.61,0,0,0,.9.3Z" style="fill: none;stroke: #774d28;stroke-width: 0.4970000088214874px"/>
        <path d="M66,13.8v5.7h2.8a2.08,2.08,0,0,0,1.5-.4,2.46,2.46,0,0,0,.5-1.7h.4v5h-.4a6.12,6.12,0,0,0-.3-1.4,1.7,1.7,0,0,0-.6-.6,3.73,3.73,0,0,0-1.2-.2H65.9V25a3.45,3.45,0,0,0,.1,1.2q0,.15.3.3c.1.1.4.1.7.1h2.2a5.67,5.67,0,0,0,1.6-.2,1.85,1.85,0,0,0,.9-.7,7,7,0,0,0,1.2-2h.4l-1.1,3.6H62.3v-.4h.5a2.92,2.92,0,0,0,.9-.2,1,1,0,0,0,.4-.5,4.55,4.55,0,0,0,.1-1.4V15.4a5,5,0,0,0-.2-1.7,1.25,1.25,0,0,0-1.1-.4h-.5v-.4h9.9l.1,3.2H72a7.14,7.14,0,0,0-.4-1.6,2.34,2.34,0,0,0-.7-.7,3.92,3.92,0,0,0-1.3-.2H66Z" style="fill: #784e28"/>
        <path d="M66,13.8v5.7h2.8a2.08,2.08,0,0,0,1.5-.4,2.46,2.46,0,0,0,.5-1.7h.4v5h-.4a6.12,6.12,0,0,0-.3-1.4,1.7,1.7,0,0,0-.6-.6,3.73,3.73,0,0,0-1.2-.2H65.9V25a3.45,3.45,0,0,0,.1,1.2q0,.15.3.3c.1.1.4.1.7.1h2.2a5.67,5.67,0,0,0,1.6-.2,1.85,1.85,0,0,0,.9-.7,7,7,0,0,0,1.2-2h.4l-1.1,3.6H62.3v-.4h.5a2.92,2.92,0,0,0,.9-.2,1,1,0,0,0,.4-.5,4.55,4.55,0,0,0,.1-1.4V15.4a5,5,0,0,0-.2-1.7,1.25,1.25,0,0,0-1.1-.4h-.5v-.4h9.9l.1,3.2H72a7.14,7.14,0,0,0-.4-1.6,2.34,2.34,0,0,0-.7-.7,3.92,3.92,0,0,0-1.3-.2H66Z" style="fill: none;stroke: #774d28;stroke-width: 0.4970000088214874px"/>
        <path d="M75.7,13.4V13h5.5v.4h-.5a1.29,1.29,0,0,0-1.1.5c-.2.2-.2.8-.2,1.6v7.1a8.8,8.8,0,0,1-.3,2.6A4.18,4.18,0,0,1,78,27a2.56,2.56,0,0,1-1.9.8,2,2,0,0,1-1.4-.5,1.61,1.61,0,0,1-.5-1.1,1.88,1.88,0,0,1,.2-.8,1.08,1.08,0,0,1,.7-.3.76.76,0,0,1,.5.2q.3.15.6,1.2.15.6.6.6c.2,0,.3-.1.5-.4a3.26,3.26,0,0,0,.2-1.2V15.6a5.76,5.76,0,0,0-.1-1.5,1.76,1.76,0,0,0-.4-.5,1.61,1.61,0,0,0-.9-.3h-.4Z" style="fill: #784e28"/>
        <path d="M75.7,13.4V13h5.5v.4h-.5a1.29,1.29,0,0,0-1.1.5c-.2.2-.2.8-.2,1.6v7.1a8.8,8.8,0,0,1-.3,2.6A4.18,4.18,0,0,1,78,27a2.56,2.56,0,0,1-1.9.8,2,2,0,0,1-1.4-.5,1.61,1.61,0,0,1-.5-1.1,1.88,1.88,0,0,1,.2-.8,1.08,1.08,0,0,1,.7-.3.76.76,0,0,1,.5.2q.3.15.6,1.2.15.6.6.6c.2,0,.3-.1.5-.4a3.26,3.26,0,0,0,.2-1.2V15.6a5.76,5.76,0,0,0-.1-1.5,1.76,1.76,0,0,0-.4-.5,1.61,1.61,0,0,0-.9-.3h-.4Z" style="fill: none;stroke: #774d28;stroke-width: 0.4970000088214874px"/>
        <path d="M90.2,22.6h-5l-.9,2.3a4.51,4.51,0,0,0-.3,1.3.86.86,0,0,0,.3.6,1.74,1.74,0,0,0,1.2.3v.4h-4v-.4c.5-.1.9-.2,1-.4a6.31,6.31,0,0,0,1.1-2.1l4.5-11.9h.3l4.5,12a6.17,6.17,0,0,0,1,1.9,2.2,2.2,0,0,0,1.2.5v.4H90v-.4c.5,0,.9-.1,1-.3a.86.86,0,0,0,.3-.6,4.12,4.12,0,0,0-.4-1.5Zm-.2-.8L87.8,16l-2.2,5.8Z" style="fill: #784e28"/>
        <path d="M90.2,22.6h-5l-.9,2.3a4.51,4.51,0,0,0-.3,1.3.86.86,0,0,0,.3.6,1.74,1.74,0,0,0,1.2.3v.4h-4v-.4c.5-.1.9-.2,1-.4a6.31,6.31,0,0,0,1.1-2.1l4.5-11.9h.3l4.5,12a6.17,6.17,0,0,0,1,1.9,2.2,2.2,0,0,0,1.2.5v.4H90v-.4c.5,0,.9-.1,1-.3a.86.86,0,0,0,.3-.6,4.12,4.12,0,0,0-.4-1.5Zm-.2-.8L87.8,16l-2.2,5.8Z" style="fill: none;stroke: #774d28;stroke-width: 0.4970000088214874px"/>
        <path d="M103.1,13.8v5.7h2.3a1.59,1.59,0,0,0,1.2-.4,3.73,3.73,0,0,0,.5-1.6h.4v4.9h-.4a2.87,2.87,0,0,0-.2-1.2,1,1,0,0,0-.5-.6,2.15,2.15,0,0,0-1-.2h-2.3v4.5a5.76,5.76,0,0,0,.1,1.5,1.76,1.76,0,0,0,.4.5,1.61,1.61,0,0,0,.9.3h.5v.4H99.5v-.4h.5a1.66,1.66,0,0,0,1.2-.5c.2-.2.2-.8.2-1.6V15.7a5.76,5.76,0,0,0-.1-1.5,1.76,1.76,0,0,0-.4-.5,1.61,1.61,0,0,0-.9-.3h-.5V13h9.6l.1,3.2h-.3a5.71,5.71,0,0,0-.6-1.5,2.7,2.7,0,0,0-.8-.7,4.87,4.87,0,0,0-1.5-.2Z" style="fill: #784e28"/>
        <path d="M103.1,13.8v5.7h2.3a1.59,1.59,0,0,0,1.2-.4,3.73,3.73,0,0,0,.5-1.6h.4v4.9h-.4a2.87,2.87,0,0,0-.2-1.2,1,1,0,0,0-.5-.6,2.15,2.15,0,0,0-1-.2h-2.3v4.5a5.76,5.76,0,0,0,.1,1.5,1.76,1.76,0,0,0,.4.5,1.61,1.61,0,0,0,.9.3h.5v.4H99.5v-.4h.5a1.66,1.66,0,0,0,1.2-.5c.2-.2.2-.8.2-1.6V15.7a5.76,5.76,0,0,0-.1-1.5,1.76,1.76,0,0,0-.4-.5,1.61,1.61,0,0,0-.9-.3h-.5V13h9.6l.1,3.2h-.3a5.71,5.71,0,0,0-.6-1.5,2.7,2.7,0,0,0-.8-.7,4.87,4.87,0,0,0-1.5-.2Z" style="fill: none;stroke: #774d28;stroke-width: 0.4970000088214874px"/>
        <path d="M117.4,22.6h-5l-.9,2.3a4.51,4.51,0,0,0-.3,1.3.86.86,0,0,0,.3.6,1.74,1.74,0,0,0,1.2.3v.4h-4v-.4c.5-.1.9-.2,1-.4a6.31,6.31,0,0,0,1.1-2.1l4.5-11.9h.3l4.5,12a6.17,6.17,0,0,0,1,1.9,2.2,2.2,0,0,0,1.2.5v.4h-5.1v-.4c.5,0,.9-.1,1-.3a.86.86,0,0,0,.3-.6,4.12,4.12,0,0,0-.4-1.5Zm-.3-.8L114.9,16l-2.2,5.8Z" style="fill: #784e28"/>
        <path d="M117.4,22.6h-5l-.9,2.3a4.51,4.51,0,0,0-.3,1.3.86.86,0,0,0,.3.6,1.74,1.74,0,0,0,1.2.3v.4h-4v-.4c.5-.1.9-.2,1-.4a6.31,6.31,0,0,0,1.1-2.1l4.5-11.9h.3l4.5,12a6.17,6.17,0,0,0,1,1.9,2.2,2.2,0,0,0,1.2.5v.4h-5.1v-.4c.5,0,.9-.1,1-.3a.86.86,0,0,0,.3-.6,4.12,4.12,0,0,0-.4-1.5Zm-.3-.8L114.9,16l-2.2,5.8Z" style="fill: none;stroke: #774d28;stroke-width: 0.4970000088214874px"/>
        <path d="M131.5,20.1a4.16,4.16,0,0,1,2,1,3.58,3.58,0,0,1,.9,2.4,4.2,4.2,0,0,1-.6,2.1,3.33,3.33,0,0,1-1.7,1.4,8.53,8.53,0,0,1-3.2.5h-6.1v-.4h.5a1.43,1.43,0,0,0,1.2-.6,4.66,4.66,0,0,0,.2-1.6V15.5a2.94,2.94,0,0,0-.3-1.7,1.29,1.29,0,0,0-1.1-.5h-.5v-.4h5.6a8.52,8.52,0,0,1,2.5.3,4.2,4.2,0,0,1,2.2,1.4,3.6,3.6,0,0,1,.7,2.2,3.08,3.08,0,0,1-.6,1.9,3,3,0,0,1-1.7,1.4m-5-.6a2,2,0,0,0,.8.1h1a5.84,5.84,0,0,0,2.1-.3,2.66,2.66,0,0,0,1.1-1,4.19,4.19,0,0,0,.4-1.5,3.1,3.1,0,0,0-.9-2.2,3.67,3.67,0,0,0-2.7-.9,8.81,8.81,0,0,0-1.7.2v5.6Zm0,6.9a8.33,8.33,0,0,0,2.2.3,3.57,3.57,0,0,0,2.6-.9,3.24,3.24,0,0,0,.5-3.8,3,3,0,0,0-1.3-1.2,5.27,5.27,0,0,0-2.3-.4h-1a1.48,1.48,0,0,0-.7.1Z" style="fill: #784e28"/>
        <path d="M131.5,20.1a4.16,4.16,0,0,1,2,1,3.58,3.58,0,0,1,.9,2.4,4.2,4.2,0,0,1-.6,2.1,3.33,3.33,0,0,1-1.7,1.4,8.53,8.53,0,0,1-3.2.5h-6.1v-.4h.5a1.43,1.43,0,0,0,1.2-.6,4.66,4.66,0,0,0,.2-1.6V15.5a2.94,2.94,0,0,0-.3-1.7,1.29,1.29,0,0,0-1.1-.5h-.5v-.4h5.6a8.52,8.52,0,0,1,2.5.3,4.2,4.2,0,0,1,2.2,1.4,3.6,3.6,0,0,1,.7,2.2,3.08,3.08,0,0,1-.6,1.9A3,3,0,0,1,131.5,20.1Zm-5-.6a2,2,0,0,0,.8.1h1a5.84,5.84,0,0,0,2.1-.3,2.66,2.66,0,0,0,1.1-1,4.19,4.19,0,0,0,.4-1.5,3.1,3.1,0,0,0-.9-2.2,3.67,3.67,0,0,0-2.7-.9,8.81,8.81,0,0,0-1.7.2v5.6Zm0,6.9a8.33,8.33,0,0,0,2.2.3,3.57,3.57,0,0,0,2.6-.9,3.24,3.24,0,0,0,.5-3.8,3,3,0,0,0-1.3-1.2,5.27,5.27,0,0,0-2.3-.4h-1a1.48,1.48,0,0,0-.7.1Z" style="fill: none;stroke: #774d28;stroke-width: 0.4970000088214874px"/>
        <path d="M148.6,27.5h-3.4l-4.4-6.8h-1.4v4.2a2.94,2.94,0,0,0,.3,1.7,1.29,1.29,0,0,0,1.1.5h.5v.4h-5.5v-.4h.5a1.43,1.43,0,0,0,1.2-.6,4.23,4.23,0,0,0,.2-1.6V15.5a2.94,2.94,0,0,0-.3-1.7,1.29,1.29,0,0,0-1.1-.5h-.5v-.4h4.7a10.53,10.53,0,0,1,3,.3,3.11,3.11,0,0,1,1.6,1.2,3.23,3.23,0,0,1,.7,2.2,3.57,3.57,0,0,1-.8,2.3,4.07,4.07,0,0,1-2.4,1.4l2.7,4.2a5.39,5.39,0,0,0,1.6,1.9,3.78,3.78,0,0,0,1.7.6ZM139.5,20h.5a3.93,3.93,0,0,0,2.8-.9,3.17,3.17,0,0,0,.9-2.3,3.29,3.29,0,0,0-.8-2.2,2.44,2.44,0,0,0-2-.8,10.4,10.4,0,0,0-1.5.2v6Z" style="fill: #784e28"/>
        <path d="M148.6,27.5h-3.4l-4.4-6.8h-1.4v4.2a2.94,2.94,0,0,0,.3,1.7,1.29,1.29,0,0,0,1.1.5h.5v.4h-5.5v-.4h.5a1.43,1.43,0,0,0,1.2-.6,4.23,4.23,0,0,0,.2-1.6V15.5a2.94,2.94,0,0,0-.3-1.7,1.29,1.29,0,0,0-1.1-.5h-.5v-.4h4.7a10.53,10.53,0,0,1,3,.3,3.11,3.11,0,0,1,1.6,1.2,3.23,3.23,0,0,1,.7,2.2,3.57,3.57,0,0,1-.8,2.3,4.07,4.07,0,0,1-2.4,1.4l2.7,4.2a5.39,5.39,0,0,0,1.6,1.9,3.78,3.78,0,0,0,1.7.6ZM139.5,20h.5a3.93,3.93,0,0,0,2.8-.9,3.17,3.17,0,0,0,.9-2.3,3.29,3.29,0,0,0-.8-2.2,2.44,2.44,0,0,0-2-.8,10.4,10.4,0,0,0-1.5.2v6Z" style="fill: none;stroke: #774d28;stroke-width: 0.4970000088214874px"/>
        <path d="M154.4,27.1v.4h-5.5v-.4h.5a1.66,1.66,0,0,0,1.2-.5c.2-.2.2-.8.2-1.6V15.6a5.76,5.76,0,0,0-.1-1.5,1.76,1.76,0,0,0-.4-.5,1.61,1.61,0,0,0-.9-.3h-.5v-.4h5.5v.4h-.5a1.29,1.29,0,0,0-1.1.5c-.2.2-.2.8-.2,1.6v9.4a5.76,5.76,0,0,0,.1,1.5,1.76,1.76,0,0,0,.4.5,1.61,1.61,0,0,0,.9.3Z" style="fill: #784e28"/>
        <path d="M154.4,27.1v.4h-5.5v-.4h.5a1.66,1.66,0,0,0,1.2-.5c.2-.2.2-.8.2-1.6V15.6a5.76,5.76,0,0,0-.1-1.5,1.76,1.76,0,0,0-.4-.5,1.61,1.61,0,0,0-.9-.3h-.5v-.4h5.5v.4h-.5a1.29,1.29,0,0,0-1.1.5c-.2.2-.2.8-.2,1.6v9.4a5.76,5.76,0,0,0,.1,1.5,1.76,1.76,0,0,0,.4.5,1.61,1.61,0,0,0,.9.3Z" style="fill: none;stroke: #774d28;stroke-width: 0.4970000088214874px"/>
        <path d="M166.6,12.7l.3,4.9h-.3a6.87,6.87,0,0,0-1.7-3.2,4,4,0,0,0-2.6-1,3.69,3.69,0,0,0-2.3.7,5,5,0,0,0-1.6,2.3,11.62,11.62,0,0,0-.6,4,9,9,0,0,0,.6,3.4,4.25,4.25,0,0,0,1.7,2.2,4.46,4.46,0,0,0,2.6.8,4,4,0,0,0,2.2-.6,8.82,8.82,0,0,0,2.1-2.4l.3.2a6.57,6.57,0,0,1-2.3,2.8,5.38,5.38,0,0,1-3.1.9A5.45,5.45,0,0,1,157,25a8.1,8.1,0,0,1-1.3-4.7,9,9,0,0,1,.9-4,7.32,7.32,0,0,1,2.4-2.8,5.58,5.58,0,0,1,3.3-1,6.3,6.3,0,0,1,2.8.8,1,1,0,0,0,.6.2.52.52,0,0,0,.4-.2,2,2,0,0,0,.4-.8h.1Z" style="fill: #784e28"/>
        <path d="M166.6,12.7l.3,4.9h-.3a6.87,6.87,0,0,0-1.7-3.2,4,4,0,0,0-2.6-1,3.69,3.69,0,0,0-2.3.7,5,5,0,0,0-1.6,2.3,11.62,11.62,0,0,0-.6,4,9,9,0,0,0,.6,3.4,4.25,4.25,0,0,0,1.7,2.2,4.46,4.46,0,0,0,2.6.8,4,4,0,0,0,2.2-.6,8.82,8.82,0,0,0,2.1-2.4l.3.2a6.57,6.57,0,0,1-2.3,2.8,5.38,5.38,0,0,1-3.1.9A5.45,5.45,0,0,1,157,25a8.1,8.1,0,0,1-1.3-4.7,9,9,0,0,1,.9-4,7.32,7.32,0,0,1,2.4-2.8,5.58,5.58,0,0,1,3.3-1,6.3,6.3,0,0,1,2.8.8,1,1,0,0,0,.6.2.52.52,0,0,0,.4-.2,2,2,0,0,0,.4-.8h.1Z" style="fill: none;stroke: #774d28;stroke-width: 0.4970000088214874px"/>
        <path d="M176.7,22.6h-5l-.9,2.3a4.51,4.51,0,0,0-.3,1.3.86.86,0,0,0,.3.6,1.74,1.74,0,0,0,1.2.3v.4h-4v-.4c.5-.1.9-.2,1-.4a6.31,6.31,0,0,0,1.1-2.1l4.5-11.9h.3l4.5,12a6.17,6.17,0,0,0,1,1.9,2.2,2.2,0,0,0,1.2.5v.4h-5.1v-.4c.5,0,.9-.1,1-.3a.86.86,0,0,0,.3-.6,4.12,4.12,0,0,0-.4-1.5Zm-.3-.8L174.2,16,172,21.8Z" style="fill: #784e28"/>
        <path d="M176.7,22.6h-5l-.9,2.3a4.51,4.51,0,0,0-.3,1.3.86.86,0,0,0,.3.6,1.74,1.74,0,0,0,1.2.3v.4h-4v-.4c.5-.1.9-.2,1-.4a6.31,6.31,0,0,0,1.1-2.1l4.5-11.9h.3l4.5,12a6.17,6.17,0,0,0,1,1.9,2.2,2.2,0,0,0,1.2.5v.4h-5.1v-.4c.5,0,.9-.1,1-.3a.86.86,0,0,0,.3-.6,4.12,4.12,0,0,0-.4-1.5Zm-.3-.8L174.2,16,172,21.8Z" style="fill: none;stroke: #774d28;stroke-width: 0.4970000088214874px"/>
        <rect x="67.5" y="29.5" width="58.2" height="11.6" style="fill: #fff"/>
        <polygon points="118.2 8 115.3 8 114.2 12.2 115 12.2 118.2 8" style="fill: #774d28"/>
        <g>
          <path d="M77.2,33.9l-.6,1.8h.5c.3,0,.6,0,.7-.1a2.18,2.18,0,0,0,.4-.5h.1l-.5,1.6h-.1a1,1,0,0,1,.1-.3c0-.1,0-.2-.1-.2s-.1-.1-.2-.1h-1L76,37.6c0,.1-.1.2-.1.3s0,.1.1.2h.7a3.09,3.09,0,0,0,1.1-.2,3,3,0,0,0,.8-.8h.1l-.5,1.2H74.4v-.1h.4A.22.22,0,0,0,75,38c.1-.1.1-.3.2-.6l.9-2.7a1.09,1.09,0,0,0,.1-.5c0-.1,0-.1-.1-.2s-.2-.1-.4-.1h.2v-.1h3.5l-.3,1.1H79v-.3a.37.37,0,0,0-.1-.3.52.52,0,0,0-.4-.2,5.38,5.38,0,0,0-.8-.1h-.5Z" style="fill: #774d28"/>
          <path d="M80.8,38.2l.4-1.6h.1V37a.91.91,0,0,0,.3.7,1.14,1.14,0,0,0,.8.3.78.78,0,0,0,.7-.3.73.73,0,0,0,.2-.6.6.6,0,0,0-.1-.4,5.8,5.8,0,0,0-.9-1l-.5-.5a1.42,1.42,0,0,1-.2-.6.91.91,0,0,1,.4-.8,1.69,1.69,0,0,1,1-.3h.4c.1,0,.2.1.4.1a.35.35,0,0,1,.2.1h.3c.1,0,.1-.1.2-.2h.1L84.2,35h-.1v-.3a.6.6,0,0,0-.3-.6,1,1,0,0,0-.8-.3.85.85,0,0,0-.6.2c-.2.1-.2.3-.2.5s0,.3.1.4a4.3,4.3,0,0,0,.7.7,4.3,4.3,0,0,1,.7.7,1.42,1.42,0,0,1,.2.6,2.54,2.54,0,0,1-.2.7,1,1,0,0,1-.6.5,1.88,1.88,0,0,1-.8.2h-.4a3.93,3.93,0,0,1-.6-.2h-.2a.32.32,0,0,0-.3.3h0Z" style="fill: #774d28"/>
          <path d="M87.1,33.6h3.7l-.4,1.2h-.1c0-.2.1-.3.1-.5a.52.52,0,0,0-.2-.4c-.1-.1-.3-.1-.6-.1h-.4l-1,3c-.1.4-.2.6-.2.7s0,.2.1.2.2.1.4.1h.2v.1H86.6v-.1h.1c.2,0,.3,0,.4-.1s.1-.1.2-.2.1-.3.2-.6l1-3.1h-.3a1.48,1.48,0,0,0-.7.1,1.38,1.38,0,0,0-.4.3,2.19,2.19,0,0,0-.3.5h-.1Z" style="fill: #774d28"/>
          <path d="M91.6,37.5a.37.37,0,0,1,.3.1c.1.1.1.1.1.2s0,.2-.1.2a.5.5,0,0,1-.6,0c-.1-.1-.1-.1-.1-.2s0-.2.1-.2S91.5,37.5,91.6,37.5Z" style="fill: #774d28"/>
          <path d="M100.8,33.6l-1.2,3.7a1.09,1.09,0,0,0-.1.5c0,.1,0,.1.1.2s.2.1.4.1v.1H98.1l.1-.1h.4a.22.22,0,0,0,.2-.2.76.76,0,0,0,.2-.5l.8-2.6a.77.77,0,0,0,.1-.3v-.1c0-.1,0-.1-.1-.2a.35.35,0,0,0-.2-.1h-.3V34l1.2-.3h.3Z" style="fill: #774d28"/>
          <path d="M105.4,35.6a2.65,2.65,0,0,1,.5.6,1.42,1.42,0,0,1,.2.6,1,1,0,0,1-.4.9,1.5,1.5,0,0,1-1.1.4,1.69,1.69,0,0,1-1-.3,1.23,1.23,0,0,1-.4-.8,1.08,1.08,0,0,1,.3-.7,3.48,3.48,0,0,1,1.1-.7c-.2-.2-.4-.4-.4-.6a.9.9,0,0,1-.1-.5.75.75,0,0,1,.4-.7,1.4,1.4,0,0,1,.9-.3,1.61,1.61,0,0,1,.9.3.86.86,0,0,1,.3.6,1.08,1.08,0,0,1-.3.7A1.93,1.93,0,0,1,105.4,35.6Zm-.6.2a1.24,1.24,0,0,0-.8.6,1.33,1.33,0,0,0-.3.8,1.42,1.42,0,0,0,.2.6,1.42,1.42,0,0,0,.6.2.91.91,0,0,0,.7-.3.86.86,0,0,0,.3-.6,1.42,1.42,0,0,0-.2-.6A2.31,2.31,0,0,0,104.8,35.8Zm.5-.3a.92.92,0,0,0,.6-.4,1.42,1.42,0,0,0,.2-.6.7.7,0,1,0-1.4,0,.6.6,0,0,0,.1.4C104.8,35,105,35.2,105.3,35.5Z" style="fill: #774d28"/>
          <path d="M109.2,35.7h0a3.15,3.15,0,0,0,1.3-.6.86.86,0,0,0,.3-.6.52.52,0,0,0-.2-.4.76.76,0,0,0-.4-.2c-.3,0-.5.2-.7.5h-.1c.1-.3.3-.4.5-.6a.73.73,0,0,1,.6-.2,1.45,1.45,0,0,1,.7.2.71.71,0,0,1,.3.6,1.42,1.42,0,0,1-.2.6,1.52,1.52,0,0,1-.9.5,1.27,1.27,0,0,1,.6.4,1.42,1.42,0,0,1,.2.6,1.33,1.33,0,0,1-.3.8,1.34,1.34,0,0,1-.7.6,3,3,0,0,1-1,.2,1.48,1.48,0,0,1-.7-.1c-.1-.1-.2-.1-.2-.2s0-.1.1-.2.1-.1.2-.1h.2a.44.44,0,0,0,.3.1.52.52,0,0,1,.4.2h.3a.55.55,0,0,0,.5-.3,1.85,1.85,0,0,0,.2-.7,1.27,1.27,0,0,0-.1-.6.7.7,0,0,0-.5-.4A1.48,1.48,0,0,0,109.2,35.7Z" style="fill: #774d28"/>
          <path d="M116.9,33.6l-.9,2.9h.6l-.1.4h-.6l-.4,1.2h-.6l.4-1.2h-1.8l.2-.5,3-2.9h.2Zm-.8.9L114,36.6h1.5Z" style="fill: #774d28"/>
        </g>
      </g>
    </g>
  </g>
</svg>
