<svg xmlns="http://www.w3.org/2000/svg" viewBox="0 0 425.2 255.12">
  <title>Asset 2</title>
  <g id="Layer_2" data-name="Layer 2">
    <g id="Layer_1-2" data-name="Layer 1">
      <rect width="425.2" height="255.12" style="fill: none"/>
      <g>
        <rect x="44.31" y="40.93" width="195.18" height="173.49" rx="29" ry="29" style="fill: #d60c8c"/>
        <g>
          <path d="M96.38,172.45H70l.24-71.25h38.33l5.08,17.64a114.41,114.41,0,0,1,4.68,20.83h.4a134,134,0,0,1,4.88-21.13l5.29-17.34h37.47l.2,71.25H140.51l.07-42.22c-.3-2.89.35-7.28-.15-13.06-.8,5.18-5.15,23.79-6.34,27.88l-8.17,27.4H110.67l-8.17-27.4c-1.2-4.09-5.32-21.56-6.12-26.74" style="fill: #fff"/>
          <path d="M141.45,101.2h25.11v30.39l16.25-30.39h29l-21.53,35.08,24.52,36.17h-31l-17.24-29.79v29.79H141.45Z" style="fill: #fff"/>
        </g>
        <g id="ist2_12257184-crown-collection">
          <g>
            <path d="M142.84,53.31a2.26,2.26,0,0,1,0,.26A2.17,2.17,0,0,1,142.84,53.31Z" style="fill: #fff"/>
            <path d="M153.83,89.53a122.74,122.74,0,0,1-21.35,0c-3.77-.38-8.13-.71-9.69-3.24,10.37-3.94,29.74-4,40.09,0C161.42,88.82,157.36,89.18,153.83,89.53Z" style="fill: #d60c8c"/>
            <path d="M132.48,89.53a122.74,122.74,0,0,0,21.35,0c3.53-.35,7.59-.71,9-3.24-10.35-4-29.72-3.94-40.09,0C124.35,88.82,128.71,89.15,132.48,89.53Zm42.36-24.9C171.59,72.48,167,79,165.79,88.88c-11.52,5-32.83,4.31-45.27.65-1.72-9.7-6-16.82-9.37-24.9,3,2.15,11.5.48,11.64,5.17A3.53,3.53,0,0,1,117.94,73c.47,6.13,11.28,5.06,11-1,2.66,5.3,13.58,2.74,11-4.52-1.56-.15-1.57,1.55-3.88,1.29a3.39,3.39,0,0,1-2.91-3.23c-.36-5.14,9.72-7.64,9.72-12,.41,4.7,9.76,6.54,10,11.37.14,2.86-3.8,5.68-6.47,2.27-4,6.29,7.63,10.8,10.67,4.84-.32,6.24,10,6.75,11,1.3-3,.34-5.35-1.54-4.85-4.21C164,65.13,172,66.69,174.84,64.63Z" style="fill: #fff"/>
          </g>
        </g>
        <path d="M334.76,107.15c0,1.12-.37,2-1.69,2s-1.69-.85-1.69-2v-4.47H327v4.51c0,3.39,1.46,5.83,6.06,5.83s6.06-2.44,6.06-5.83v-3.81c0-11.28-7.75-7.8-7.75-15.6V85.05c0-1.13.43-1.93,1.69-1.93s1.69.8,1.69,1.93v4h4.37v-4c0-3.39-1.45-5.88-6.06-5.88S327,81.66,327,85.05v2.87c0,9.91,7.75,6.48,7.75,15.56Zm-15.65-9.22H324v-4h-4.89V83.83h5.64V79.64h-10v32.91h10v-4.13h-5.64ZM300.4,112.55h6.49c4.61,0,5.73-2.11,5.73-5.78V85.42c0-3.57-1.17-5.78-5.83-5.78H300.4Zm4.37-4.13V83.82h1.88c1.18,0,1.61.52,1.61,1.65v21.35c0,1-.38,1.6-1.56,1.6ZM292.83,85c.37,5.41.84,11.24,1.41,16.74h-2.82c.37-5.5,1-11.24,1.41-16.74m2.77-5.36h-5.55L286,112.55h4.42l.61-6.77h3.67l.62,6.77h4.41Zm-19.46,32.91H285v-4.13h-4.51V79.64h-4.37Zm-8.09-28.73c1.32,0,1.51.71,1.51,2.11v5.61c0,1.45-.19,2.35-1.56,2.35h-1.83V83.82Zm-1.88,24.6V97.93h1.88c1.23,0,1.61.65,1.61,1.74v7.19c0,1-.38,1.56-1.52,1.56Zm-4.37,4.13h6.68c4.51,0,5.54-2.21,5.54-5.59v-7c0-2-.66-3.34-2.25-4.09,1.45-.75,2.06-2,2.06-4V84.81c0-3.38-1.08-5.17-5.63-5.17h-6.4Z" style="fill: #231f20"/>
        <path d="M375.24,59.46h4.89v-4h-4.89V45.36h5.64V41.18h-10V74.09h10V70h-5.64Zm-6-18.28h-4.51l-1.22,13.58c-.37,4.19-.76,8.32-1.08,12.51-.38-4.19-.75-8.32-1.08-12.51l-1.28-13.58h-4.46c1.36,11,2.77,22,4.19,32.9H365Zm-18.61,5.35c.37,5.41.84,11.24,1.41,16.74h-2.83c.38-5.5,1-11.24,1.42-16.74m2.77-5.35h-5.55l-4.09,32.9h4.42l.62-6.77h3.66l.61,6.77h4.42ZM334.2,59.46h3.53V74.08h4.37V41.18h-4.37V55.42H334.2V41.18h-4.37v32.9h4.37Zm-15.84-14.1h3.71V41.18H310.32v4.18H314V74.09h4.37ZM304.54,68.68c0,1.13-.38,2-1.69,2s-1.7-.85-1.7-2V64.21h-4.37v4.52c0,3.38,1.46,5.83,6.07,5.83s6.06-2.45,6.06-5.83V64.92c0-11.29-7.76-7.81-7.76-15.61V46.58c0-1.13.43-1.93,1.7-1.93s1.69.8,1.69,1.93v4h4.37v-4c0-3.39-1.46-5.88-6.06-5.88s-6.07,2.49-6.07,5.88v2.87c0,9.92,7.76,6.49,7.76,15.56Zm-17.92-27.5h-4.37V68.73c0,3.38,1.36,5.82,6.11,5.82,4.56,0,6.06-2.54,6.06-5.82V41.18h-4.36v27.5c0,1.22-.43,2-1.7,2s-1.74-.76-1.74-2Zm-14.29,32.9,4.09-25.34-.52,18.58v6.76H280V41.18h-5.36l-3.72,24.07-3.71-24.07H261.8v32.9h4V67.32l-.52-18.58,4.09,25.34Z" style="fill: #231f20"/>
      </g>
    </g>
  </g>
</svg>
