<svg xmlns="http://www.w3.org/2000/svg" viewBox="0 0 283.46 334.49">
  <title>Asset 1</title>
  <g id="Layer_2" data-name="Layer 2">
    <g id="Layer_1-2" data-name="Layer 1">
      <rect width="283.46" height="334.49" style="fill: none"/>
      <g>
        <rect x="44.14" y="53.73" width="195.18" height="173.49" rx="29" ry="29" style="fill: #d60c8c"/>
        <g>
          <path d="M96.21,185.25H69.84L70.08,114h38.33l5.08,17.64a114.41,114.41,0,0,1,4.68,20.83h.4a134,134,0,0,1,4.88-21.13L128.74,114h37.47l.2,71.25H140.34l.07-42.22c-.3-2.89.35-7.28-.15-13.06-.8,5.18-5.15,23.79-6.34,27.88l-8.17,27.4H110.5l-8.17-27.4c-1.2-4.09-5.32-21.56-6.12-26.74" style="fill: #fff"/>
          <path d="M141.28,114h25.11v30.39L182.64,114h29l-21.53,35.08,24.52,36.17h-31l-17.24-29.8v29.8H141.28Z" style="fill: #fff"/>
        </g>
        <g id="ist2_12257184-crown-collection">
          <g>
            <path d="M174.67,77.43c-3.25,7.85-7.88,14.32-9,24.25-11.53,5-32.83,4.32-45.27.65-1.72-9.7-6-16.81-9.37-24.9,3,2.15,11.5.48,11.64,5.17a3.52,3.52,0,0,1-4.85,3.24c.47,6.14,11.28,5.06,11-1,2.66,5.29,13.58,2.73,11-4.52-1.56-.15-1.57,1.55-3.88,1.29A3.39,3.39,0,0,1,133,78.4c-.36-5.14,9.72-7.64,9.72-12,.41,4.69,9.76,6.54,10,11.37.13,2.86-3.8,5.68-6.47,2.26-4,6.29,7.63,10.81,10.66,4.85-.32,6.24,10,6.75,11,1.3-3,.34-5.35-1.54-4.85-4.21C163.78,77.93,171.78,79.5,174.67,77.43Zm-21,24.9c3.53-.35,7.59-.71,9.05-3.24-10.35-4-29.72-3.94-40.09,0,1.56,2.53,5.92,2.86,9.69,3.24A122.74,122.74,0,0,0,153.66,102.33Z" style="fill: #fff"/>
            <path d="M162.71,99.09c-1.46,2.53-5.52,2.89-9.05,3.24a122.74,122.74,0,0,1-21.35,0c-3.77-.38-8.13-.71-9.69-3.24C133,95.15,152.36,95.11,162.71,99.09Z" style="fill: #d60c8c"/>
            <path d="M142.67,66.12a2,2,0,0,1,0,.25A2.09,2.09,0,0,1,142.67,66.12Z" style="fill: #fff"/>
          </g>
        </g>
        <path d="M234.88,275.16c0,1.07-.35,1.88-1.61,1.88s-1.62-.81-1.62-1.88v-4.27h-4.17v4.31c0,3.23,1.4,5.56,5.79,5.56s5.78-2.33,5.78-5.56v-3.64c0-10.76-7.4-7.44-7.4-14.89v-2.6c0-1.07.41-1.84,1.62-1.84s1.61.77,1.61,1.84v3.81h4.17v-3.81c0-3.23-1.38-5.61-5.78-5.61s-5.79,2.38-5.79,5.61v2.74c0,9.46,7.4,6.19,7.4,14.85ZM220,266.36h4.66V262.5H220v-9.59h5.38v-4h-9.56v31.4h9.56v-3.94H220ZM202.1,280.31h6.19c4.39,0,5.47-2,5.47-5.52V254.43c0-3.41-1.12-5.52-5.56-5.52h-6.1Zm4.16-3.94V252.9h1.81c1.11,0,1.52.49,1.52,1.57v20.37c0,1-.36,1.53-1.49,1.53ZM194.88,254c.35,5.17.8,10.73,1.34,16h-2.69c.36-5.24.94-10.72,1.35-16m2.64-5.11h-5.29l-3.91,31.4h4.22l.58-6.46h3.5l.59,6.46h4.21ZM179,280.31h8.47v-3.94h-4.31V248.91H179Zm-7.72-27.41c1.25,0,1.44.68,1.44,2v5.34c0,1.39-.19,2.24-1.49,2.24h-1.75v-9.6Zm-1.8,23.47v-10h1.8c1.17,0,1.53.63,1.53,1.66v6.86c0,1-.36,1.49-1.45,1.49Zm-4.17,3.94h6.37c4.3,0,5.29-2.1,5.29-5.33v-6.69c0-1.93-.63-3.19-2.15-3.9,1.39-.72,2-1.93,2-3.81v-6.74c0-3.22-1-4.93-5.38-4.93h-6.1Z" style="fill: #231f20"/>
        <path d="M152.38,266.36H157v-3.85h-4.66v-9.6h5.38v-4h-9.55v31.4h9.55v-3.94h-5.38Zm-5.75-17.45h-4.3l-1.17,13c-.36,4-.72,7.94-1,11.93-.36-4-.72-7.94-1-11.93l-1.22-13h-4.26c1.31,10.45,2.65,21,4,31.4h5ZM128.87,254c.36,5.17.81,10.73,1.34,16h-2.69c.37-5.24,1-10.72,1.35-16m2.65-5.11h-5.29l-3.91,31.4h4.22l.58-6.46h3.5l.58,6.46h4.22Zm-18.3,17.45h3.37v13.95h4.16v-31.4h-4.16v13.6h-3.37v-13.6h-4.17v31.4h4.17ZM98.1,252.91h3.55v-4H90.43v4h3.5v27.4H98.1ZM84.92,275.16c0,1.07-.36,1.88-1.61,1.88s-1.62-.81-1.62-1.88v-4.27H77.51v4.31c0,3.23,1.4,5.56,5.8,5.56s5.78-2.33,5.78-5.56v-3.64c0-10.76-7.4-7.44-7.4-14.88v-2.61c0-1.07.4-1.84,1.62-1.84s1.61.77,1.61,1.84v3.81h4.17v-3.81c0-3.23-1.39-5.61-5.78-5.61s-5.8,2.38-5.8,5.61v2.74c0,9.46,7.41,6.19,7.41,14.85Zm-17.1-26.25H63.66V275.2c0,3.23,1.3,5.56,5.83,5.56,4.35,0,5.78-2.42,5.78-5.56V248.91H71.1v26.25c0,1.16-.4,1.88-1.61,1.88s-1.67-.72-1.67-1.88Zm-13.63,31.4,3.9-24.18-.49,17.72v6.46h3.86v-31.4H56.35l-3.55,23-3.55-23H44.14v31.4H48v-6.46l-.49-17.72,3.9,24.18Z" style="fill: #231f20"/>
      </g>
    </g>
  </g>
</svg>
