<svg xmlns="http://www.w3.org/2000/svg" viewBox="0 0 284.21 125.65">
  <title>Asset 1</title>
  <g id="Layer_2" data-name="Layer 2">
    <g id="Layer_1-2" data-name="Layer 1">
      <g>
        <path d="M141,118.16c-.14-7.24-.42-22.3-.42-28.08V67.6c-15.64-.3-19.45.75-19.45.75l.45,50h3.49C129.71,118.21,135.92,118,141,118.16Z" style="fill: #5d4669"/>
        <path d="M150.63,118.36l11-.35-.82-31.77c0-9.59-6.29-17.28-15.53-18.39L142,67.74c-.16,3.16.1,22.05.1,22.05,0,.71.08.29.08.29,0,5.79.28,20.87.42,28.1l1,0C145.22,118.27,149.13,118.32,150.63,118.36Z" style="fill: #5d4669"/>
        <path d="M168.1,67l14.65-.49v51.4l-16.05.09.27-4.12Z" style="fill: #5d4669"/>
        <path d="M132.8,33.19c.28-5.41-.12-14.29-.28-17.45l-10.75.38c0,4-.06,13.75-.27,16.64-.26,3.64-.17,23.64-.26,25.63,0,.53-.08,1.16-.14,1.82v.3h12V59C132.86,52.81,132.52,38.53,132.8,33.19Z" style="fill: #5d4669"/>
        <path d="M176.08,16.11v0h-1.71v.72c.2,7.16.59,22.67.48,24.88s.13,11.71-.3,19.14h1.33v0c3.87-.44,7.76-1.64,10.34-4.35s4.05-7.32,4.05-11.71V32.07C190.27,23.92,188.61,16.08,176.08,16.11Z" style="fill: #5d4669"/>
        <g>
          <path d="M157.61,46.18c0-.48-.07-1-.07-1.46v-1A17.54,17.54,0,0,0,157.61,46.18Z" style="fill: #5d4669"/>
          <path d="M158.86,51a.54.54,0,0,0,0,.11A.54.54,0,0,1,158.86,51Z" style="fill: #5d4669"/>
          <path d="M157.63,46.39c0,.12,0,.24.05.36C157.67,46.63,157.64,46.51,157.63,46.39Z" style="fill: #5d4669"/>
          <path d="M172.74,16.08a32.52,32.52,0,0,0-4.68,1.06A16.57,16.57,0,0,0,163.51,20a20.26,20.26,0,0,0-3.23,3.75c-.92,1.24-2.22,6-2.36,6.5s-.33,11.94-.35,12.83c0,.15,0,.36,0,.59v1c0,.49,0,1,.07,1.46,0,.07,0,.14,0,.21s0,.24.05.36a17.59,17.59,0,0,0,.73,3.12q.21.63.45,1.17a.54.54,0,0,0,0,.11c1.17,2.58,2.92,3.91,5,6.1,2.26,2.33,8.12,3.32,9,3.45.43-7.39.19-16.78.3-19S172.92,22.86,172.74,16.08Z" style="fill: #5d4669"/>
          <path d="M157.61,46.18c0,.07,0,.14,0,.21S157.62,46.25,157.61,46.18Z" style="fill: #5d4669"/>
          <path d="M158.41,49.87a17.59,17.59,0,0,1-.73-3.12A15.21,15.21,0,0,0,158.86,51Q158.62,50.5,158.41,49.87Z" style="fill: #5d4669"/>
        </g>
        <path d="M250.09,59.87v0h1.7v-.72c-.19-7.16-.58-22.67-.47-24.88s-.13-11.71.3-19.14h-1.33v0c-3.87.44-7.76,1.64-10.35,4.35s-4,7.32-4,11.71V43.91C235.9,52.06,237.56,59.9,250.09,59.87Z" style="fill: #5d4669"/>
        <g>
          <path d="M268.56,29.8c0,.48.07,1,.07,1.46v1A17.54,17.54,0,0,0,268.56,29.8Z" style="fill: #5d4669"/>
          <path d="M267.31,24.94l-.05-.1Z" style="fill: #5d4669"/>
          <path d="M268.54,29.59c0-.12,0-.24-.05-.36C268.5,29.35,268.52,29.47,268.54,29.59Z" style="fill: #5d4669"/>
          <path d="M253.43,59.9a32.08,32.08,0,0,0,4.67-1.06A16.59,16.59,0,0,0,262.66,56a20.53,20.53,0,0,0,3.23-3.74c.92-1.25,2.22-6,2.36-6.51s.32-11.94.35-12.83c0-.15,0-.36,0-.59v-1c0-.49,0-1-.07-1.46a1.36,1.36,0,0,1,0-.21c0-.12,0-.24-.05-.36a18.52,18.52,0,0,0-.73-3.12q-.21-.63-.45-1.17l-.05-.1c-1.17-2.58-2.92-3.92-5-6.11-2.26-2.33-8.12-3.31-9-3.45-.42,7.39-.18,16.79-.3,19S253.25,53.12,253.43,59.9Z" style="fill: #5d4669"/>
          <path d="M268.56,29.8a1.49,1.49,0,0,1,0-.21A1.36,1.36,0,0,0,268.56,29.8Z" style="fill: #5d4669"/>
          <path d="M267.76,26.11a18.52,18.52,0,0,1,.73,3.12,15.91,15.91,0,0,0-1.18-4.29Q267.55,25.48,267.76,26.11Z" style="fill: #5d4669"/>
        </g>
        <path d="M152.53,35.76a25.55,25.55,0,0,0-.33-7.91A18.2,18.2,0,0,0,148,19.4c-2-2.38-6.9-3.29-9.72-3.63l-.8,0h-3.1v4.45c.15,4,.28,9.31.09,13,0,.81-.07,1.83-.09,3v6.49c0,1.85.05,3.77.09,5.66h3v0a20.8,20.8,0,0,0,8-1.86h0C151.72,43.14,152.26,36.52,152.53,35.76Z" style="fill: #5d4669"/>
        <path d="M200.08,23a14.89,14.89,0,0,0-3.46,9.29V44.13a17.2,17.2,0,0,0,3.22,10c1.27,1.61,2.81,3.84,4.56,5,2.39,1.56,5.24,1.17,8,1.41-.33-3.34-.45-7.92-.45-15.95s.72-22,1.09-28.73v-.13C205.05,15.74,203.24,19,200.08,23Z" style="fill: #5d4669"/>
        <path d="M229.68,32.25c0-8.36-2.91-16.56-15-16.4-.22,4.06-.57,10.69-.81,17.1h15.78Z" style="fill: #5d4669"/>
        <path d="M222.12,58.45c5.33-3,7.27-6.91,8.57-14.32v-.71l-17.09.22v8c.06,4.06.19,6.87.42,9.11A26.37,26.37,0,0,0,222.12,58.45Z" style="fill: #5d4669"/>
        <path d="M161.21,118.37l-.76,0h.76Z" style="fill: #bb476a"/>
        <path d="M204.65,67.05c0,4.9.09,13.29.32,15.92.32,3.78.82,19.74.65,21.87-.11,1.51-.15,8.81-.16,13,14.58-1,19.73-3.36,20.07-18.61V85.71C225.53,76.14,219.17,65.47,204.65,67.05Z" style="fill: #5d4669"/>
        <path d="M203.17,83c-.23-2.65-.3-11.15-.32-16H191.58l-.19,3.33L190.33,118h13.34c0-4.16,0-11.62.16-13.15C204,102.71,203.5,86.75,203.17,83Z" style="fill: #5d4669"/>
        <path d="M241.11,68.49c-2.63,1.35-4.46,2.35-6.17,4.69-2.19,3-3.55,8.09-3.55,12V99.58c0,9.53,6,20,16.12,18.37l-.34-50.84A17.46,17.46,0,0,0,241.11,68.49Z" style="fill: #5d4669"/>
        <path d="M249,67c.13,5.46.47,19.24.56,21.7.13,3.09,0,24.68,0,26.16,0,.72-.05,1.89-.11,2.9,11.89-1.14,18.51-6.3,19-18.2V85.19C268.4,75.88,261.14,68.09,249,67Z" style="fill: #5d4669"/>
        <path d="M243.59,88.72c-.1-2.45-.43-16.11-.56-21.62h0l.34,50.84.13,0c.06-1,.13-2.29.13-3.05C243.59,113.4,243.71,91.81,243.59,88.72Z" style="fill: #5d4669"/>
        <g>
          <path d="M9.18,54S-.82,66.21.05,76.64,7.44,88.38,14.83,91.42,9.18,54,9.18,54" style="fill: #5d4669"/>
          <path d="M96.33,54s10,12.17,9.13,22.6S98.07,88.38,90.68,91.42,96.33,54,96.33,54" style="fill: #5d4669"/>
          <path d="M97.21,57.15c-.88-18.69-16.52-41.73-35.65-46.5s-30.86,1.73-43,16.94S7.23,76.71,11.14,95a24.47,24.47,0,0,0,1,3.56c7.62,21,42,22.52,42,22.52a53.16,53.16,0,0,0,32.17-9.57c2.7-1.89,4.86-6,6.52-11.45C96.54,88.07,97.8,70,97.21,57.15Z" style="fill: #bb476a"/>
          <path d="M24,48.18S27,33.39,38.53,35.35s13.9,10.22,13,14.34-6.3,12.18-15,11.31S22.67,51.44,24,48.18" style="fill: #f1f2f2"/>
          <path d="M54.39,49.48s3.48-17.6,16.52-14.35,12,13.7,11.74,15.43S76.12,63,68.73,61.87s-15.43-7-14.34-12.39" style="fill: #f1f2f2"/>
          <path d="M33.09,48.18s4.13,3.69,9.13-.65c-2.83,4.12-6.95,6.29-9.13.65" style="fill: #5d4669"/>
          <path d="M64.17,48s4.13,3.69,9.13-.65c-2.83,4.13-7,6.3-9.13.65" style="fill: #5d4669"/>
          <path d="M28.2,18.18S27.53,0,28.9,0,41.54,14.49,41.54,14.49L30,16" style="fill: #bb476a"/>
          <g>
            <path d="M29.08,123.73h0v.12h0v.85h.41c4-.15,12.79-.47,14.05-.42s6.61-.15,10.81,0v-.75h0a9.46,9.46,0,0,0-2.52-5.81,9.71,9.71,0,0,0-6.64-2.22l-7.15.08c-4.6,0-9,1-8.92,8.11" style="fill: #5d4669"/>
            <path d="M43.59,121.91h0v0h0l0,.25H43.5c-1.19,0-1.64.07-2,.12s-1.94.11-3.17.27v-.22h0a2.79,2.79,0,0,1,.61-1.77,2.86,2.86,0,0,1,1.89-.81l0-.06c1.34-.09,2.67.1,2.8,2.18" style="fill: #f1f2f2"/>
            <path d="M32.1,122.32h0v0h0v.25h.12c1.19,0,1.64,0,2,0s1.94,0,3.18,0v-.22h0a2.82,2.82,0,0,0-.74-1.72,3,3,0,0,0-2-.65l0-.06c-1.36,0-2.66.31-2.63,2.39" style="fill: #f1f2f2"/>
            <path d="M44.59,122.05h0v0h0v.25h.12c1.19,0,1.64-.06,2,0s1.94,0,3.18,0v-.22h0a2.82,2.82,0,0,0-.74-1.72,2.85,2.85,0,0,0-2-.65l0-.06c-1.36,0-2.66.3-2.63,2.39" style="fill: #f1f2f2"/>
          </g>
          <g>
            <path d="M51.81,122.39h0v.12h0l-.08.85.41,0c4,.28,12.77.88,14,1.07s6.59.55,10.74,1.19l.07-.75h0a9.35,9.35,0,0,0-1.89-6A9.72,9.72,0,0,0,68.66,116l-7.12-.68c-4.59-.43-9.07.08-9.73,7.12" style="fill: #5d4669"/>
            <path d="M54.79,121.16h0v0h0l0,.24.12,0c1.19.08,1.64.11,2,.17s1.94.16,3.16.35l0-.22h0a2.84,2.84,0,0,0-.55-1.79,2.89,2.89,0,0,0-1.88-.85l0-.06c-1.35-.13-2.67,0-2.87,2.1" style="fill: #f1f2f2"/>
            <path d="M66.56,122.17h0v0h0l0,.25h-.12c-1.18-.15-1.63-.2-2-.21s-1.94-.21-3.18-.25l0-.22h0a2.81,2.81,0,0,1,.88-1.65,2.89,2.89,0,0,1,2-.48l0-.07c1.36.13,2.63.53,2.43,2.61" style="fill: #f1f2f2"/>
            <path d="M68.14,122.36h0v0h0l0,.25h.12c1.19.08,1.64.12,2,.17s1.94.17,3.17.35l0-.22h0a2.75,2.75,0,0,0-.56-1.78,2.89,2.89,0,0,0-1.88-.85l0-.06c-1.35-.13-2.67,0-2.87,2.1" style="fill: #f1f2f2"/>
          </g>
          <path d="M43.81,63.27s.63,4.24.81,4.87,1.53,8.84,1.62,9.2,11.27-9.29,11.45-9.56l2.62-3.69Z" style="fill: #f1f2f2"/>
          <path d="M28.9,0S34.58,2.87,35,3.23,37.78,5,38.14,5.31c0,0,6.89,4.83,7.07,5.28s-6.27.83-6.27.83-6.68-6.77-6.86-7.13S28.9,0,28.9,0Z" style="fill: #5d4669"/>
          <path d="M67.84,13.89S71.62,9.27,71.9,9s2.83-2.92,3.49-3.39a8.37,8.37,0,0,1,2-.85,32.85,32.85,0,0,1,1.07,5.77,92.11,92.11,0,0,1-.32,9.88C77.93,20.68,67.84,13.89,67.84,13.89Z" style="fill: #bb476a"/>
          <path d="M63.29,11.73s4.94-3.45,5.34-3.79,4.71-2.25,5.12-2.39,3.9-1.1,3.62-.81A22.42,22.42,0,0,0,75.06,7.2c-.14.2-5.14,6.56-5.35,6.76s-7-1.62-7-1.62A2.9,2.9,0,0,1,63.29,11.73Z" style="fill: #5d4669"/>
          <g>
            <path d="M32,82.2s4.69,8.5,12.79,6.58C39.36,91.84,34.72,92.89,32,82.2" style="fill: #f1f2f2"/>
            <path d="M26.3,96s6.18,7.48,13.78,4.11c-4.79,4-9.16,5.89-13.78-4.11" style="fill: #f1f2f2"/>
            <path d="M45.75,100.4s8.15,5.27,14.37-.23c-3.35,5.26-6.94,8.38-14.37.23" style="fill: #f1f2f2"/>
            <path d="M36.77,91.94s6.72,7,14,3.07c-4.47,4.36-8.69,6.56-14-3.07" style="fill: #f1f2f2"/>
            <path d="M45.85,88.67s8.14,5.27,14.37-.24c-3.36,5.27-6.95,8.38-14.37.24" style="fill: #f1f2f2"/>
            <path d="M60.07,87.47S69.43,90,73.7,82.88c-1.6,6-4.08,10.1-13.63,4.59" style="fill: #f1f2f2"/>
            <path d="M63.31,99.87s8.63,4.43,14.27-1.67c-2.81,5.58-6.08,9-14.27,1.67" style="fill: #f1f2f2"/>
            <path d="M23.34,85.23s4.35,8.67,12.52,7.07C30.3,95.14,25.62,96,23.34,85.23" style="fill: #f1f2f2"/>
            <path d="M68.6,92.43s9.26,2.9,13.78-4.09c-1.81,6-4.45,10-13.78,4.09" style="fill: #f1f2f2"/>
            <path d="M53.42,95.16s9.25,2.92,13.8-4c-1.84,6-4.48,9.93-13.8,4" style="fill: #f1f2f2"/>
          </g>
        </g>
        <path d="M284.21,19.66a5.06,5.06,0,1,1-5-4.92A4.94,4.94,0,0,1,284.21,19.66Zm-8.85,0a3.81,3.81,0,0,0,3.84,3.93,3.77,3.77,0,0,0,3.75-3.9,3.8,3.8,0,1,0-7.59,0Zm3,2.58h-1.14V17.32a10,10,0,0,1,1.89-.15,3.07,3.07,0,0,1,1.71.36,1.36,1.36,0,0,1,.48,1.08,1.26,1.26,0,0,1-1,1.14v.06a1.45,1.45,0,0,1,.9,1.2,3.76,3.76,0,0,0,.36,1.23h-1.23A4.21,4.21,0,0,1,280,21c-.09-.54-.39-.78-1-.78h-.54Zm0-2.79H279c.63,0,1.14-.21,1.14-.72s-.33-.75-1.05-.75a2.73,2.73,0,0,0-.63.06Z" style="fill: #5d4669"/>
      </g>
    </g>
  </g>
</svg>
