<svg xmlns="http://www.w3.org/2000/svg" viewBox="0 0 225.67 75.79">
  <title>Asset 1</title>
  <g id="Layer_2" data-name="Layer 2">
    <g id="Layer_1-2" data-name="Layer 1">
      <g>
        <path d="M16.77,68.67h.41a5.18,5.18,0,0,0,0,.93,1,1,0,0,0,.26.36,1.68,1.68,0,0,0,.58.36,1.86,1.86,0,0,0,.73.14,1.36,1.36,0,0,0,1-.4,1.38,1.38,0,0,0,.39-1,1.27,1.27,0,0,0-.26-.85,1.63,1.63,0,0,0-1-.42,4.78,4.78,0,0,1-1.46-.4,1.47,1.47,0,0,1-.59-.64,2.22,2.22,0,0,1-.22-1A2.51,2.51,0,0,1,17.31,64a2.43,2.43,0,0,1,1.93-.7,4.28,4.28,0,0,1,.92.09,3.85,3.85,0,0,1,.81.31l.05.12a5.85,5.85,0,0,0-.11.62c0,.18,0,.5-.05.94h-.39a5.08,5.08,0,0,0-.07-.92,1,1,0,0,0-.44-.38,1.67,1.67,0,0,0-.81-.19,1.28,1.28,0,0,0-1,.36,1.25,1.25,0,0,0-.35.92,1.15,1.15,0,0,0,.15.59.84.84,0,0,0,.39.38,5.82,5.82,0,0,0,1.09.28,4.59,4.59,0,0,1,1,.26,1.43,1.43,0,0,1,.67.64,2.28,2.28,0,0,1,.23,1.08,2.59,2.59,0,0,1-.74,1.89,2.7,2.7,0,0,1-2,.76,4.09,4.09,0,0,1-1-.13,4.67,4.67,0,0,1-1-.42,3.91,3.91,0,0,0,.11-.69C16.76,69.53,16.77,69.15,16.77,68.67Z" style="fill: #2c4a6c"/>
        <path d="M30.2,70.94v-.45a1.4,1.4,0,0,0,.65-.1.29.29,0,0,0,.14-.24s0-.39.05-1.05v-.39A3.94,3.94,0,0,0,31,67.8a14.09,14.09,0,0,0-.7-1.43c-.4-.75-.71-1.28-.92-1.61a2.69,2.69,0,0,0-.54-.63.31.31,0,0,0-.2,0H28.4v-.43c.5-.1,1-.22,1.5-.37a1.61,1.61,0,0,1,.4.32,6.45,6.45,0,0,1,.64,1.07c.28.53.63,1.3,1,2.3l.37-.75c.35-.68.79-1.62,1.35-2.83h.75v.27a15,15,0,0,0-.9,1.55c-.69,1.27-1.08,2-1.15,2.23a2.86,2.86,0,0,0-.08.83c0,.84,0,1.43.05,1.77,0,.19,0,.3.12.35a2.34,2.34,0,0,0,.71.09v.45c-.44,0-.89,0-1.35,0S30.8,70.92,30.2,70.94Z" style="fill: #2c4a6c"/>
        <path d="M41.81,68.67h.4a5.82,5.82,0,0,0,0,.93.91.91,0,0,0,.26.36,1.59,1.59,0,0,0,.58.36,1.86,1.86,0,0,0,.73.14,1.36,1.36,0,0,0,1-.4,1.38,1.38,0,0,0,.39-1,1.27,1.27,0,0,0-.26-.85,1.64,1.64,0,0,0-1-.42,4.78,4.78,0,0,1-1.45-.4,1.47,1.47,0,0,1-.59-.64,2.22,2.22,0,0,1-.22-1,2.55,2.55,0,0,1,.6-1.71,2.46,2.46,0,0,1,1.93-.7,4.31,4.31,0,0,1,.93.09,3.85,3.85,0,0,1,.81.31l0,.12a5.64,5.64,0,0,0-.1.62c0,.18,0,.5-.05.94h-.39a5.08,5.08,0,0,0-.07-.92,1.08,1.08,0,0,0-.44-.38,1.67,1.67,0,0,0-.81-.19,1.28,1.28,0,0,0-1,.36A1.36,1.36,0,0,0,43,65.76a.92.92,0,0,0,.4.38,5.82,5.82,0,0,0,1.09.28,4.46,4.46,0,0,1,1,.26,1.46,1.46,0,0,1,.68.64,2.28,2.28,0,0,1,.22,1.08,2.55,2.55,0,0,1-.74,1.89,2.66,2.66,0,0,1-2,.76,4.23,4.23,0,0,1-1-.13,4.39,4.39,0,0,1-1-.42,5.13,5.13,0,0,0,.11-.69C41.8,69.53,41.81,69.15,41.81,68.67Z" style="fill: #2c4a6c"/>
        <path d="M55,70.94v-.45a3.51,3.51,0,0,0,.55,0,.34.34,0,0,0,.18-.09.38.38,0,0,0,.08-.23c0-.16,0-.72.06-1.7,0-.69,0-1.4,0-2.12,0-1.42,0-2.15,0-2.17s-.11,0-.32,0c-.43,0-.79,0-1.1,0l-.29.05a.14.14,0,0,0-.06.1s0,.36-.08.94h-.39c0-.69,0-1.28,0-1.77l0-.05c1,.06,1.89.09,2.8.09s1.91,0,3-.09l0,.09c-.06.49-.1,1.07-.12,1.73H59a7.65,7.65,0,0,0-.08-1,.18.18,0,0,0-.15-.08,9,9,0,0,0-1.45-.07c-.06,0-.1,0-.11,0a1.14,1.14,0,0,0,0,.28l0,3.62c0,1,0,1.69,0,1.92a.69.69,0,0,0,.11.44,2.93,2.93,0,0,0,.72.11v.45c-.45,0-.93,0-1.43,0C55.93,70.9,55.39,70.92,55,70.94Z" style="fill: #2c4a6c"/>
        <path d="M66.83,70.94v-.29a2.83,2.83,0,0,0,.44-.3c.06-.56.09-1.73.09-3.52q0-1.83,0-2.43a.72.72,0,0,0-.09-.4,1.61,1.61,0,0,0-.68-.14V63.4c.72,0,1.28.05,1.7.05l2.51-.05c.27,0,.51,0,.72,0l0,.06a15.21,15.21,0,0,0-.15,1.58H71a4.78,4.78,0,0,0-.05-.84s-.09-.07-.21-.11A5.44,5.44,0,0,0,69.59,64c-.25,0-.55,0-.89,0,0,1.1-.06,2-.07,2.64.33,0,.63,0,.92,0a3.3,3.3,0,0,0,.76-.05.22.22,0,0,0,.11-.16,4.66,4.66,0,0,0,.06-.68h.4c0,.61,0,1,0,1.19l0,1.21h-.4a3.25,3.25,0,0,0-.08-.81.18.18,0,0,0-.12-.1,5.3,5.3,0,0,0-1-.06c-.17,0-.36,0-.59,0,0,.19,0,.38,0,.58,0,1,0,1.8,0,2.35l.91,0a8.82,8.82,0,0,0,1.41-.1c.07-.33.15-.7.22-1.12h.38c-.07.63-.11,1.25-.13,1.83a7.26,7.26,0,0,1-.8,0l-1,0-1.27,0C67.93,70.9,67.39,70.92,66.83,70.94Z" style="fill: #2c4a6c"/>
        <path d="M78.75,70.94v-.45l.27,0c.22,0,.36-.06.41-.14a1.81,1.81,0,0,0,.1-.76c0-.88,0-1.84,0-2.87V64.83a3.93,3.93,0,0,0-.06-.77.23.23,0,0,0-.11-.11,2.5,2.5,0,0,0-.64-.09V63.4c.36,0,.72,0,1.08,0s.8,0,1.18,0l.51,1.36c.13.32.68,1.67,1.66,4,1-2.45,1.76-4.25,2.18-5.41l1,0q.57,0,1.11,0v.46a1.48,1.48,0,0,0-.67.12c-.06.05-.09.22-.1.49,0,.45,0,1.31,0,2.57,0,.64,0,1.31,0,2a8.05,8.05,0,0,0,.06,1.2.25.25,0,0,0,.09.13,2.79,2.79,0,0,0,.64.1v.45c-.49,0-.93,0-1.32,0l-1.59,0v-.45h.27c.22,0,.35,0,.4-.11a.85.85,0,0,0,.11-.46c0-.26,0-.85,0-1.79V64.88q-.7,1.66-1.8,4.35c-.3.74-.53,1.34-.7,1.81h-.3c-.23-.62-.53-1.4-.92-2.34L80.1,64.88v.73c0,2,0,3.41,0,4.17a1.11,1.11,0,0,0,.11.57,1.26,1.26,0,0,0,.68.14v.45c-.31,0-.62,0-.93,0C79.52,70.9,79.11,70.92,78.75,70.94Z" style="fill: #2c4a6c"/>
        <path d="M95,68.67h.4a5.82,5.82,0,0,0,0,.93.91.91,0,0,0,.26.36,1.59,1.59,0,0,0,.58.36,1.86,1.86,0,0,0,.73.14,1.36,1.36,0,0,0,1-.4,1.37,1.37,0,0,0,.38-1,1.27,1.27,0,0,0-.25-.85,1.64,1.64,0,0,0-1-.42,4.69,4.69,0,0,1-1.45-.4,1.47,1.47,0,0,1-.59-.64,2.22,2.22,0,0,1-.22-1,2.55,2.55,0,0,1,.6-1.71,2.46,2.46,0,0,1,1.93-.7,4.31,4.31,0,0,1,.93.09,3.85,3.85,0,0,1,.81.31l0,.12a5.64,5.64,0,0,0-.1.62c0,.18,0,.5,0,.94h-.4a4.62,4.62,0,0,0-.06-.92,1.08,1.08,0,0,0-.44-.38,1.67,1.67,0,0,0-.81-.19,1.28,1.28,0,0,0-1,.36,1.36,1.36,0,0,0-.21,1.51.92.92,0,0,0,.4.38,5.82,5.82,0,0,0,1.09.28,4.46,4.46,0,0,1,1,.26,1.39,1.39,0,0,1,.67.64,2.16,2.16,0,0,1,.23,1.08,2.55,2.55,0,0,1-.74,1.89,2.66,2.66,0,0,1-2,.76,4.17,4.17,0,0,1-1-.13,4.39,4.39,0,0,1-1-.42,5.13,5.13,0,0,0,.11-.69C95,69.53,95,69.15,95,68.67Z" style="fill: #2c4a6c"/>
      </g>
      <g>
        <line y1="73.91" x2="225.67" y2="73.91" style="fill: #fff"/>
        <polygon points="0 75.19 0 74.13 225.67 74.13 225.67 75.8 0 75.8 0 75.19" style="fill: #2c4a6c"/>
      </g>
      <g>
        <path d="M113.43,41.16l-.16-.22a11.81,11.81,0,0,0,.77-2.45c1.44,0,2.62.07,3.54.07s2.06,0,3.29-.07l.17.23a23.81,23.81,0,0,0-.83,2.44c-1.29,0-2.45-.07-3.48-.07S114.59,41.11,113.43,41.16Z" style="fill: #2c4a6c"/>
        <path d="M141.77,38.5V37.31c1.78,0,3.37.07,4.77.07s2.68,0,4.17-.07v.94a8.26,8.26,0,0,0-1.23.48,21.48,21.48,0,0,0-.18,2.52c0,.5.06,1.49.18,3a32.79,32.79,0,0,1-4.86,1.42,22.26,22.26,0,0,1-4.05.37q-5.65,0-8.85-2.94a9.84,9.84,0,0,1-3.2-7.61,9.77,9.77,0,0,1,3.26-7.69q3.27-2.88,9.38-2.89a25.11,25.11,0,0,1,4.13.34,19.82,19.82,0,0,1,3.76,1l.14.22a30,30,0,0,0-.63,4.62h-1.23a17.59,17.59,0,0,0-.19-2.46A5.78,5.78,0,0,0,144.73,27a10.14,10.14,0,0,0-3.48-.54,8,8,0,0,0-6,2.28A8.58,8.58,0,0,0,133,35a9.76,9.76,0,0,0,2.36,6.83,7.5,7.5,0,0,0,5.79,2.58,9.78,9.78,0,0,0,3.9-.89c.07-.75.11-1.46.11-2.14a5.8,5.8,0,0,0-.26-2.49A10.6,10.6,0,0,0,141.77,38.5Z" style="fill: #2c4a6c"/>
        <path d="M152.44,45.7V44.5a9.16,9.16,0,0,0,1.7-.17.75.75,0,0,0,.28-.28,5.25,5.25,0,0,0,.19-1.56c0-1.43,0-2.73,0-3.9,0-2.26,0-3.6-.08-4a.7.7,0,0,0-.27-.52,6.11,6.11,0,0,0-1.87-.21V32.71a21.65,21.65,0,0,0,4.22-.7l1.51-.56c.13,0,.2.09.2.28v.2c0,.62-.05,1.5-.05,2.66A23.07,23.07,0,0,0,160,32.77a4.13,4.13,0,0,1,1.17-1.07,3,3,0,0,1,1.33-.25,2.87,2.87,0,0,1,.95.16c-.08,1-.14,2.31-.17,4l-.66.23a1.78,1.78,0,0,0-1.79-1,2.54,2.54,0,0,0-1.51.45,2,2,0,0,0-.8,1,19.46,19.46,0,0,0-.12,3c0,2.48,0,3.92.1,4.34a.76.76,0,0,0,.28.55,6.44,6.44,0,0,0,2.21.31v1.2l-1.64,0c-1,0-1.95,0-2.71,0s-1.56,0-2.52,0Z" style="fill: #2c4a6c"/>
        <path d="M165,38.74a7.42,7.42,0,0,1,1.62-5.22,7.37,7.37,0,0,1,5.63-2.07q3.66,0,5.34,1.66c1.13,1.1,1.69,2.85,1.69,5.23A7.82,7.82,0,0,1,177.35,44a7.2,7.2,0,0,1-5.4,2,6.8,6.8,0,0,1-5.17-1.86A7.57,7.57,0,0,1,165,38.74Zm4.05-1c0,2.61.34,4.46,1,5.57a2.55,2.55,0,0,0,2.33,1.28,2.4,2.4,0,0,0,2.1-1.09,7.44,7.44,0,0,0,.74-4c0-2.63-.3-4.44-.91-5.45a2.53,2.53,0,0,0-2.33-1.2,2.48,2.48,0,0,0-2.14,1.1A6.68,6.68,0,0,0,169.06,37.73Z" style="fill: #2c4a6c"/>
        <path d="M181.06,33.82V32.7a22.67,22.67,0,0,0,4.38-.84l1.45-.51c.18,0,.27.11.27.34l-.06.86q-.25,3.38-.25,6.51a11.58,11.58,0,0,0,.2,2.69,1.94,1.94,0,0,0,.74,1,2.52,2.52,0,0,0,1.43.36,3,3,0,0,0,1.82-.57,2.31,2.31,0,0,0,1-1.26,23.43,23.43,0,0,0,.18-3.93c0-1.73,0-2.74-.08-3a.51.51,0,0,0-.21-.32,8.93,8.93,0,0,0-2-.21V32.7a24.16,24.16,0,0,0,4.4-.8l1.55-.55c.16,0,.25.1.25.31l0,.39c-.16,1.71-.24,4.79-.24,9.27A16,16,0,0,0,196,43.9a.57.57,0,0,0,.23.35,7.54,7.54,0,0,0,1.83.25v1.2c-1.11-.06-2.22-.08-3.32-.08-.89,0-1.72,0-2.49.08l-.13-.26c0-.49.08-1.25.11-2.3a29.54,29.54,0,0,0-2.63,2.42,5.17,5.17,0,0,1-2.05.45,4.88,4.88,0,0,1-2.35-.54,3.6,3.6,0,0,1-1.47-1.42,5.14,5.14,0,0,1-.48-2.45l0-1.6c0-1,0-1.79,0-2.41a27.52,27.52,0,0,0-.1-3.12.73.73,0,0,0-.31-.48A6.33,6.33,0,0,0,181.06,33.82Z" style="fill: #2c4a6c"/>
        <path d="M199.59,33.82V32.7a24.13,24.13,0,0,0,4.25-.69l1.57-.49c.13,0,.2.12.2.35a6.72,6.72,0,0,1-.05.79l0,1.34,2.38-1.88a4,4,0,0,1,2.49-.6,5.27,5.27,0,0,1,4,1.54,5.66,5.66,0,0,1,1.49,4.12,9,9,0,0,1-.37,2.57,7.3,7.3,0,0,1-.89,2,8.35,8.35,0,0,1-1.8,1.74c-1.47,1.19-2.35,1.86-2.64,2a3.92,3.92,0,0,1-2,.48,5.42,5.42,0,0,1-1.32-.16,6.68,6.68,0,0,1-1.31-.48l.06,4.46a3.56,3.56,0,0,0,.34,1.87,4.55,4.55,0,0,0,2.17.27v1.2c-1.52-.05-2.83-.08-4-.08-2.15,0-3.66,0-4.54.08V52a7.07,7.07,0,0,0,1.79-.17.53.53,0,0,0,.22-.28,17.61,17.61,0,0,0,.19-3c.06-2.48.09-4.33.09-5.54l0-5.82a15.55,15.55,0,0,0-.16-2.93.55.55,0,0,0-.22-.27A6.65,6.65,0,0,0,199.59,33.82Zm5.93,8.69A5,5,0,0,0,207,43.77a3.5,3.5,0,0,0,1.68.43,3,3,0,0,0,2.47-1.3,7.08,7.08,0,0,0,1-4.17,5.41,5.41,0,0,0-1-3.52,3.09,3.09,0,0,0-2.5-1.2,3.58,3.58,0,0,0-1.53.37,6,6,0,0,0-1.54,1.1Z" style="fill: #2c4a6c"/>
      </g>
      <g>
        <path d="M225.57,1.67V0H.19V60.2H225.57V58.58H108.1V1.67ZM93.11,13.31a3.49,3.49,0,0,1,2.59-1.07,3.45,3.45,0,0,1,2.56,1.07,3.49,3.49,0,0,1,1.07,2.59,3.45,3.45,0,0,1-1.07,2.56A3.65,3.65,0,0,1,92,15.9,3.52,3.52,0,0,1,93.11,13.31ZM47.44,51.05,44.72,53a28.26,28.26,0,0,1-2.67,1.69,2.91,2.91,0,0,1-1.15.21,17.92,17.92,0,0,1-3.55-.41,63.75,63.75,0,0,1-6.46-1.94c-2.17-.73-3.67-1.19-4.5-1.37a10.13,10.13,0,0,0-2.11-.27,5.44,5.44,0,0,0-1.87.32,10.17,10.17,0,0,0-2.27,1.32l-1.11-1,1.57-1.29a24.66,24.66,0,0,1,5.68-3.46q-7.58,0-12.12-4.5T9.61,30.06a18,18,0,0,1,2.23-9.25A15,15,0,0,1,18,15a22,22,0,0,1,10.15-2,21.16,21.16,0,0,1,9.75,2,14.13,14.13,0,0,1,5.85,5.44,16.55,16.55,0,0,1,2,8.55,19.21,19.21,0,0,1-2.18,9.36,15.13,15.13,0,0,1-5.92,6.05Q34,46.37,27.42,46.72a21.53,21.53,0,0,1,3.33.68l6.12,2.06a43.51,43.51,0,0,0,4.36,1.22,10.14,10.14,0,0,0,1.8.18,7.32,7.32,0,0,0,1.87-.22,16.4,16.4,0,0,0,2.54-1Zm38.7-35.72a14.47,14.47,0,0,0-3.5.45,1,1,0,0,0-.42.42,18.64,18.64,0,0,0-.3,3.82c-.11,3.41-.17,6.16-.17,8.27l.14,10.64a28.7,28.7,0,0,0,.21,4.15,1.24,1.24,0,0,0,.54.76,14.88,14.88,0,0,0,3.5.44v2l-2.6-.07c-2-.07-3.48-.1-4.59-.1q-3.47,0-8.17.17v-2c2.07-.1,3.25-.26,3.54-.51a3,3,0,0,0,.52-1.92q.16-2.67.23-11.38H69.25q-5,0-8.83.1v1.54q0,6.15.17,9.22c.08,1.37.26,2.17.56,2.4a10.72,10.72,0,0,0,3.56.55v2l-2.77-.07c-1.75-.07-3.31-.1-4.69-.1l-7.91.17v-2a12.49,12.49,0,0,0,3.5-.41,1.58,1.58,0,0,0,.55-1.12,49.84,49.84,0,0,0,.24-6.49l0-12.82a53.68,53.68,0,0,0-.23-7.08,1,1,0,0,0-.4-.53,12.18,12.18,0,0,0-3.63-.5v-2q4.69.17,7.44.17c2.89,0,5.54-.06,7.93-.17v2a16.07,16.07,0,0,0-3.39.42.9.9,0,0,0-.45.43,9.06,9.06,0,0,0-.33,2.72q-.12,3.38-.12,6.84v1.94c1.63.08,4.2.12,7.73.12q4.69,0,6.92-.12c0-5.07,0-8.45-.16-10.12-.06-.89-.23-1.44-.49-1.64s-1.57-.49-3.64-.59v-2q5.84.17,7.89.17c2.36,0,4.84-.06,7.47-.17Zm16.24,30.92c-2.82-.1-5-.14-6.54-.14-.83,0-3,0-6.66.14V44.33A11.48,11.48,0,0,0,92.24,44c.27-.16.45-.6.53-1.32.12-1,.19-3.16.19-6.52,0-1.46,0-2.8-.07-4l-.07-2.75a2.84,2.84,0,0,0-.3-1.67,2.53,2.53,0,0,0-1.58-.37l-1.76-.07v-1.8a29.21,29.21,0,0,0,9.31-2l.58.47q-.34,4.48-.35,13.06c0,3.31.06,5.3.16,6a1.35,1.35,0,0,0,.44.94,12.47,12.47,0,0,0,3.06.43Z" style="fill: #2c4a6c"/>
        <path d="M35.82,40.54Q38.6,37.07,38.6,30q0-7.41-3.21-11.36-2.6-3.21-8-3.21a9.63,9.63,0,0,0-7.83,3.33Q16.81,22.11,16.81,29a21.08,21.08,0,0,0,1.52,8.46,11,11,0,0,0,3.87,5A11,11,0,0,0,28.32,44,9.15,9.15,0,0,0,35.82,40.54Z" style="fill: #2c4a6c"/>
      </g>
      <g>
        <path d="M117.22,70.94v-.28l.45-.32q.06-.95.06-3.54c0-.75,0-1.37,0-1.87a4.44,4.44,0,0,0-.06-.87.16.16,0,0,0-.06-.08,3.84,3.84,0,0,0-.67-.12V63.4c.46,0,1,0,1.58,0l2.25,0a3.86,3.86,0,0,1,1.87.37,2.52,2.52,0,0,1,1,1.12,4,4,0,0,1,.38,1.82,4.62,4.62,0,0,1-.59,2.38A3.55,3.55,0,0,1,122,70.52a4,4,0,0,1-1.8.42l-1.73,0C118.2,70.9,117.78,70.91,117.22,70.94Zm1.85-.67a3.47,3.47,0,0,0,.79.08,2.9,2.9,0,0,0,1.55-.34,2.41,2.41,0,0,0,.86-1.12A4.93,4.93,0,0,0,122.6,67a3.44,3.44,0,0,0-.65-2.28,2.33,2.33,0,0,0-1.9-.7l-1,.05,0,3.35C119,68.8,119.05,69.76,119.07,70.27Z" style="fill: #2c4a6c"/>
        <path d="M131.24,70.94v-.45a1.82,1.82,0,0,0,.7-.12.71.71,0,0,0,.1-.43c0-.47,0-1.35,0-2.64,0-.5,0-1.21,0-2.15,0-.64,0-1,0-1.06a.22.22,0,0,0-.1-.13,2.2,2.2,0,0,0-.69-.1V63.4c.62,0,1.1,0,1.43,0,.58,0,1.09,0,1.56,0v.46a1.78,1.78,0,0,0-.71.11.54.54,0,0,0-.1.34c0,.34,0,1,0,2.09,0,1.39,0,2.37,0,2.92a3.23,3.23,0,0,0,.08,1,.21.21,0,0,0,.11.12,4.24,4.24,0,0,0,.64.08v.45l-.54,0-.92,0Z" style="fill: #2c4a6c"/>
        <path d="M141.16,63.86V63.4c.58,0,1.1,0,1.59,0s.89,0,1.4,0v.46a2,2,0,0,0-.64.1.18.18,0,0,0-.1.17,8.51,8.51,0,0,0,.38,1.27l1.3,3.71,1-3a10.07,10.07,0,0,0,.57-2,.17.17,0,0,0-.1-.17,2.16,2.16,0,0,0-.67-.09V63.4c.56,0,.94,0,1.13,0s.55,0,1.06,0v.46a1.21,1.21,0,0,0-.54.12,7.4,7.4,0,0,0-.53,1.24l-1.4,4a19.39,19.39,0,0,0-.61,1.88h-.67l-1.61-4.56c-.38-1-.63-1.74-.78-2.11a1.17,1.17,0,0,0-.22-.4A1.54,1.54,0,0,0,141.16,63.86Z" style="fill: #2c4a6c"/>
        <path d="M155.24,70.94v-.45a1.77,1.77,0,0,0,.7-.12.77.77,0,0,0,.11-.43q0-.7,0-2.64c0-.5,0-1.21,0-2.15a8.71,8.71,0,0,0,0-1.06.22.22,0,0,0-.1-.13,2.2,2.2,0,0,0-.69-.1V63.4c.62,0,1.1,0,1.43,0,.58,0,1.09,0,1.56,0v.46a1.78,1.78,0,0,0-.71.11.54.54,0,0,0-.1.34c0,.34,0,1,0,2.09,0,1.39,0,2.37,0,2.92a3.64,3.64,0,0,0,.08,1,.25.25,0,0,0,.11.12,4.47,4.47,0,0,0,.64.08v.45l-.54,0-.91,0Z" style="fill: #2c4a6c"/>
        <path d="M165.75,68.67h.4a5.18,5.18,0,0,0,0,.93,1,1,0,0,0,.26.36,1.68,1.68,0,0,0,.58.36,1.86,1.86,0,0,0,.73.14,1.34,1.34,0,0,0,1-.4,1.38,1.38,0,0,0,.39-1,1.25,1.25,0,0,0-.26-.85,1.63,1.63,0,0,0-1-.42,4.78,4.78,0,0,1-1.46-.4,1.47,1.47,0,0,1-.59-.64,2.35,2.35,0,0,1-.22-1,2.51,2.51,0,0,1,.61-1.71,2.43,2.43,0,0,1,1.93-.7,4.28,4.28,0,0,1,.92.09,3.37,3.37,0,0,1,.81.31l.05.12a5.85,5.85,0,0,0-.11.62c0,.18,0,.5,0,.94h-.39a5.08,5.08,0,0,0-.07-.92,1.08,1.08,0,0,0-.44-.38,1.67,1.67,0,0,0-.81-.19,1.31,1.31,0,0,0-1,.35,1.28,1.28,0,0,0-.35.92,1.16,1.16,0,0,0,.15.6.84.84,0,0,0,.39.38,5.82,5.82,0,0,0,1.09.28,4.09,4.09,0,0,1,1,.26,1.43,1.43,0,0,1,.67.64,2.28,2.28,0,0,1,.23,1.08,2.59,2.59,0,0,1-.74,1.89,2.7,2.7,0,0,1-2,.76,4.09,4.09,0,0,1-1-.13,4.25,4.25,0,0,1-1-.43,3.68,3.68,0,0,0,.11-.68C165.73,69.53,165.74,69.15,165.75,68.67Z" style="fill: #2c4a6c"/>
        <path d="M177.68,70.94v-.45a2,2,0,0,0,.71-.12.9.9,0,0,0,.1-.43q0-.7,0-2.64c0-.5,0-1.21,0-2.15a8.71,8.71,0,0,0,0-1.06.22.22,0,0,0-.1-.13,2.2,2.2,0,0,0-.69-.1V63.4c.62,0,1.1,0,1.43,0,.58,0,1.09,0,1.56,0v.46A1.78,1.78,0,0,0,180,64a.54.54,0,0,0-.1.34c0,.34,0,1,0,2.09,0,1.39,0,2.37,0,2.92a3.23,3.23,0,0,0,.08,1,.25.25,0,0,0,.11.12,4.47,4.47,0,0,0,.64.08v.45l-.54,0-.91,0Z" style="fill: #2c4a6c"/>
        <path d="M191.37,71.05a3.26,3.26,0,0,1-2.58-1,4.08,4.08,0,0,1-.89-2.8,4.71,4.71,0,0,1,.43-2.12,3.2,3.2,0,0,1,1.2-1.34,3.82,3.82,0,0,1,2-.47,3.65,3.65,0,0,1,1.91.45A3,3,0,0,1,194.56,65a4.41,4.41,0,0,1,.4,2,5,5,0,0,1-.44,2.17,3.29,3.29,0,0,1-1.24,1.41A3.47,3.47,0,0,1,191.37,71.05Zm.17-.58a1.71,1.71,0,0,0,1.47-.8,4.37,4.37,0,0,0,.54-2.43,4.67,4.67,0,0,0-.62-2.62,2,2,0,0,0-3.09,0A4.15,4.15,0,0,0,189.3,67a5.79,5.79,0,0,0,.29,1.94,2.6,2.6,0,0,0,.76,1.16A1.93,1.93,0,0,0,191.54,70.47Z" style="fill: #2c4a6c"/>
        <path d="M202.18,70.94v-.45a2,2,0,0,0,.65-.09.22.22,0,0,0,.1-.14,4.89,4.89,0,0,0,.06-.9q0-1.29,0-2V65.14a5.76,5.76,0,0,0,0-1,.19.19,0,0,0-.09-.12,2.11,2.11,0,0,0-.69-.12V63.4l1.06,0,.86,0c.7,1.06,1.5,2.2,2.38,3.44.59.82,1.1,1.51,1.53,2V66.75c0-.81,0-1.5,0-2.09a2,2,0,0,0-.08-.64.16.16,0,0,0-.09-.09,4.82,4.82,0,0,0-.65-.07V63.4l1,0q.68,0,1.23,0v.46a2.64,2.64,0,0,0-.62.08.18.18,0,0,0-.09.08.23.23,0,0,0-.06.12,7.19,7.19,0,0,0,0,.83v4.31q0,.87,0,1.74l-.06.08c-.37-.08-.63-.14-.78-.16-.79-1-1.73-2.3-2.84-3.84-.56-.78-1-1.44-1.35-2v2.08c0,.57,0,1.26,0,2.06a6.12,6.12,0,0,0,.06,1,.16.16,0,0,0,.07.09,2.11,2.11,0,0,0,.66.11v.45c-.49,0-.85,0-1.06,0Z" style="fill: #2c4a6c"/>
      </g>
    </g>
  </g>
</svg>
