<svg xmlns="http://www.w3.org/2000/svg" viewBox="0 0 133.37 32.21">
  <title>Asset 1</title>
  <g id="Layer_2" data-name="Layer 2">
    <g id="Layer_1-2" data-name="Layer 1">
      <g>
        <path d="M29.1,12.75a3.15,3.15,0,0,0-1.67.41,3.66,3.66,0,0,0-1,.88,4.34,4.34,0,0,0-.68,1.25v9.47H21V8.53h4.74v1.69h.34a3.78,3.78,0,0,1,1-1,5.79,5.79,0,0,1,1.3-.69,5.1,5.1,0,0,1,1.95-.32h.34v4.56Z" style="fill: #1d1f29"/>
        <path d="M32.82,24.76V8.53h4.74V24.76Z" style="fill: #1d1f29"/>
        <path d="M39.72,13a8.83,8.83,0,0,1,1.71-2.69,8.36,8.36,0,0,1,2.44-1.79,6.41,6.41,0,0,1,2.82-.66,5,5,0,0,1,2,.37A6.14,6.14,0,0,1,50.11,9a4.74,4.74,0,0,1,1,1.19h.34V8.53h4.74V24.29a7.07,7.07,0,0,1-.66,3,8.6,8.6,0,0,1-1.78,2.52,8.45,8.45,0,0,1-2.62,1.74,8.14,8.14,0,0,1-3.23.65,9.86,9.86,0,0,1-3.06-.44,8.31,8.31,0,0,1-2.34-1.19,7.36,7.36,0,0,1-1.67-1.72,8.78,8.78,0,0,1-1.05-2.07l4.73-.67a4.59,4.59,0,0,0,1.19,1.25,3.61,3.61,0,0,0,2.2.61,3.46,3.46,0,0,0,2.54-1,3.71,3.71,0,0,0,1-2.69V22.39h-.34a4,4,0,0,1-1,1.19,5.22,5.22,0,0,1-1.39.83,5.35,5.35,0,0,1-2,.35,6.41,6.41,0,0,1-2.82-.66,8.18,8.18,0,0,1-2.44-1.79,8.85,8.85,0,0,1-1.71-2.67,9,9,0,0,1,0-6.65Zm10.73.54a6.14,6.14,0,0,0-1.17-1,2.8,2.8,0,0,0-1.57-.45,3.67,3.67,0,0,0-2.77,1.15,4.2,4.2,0,0,0-1.12,3.08,4.19,4.19,0,0,0,1.12,3.07,3.67,3.67,0,0,0,2.77,1.15,2.8,2.8,0,0,0,1.57-.44,5.43,5.43,0,0,0,1.17-1,5.68,5.68,0,0,0,1-1.45V15A6.07,6.07,0,0,0,50.45,13.53Z" style="fill: #1d1f29"/>
        <path d="M58.57,13a8.83,8.83,0,0,1,1.71-2.69,8.31,8.31,0,0,1,2.43-1.79,6.48,6.48,0,0,1,2.83-.66,5,5,0,0,1,2,.37A6.28,6.28,0,0,1,69,9a4.79,4.79,0,0,1,1,1.19h.33V8.53H75V24.29a7.07,7.07,0,0,1-.66,3,8.42,8.42,0,0,1-1.78,2.52A8.33,8.33,0,0,1,70,31.56a8.1,8.1,0,0,1-3.23.65,9.86,9.86,0,0,1-3.06-.44,8.11,8.11,0,0,1-2.33-1.19,7.21,7.21,0,0,1-1.68-1.72,8.78,8.78,0,0,1-1-2.07l4.74-.67a4.53,4.53,0,0,0,1.18,1.25,3.63,3.63,0,0,0,2.2.61,3.45,3.45,0,0,0,2.54-1,3.67,3.67,0,0,0,1-2.69V22.39h-.33a4,4,0,0,1-1,1.19,5.31,5.31,0,0,1-1.38.83,5.38,5.38,0,0,1-2,.35,6.48,6.48,0,0,1-2.83-.66,8.14,8.14,0,0,1-2.43-1.79,8.85,8.85,0,0,1-1.71-2.67,9,9,0,0,1,0-6.65Zm10.72.54a5.77,5.77,0,0,0-1.16-1,2.86,2.86,0,0,0-1.58-.45,3.69,3.69,0,0,0-2.77,1.15,4.2,4.2,0,0,0-1.12,3.08,4.19,4.19,0,0,0,1.12,3.07,3.69,3.69,0,0,0,2.77,1.15,2.85,2.85,0,0,0,1.58-.44,5.14,5.14,0,0,0,1.16-1,5.43,5.43,0,0,0,1-1.45V15A5.78,5.78,0,0,0,69.29,13.53Z" style="fill: #1d1f29"/>
        <path d="M81.86,24.73A9.12,9.12,0,0,1,77.07,20a8.38,8.38,0,0,1,0-6.75,9.06,9.06,0,0,1,4.79-4.72,8.83,8.83,0,0,1,6.94,0,9.2,9.2,0,0,1,2.85,1.91,8.86,8.86,0,0,1,1.93,2.81,8.38,8.38,0,0,1,0,6.75,8.89,8.89,0,0,1-1.93,2.79,9.2,9.2,0,0,1-2.85,1.91,8.83,8.83,0,0,1-6.94,0Zm5.06-3.87a4.14,4.14,0,0,0,1.35-1,5.15,5.15,0,0,0,.93-1.45,4.56,4.56,0,0,0,0-3.55,5.35,5.35,0,0,0-.93-1.46,4.26,4.26,0,0,0-1.35-1,3.79,3.79,0,0,0-3.18,0,4.42,4.42,0,0,0-1.36,1,5.35,5.35,0,0,0-.93,1.46,4.68,4.68,0,0,0,0,3.55,5.15,5.15,0,0,0,.93,1.45,4.29,4.29,0,0,0,1.36,1,3.79,3.79,0,0,0,3.18,0Z" style="fill: #1d1f29"/>
        <path d="M96.49,8.53V4.47h4.74V8.53h3.38v4.22h-3.38v6.09a2.43,2.43,0,0,0,.59,1.76,2.12,2.12,0,0,0,1.61.61,3.89,3.89,0,0,0,1.32-.24q.3-.13.54-.27l.67,4.06a5.12,5.12,0,0,1-1,.34,9.79,9.79,0,0,1-1.1.24,7.79,7.79,0,0,1-1.3.1A5.7,5.7,0,0,1,100.2,25a6.11,6.11,0,0,1-1.93-1.35A6.22,6.22,0,0,1,97,21.52a7.3,7.3,0,0,1-.48-2.68V12.75H94.63V8.53Z" style="fill: #1d1f29"/>
        <path d="M107.83,8.53V4.47h4.73V8.53h3.38v4.22h-3.38v6.09a2.43,2.43,0,0,0,.59,1.76,2.13,2.13,0,0,0,1.61.61,3.29,3.29,0,0,0,.71-.07,3.16,3.16,0,0,0,.61-.17q.3-.13.54-.27l.68,4.06a5.37,5.37,0,0,1-1,.34,10.88,10.88,0,0,1-1.1.24,7.91,7.91,0,0,1-1.31.1,5.73,5.73,0,0,1-2.38-.49,6,6,0,0,1-3.23-3.43,7.29,7.29,0,0,1-.47-2.68V12.75H106V8.53Z" style="fill: #1d1f29"/>
        <path d="M119.12,11a5,5,0,0,1,1.39-1.57,7.65,7.65,0,0,1,2.27-1.13,10.26,10.26,0,0,1,3.14-.44,8.17,8.17,0,0,1,4.93,1.57A7.54,7.54,0,0,1,132.42,11a7.08,7.08,0,0,1,1,1.76l-4.4.68a3.84,3.84,0,0,0-1-1.1,3.19,3.19,0,0,0-2-.59,2.36,2.36,0,0,0-1.6.51,1.35,1.35,0,0,0-.59,1c0,.36.23.65.71.86a10.86,10.86,0,0,0,1.79.61c.72.19,1.49.41,2.32.65a9.85,9.85,0,0,1,2.31,1,5.59,5.59,0,0,1,1.8,1.62,4.34,4.34,0,0,1,.71,2.55,3.62,3.62,0,0,1-.48,1.76,4.78,4.78,0,0,1-1.42,1.58A7.86,7.86,0,0,1,129.09,25a11.55,11.55,0,0,1-3.34.44,9.86,9.86,0,0,1-3.06-.44,8.08,8.08,0,0,1-2.33-1.17,7.4,7.4,0,0,1-1.68-1.67,8.07,8.07,0,0,1-1-2l4.73-.68a3.94,3.94,0,0,0,1.17,1.4,3.48,3.48,0,0,0,2.21.63,3,3,0,0,0,1.92-.51,1.38,1.38,0,0,0,.62-1c0-.36-.23-.65-.71-.87a12,12,0,0,0-1.79-.6c-.72-.2-1.5-.41-2.32-.65a10.11,10.11,0,0,1-2.32-1,5.79,5.79,0,0,1-1.79-1.62,4.35,4.35,0,0,1-.71-2.56A3.78,3.78,0,0,1,119.12,11Z" style="fill: #1d1f29"/>
        <polygon points="0 8.53 0 24.74 5.41 24.74 5.41 13.94 16.25 13.94 16.25 8.53 0 8.53" style="fill: #f28b2e"/>
        <rect x="10.83" y="19.33" width="5.41" height="5.41" style="fill: #1d1f29"/>
        <path d="M33.26.78a2.78,2.78,0,0,1,3.86,0,2.62,2.62,0,0,1,.78,1.93,2.62,2.62,0,0,1-.78,1.93,2.78,2.78,0,0,1-3.86,0,2.62,2.62,0,0,1-.78-1.93A2.62,2.62,0,0,1,33.26.78Z" style="fill: #1d1f29"/>
      </g>
    </g>
  </g>
</svg>
