<svg xmlns="http://www.w3.org/2000/svg" viewBox="0 0 192.76 192.76">
  <title>Asset 1</title>
  <g id="Layer_2" data-name="Layer 2">
    <g id="Layer_1-2" data-name="Layer 1">
      <g>
        <polygon points="0 0 192.76 0 192.76 192.76 0 192.76 0 0 0 0" style="fill: #fff;fill-rule: evenodd"/>
        <path d="M96.38,184.25l-3.19-3.5A43.1,43.1,0,0,0,81,172.39c-4.82-2.35-10.14-4.3-15.5-6.27-10.79-4-21.72-8-30.13-15.32S21.05,132.7,21,115.68v0c-.26-11.28,1.43-22.5,3.13-33.77h0v0h0c1.2-8,2.4-15.93,2.88-23.93a86.22,86.22,0,0,0-1.45-23.5q-.24-1.14-.54-2.22c-.21-.79-.42-1.51-.62-2.17s-.46-1.42-.71-2.17c-.07-.21-.42-1.23-.82-2.37a12.32,12.32,0,0,1-.62-2.42,5.33,5.33,0,0,1,.35-2.81,4.63,4.63,0,0,1,3-2.85,7.07,7.07,0,0,1,4.29.21c1.27.39,2.48.84,3.68,1.29h0l0,0h0l.08,0-.08,0c1.28.48,2.57,1,3.94,1.34h0l1.37.36,1.35.34c2.37.57,4.61,1,6.71,1.34-.07,0-.19,0,0,0h0l1.25.18,1.26.16q3.16.38,6.35.47h0c2,.06,4,0,6-.11s4-.36,5.78-.67A54.71,54.71,0,0,0,92,11.8c1.46-1.11,2.93-2.15,4.38-3.3,1.45,1.15,2.91,2.19,4.38,3.3A54.68,54.68,0,0,0,125,22.33q2.75.47,5.79.67t6.05.11h0q3.18-.09,6.36-.47l1.26-.16,1.25-.18h0c.2,0,.09,0,0,0,2.11-.33,4.35-.77,6.71-1.34l1.36-.34,1.37-.36h0c1.38-.38,2.66-.86,3.94-1.34l-.07,0,.08,0h0l0,0h0c1.21-.45,2.41-.9,3.69-1.29a7.06,7.06,0,0,1,4.29-.21,4.65,4.65,0,0,1,3,2.85,5.33,5.33,0,0,1,.35,2.81,11.7,11.7,0,0,1-.63,2.42c-.39,1.14-.75,2.16-.82,2.37-.25.75-.49,1.48-.7,2.17s-.42,1.38-.63,2.17-.37,1.46-.54,2.22a86.21,86.21,0,0,0-1.44,23.5c.47,8,1.68,16,2.88,23.93h0v0h0c1.71,11.27,3.4,22.49,3.14,33.77v0c0,17-5.78,27.68-14.31,35.12s-19.34,11.35-30.13,15.32c-5.36,2-10.68,3.92-15.5,6.27a43,43,0,0,0-12.23,8.36l-3.19,3.5Z" style="fill: #ed1c24"/>
        <path d="M96.38,180.74,98,179.2c7-7.26,17.72-11.19,28.56-15.18,21.21-7.8,43-15.79,43-48.42h0c.25-11.12-1.43-22.25-3.12-33.43C164,66.12,161.53,50,165,33.94c.34-1.58.76-3.09,1.22-4.58s1-3,1.54-4.61c.5-1.44.78-2.58.33-3.65-.68-1.63-2-2.14-4.54-1.37-1.25.39-2.42.83-3.59,1.27-1.36.51-2.72,1-4.15,1.41h0a87.93,87.93,0,0,1-9.7,2.09,76,76,0,0,1-9.17.84,57.74,57.74,0,0,1-38.71-12.7l-1.83-1.38-1.84,1.38a57.72,57.72,0,0,1-38.71,12.7,75.88,75.88,0,0,1-9.16-.84A87.44,87.44,0,0,1,37,22.41h0c-1.44-.39-2.8-.9-4.15-1.41-1.17-.44-2.34-.88-3.6-1.27-2.51-.77-3.85-.26-4.53,1.37-.45,1.07-.18,2.21.32,3.65.57,1.63,1.11,3.22,1.54,4.61s.88,3,1.22,4.58c3.46,16,1,32.18-1.41,48.23C24.67,93.35,23,104.48,23.25,115.6h0c0,32.63,21.77,40.62,43,48.42,10.84,4,21.53,7.92,28.55,15.18l1.6,1.54Zm0-3.09c-21-21.73-70.9-14.17-70.9-62.1-.62-27,10.43-54.49,4.47-82.08A80,80,0,0,0,27.12,24c-.67-1.94-.82-2.87,1.45-2.17,2.63.81,5.13,2,7.81,2.7,24.26,6.6,44.32,2.18,60-10.54,15.68,12.72,35.73,17.14,60,10.54,2.68-.73,5.18-1.89,7.82-2.7,2.26-.7,2.12.23,1.44,2.17a81.91,81.91,0,0,0-2.83,9.44c-6,27.59,5.1,55.08,4.47,82.08,0,47.93-49.86,40.37-70.89,62.1Z" style="fill: #fff"/>
        <path d="M129.15,184a6.15,6.15,0,1,1,6.07-6.15,6.09,6.09,0,0,1-6.07,6.15Zm-5-6.15a4.93,4.93,0,1,0,5-5.11,4.91,4.91,0,0,0-5,5.11Zm3.63.52v3h-1v-7.1h2.67c1.63,0,2.44.66,2.44,2.07a1.78,1.78,0,0,1-1.78,1.92l2,3.11h-1.18l-1.85-3Zm0-1h1.26c1,0,1.7-.08,1.7-1.12,0-.88-.74-1-1.48-1h-1.48v2.15Z" style="fill: #ed1c24;fill-rule: evenodd"/>
        <path d="M72.73,43.87,67.3,47c1.17,1.7,1.23,1.6,1.23,3.78.06,5.79,0,11.86,0,17.65a14.85,14.85,0,0,1-.42,4.8L74,69.84c-1.31-1-1.26-1.92-1.26-3.15-.09-2.53.09-6.87,0-9.4l5.66-3.36.14,8.56a10.77,10.77,0,0,1-.66,5.11c1.8-1.07,3.92-2.23,5.72-3.3-1.17-.87-1.07-2.31-1.07-4.23,0-7.16,0-14.7,0-21.87l-5.15,3a7.08,7.08,0,0,1,1,4.54c0,1.66,0,3.46,0,5.13-1.82,1.07-3.84,2.15-5.66,3.22,0-3.41,0-6.78,0-10.2ZM122,57.31l-5.43,3.14a7.16,7.16,0,0,1,1.23,4.84q0,9.22,0,18.44a41.55,41.55,0,0,1-.36,7.13l6.15-3.5a6.38,6.38,0,0,1-1.69-5.15q-.12-10-.23-20a34.31,34.31,0,0,1,.34-4.94Zm5.44,8.21c.16-7.18,1.56-10.15,3.49-10.15,2.18,0,3.61,3.94,3.31,16.85-.12,5.24-1.51,8.21-3,8.21-2.36,0-4-5-3.77-14.91Zm11.07,3.12c.28-13.54-3.51-16.52-7.1-16.52-5.25,0-8,5.27-8.21,14.51-.22,11,2,17.7,7.08,17.7,5.25,0,8.05-6.73,8.23-15.69Zm-36.58.29c0,3.12.08,4.52,0,7.63.43.27,1-.56,1.25-2.14,1.21-4.24,1.07-4,3-5.08q.23,11.28.44,22.56a14.4,14.4,0,0,1-.81,5.52c2-1.18,4.15-2.3,6.13-3.48-1.16-.44-1.81-.59-1.81-3.57l-.31-23c2.12-1.41,2.86-.75,4.48,3.07.59,1,1.2,1.72,1.37,1-.68-5.41-.57-6.9-1.05-9.92l-12.77,7.4Zm39.61-23-4.1,2.38c2,1,3,1.65,3,6.45-.09,7.47-.2,15.65-.3,23.12,1.39-.75,3.28-1.9,4.67-2.65-1.23-2-1.45-1.75-1.45-5,.07-4.73-.07-9.73,0-14.46,2.3,4.66,5.94,12.47,8.24,17.14.32-.09,1-.18,1.26-.27a134.7,134.7,0,0,1-.71-22.9c.28-4.16,1.8-11-2.6-12.8l-2.82,2.06c2.65,1.49,2.87,3.73,2.61,6.47L148.3,57.28c-1-1.56-2.25-4.69-3.52-7.12-1-1.9-1.94-3.52-3.23-4.18ZM38.36,128.68a3.15,3.15,0,0,0-3.2-3.6c-2.46,0-4.57,2-4.73,5.07a7.45,7.45,0,0,0,7.39,7.3c6.3,0,9.83-5.6,10.1-10.65.59-11.34-12.72-12.38-12.34-19.48a3.81,3.81,0,0,1,4.06-3.42,3.75,3.75,0,0,1,3.81,3.15c.22,1.53-1.8,2.46-.47,3a8.27,8.27,0,0,1,1.71.29c.86.32,2,1.91,1.93.07a34,34,0,0,1,0-4.84,24,24,0,0,1,.43-3c.17-.87.36-2.1-.24-2.37-.28-.12-.71-.15-1.39.34a2.68,2.68,0,0,1-1.49.56c-1.56,0-2.84-.74-4.54-.74a8.3,8.3,0,0,0-8.32,7.93c-.48,8.85,13,11.6,12.5,19.52-.16,3-2.32,5.85-5,5.85-3.87,0-4.67-5.78-.24-5ZM71.75,86.42l-6.37,3.69a13.48,13.48,0,0,1,1.51,6.47l.42,22.79,10.77-6.12a18.4,18.4,0,0,1-.28-3.07,29.48,29.48,0,0,1,.19-5.31l-1.86,1.86c-1,5.39-1.51,6-4.48,7l.1-27.3ZM80,81.67l-4.69,2.72A11.5,11.5,0,0,1,77.7,89.2l3.41,13.73a24.34,24.34,0,0,1,1,8l2.34-1.43,6.44-34.19L86.1,78.11a11.5,11.5,0,0,1,.25,4.12l-2.5,15.58L80,81.67ZM54.37,122.85l.75-6,4.35-2,.85,5.11a9.57,9.57,0,0,1-.2,3.48l6.28-3.57c-1.45-1.48-2.05-1.89-2.77-5.06-1.58-7.61-3.46-14.94-5-22.55A8.88,8.88,0,0,0,56.37,97l-6.59,32.38L55.72,126a3.29,3.29,0,0,1-1.35-3.11Zm1-9.23,2-10.17,1.49,8.43-3.53,1.74Zm37.52-12.8.83-6.12L98.06,93l.78,5.34a8.29,8.29,0,0,1-.08,3.19L104.89,98c-1.43-1.5-2.14-1.88-2.83-5.09-1.49-7.73-3-15.4-4.53-23.14a9.16,9.16,0,0,0-2.27,4.76l-7.05,33,6-3.43a3.49,3.49,0,0,1-1.3-3.24Zm1.15-9,2.1-10.39,1.45,8.63-3.55,1.76Zm6.77,38.51-.21-12.05a4.18,4.18,0,0,1,2.41-1c2.18,0,3.58,2.26,3.58,5.19,0,5.71-2.85,7.6-5.78,7.81Zm-19,21.06.84-5.69,4.39-2,.77,4.75a10.68,10.68,0,0,1-.13,3.63l6.37-3.62a8.34,8.34,0,0,1-2.9-5.3c-1.57-7.83-3.44-15.36-5-23.19a8.92,8.92,0,0,0-2.38,4.67l-6.64,33.45,6-3.42a3.53,3.53,0,0,1-1.32-3.27Zm1.14-9,2-11,1.55,9.16L83,142.4ZM137.8,94.11l-5.33,3.13A7.82,7.82,0,0,1,134,98.88c2,3.27,3.77,6.61,5.57,10l.28,8.51a30.6,30.6,0,0,1-.55,6.14l5.62-3c-1-2.46-1.16-2.47-1.16-4.66l-.16-8.43c1.06-1.74,4.45-6.63,6.06-11.45s1.47-9.11-2.26-10.66l-3.28,1c3,1.83,3.08,4.24,2.48,7.07a41.14,41.14,0,0,1-4.57,10.88l-2.41-4.61c-1.06-2-1.68-2.68-1.85-5.5Zm-22.33,13.23-3.78,1.71c1.22,2.25,1.61,3,1.61,5.48l0,21.89c0,.76,0,1.15,0,1.9l5-2.83c-1.09-1.4-1.21-2.21-1.21-5.21l0-12.58,4.62,5.67,3.61-8.44-.22,16.58,5.06-2.77a20.46,20.46,0,0,1-.32-4.06l-.8-19c0-3.42-.51-4,.25-6.65l-4.24,2.19-4,14.11-5.6-8ZM94.34,118.21c1.58,1.38,2.22,2.47,2.22,6V147l5.28-1.87c-1.07-1.65-1.24-2.51-1.24-5.45l.07-5.88c.09.18.25.61.49,1.21,1.2,3.05,4.22,10.39,9.73,11.66,2,.46,3.13,0,4.59-1.66-6.42-.95-8.13-5-10.37-13.33,3.8-2.26,6.61-8.35,5.16-12.8-1.2-3.67-4.31-4.87-7.56-4.67a12.41,12.41,0,0,0-8.38,4ZM49.77,54c0,3.06-.08,6-.12,9.09.45.26,1-.55,1.32-2.1.48-4.92,1.3-5.46,3.85-7.44q.23,11.1.46,22.21a16.78,16.78,0,0,1-.66,5.33c2.09-1.17,4.05-2.4,6.14-3.56-1.23-.43-1.84-.58-1.84-3.51L59,51.7c1.37,0,2.51-.46,4.53,3.23.63,1,1.27,1.54,1.45.81A91.56,91.56,0,0,1,63.52,46L49.77,54ZM99.68,28.26l-13.82,8c1.71,2,2.46,3.18,2.46,5.16,0,4.71.21,9.43.21,14.14,0,3.21,0,3.84-.77,6.3l14.54-8.15q.26-3,.5-6.05c-3.49,5.28-6,6.38-10.42,9.06V46c1.94-2.23,5.76-1.91,8.52-2.7,2-.57,3.47-1.83,3.47-4.86-3.87,2.55-7,1.67-9.71,3.46a13.8,13.8,0,0,0-2.28,2V37.45c0-2.67,1.34-2.75,2.67-3.6,1.87-.9,3.61.15,5,1.69l-.36-7.28Z" style="fill: #fff;fill-rule: evenodd"/>
      </g>
    </g>
  </g>
</svg>
