<svg xmlns="http://www.w3.org/2000/svg" xmlns:xlink="http://www.w3.org/1999/xlink" viewBox="0 0 321.42 406.7"><defs><style>.cls-1{fill:#987854;}.cls-2{fill:url(#linear-gradient);}.cls-3{fill:url(#linear-gradient-2);}.cls-4{fill:url(#linear-gradient-3);}.cls-5{fill:url(#linear-gradient-4);}.cls-6{fill:url(#linear-gradient-5);}.cls-7{fill:url(#linear-gradient-6);}.cls-8{fill:url(#linear-gradient-7);}.cls-9{fill:url(#linear-gradient-8);}.cls-10{fill:url(#linear-gradient-9);}.cls-11{fill:url(#linear-gradient-10);}</style><linearGradient id="linear-gradient" x1="70.73" y1="178.16" x2="130.94" y2="140.72" gradientTransform="translate(94.84 -17.12) rotate(11.87)" gradientUnits="userSpaceOnUse"><stop offset="0.2" stop-color="#987854" stop-opacity="0"/><stop offset="1" stop-color="#987854"/></linearGradient><linearGradient id="linear-gradient-2" x1="58.92" y1="165.83" x2="155.88" y2="150.87" gradientTransform="matrix(0.98, 0.18, -0.18, 0.98, 84.3, -15.22)" gradientUnits="userSpaceOnUse"><stop offset="0.2" stop-color="#987854" stop-opacity="0"/><stop offset="0.62" stop-color="#987854" stop-opacity="0.89"/><stop offset="1" stop-color="#987854"/></linearGradient><linearGradient id="linear-gradient-3" x1="53.03" y1="141.99" x2="175.07" y2="173.14" gradientTransform="translate(73.77 -13.32) rotate(9.24)" gradientUnits="userSpaceOnUse"><stop offset="0.2" stop-color="#987854" stop-opacity="0"/><stop offset="0.62" stop-color="#987854" stop-opacity="0.78"/><stop offset="1" stop-color="#987854"/></linearGradient><linearGradient id="linear-gradient-4" x1="59.6" y1="110.31" x2="181.89" y2="203.87" gradientTransform="translate(63.23 -11.42) rotate(7.92)" gradientUnits="userSpaceOnUse"><stop offset="0.2" stop-color="#987854" stop-opacity="0"/><stop offset="0.62" stop-color="#987854" stop-opacity="0.67"/><stop offset="1" stop-color="#987854"/></linearGradient><linearGradient id="linear-gradient-5" x1="82.64" y1="77.63" x2="172.29" y2="236.2" gradientTransform="matrix(0.99, 0.11, -0.11, 0.99, 52.69, -9.51)" gradientUnits="userSpaceOnUse"><stop offset="0.2" stop-color="#987854" stop-opacity="0"/><stop offset="0.62" stop-color="#987854" stop-opacity="0.56"/><stop offset="1" stop-color="#987854"/></linearGradient><linearGradient id="linear-gradient-6" x1="158.68" y1="55.67" x2="162.75" y2="264.77" gradientUnits="userSpaceOnUse"><stop offset="0.2" stop-color="#987854" stop-opacity="0"/><stop offset="0.62" stop-color="#987854" stop-opacity="0.44"/><stop offset="1" stop-color="#987854"/></linearGradient><linearGradient id="linear-gradient-7" x1="202.56" y1="49.35" x2="118.86" y2="271.32" gradientUnits="userSpaceOnUse"><stop offset="0.2" stop-color="#987854" stop-opacity="0"/><stop offset="0.62" stop-color="#987854" stop-opacity="0.33"/><stop offset="1" stop-color="#987854"/></linearGradient><linearGradient id="linear-gradient-8" x1="250.19" y1="62.57" x2="71.23" y2="258.32" gradientUnits="userSpaceOnUse"><stop offset="0.2" stop-color="#987854" stop-opacity="0"/><stop offset="0.62" stop-color="#987854" stop-opacity="0.22"/><stop offset="1" stop-color="#987854"/></linearGradient><linearGradient id="linear-gradient-9" x1="292.79" y1="96.75" x2="28.62" y2="224.38" gradientUnits="userSpaceOnUse"><stop offset="0.2" stop-color="#987854" stop-opacity="0"/><stop offset="0.62" stop-color="#987854" stop-opacity="0.11"/><stop offset="1" stop-color="#987854"/></linearGradient><linearGradient id="linear-gradient-10" x1="321.02" y1="149.47" x2="0.4" y2="171.91" gradientUnits="userSpaceOnUse"><stop offset="0.62" stop-color="#987854" stop-opacity="0"/><stop offset="1" stop-color="#987854"/></linearGradient></defs><title>Asset 1</title><g id="Layer_2" data-name="Layer 2"><g id="Layer_1-2" data-name="Layer 1"><path class="cls-1" d="M12.86,398.67a15.85,15.85,0,0,0,8.41,2.76c3.47,0,4.85-1.38,4.85-3.18s-1.24-2.81-6.18-4.19c-6.46-1.8-9.83-4.08-9.83-8.64,0-5.08,3.8-8.46,11.12-8.46,7.64,0,10.78,3,10.78,3l-3.09,4.7a13.42,13.42,0,0,0-7.69-2.37c-3.14,0-4.66,1.09-4.66,2.85s1.47,2.47,5.94,3.7c7,1.85,10.16,4.32,10.16,8.93,0,5-3.46,9-11.25,9S9.73,403,9.73,403Z"/><path class="cls-1" d="M86,406.08H80.22V394.49H66.16v11.59H60.41v-28.5h5.75v12.26H80.22V377.58H86Z"/><path class="cls-1" d="M126.35,377.58h1L142,406.08h-6.5l-1.86-3.89H120l-1.8,3.89h-6.51ZM127,388h-.38l-4.32,9.32-.33.61h9.69l-.33-.61Z"/><path class="cls-1" d="M191.24,389.27,183,397.63h-1.14l-8.31-8.36v16.81h-5.75v-28.5h1.57l13,12.78,13.11-12.78h1.52v28.5h-5.7Z"/><path class="cls-1" d="M237.32,377.58h1L253,406.08h-6.51l-1.85-3.89H231l-1.81,3.89h-6.51ZM238,388h-.38l-4.32,9.32-.33.61h9.69l-.34-.61Z"/><path class="cls-1" d="M278.74,406.08v-28.5h5.75v23.47h15.2v5Z"/><path class="cls-2" d="M160.78,195.1a36.08,36.08,0,0,1-7.36-.77,35.44,35.44,0,1,1,42-27.4h0a35.5,35.5,0,0,1-34.62,28.17Zm-.13-63.4A27.93,27.93,0,1,0,188,165.38h0a28,28,0,0,0-27.39-33.68Z"/><path class="cls-3" d="M160.76,208.71H160l.09-7.16h.65a41.3,41.3,0,0,0,8.53-.88l1.47,7A48.57,48.57,0,0,1,160.76,208.71Zm-1.52,0c-1.14,0-2.3-.11-3.45-.22a49.94,49.94,0,0,1-7.23-1.28l1.77-6.94a42.49,42.49,0,0,0,6.18,1.09c1,.1,2,.16,3,.19Zm12.28-1.17-1.58-7a41.41,41.41,0,0,0,8.71-3l3.08,6.47A49.19,49.19,0,0,1,171.52,207.51ZM147.81,207a48.59,48.59,0,0,1-10-4l3.35-6.33a41.9,41.9,0,0,0,8.57,3.39Zm34.62-3.35-3.19-6.42a41.83,41.83,0,0,0,7.76-5l4.51,5.57A49.23,49.23,0,0,1,182.43,203.63Zm-45.34-1a48.91,48.91,0,0,1-8.82-6.22l4.75-5.37a41.65,41.65,0,0,0,7.53,5.32Zm55-5.33-4.59-5.5a41.82,41.82,0,0,0,6.38-6.65l5.68,4.36A49.58,49.58,0,0,1,192.1,197.31Zm-64.41-1.41a49.45,49.45,0,0,1-7.11-8.11l5.87-4.11a41.38,41.38,0,0,0,6.08,6.93Zm72.35-7-5.75-4.27a41.68,41.68,0,0,0,4.64-8l6.55,2.9A48.59,48.59,0,0,1,200,188.9Zm-79.9-1.75a49,49,0,0,1-5-9.56l6.67-2.61a41.82,41.82,0,0,0,4.29,8.16Zm85.65-8.29-6.6-2.79a41.74,41.74,0,0,0,2.63-8.83l7.05,1.27A48.75,48.75,0,0,1,205.79,178.86Zm-90.95-2a49.09,49.09,0,0,1-2.64-10.48l7.1-1a41.61,41.61,0,0,0,2.25,8.93ZM209,167.75l-7.07-1.16c.15-.88.27-1.76.35-2.63.14-1.42.22-2.85.22-4.26,0-.78,0-1.55-.07-2.32l7.16-.4c0,.9.07,1.81.07,2.72a49,49,0,0,1-.25,5C209.31,165.69,209.17,166.73,209,167.75Zm-96.9-2.12a49.86,49.86,0,0,1-.09-10.8,49.9,49.9,0,0,1,1-6.13l7,1.61a43.71,43.71,0,0,0-.87,5.24c-.14,1.42-.21,2.85-.21,4.26a40.89,40.89,0,0,0,.3,5Zm90.29-8.91a41.58,41.58,0,0,0-1.67-9.06l6.85-2.08a48.6,48.6,0,0,1,2,10.63Zm-82.24-7.05-7-1.72a48.14,48.14,0,0,1,3.74-10.13l6.4,3.21A41.29,41.29,0,0,0,120.15,149.67ZM200.52,147a41.49,41.49,0,0,0-3.76-8.42l6.17-3.62a48.55,48.55,0,0,1,4.41,9.85Zm-76.88-6.59-6.35-3.31a49,49,0,0,1,6-9l5.47,4.63A41.72,41.72,0,0,0,123.64,140.44Zm72.78-2.39a42.48,42.48,0,0,0-5.63-7.31l5.15-5a48.75,48.75,0,0,1,6.59,8.54ZM129.2,132.3l-5.39-4.71a48.7,48.7,0,0,1,7.95-7.3l4.23,5.77A42.27,42.27,0,0,0,129.2,132.3Zm61.12-2a41.94,41.94,0,0,0-7.17-5.78l3.85-6a49.25,49.25,0,0,1,8.4,6.77Zm-53.79-4.6-4.15-5.84a49.48,49.48,0,0,1,9.44-5.24l2.77,6.61A41.48,41.48,0,0,0,136.53,125.67Zm46.06-1.53a41.4,41.4,0,0,0-8.33-3.92l2.31-6.78a48.17,48.17,0,0,1,9.77,4.6Zm-37.39-3.2-2.67-6.65A49.12,49.12,0,0,1,153,111.41l1.13,7.08A41.48,41.48,0,0,0,145.2,120.94Zm28.43-.93a42.13,42.13,0,0,0-8.72-1.83l-.31,0,.67-7.13.37,0a49.1,49.1,0,0,1,10.2,2.14Zm-18.9-1.62-1-7.09A49.33,49.33,0,0,1,164.5,111l-.55,7.14A42.42,42.42,0,0,0,154.73,118.39Z"/><path class="cls-4" d="M160.12,222.59c-.72,0-1.45,0-2.17-.06a62.67,62.67,0,0,1-7.62-.79l1.12-6.72a55,55,0,0,0,6.8.72c.65,0,1.3,0,1.94,0Zm1.51,0-.09-6.8a56.57,56.57,0,0,0,8.73-.81l1.15,6.71A62.63,62.63,0,0,1,161.63,222.59Zm-12.79-1.12a63.43,63.43,0,0,1-9.49-2.6l2.32-6.4a55.88,55.88,0,0,0,8.45,2.32Zm24.07-.06-1.32-6.67a56.08,56.08,0,0,0,8.45-2.38l2.35,6.39A62,62,0,0,1,172.91,221.41Zm-35-3.08a61.23,61.23,0,0,1-8.86-4.28l3.44-5.87A55.5,55.5,0,0,0,140.4,212Zm45.87-.13-2.51-6.32a55.2,55.2,0,0,0,7.87-3.87l3.47,5.86A62.23,62.23,0,0,1,183.81,218.2Zm-56-4.92a64.35,64.35,0,0,1-7.94-5.81l4.44-5.16a55.91,55.91,0,0,0,7.07,5.17Zm66.15-.2-3.61-5.77a55.83,55.83,0,0,0,7-5.22l4.46,5.14A62.51,62.51,0,0,1,193.94,213.08Zm-75.22-6.61a63.36,63.36,0,0,1-6.77-7.13l5.29-4.29a56.82,56.82,0,0,0,6,6.37Zm84.25-.25-4.59-5a55.7,55.7,0,0,0,6-6.39l5.32,4.25A64.25,64.25,0,0,1,203,206.22Zm-92-8.07a62.58,62.58,0,0,1-5.37-8.24l6-3.26A55.36,55.36,0,0,0,116.4,194Zm99.62-.29-5.41-4.12a57.1,57.1,0,0,0,4.75-7.37l6,3.23A62.87,62.87,0,0,1,210.63,197.86Zm-105.71-9.29a62.09,62.09,0,0,1-3.8-9.07l6.46-2.13a55.56,55.56,0,0,0,3.39,8.09Zm111.74-.31-6.07-3.08a55.43,55.43,0,0,0,3.34-8.1l6.48,2.09A63.67,63.67,0,0,1,216.66,188.26Zm-116-10.21a62.84,62.84,0,0,1-2.1-9.61l6.74-.92a56.8,56.8,0,0,0,1.87,8.56Zm120.2-.33-6.53-1.93a55.47,55.47,0,0,0,1.82-8.58l6.75.89A64,64,0,0,1,220.86,177.72ZM98.37,166.94a63.39,63.39,0,0,1-.39-7c0-.93,0-1.87.06-2.81a65.44,65.44,0,0,1,.85-7.92l6.71,1.15a57.44,57.44,0,0,0-.76,7.07c0,.84,0,1.67,0,2.51a54.6,54.6,0,0,0,.35,6.26Zm124.71-.35-6.77-.72c.12-1.17.21-2.36.26-3.54,0-.84.06-1.67.06-2.51s0-1.81-.07-2.71l6.8-.34c0,1,.08,2,.08,3s0,1.87-.07,2.81C223.32,164,223.21,165.29,223.08,166.59Zm-6.6-10.84a56.05,56.05,0,0,0-1.31-8.66l6.62-1.55a62.34,62.34,0,0,1,1.48,9.72ZM105.84,149l-6.67-1.32a62.18,62.18,0,0,1,2.65-9.47l6.39,2.35A55.6,55.6,0,0,0,105.84,149Zm109-3.24a55.66,55.66,0,0,0-2.87-8.29l6.24-2.72a63.5,63.5,0,0,1,3.22,9.3Zm-106.15-6.47-6.33-2.49a62.18,62.18,0,0,1,4.32-8.83l5.86,3.46A54.45,54.45,0,0,0,108.69,139.31Zm102.73-3.05a56.29,56.29,0,0,0-4.33-7.63l5.65-3.81a63.32,63.32,0,0,1,4.84,8.56Zm-98.18-6-5.78-3.61a62.51,62.51,0,0,1,5.85-7.9l5.14,4.46A55,55,0,0,0,113.24,130.3Zm93.08-2.78a56.56,56.56,0,0,0-5.62-6.74l4.87-4.75a62.25,62.25,0,0,1,6.3,7.55Zm-87-5.28-5-4.58a61.68,61.68,0,0,1,7.17-6.73l4.26,5.3A56.83,56.83,0,0,0,119.34,122.24Zm80.41-2.41a56.56,56.56,0,0,0-6.74-5.62l3.94-5.55a62.25,62.25,0,0,1,7.55,6.3ZM126.8,115.4,122.67,110a62.94,62.94,0,0,1,8.26-5.34l3.24,6A56.5,56.5,0,0,0,126.8,115.4Zm65.1-2a56.05,56.05,0,0,0-7.62-4.31l2.87-6.17a63.32,63.32,0,0,1,8.56,4.84ZM135.36,110,132.27,104a62.29,62.29,0,0,1,9.1-3.77l2.09,6.48A57.09,57.09,0,0,0,135.36,110Zm47.69-1.42a55.11,55.11,0,0,0-8.28-2.86l1.7-6.59a62.31,62.31,0,0,1,9.3,3.21Zm-38.29-2.33-1.94-6.53a62.83,62.83,0,0,1,9.62-2l.89,6.75A55.37,55.37,0,0,0,144.76,106.26Zm28.69-.85a55.87,55.87,0,0,0-8.66-1.31l.49-6.79A63.53,63.53,0,0,1,175,98.78Zm-18.78-1.14-.73-6.77a64.29,64.29,0,0,1,9.53-.3l.3,0-.34,6.8-.24,0A57.21,57.21,0,0,0,154.67,104.27Z"/><path class="cls-5" d="M160.76,236.61H160a77.45,77.45,0,0,1-8.2-.5l.74-6.41a69.79,69.79,0,0,0,7.52.47h.64Zm2.25,0-.19-6.44a69.62,69.62,0,0,0,8.18-.72l.94,6.38A76.13,76.13,0,0,1,163,236.57Zm-13.41-.77a74.83,74.83,0,0,1-8.79-1.8l1.67-6.23a68.62,68.62,0,0,0,8,1.65Zm24.55-.37L173,229.08a68.55,68.55,0,0,0,8-1.9l1.86,6.17A76.25,76.25,0,0,1,174.15,235.43Zm-35.5-2.05a76.31,76.31,0,0,1-8.42-3.07l2.57-5.92a67.66,67.66,0,0,0,7.71,2.82Zm46.37-.71L183,226.55a66.2,66.2,0,0,0,7.62-3.06l2.76,5.84A77.8,77.8,0,0,1,185,232.67Zm-56.83-3.29a75.8,75.8,0,0,1-7.88-4.27l3.41-5.48a70.74,70.74,0,0,0,7.21,3.92Zm67.18-1-2.93-5.75a71.8,71.8,0,0,0,7.1-4.14l3.57,5.36A75.92,75.92,0,0,1,195.37,228.34Zm-76.94-4.44a76.16,76.16,0,0,1-7.17-5.38l4.16-4.92a71.12,71.12,0,0,0,6.57,4.92ZM205,222.54l-3.73-5.26a70.37,70.37,0,0,0,6.42-5.13l4.31,4.79A75.29,75.29,0,0,1,205,222.54Zm-95.39-5.49a75.86,75.86,0,0,1-6.31-6.37l4.83-4.26a73.94,73.94,0,0,0,5.78,5.83Zm104-1.63-4.46-4.67a70.73,70.73,0,0,0,5.61-6l5,4.11A77.37,77.37,0,0,1,213.61,215.42ZM101.8,209a78,78,0,0,1-5.33-7.21l5.4-3.52a69.94,69.94,0,0,0,4.88,6.61Zm119.32-1.86-5.08-4a68.88,68.88,0,0,0,4.67-6.76l5.51,3.35A76.9,76.9,0,0,1,221.12,207.12ZM95.27,199.87A76.94,76.94,0,0,1,91.06,192l5.85-2.69a70,70,0,0,0,3.87,7.25Zm132.09-2.06-5.61-3.18a69.77,69.77,0,0,0,3.63-7.36l5.94,2.51A76.67,76.67,0,0,1,227.36,197.81ZM90.14,189.89a76.45,76.45,0,0,1-3-8.45l6.19-1.8a69.19,69.19,0,0,0,2.76,7.74Zm142-2.19-6-2.34a69,69,0,0,0,2.52-7.81l6.24,1.61A75.8,75.8,0,0,1,232.16,187.7ZM86.54,179.28a75.21,75.21,0,0,1-1.74-8.8l6.39-.88a68.76,68.76,0,0,0,1.59,8.06Zm148.9-2.3-6.29-1.43a70.88,70.88,0,0,0,1.34-8.1l6.41.68A77.38,77.38,0,0,1,235.44,177ZM84.53,168.25a78,78,0,0,1-.44-8.25v-.7l6.45.06V160a70.68,70.68,0,0,0,.41,7.57ZM237.1,165.9l-6.43-.49c.13-1.58.19-3.19.21-4.8V160c0-.93,0-1.86,0-2.78l6.44-.25c0,1,.06,2,.06,3v.7C237.31,162.42,237.24,164.18,237.1,165.9ZM90.56,158l-6.44-.18a75.93,75.93,0,0,1,.77-8.93l6.38.93A71.82,71.82,0,0,0,90.56,158Zm140.16-2.85a69.56,69.56,0,0,0-1-8.15l6.34-1.18a75.52,75.52,0,0,1,1.13,8.89ZM91.59,147.78l-6.35-1.11a76.89,76.89,0,0,1,2.07-8.73l6.17,1.85A70.77,70.77,0,0,0,91.59,147.78ZM229.28,145a69.76,69.76,0,0,0-2.22-7.91l6.09-2.1a76.42,76.42,0,0,1,2.43,8.64ZM94.1,137.83l-6.12-2a77.73,77.73,0,0,1,3.33-8.33l5.84,2.74A69.56,69.56,0,0,0,94.1,137.83Zm132.26-2.7a70.74,70.74,0,0,0-3.36-7.49l5.72-3a74.91,74.91,0,0,1,3.66,8.19ZM98,128.37l-5.75-2.91a75.9,75.9,0,0,1,4.51-7.75l5.37,3.56A70.9,70.9,0,0,0,98,128.37Zm124-2.54a68.83,68.83,0,0,0-4.42-6.93l5.23-3.78a76.68,76.68,0,0,1,4.82,7.56Zm-118.69-6.25-5.27-3.72a75,75,0,0,1,5.59-7l4.8,4.31A68.59,68.59,0,0,0,103.33,119.58Zm113.05-2.33A73.89,73.89,0,0,0,211,111l4.62-4.49a77.17,77.17,0,0,1,5.87,6.77Zm-106.54-5.6-4.67-4.45a77.13,77.13,0,0,1,6.54-6.12l4.13,5A70.85,70.85,0,0,0,109.84,111.65Zm99.7-2.06a68.9,68.9,0,0,0-6.22-5.36l3.92-5.12A77.21,77.21,0,0,1,214,105Zm-92.1-4.85-4-5.07a77.94,77.94,0,0,1,7.36-5.12l3.36,5.51A70.47,70.47,0,0,0,117.44,104.74ZM201.68,103a71.76,71.76,0,0,0-6.93-4.41L197.88,93a78.53,78.53,0,0,1,7.57,4.8ZM126,99l-3.19-5.6a75.84,75.84,0,0,1,8-4l2.52,5.93A70.9,70.9,0,0,0,126,99Zm67-1.38a70.76,70.76,0,0,0-7.5-3.34l2.28-6a77.7,77.7,0,0,1,8.19,3.65Zm-57.72-3-2.34-6a72.65,72.65,0,0,1,8.54-2.76L143,92.06A69,69,0,0,0,135.22,94.58Zm48.29-1a67.66,67.66,0,0,0-7.91-2.2L177,85.09a75.75,75.75,0,0,1,8.64,2.41Zm-38.48-2-1.43-6.29a75.45,75.45,0,0,1,8.84-1.47l.69,6.41A69.11,69.11,0,0,0,145,91.57ZM173.59,91a69.52,69.52,0,0,0-8.15-1l.43-6.43a75.92,75.92,0,0,1,8.9,1.11Zm-18.42-1-.5-6.43c2-.16,4-.23,6-.23h.69c.75,0,1.5,0,2.24,0l-.24,6.44-2,0h-.64C158.85,89.81,157,89.88,155.17,90Z"/><path class="cls-6" d="M160.64,250.68c-2.48,0-5-.1-7.47-.31l.5-6.07a68.47,68.47,0,0,0,7,.29h.59l0,6.09h-.67Zm3.63-.07-.24-6.09c2.53-.09,5.08-.31,7.58-.63l.78,6C169.71,250.28,167,250.5,164.27,250.61Zm-14.05-.53c-2.69-.31-5.4-.75-8.05-1.3l1.24-6c2.47.51,5,.92,7.51,1.21Zm25.1-.58-1-6c2.49-.4,5-.93,7.43-1.55l1.52,5.9C180.68,248.51,178,249.07,175.32,249.5Zm-36-1.37c-2.63-.64-5.26-1.41-7.82-2.28l2-5.76c2.39.81,4.84,1.53,7.3,2.12Zm46.88-1.08-1.71-5.84c2.43-.71,4.85-1.54,7.19-2.46l2.23,5.66C191.36,245.41,188.76,246.29,186.16,247.05Zm-57.49-2.2c-2.54-1-5-2-7.49-3.23l2.67-5.48c2.26,1.11,4.61,2.12,7,3Zm68-1.57-2.42-5.59c2.33-1,4.63-2.12,6.84-3.33l2.91,5.35C201.58,241,199.11,242.2,196.62,243.28Zm-78.08-3c-2.39-1.26-4.75-2.64-7-4.11l3.32-5.11c2.11,1.37,4.32,2.66,6.55,3.84Zm88-2L203.45,233c2.18-1.28,4.32-2.67,6.37-4.14l3.55,4.95C211.17,235.38,208.87,236.88,206.53,238.25Zm-97.47-3.73c-2.22-1.55-4.4-3.21-6.48-5l3.91-4.67c1.94,1.62,4,3.18,6,4.62ZM215.75,232l-3.7-4.83c2-1.54,4-3.19,5.82-4.89L222,226.8C220,228.63,217.9,230.39,215.75,232Zm-115.41-4.41c-2-1.8-4-3.71-5.82-5.7L99,217.77c1.72,1.86,3.55,3.64,5.43,5.32Zm123.8-2.87-4.26-4.35c1.8-1.77,3.54-3.64,5.18-5.56l4.64,4C227.94,220.86,226.07,222.86,224.14,224.76Zm-131.61-5c-1.78-2-3.5-4.17-5.09-6.36l4.92-3.59c1.49,2,3.09,4,4.75,5.94Zm139.05-3.22-4.76-3.79c1.57-2,3.07-4.05,4.46-6.16l5.09,3.36C234.88,212.17,233.27,214.39,231.58,216.51ZM85.73,210.94c-1.51-2.23-3-4.57-4.27-6.94l5.32-2.95c1.23,2.21,2.57,4.39,4,6.47ZM238,207.42l-5.19-3.18c1.32-2.16,2.56-4.4,3.68-6.65l5.45,2.7C240.7,202.71,239.37,205.11,238,207.42Zm-157.9-6c-1.24-2.42-2.38-4.91-3.39-7.42l5.65-2.27c.94,2.33,2,4.66,3.16,6.91Zm163.11-3.76-5.54-2.52c1.05-2.3,2-4.67,2.84-7l5.74,2C245.32,192.62,244.29,195.16,243.17,197.62ZM75.61,191.19c-.93-2.55-1.75-5.16-2.45-7.78l5.89-1.56c.65,2.44,1.41,4.88,2.28,7.25Zm171.54-3.94-5.81-1.82c.75-2.41,1.41-4.89,1.94-7.35l5.95,1.29C248.66,182,248,184.67,247.15,187.25Zm-174.7-6.72c-.61-2.63-1.1-5.33-1.47-8l6-.83c.34,2.51.81,5,1.37,7.48Zm177.36-4.07-6-1.09c.46-2.48.8-5,1-7.53l6.06.55C250.67,171.09,250.3,173.81,249.81,176.46ZM70.62,169.58c-.28-2.68-.44-5.41-.48-8.13,0-.46,0-.92,0-1.38v-.89l6.09.07v.81c0,.44,0,.87,0,1.29,0,2.54.19,5.1.45,7.6Zm180.51-4.15-6.08-.35c.1-1.63.15-3.3.15-5,0-.43,0-.86,0-1.29l0-1.37,6.08-.19c0,.49,0,1,0,1.47s0,.92,0,1.38C251.29,161.9,251.23,163.68,251.13,165.43Zm-174.83-9-6.09-.25c.12-2.71.35-5.44.71-8.12l6,.8C76.62,151.41,76.4,154,76.3,156.48ZM245,154.71c-.16-2.52-.44-5.06-.82-7.56l6-.92c.41,2.67.7,5.4.87,8.1ZM77.36,146.18l-6-1c.45-2.67,1-5.36,1.7-8l5.89,1.53C78.31,141.18,77.77,143.68,77.36,146.18Zm166.38-1.75c-.46-2.49-1.05-5-1.73-7.4l5.86-1.66c.73,2.6,1.36,5.27,1.86,7.93ZM79.68,136.08l-5.84-1.73c.77-2.59,1.67-5.18,2.67-7.7l5.66,2.25C81.23,131.25,80.4,133.66,79.68,136.08Zm161.53-1.7c-.77-2.4-1.65-4.8-2.64-7.13l5.61-2.37c1.06,2.5,2,5.07,2.83,7.65Zm-158-8-5.58-2.44c1.08-2.48,2.29-4.94,3.59-7.31l5.34,2.93C85.37,121.75,84.24,124,83.23,126.36Zm154.23-1.64c-1.06-2.3-2.24-4.57-3.5-6.75l5.28-3c1.35,2.34,2.61,4.78,3.74,7.23ZM88,117.14,82.7,114c1.38-2.33,2.89-4.63,4.47-6.82l4.94,3.56C90.63,112.82,89.23,115,88,117.14Zm144.59-1.55c-1.34-2.15-2.78-4.26-4.3-6.27l4.86-3.67c1.63,2.17,3.18,4.43,4.61,6.73Zm-138.78-7-4.82-3.72c1.65-2.14,3.42-4.24,5.25-6.22l4.47,4.13C97,104.6,95.3,106.56,93.76,108.56Zm132.78-1.42c-1.59-2-3.28-3.89-5-5.71l4.38-4.22c1.87,1.94,3.69,4,5.39,6.11Zm-126-6.39-4.33-4.27c1.9-1.93,3.91-3.8,6-5.54l3.93,4.65C104.23,97.22,102.35,99,100.57,100.75Zm119-1.27c-1.81-1.77-3.72-3.46-5.68-5l3.83-4.73c2.1,1.7,4.15,3.52,6.09,5.41ZM108.29,93.83l-3.78-4.77c2.12-1.68,4.35-3.29,6.61-4.77l3.34,5.09C112.34,90.77,110.27,92.26,108.29,93.83Zm103.4-1.11c-2-1.52-4.12-3-6.26-4.31l3.23-5.16c2.29,1.43,4.55,3,6.71,4.62ZM116.8,87.9l-3.17-5.2c2.31-1.41,4.71-2.73,7.14-3.92l2.69,5.46C121.2,85.36,119,86.59,116.8,87.9ZM203.07,87c-2.19-1.26-4.45-2.45-6.74-3.51L198.9,78c2.45,1.14,4.88,2.41,7.23,3.77ZM126,83.06l-2.51-5.55c2.47-1.11,5-2.13,7.58-3l2,5.75C130.65,81.08,128.27,82,126,83.06Zm67.84-.72c-2.32-1-4.71-1.88-7.11-2.65l1.87-5.8c2.57.83,5.14,1.79,7.63,2.85Zm-58.15-3-1.81-5.82c2.59-.8,5.24-1.49,7.89-2l1.27,6C140.54,78,138.07,78.64,135.66,79.39Zm48.39-.51c-2.42-.7-4.9-1.29-7.39-1.77l1.15-6c2.66.51,5.33,1.15,7.92,1.9Zm-38.33-1.94-1.07-6c2.66-.48,5.38-.84,8.08-1.08l.53,6.07C150.74,76.16,148.2,76.5,145.72,76.94Zm28.22-.3c-2.49-.39-5-.67-7.56-.84l.41-6.08c2.7.18,5.42.49,8.09.91ZM156,75.74l-.33-6.08c1.22-.06,2.46-.11,3.68-.13.48,0,1,0,1.42,0,1,0,2,0,3.05.06l-.21,6.08c-1,0-1.87,0-2.88,0h-1.28Q157.72,75.65,156,75.74Z"/><path class="cls-7" d="M160.65,264.79c-1.66,0-3.35,0-5-.12l.27-5.73c2.32.11,4.67.14,7,.09l.13,5.73Zm6.12-.18-.33-5.72c2.33-.13,4.68-.35,7-.65l.73,5.68C171.72,264.24,169.23,264.47,166.77,264.61Zm-14.83-.18c-2.45-.21-4.93-.5-7.36-.88l.87-5.66c2.3.36,4.65.63,7,.83Zm25.89-1-.93-5.66c2.29-.38,4.61-.84,6.87-1.38l1.33,5.57C182.7,262.49,180.26,263,177.83,263.39Zm-36.91-.47c-2.42-.46-4.86-1-7.24-1.66l1.48-5.53c2.25.6,4.55,1.12,6.84,1.56ZM188.7,261l-1.53-5.52c2.25-.62,4.5-1.33,6.68-2.11l1.93,5.4C193.46,259.58,191.08,260.33,188.7,261Zm-58.58-.75c-2.36-.72-4.72-1.53-7-2.42l2.06-5.35c2.17.84,4.4,1.61,6.62,2.29Zm69.14-2.79-2.11-5.33c2.17-.86,4.33-1.81,6.43-2.82l2.48,5.17C203.84,255.54,201.56,256.54,199.26,257.45Zm-79.58-1c-2.27-1-4.52-2-6.71-3.16l2.62-5.09c2.07,1.06,4.2,2.06,6.34,3Zm89.71-3.64-2.68-5.07c2.07-1.09,4.12-2.26,6.09-3.49l3,4.87C213.74,250.4,211.57,251.64,209.39,252.79Zm-99.68-1.27c-2.15-1.2-4.28-2.49-6.35-3.85l3.15-4.79c1.95,1.28,4,2.51,6,3.64ZM219,247.08l-3.2-4.75c1.94-1.31,3.85-2.69,5.69-4.12l3.52,4.52C223,244.24,221,245.71,219,247.08Zm-118.65-1.5c-2-1.42-4-2.93-5.9-4.5L98,236.65c1.8,1.48,3.68,2.91,5.57,4.26Zm127.55-5.19L224.17,236c1.78-1.5,3.53-3.08,5.21-4.7l4,4.12C231.59,237.14,229.74,238.81,227.85,240.39ZM91.58,238.68c-1.85-1.63-3.66-3.35-5.39-5.1l4.08-4c1.64,1.66,3.35,3.29,5.1,4.83ZM236,232.8l-4.13-4c1.62-1.67,3.19-3.43,4.69-5.22l4.4,3.68C239.36,229.17,237.69,231,236,232.8ZM83.63,230.89c-1.66-1.81-3.28-3.71-4.82-5.64l4.48-3.57c1.46,1.83,3,3.62,4.56,5.33Zm159.64-6.5-4.52-3.52c1.43-1.83,2.81-3.74,4.11-5.68l4.76,3.19C246.25,220.43,244.79,222.45,243.27,224.39ZM76.55,222.3c-1.46-2-2.88-4-4.2-6.13l4.84-3.07c1.25,2,2.58,3.92,4,5.79Zm173.08-7-4.87-3c1.22-2,2.4-4,3.48-6.08l5.07,2.67C252.17,211,250.93,213.17,249.63,215.26ZM70.42,213c-1.26-2.14-2.44-4.34-3.53-6.54L72,203.93c1,2.08,2.15,4.16,3.33,6.17ZM255,205.52,249.82,203c1-2.1,2-4.25,2.81-6.41l5.33,2.11C257.05,201,256.05,203.3,255,205.52ZM65.31,203.1c-1-2.25-2-4.56-2.81-6.88l5.38-2c.81,2.2,1.7,4.39,2.65,6.5Zm194-7.84-5.4-1.92c.78-2.19,1.49-4.44,2.12-6.69l5.52,1.54C260.84,190.57,260.08,193,259.26,195.26Zm-198-2.55c-.77-2.35-1.46-4.75-2-7.14l5.56-1.38c.56,2.25,1.21,4.52,1.93,6.74Zm201.13-8.12-5.57-1.33c.54-2.26,1-4.58,1.39-6.87l5.65.93C263.49,179.75,263,182.2,262.42,184.59ZM58.41,182c-.51-2.41-.94-4.87-1.28-7.31l5.68-.79c.32,2.31.72,4.64,1.2,6.91Zm206-8.31-5.69-.73c.3-2.31.52-4.66.65-7l5.72.33C265,168.71,264.74,171.2,264.43,173.65ZM56.69,171c-.25-2.44-.42-4.93-.5-7.4v-.21l5.72-.17v.21c.08,2.33.23,4.68.47,7Zm208.56-8.41-5.72-.12c0-.72,0-1.43,0-2.15,0-1.07,0-2.15-.05-3.23,0-.55,0-1.1-.07-1.64l5.72-.28c0,.58.06,1.16.07,1.74,0,1.14.06,2.28.06,3.41C265.28,161,265.27,161.79,265.25,162.55ZM61.87,159.67l-5.73,0c0-2.46.11-5,.3-7.41l5.71.43C62,155,61.88,157.34,61.87,159.67Zm197.33-7.76c-.19-2.33-.47-4.67-.83-7l5.66-.88c.38,2.43.68,4.91.88,7.37ZM62.48,149.16l-5.7-.63c.27-2.45.64-4.92,1.08-7.34l5.64,1C63.08,144.51,62.73,146.85,62.48,149.16Zm195.29-7.67c-.44-2.3-1-4.6-1.56-6.84l5.53-1.48c.64,2.38,1.2,4.81,1.66,7.24Zm-193.58-2.7-5.59-1.24c.53-2.41,1.16-4.82,1.86-7.18L66,132C65.29,134.23,64.7,136.52,64.19,138.79Zm191.05-7.51c-.68-2.22-1.45-4.45-2.28-6.63l5.34-2.06c.89,2.3,1.7,4.66,2.42,7ZM67,128.66l-5.43-1.83c.79-2.34,1.67-4.67,2.62-6.94l5.29,2.21C68.59,124.24,67.76,126.45,67,128.66Zm184.62-7.27c-.91-2.14-1.92-4.28-3-6.35l5.1-2.62c1.13,2.19,2.19,4.45,3.16,6.72ZM70.89,118.9l-5.2-2.4c1-2.23,2.15-4.46,3.34-6.62l5,2.76C72.93,114.69,71.87,116.79,70.89,118.9Zm176.09-7c-1.14-2-2.36-4-3.65-6l4.79-3.15c1.36,2.06,2.66,4.19,3.86,6.34ZM75.8,109.61l-4.92-2.94c1.26-2.12,2.62-4.22,4-6.23l4.7,3.28C78.28,105.62,77,107.6,75.8,109.61Zm165.55-6.56c-1.35-1.9-2.79-3.78-4.26-5.57l4.42-3.65c1.57,1.9,3.08,3.89,4.51,5.9ZM81.66,100.88l-4.58-3.45c1.48-2,3-3.91,4.66-5.76l4.33,3.75C84.55,97.18,83.06,99,81.66,100.88Zm153.15-6.07c-1.55-1.75-3.17-3.46-4.83-5.1l4-4.08c1.75,1.72,3.47,3.53,5.1,5.38Zm-146.39-2-4.19-3.91c1.68-1.81,3.44-3.57,5.24-5.25l3.91,4.2C91.68,89.44,90,91.11,88.42,92.82Zm139-5.52c-1.72-1.57-3.51-3.11-5.33-4.55l3.55-4.49c1.93,1.53,3.83,3.15,5.65,4.81ZM96,85.51l-3.76-4.33C94.1,79.57,96,78,98,76.52l3.44,4.58C99.59,82.5,97.75,84,96,85.51Zm123.32-4.89c-1.87-1.38-3.82-2.71-5.79-4l3.07-4.84c2.08,1.32,4.14,2.73,6.12,4.19ZM104.29,79,101,74.34c2-1.41,4.12-2.76,6.24-4l2.93,4.92C108.19,76.43,106.21,77.71,104.29,79Zm106.24-4.2c-2-1.18-4.09-2.29-6.17-3.32l2.53-5.14c2.21,1.09,4.41,2.27,6.53,3.51ZM113.24,73.5l-2.75-5c2.16-1.19,4.4-2.31,6.63-3.34l2.39,5.21C117.4,71.31,115.29,72.37,113.24,73.5Zm88-3.48c-2.12-1-4.31-1.84-6.49-2.64l2-5.38c2.31.85,4.62,1.79,6.87,2.8Zm-78.45-1.09-2.21-5.29c2.28-.94,4.62-1.82,7-2.61l1.82,5.44C127.09,67.21,124.88,68,122.74,68.93Zm68.65-2.7c-2.21-.72-4.48-1.37-6.74-1.93L186,58.73c2.39.6,4.79,1.29,7.14,2.05Zm-58.73-.81L131,59.92c2.36-.7,4.78-1.32,7.19-1.84l1.23,5.59C137.17,64.17,134.89,64.76,132.66,65.42Zm48.57-1.91c-2.27-.48-4.6-.89-6.91-1.21l.79-5.67c2.44.33,4.9.76,7.31,1.27ZM142.89,63l-1-5.63c2.42-.44,4.89-.8,7.34-1.07l.63,5.69C147.51,62.23,145.17,62.57,142.89,63Zm28-1.09c-2.31-.24-4.66-.39-7-.47L164,55.7c2.47.07,5,.24,7.4.49Zm-17.52-.24-.42-5.71c1.47-.11,3-.19,4.46-.24,1,0,2-.05,2.95-.05l0,5.73c-.92,0-1.85,0-2.78,0C156.14,61.47,154.72,61.55,153.32,61.65Z"/><path class="cls-8" d="M160.56,278.92c-1.83,0-3.69,0-5.54-.13l.26-5.37c1.77.09,3.62.15,5.34.13h.93l0,5.38h-1Zm5.48-.12-.32-5.37h.06c2.08-.09,4.16-.24,6.21-.45l.54,5.35C170.38,278.54,168.2,278.7,166,278.8Zm-15.39-.3c-2.18-.18-4.38-.43-6.53-.73l.75-5.32c2,.29,4.15.52,6.23.7Zm26.23-.68-.73-5.33c2.06-.28,4.15-.62,6.19-1l1,5.28C181.22,277.16,179,277.52,176.88,277.82Zm-37.09-.74c-2.15-.38-4.32-.83-6.43-1.33l1.23-5.23c2,.48,4.09.91,6.15,1.28Zm47.86-1.24-1.22-5.24c2-.46,4.06-1,6.07-1.58l1.5,5.16C191.9,274.79,189.76,275.35,187.65,275.84Zm-58.54-1.18c-2.1-.58-4.22-1.23-6.28-1.92l1.72-5.09c2,.66,4,1.28,6,1.83Zm69.08-1.79-1.7-5.1c2-.66,4-1.38,5.9-2.14l2,5C202.34,271.42,200.27,272.18,198.19,272.87Zm-79.48-1.61c-2-.77-4.08-1.61-6.06-2.49l2.18-4.91c1.89.84,3.84,1.64,5.79,2.38Zm89.71-2.33L206.26,264c1.91-.84,3.82-1.74,5.68-2.69l2.43,4.79C212.42,267.1,210.42,268.05,208.42,268.93Zm-99.74-2c-1.94-.95-3.9-2-5.81-3.05l2.62-4.69c1.83,1,3.69,2,5.55,2.91Zm109.57-2.87-2.61-4.7c1.82-1,3.64-2.08,5.4-3.2l2.87,4.55C222.06,261.86,220.16,263,218.25,264.05ZM99.09,261.66c-1.87-1.13-3.72-2.33-5.51-3.57l3-4.42c1.71,1.17,3.48,2.32,5.26,3.41Zm128.48-3.37-3-4.44c1.72-1.17,3.43-2.41,5.08-3.68l3.28,4.26C231.16,255.76,229.37,257.06,227.57,258.29ZM90,255.55c-1.76-1.31-3.49-2.67-5.17-4.07l3.44-4.13c1.6,1.33,3.26,2.64,4.93,3.88Zm146.31-3.86-3.43-4.14c1.61-1.34,3.2-2.73,4.71-4.14l3.66,3.94C239.68,248.83,238,250.29,236.33,251.69ZM81.54,248.62c-1.63-1.46-3.24-3-4.77-4.52l3.8-3.8c1.47,1.47,3,2.92,4.56,4.32Zm162.89-4.3-3.8-3.81c1.47-1.46,2.93-3,4.32-4.55l4,3.59C247.49,241.18,246,242.78,244.43,244.32Zm-170.7-3.38c-1.48-1.6-2.94-3.26-4.34-4.94l4.14-3.43c1.33,1.6,2.73,3.19,4.14,4.72Zm178.09-4.7-4.13-3.44c1.33-1.6,2.64-3.26,3.89-4.93l4.3,3.21C254.58,232.83,253.21,234.56,251.82,236.24ZM66.65,232.57c-1.33-1.73-2.63-3.52-3.86-5.32l4.43-3c1.18,1.71,2.42,3.42,3.69,5.08Zm191.78-5L254,224.47c1.18-1.71,2.33-3.48,3.41-5.26L262,222C260.87,223.87,259.67,225.72,258.43,227.52Zm-198-3.93c-1.17-1.85-2.3-3.76-3.36-5.66l4.7-2.61c1,1.81,2.09,3.63,3.2,5.4Zm203.84-5.36-4.69-2.63c1-1.82,2-3.69,2.91-5.55l4.83,2.37C266.31,214.36,265.29,216.32,264.22,218.23ZM55,214.05c-1-2-1.94-4-2.82-6l4.92-2.16c.83,1.9,1.74,3.81,2.69,5.68Zm214.16-5.6-4.91-2.18c.84-1.9,1.65-3.85,2.38-5.79l5,1.91C270.84,204.42,270,206.46,269.12,208.45Zm-218.68-4.4c-.8-2-1.56-4.1-2.25-6.18l5.1-1.69c.66,2,1.38,4,2.15,5.89Zm222.65-5.78L268,196.55c.67-2,1.29-4,1.84-6L275,192C274.44,194.1,273.79,196.21,273.09,198.27ZM46.88,193.69c-.61-2.09-1.17-4.23-1.66-6.36l5.23-1.21c.47,2,1,4.07,1.59,6.06Zm229.23-5.95-5.23-1.24c.48-2,.91-4.08,1.28-6.14l5.29.95C277.06,183.47,276.61,185.63,276.11,187.74ZM44.3,183.05c-.41-2.15-.77-4.33-1.07-6.49l5.33-.72c.28,2.06.62,4.14,1,6.19ZM278.14,177l-5.32-.75c.29-2,.52-4.15.7-6.23l5.35.45C278.69,172.64,278.44,174.83,278.14,177ZM42.72,172.21c-.22-2.17-.38-4.38-.48-6.55v-.26l5.37-.21v.21c.09,2.1.25,4.2.45,6.28Zm236.44-6.13-5.37-.26c.09-1.79.13-3.6.13-5.4v-.87l5.37,0v.91C279.3,162.3,279.25,164.21,279.16,166.08ZM42.12,161v-.79c0-1.9.05-3.85.14-5.78l5.37.26c-.09,1.85-.14,3.7-.14,5.52V161Zm231.69-5.65v-.19c-.09-2-.24-4.06-.44-6.09l5.35-.52c.21,2.12.37,4.28.46,6.42Zm-225.9-4.83-5.36-.46c.19-2.16.44-4.36.75-6.53l5.32.76C48.32,146.38,48.08,148.48,47.91,150.55Zm225-5.6c-.28-2.06-.62-4.15-1-6.19l5.28-1c.41,2.14.77,4.33,1.06,6.49Zm-223.6-4.76L44,139.24c.38-2.14.84-4.31,1.34-6.44l5.23,1.25C50.08,136.08,49.64,138.15,49.28,140.19ZM271,134.67c-.46-2-1-4.07-1.58-6.07l5.16-1.5c.61,2.1,1.17,4.24,1.66,6.35ZM51.61,130l-5.18-1.44c.58-2.11,1.24-4.22,1.93-6.28L53.45,124C52.79,126,52.16,128,51.61,130Zm216.55-5.4c-.65-2-1.37-4-2.14-5.89l5-2c.8,2,1.56,4.11,2.24,6.18ZM54.87,120.08l-5-1.92c.77-2,1.62-4.08,2.5-6.06l4.91,2.19C56.41,116.18,55.61,118.13,54.87,120.08Zm209.54-5.24c-.84-1.91-1.74-3.82-2.69-5.68l4.8-2.43c1,2,1.93,4,2.81,6ZM59,110.51l-4.82-2.37c.95-2,2-3.91,3-5.81L62,105C60.92,106.78,59.94,108.65,59,110.51Zm200.73-5.06c-1-1.82-2.09-3.64-3.2-5.4l4.54-2.86c1.17,1.84,2.29,3.74,3.36,5.66Zm-195.7-4.09-4.58-2.81c1.13-1.85,2.34-3.7,3.58-5.5l4.42,3C66.29,97.82,65.14,99.58,64.06,101.36Zm190.2-4.81c-1.17-1.72-2.41-3.43-3.68-5.09l4.26-3.27c1.33,1.74,2.63,3.53,3.86,5.33ZM69.92,92.7l-4.31-3.21c1.3-1.75,2.67-3.48,4.07-5.16l4.12,3.45C72.47,89.38,71.16,91,69.92,92.7ZM248,88.19c-1.34-1.61-2.73-3.2-4.14-4.72l3.94-3.65c1.48,1.59,2.94,3.26,4.33,4.94ZM76.54,84.62l-4-3.6c1.45-1.61,3-3.22,4.53-4.76l3.79,3.81C79.39,81.54,77.93,83.07,76.54,84.62Zm164.39-4.17c-1.47-1.48-3-2.93-4.55-4.32l3.59-4c1.63,1.46,3.23,3,4.77,4.53Zm-157-3.28-3.65-3.94c1.6-1.48,3.27-2.94,5-4.33L88.61,73C87,74.37,85.42,75.76,83.89,77.17Zm149.33-3.78c-1.6-1.34-3.26-2.65-4.93-3.89l3.21-4.31c1.75,1.3,3.48,2.67,5.16,4.07Zm-141.33-3-3.27-4.26c1.73-1.33,3.52-2.63,5.32-3.86l3,4.44C95.25,67.92,93.54,69.16,91.89,70.43Zm133-3.36c-1.71-1.18-3.47-2.33-5.25-3.42l2.8-4.58c1.86,1.14,3.71,2.34,5.5,3.57ZM100.48,64.45,97.61,59.9c1.86-1.16,3.76-2.29,5.67-3.35l2.6,4.7C104.06,62.26,102.24,63.34,100.48,64.45ZM216,61.54c-1.81-1-3.68-2-5.55-2.91l2.37-4.83c2,1,3.91,2,5.81,3.06ZM109.59,59.29l-2.43-4.79c1.94-1,3.94-1.93,6-2.81l2.16,4.92C113.35,57.45,111.44,58.35,109.59,59.29Zm97.11-2.43c-1.9-.85-3.85-1.65-5.79-2.39l1.91-5c2,.77,4.08,1.61,6.07,2.5ZM119.14,55l-2-5c2-.8,4.1-1.55,6.18-2.24l1.69,5.1C123.06,53.51,121.07,54.23,119.14,55ZM197,53.06c-2-.67-4-1.29-6-1.85L192.42,46c2.1.58,4.22,1.23,6.29,1.93ZM129,51.62l-1.5-5.16c2.1-.61,4.23-1.17,6.36-1.66L135.1,50C133.07,50.5,131,51,129,51.62Zm57.91-1.45c-2-.48-4.09-.91-6.14-1.28l.95-5.29c2.15.39,4.31.84,6.43,1.34Zm-47.75-1-1-5.28c2.14-.41,4.32-.76,6.48-1.06l.72,5.33C143.32,48.44,141.23,48.78,139.19,49.17Zm37.48-.94c-2.06-.29-4.16-.53-6.24-.7l.46-5.36c2.17.19,4.37.44,6.53.74Zm-27.13-.56L149,42.32c2.11-.2,4.25-.36,6.37-.45h.19l.23,5.37h-.19C153.6,47.33,151.55,47.47,149.54,47.67Zm16.72-.42c-1.81-.09-3.65-.13-5.46-.13H160l0-5.37h.85c1.89,0,3.82,0,5.72.13Z"/><path class="cls-9" d="M160.59,293.06c-1.2,0-2.4,0-3.59,0l.13-5c1.87.05,3.74.06,5.63,0l.09,5Zm7.42-.2-.35-5h.07c1.86-.1,3.73-.24,5.56-.42l.49,5C171.88,292.61,169.94,292.75,168,292.86Zm-16.12-.08c-1.95-.13-3.9-.3-5.82-.51l.54-5c1.85.2,3.74.37,5.61.49Zm27-1-.68-5c1.85-.25,3.72-.55,5.55-.88l.9,4.93C182.73,291.25,180.78,291.56,178.86,291.82Zm-37.87-.2c-1.92-.29-3.86-.63-5.76-1l1-4.92c1.83.36,3.69.68,5.55,1Zm48.66-1.73-1.09-4.9c1.81-.4,3.65-.85,5.46-1.34l1.3,4.84C193.44,289,191.53,289.47,189.65,289.89Zm-59.42-.34c-1.89-.45-3.8-.94-5.66-1.47l1.37-4.82c1.79.5,3.62,1,5.44,1.41Zm70-2.48-1.49-4.79c1.79-.56,3.58-1.16,5.32-1.79l1.71,4.71C204,285.86,202.1,286.48,200.24,287.07Zm-80.56-.48c-1.84-.6-3.7-1.25-5.51-1.93l1.76-4.69c1.75.65,3.53,1.27,5.3,1.85Zm90.89-3.22-1.88-4.65c1.74-.7,3.48-1.46,5.17-2.23l2.09,4.56C214.19,281.85,212.38,282.64,210.57,283.37Zm-101.14-.59c-1.79-.75-3.59-1.56-5.33-2.38l2.15-4.53c1.67.79,3.4,1.56,5.12,2.29Zm111.14-4-2.27-4.47c1.67-.85,3.34-1.74,5-2.66l2.46,4.37C224,277,222.3,277.94,220.57,278.82Zm-121-.69c-1.73-.91-3.45-1.85-5.12-2.81L96.92,271c1.6.93,3.26,1.84,4.93,2.71Zm130.62-4.67-2.63-4.27c1.59-1,3.18-2,4.73-3.06l2.81,4.15C233.46,271.37,231.8,272.44,230.15,273.46ZM90,272.67c-1.63-1-3.27-2.11-4.87-3.22L88,265.33c1.54,1.07,3.11,2.11,4.68,3.1Zm149.2-5.35-3-4c1.5-1.11,3-2.27,4.46-3.44l3.15,3.9C242.37,265,240.81,266.18,239.24,267.32ZM81,266.46c-1.54-1.17-3.09-2.38-4.59-3.62L79.62,259c1.45,1.19,2.93,2.36,4.42,3.48Zm166.78-6-3.3-3.78c1.41-1.22,2.81-2.5,4.16-3.79l3.46,3.63C250.72,257.86,249.26,259.19,247.8,260.46Zm-175.25-.95c-1.45-1.29-2.89-2.63-4.28-4l3.49-3.59c1.34,1.3,2.72,2.58,4.12,3.83Zm183.21-6.58-3.6-3.5c1.31-1.35,2.6-2.73,3.84-4.12l3.74,3.34C258.46,250.09,257.12,251.53,255.76,252.93Zm-191.09-1c-1.34-1.41-2.67-2.86-3.94-4.32l3.78-3.3c1.22,1.4,2.5,2.8,3.79,4.16Zm198.4-7.14-3.87-3.19c1.19-1.45,2.36-2.93,3.48-4.41l4,3C265.53,241.71,264.31,243.26,263.07,244.76Zm-205.63-1.1c-1.22-1.51-2.42-3.07-3.57-4.63l4-3c1.11,1.51,2.27,3,3.44,4.46ZM269.68,236l-4.12-2.86c1.07-1.54,2.11-3.11,3.11-4.68l4.24,2.67C271.88,232.8,270.79,234.43,269.68,236ZM50.91,234.85c-1.08-1.59-2.16-3.25-3.18-4.92L52,227.3c1,1.61,2,3.2,3.06,4.73Zm224.64-8.06-4.34-2.51c.93-1.61,1.84-3.26,2.71-4.92l4.45,2.32C277.46,223.4,276.52,225.12,275.55,226.79ZM45.12,225.52c-.95-1.69-1.88-3.43-2.76-5.16l4.47-2.27c.85,1.67,1.75,3.34,2.66,5Zm235.52-8.42L276.11,215c.79-1.68,1.56-3.41,2.29-5.13l4.62,1.94C282.26,213.56,281.46,215.36,280.64,217.1ZM40.13,215.74c-.81-1.77-1.59-3.58-2.32-5.38l4.64-1.89c.71,1.73,1.46,3.47,2.24,5.18ZM284.91,207l-4.7-1.76c.66-1.76,1.28-3.54,1.86-5.3l4.77,1.56C286.24,203.36,285.59,205.21,284.91,207ZM36,205.57c-.66-1.82-1.28-3.68-1.87-5.54l4.79-1.5c.56,1.79,1.16,3.59,1.8,5.33Zm252.36-8.94-4.83-1.36c.51-1.8,1-3.63,1.41-5.45l4.88,1.15C289.35,192.86,288.85,194.77,288.33,196.63ZM32.68,195.11c-.51-1.88-1-3.79-1.4-5.67l4.9-1.09c.4,1.81.85,3.64,1.34,5.46ZM290.87,186,286,185c.36-1.83.68-3.7,1-5.54l5,.74C291.58,182.13,291.25,184.07,290.87,186ZM30.26,184.42c-.34-1.91-.65-3.85-.92-5.77l5-.68c.25,1.84.55,3.71.89,5.56Zm262.27-9.28-5-.55c.21-1.85.37-3.74.49-5.6l5,.33C292.91,171.25,292.74,173.21,292.53,175.14ZM28.74,173.57c-.19-1.93-.34-3.89-.44-5.82l0-.23,5-.23-2.5.12,2.51,0v.13c.11,1.83.25,3.72.43,5.58Zm264.54-9.36-5-.14c0-1.16.05-2.33.05-3.51,0-.7,0-1.41,0-2.12l5-.08c0,.74,0,1.47,0,2.2C293.33,161.78,293.31,163,293.28,164.21ZM28.11,162.43c0-.7,0-1.4,0-2.1,0-1.25,0-2.5.05-3.75l5,.14c0,1.2,0,2.41,0,3.61,0,.68,0,1.35,0,2Zm260-8.89v-.18c-.1-1.76-.24-3.62-.42-5.45l5-.48c.19,1.9.34,3.82.44,5.72ZM33.39,151.81l-5-.34c.13-1.94.3-3.9.51-5.82l5,.56C33.68,148.05,33.51,149.94,33.39,151.81ZM287.12,143c-.25-1.84-.55-3.71-.88-5.56l4.93-.89c.35,1.92.66,3.86.92,5.77Zm-252.6-1.7-5-.75c.29-1.93.62-3.86,1-5.76l4.92,1C35.13,137.61,34.8,139.47,34.52,141.33Zm250.74-8.68c-.4-1.82-.85-3.66-1.34-5.47l4.85-1.3c.5,1.88,1,3.79,1.39,5.68ZM36.53,131l-4.88-1.16c.45-1.9.94-3.8,1.47-5.66l4.82,1.37C37.43,127.32,37,129.15,36.53,131Zm246-8.52c-.55-1.78-1.15-3.58-1.79-5.33l4.72-1.7c.66,1.82,1.29,3.69,1.86,5.54ZM39.38,120.83l-4.77-1.56c.61-1.84,1.26-3.69,1.94-5.5l4.69,1.76C40.58,117.28,40,119.06,39.38,120.83ZM279,112.52c-.71-1.75-1.46-3.49-2.23-5.18l4.56-2.09c.8,1.76,1.58,3.57,2.32,5.39ZM43.06,111l-4.62-2c.76-1.8,1.56-3.59,2.38-5.33l4.53,2.15C44.56,107.52,43.79,109.24,43.06,111Zm231.57-8.08c-.84-1.67-1.74-3.34-2.65-5l4.37-2.46c.95,1.69,1.88,3.43,2.75,5.17ZM47.55,101.45,43.1,99.13C44,97.41,45,95.69,45.92,94l4.34,2.51C49.32,98.14,48.41,99.79,47.55,101.45Zm221.93-7.77c-1-1.6-2-3.19-3.06-4.73l4.15-2.81c1.09,1.6,2.16,3.25,3.18,4.91ZM52.8,92.33l-4.23-2.68c1-1.64,2.12-3.28,3.23-4.87l4.11,2.86C54.85,89.18,53.8,90.75,52.8,92.33Zm210.78-7.4c-1.11-1.51-2.26-3-3.44-4.46l3.91-3.15c1.22,1.51,2.42,3.07,3.57,4.64ZM58.8,83.66l-4-3c1.17-1.54,2.39-3.09,3.63-4.59l3.86,3.19C61.09,80.69,59.92,82.18,58.8,83.66Zm198.18-7c-1.22-1.4-2.5-2.8-3.79-4.16l3.63-3.46c1.34,1.41,2.67,2.87,3.94,4.33ZM65.49,75.51l-3.74-3.34c1.28-1.44,2.62-2.88,4-4.27l3.59,3.49C68,72.74,66.73,74.12,65.49,75.51ZM249.73,69c-1.34-1.3-2.72-2.59-4.12-3.84L249,61.45c1.45,1.3,2.89,2.64,4.27,4Zm-176.9-1.1L69.37,64.3c1.41-1.34,2.87-2.66,4.33-3.94L77,64.15C75.58,65.37,74.18,66.65,72.83,67.93Zm169-5.94c-1.44-1.19-2.92-2.36-4.41-3.48l3-4c1.54,1.17,3.09,2.39,4.58,3.62ZM80.76,61l-3.14-3.91c1.52-1.22,3.08-2.42,4.64-3.57l3,4C83.73,58.65,82.23,59.81,80.76,61Zm152.71-5.37c-1.53-1.06-3.1-2.1-4.68-3.1l2.68-4.24c1.64,1,3.28,2.12,4.86,3.23ZM89.25,54.71l-2.81-4.15c1.61-1.09,3.26-2.16,4.92-3.18L94,51.66C92.39,52.64,90.8,53.66,89.25,54.71ZM224.58,50c-1.61-.93-3.26-1.84-4.92-2.71L222,42.82c1.72.89,3.44,1.84,5.12,2.81ZM98.23,49.16l-2.45-4.37c1.69-1,3.43-1.89,5.16-2.76l2.26,4.48C101.54,47.35,99.87,48.24,98.23,49.16Zm117-4.09c-1.68-.79-3.4-1.56-5.12-2.29l1.94-4.62c1.79.75,3.59,1.55,5.33,2.38Zm-107.61-.7-2.09-4.56c1.78-.81,3.59-1.59,5.38-2.32l1.88,4.65C111.1,42.84,109.35,43.59,107.65,44.37ZM205.58,41c-1.75-.65-3.53-1.28-5.3-1.86l1.56-4.76c1.83.6,3.68,1.25,5.5,1.93Zm-88.14-.59-1.7-4.71c1.82-.66,3.69-1.28,5.54-1.86l1.49,4.79C121,39.14,119.19,39.74,117.44,40.37Zm78.13-2.7c-1.8-.51-3.63-1-5.44-1.42l1.16-4.88c1.87.45,3.78.94,5.66,1.47Zm-68.08-.45-1.3-4.84c1.87-.5,3.79-1,5.68-1.39L133,35.88C131.13,36.29,129.29,36.74,127.49,37.22Zm57.83-2c-1.83-.35-3.69-.68-5.54-1l.74-5c1.92.28,3.86.62,5.77,1Zm-47.54-.3L136.89,30c1.91-.35,3.85-.66,5.77-.92l.68,5C141.49,34.28,139.62,34.58,137.78,34.91Zm37.12-1.29c-1.85-.2-3.73-.37-5.6-.49l.33-5c1.94.13,3.9.3,5.82.52Zm-26.68-.16-.48-5c1.87-.18,3.78-.33,5.67-.43h.16l.26,5h-.13C151.87,33.14,150,33.28,148.22,33.46Zm16.16-.56c-1.87-.06-3.74-.07-5.63,0l-.07-5c1.95,0,3.9,0,5.84,0Z"/><path class="cls-10" d="M160.36,307.22H159l.05-4.66h1.56c1.14,0,2.27,0,3.4,0l.11,4.65C162.83,307.21,161.61,307.22,160.36,307.22Zm-7.25-.18c-1.7-.09-3.42-.21-5.11-.35l.4-4.64c1.63.14,3.3.25,4.94.34Zm16.86-.12-.21-2.31-.1-2.33c1.64-.1,3.28-.24,4.9-.39l.45,4.63C173.34,306.68,171.64,306.82,170,306.92Zm-27.79-.85c-1.7-.21-3.4-.46-5.06-.73l.74-4.6c1.61.27,3.26.5,4.91.71Zm38.64-.23-.63-4.61c1.64-.23,3.28-.48,4.89-.76l.8,4.58C184.22,305.34,182.51,305.61,180.82,305.84Zm-49.46-1.55c-1.67-.34-3.35-.71-5-1.11l1.09-4.53c1.59.39,3.22.75,4.84,1.08Zm60.26-.35-1-4.55c1.6-.34,3.23-.72,4.83-1.12l1.13,4.51C195,303.2,193.27,303.59,191.62,303.94Zm-70.91-2.24c-1.65-.47-3.3-1-4.9-1.48l1.43-4.44c1.55.5,3.14,1,4.74,1.44Zm81.53-.45-1.31-4.47c1.56-.46,3.16-1,4.73-1.48l1.47,4.42C205.5,300.26,203.86,300.77,202.24,301.25Zm-91.95-2.93c-1.58-.58-3.19-1.2-4.76-1.84l1.76-4.31c1.52.62,3.07,1.21,4.61,1.78Zm102.35-.56L211,293.4c1.54-.58,3.09-1.2,4.62-1.84l1.8,4.3C215.83,296.52,214.23,297.16,212.64,297.76Zm-112.47-3.59c-1.54-.7-3.09-1.43-4.62-2.19l2.08-4.17c1.47.73,3,1.45,4.46,2.12Zm122.6-.69-2-4.22c1.48-.69,3-1.42,4.46-2.18l2.12,4.15C225.85,292,224.3,292.77,222.77,293.48ZM90.38,289.27c-1.49-.81-3-1.66-4.44-2.53l2.37-4c1.42.84,2.86,1.66,4.3,2.45Zm142.17-.81-2.29-4.06c1.43-.8,2.87-1.65,4.28-2.51l2.43,4C235.51,286.75,234,287.63,232.55,288.46ZM81,283.66c-1.41-.92-2.84-1.88-4.24-2.86L79.4,277c1.35.95,2.74,1.88,4.11,2.77Zm160.94-.94-2.58-3.88c1.38-.92,2.75-1.87,4.08-2.82l2.71,3.78C244.75,280.78,243.34,281.76,241.91,282.72ZM72,277.35c-1.36-1-2.71-2.09-4-3.16l3-3.61c1.26,1,2.57,2.07,3.89,3.07Zm178.8-1.06L248,272.62c1.28-1,2.58-2.05,3.85-3.12l3,3.57C253.48,274.17,252.14,275.26,250.81,276.29ZM63.53,270.4c-1.27-1.12-2.54-2.28-3.77-3.45L63,263.57c1.19,1.13,2.42,2.26,3.65,3.34Zm195.68-1.17-3.13-3.45c1.23-1.12,2.44-2.26,3.61-3.4l3.25,3.34C261.74,266.89,260.48,268.07,259.21,269.23ZM55.6,262.84c-1.19-1.23-2.37-2.48-3.51-3.73L55.54,256c1.1,1.21,2.24,2.42,3.39,3.61Zm211.45-1.28-3.38-3.21c1.14-1.2,2.26-2.43,3.35-3.65l3.48,3.08C269.39,259.05,268.22,260.32,267.05,261.56ZM48.24,254.7c-1.09-1.3-2.17-2.64-3.22-4l3.67-2.86c1,1.3,2.06,2.6,3.12,3.85Zm226.05-1.37-3.6-2.94c1-1.28,2.08-2.59,3.07-3.89l3.7,2.82C276.44,250.66,275.37,252,274.29,253.33ZM41.51,246c-1-1.39-2-2.81-2.92-4.21l3.88-2.59c.9,1.36,1.85,2.74,2.82,4.08Zm239.4-1.44-3.82-2.67c.94-1.34,1.88-2.72,2.77-4.1l3.91,2.53C282.84,241.78,281.88,243.2,280.91,244.59ZM35.44,236.88c-.88-1.44-1.75-2.93-2.59-4.42l4-2.29c.82,1.45,1.66,2.89,2.52,4.28Zm251.41-1.49-4-2.38c.84-1.42,1.67-2.86,2.45-4.3l4.09,2.24C288.58,232.43,287.72,233.93,286.85,235.39Zm-256.78-8.1c-.77-1.51-1.53-3.06-2.25-4.6l4.22-2c.7,1.5,1.43,3,2.18,4.46Zm262-1.51-4.17-2.08c.73-1.47,1.45-3,2.13-4.46l4.24,1.92C293.59,222.71,292.85,224.26,292.09,225.78ZM25.44,217.32c-.66-1.58-1.3-3.18-1.9-4.77l4.35-1.64c.58,1.53,1.2,3.08,1.84,4.61ZM296.6,215.8,292.29,214c.61-1.5,1.21-3,1.78-4.61l4.37,1.61C297.85,212.65,297.23,214.25,296.6,215.8Zm-275-8.75c-.54-1.61-1-3.25-1.53-4.89l4.46-1.32c.47,1.59,1,3.18,1.49,4.73Zm278.76-1.53-4.43-1.43c.5-1.56,1-3.15,1.44-4.74l4.48,1.27C301.36,202.26,300.86,203.91,300.34,205.52Zm-281.84-9c-.41-1.65-.8-3.32-1.16-5l4.55-1c.35,1.61.73,3.23,1.13,4.82ZM303.31,195l-4.53-1.1c.38-1.57.74-3.2,1.08-4.83l4.56.93C304.08,191.66,303.7,193.34,303.31,195ZM16.23,185.79c-.29-1.66-.56-3.37-.79-5l4.61-.64c.23,1.63.49,3.28.77,4.9Zm289.24-1.58-4.59-.74c.26-1.62.5-3.27.71-4.91l4.62.59C306,180.84,305.75,182.54,305.47,184.21ZM14.76,174.93c-.17-1.7-.31-3.42-.41-5.1l0-.23,4.65-.31,0,.27c.1,1.6.23,3.27.39,4.92Zm292.06-1.6-4.63-.4c.14-1.64.25-3.3.34-4.94l4.65.24C307.09,169.92,307,171.64,306.82,173.33ZM14.09,163.75c0-1.11,0-2.22,0-3.33,0-.6,0-1.19,0-1.79l4.66.06c0,.57,0,1.15,0,1.73,0,1.08,0,2.15,0,3.22Zm293.27-1.36-4.66-.06c0-.54,0-1.08,0-1.63,0-1.1,0-2.21,0-3.32l4.66-.11c0,1.15,0,2.29,0,3.43C307.37,161.27,307.36,161.83,307.36,162.39ZM18.9,153l-4.65-.25c.09-1.7.2-3.42.35-5.1l4.64.4C19.1,149.71,19,151.38,18.9,153Zm283.53-1.34v-.07c-.1-1.62-.23-3.25-.38-4.84l4.63-.45c.16,1.65.3,3.32.4,5v.15ZM19.84,142.45l-4.61-.59c.21-1.7.46-3.4.73-5.06l4.6.75C20.3,139.15,20.06,140.8,19.84,142.45Zm281.54-1.3c-.22-1.63-.48-3.27-.76-4.9l4.59-.79c.29,1.68.55,3.38.78,5.06ZM21.58,132,17,131c.34-1.66.72-3.34,1.11-5l4.53,1.09C22.28,128.74,21.91,130.37,21.58,132Zm278-1.29c-.35-1.61-.72-3.23-1.12-4.83l4.51-1.13c.42,1.65.81,3.32,1.16,5Zm-275.45-9-4.48-1.28c.47-1.65,1-3.29,1.49-4.9l4.43,1.44C25,118.48,24.56,120.07,24.1,121.67Zm272.84-1.27c-.46-1.57-1-3.16-1.48-4.73l4.42-1.47c.54,1.62,1.05,3.26,1.53,4.89ZM27.38,111.59,23,110c.59-1.61,1.21-3.21,1.84-4.76L29.17,107C28.56,108.48,28,110,27.38,111.59Zm266.19-1.25c-.58-1.52-1.2-3.08-1.84-4.62l4.3-1.8c.66,1.6,1.3,3.2,1.89,4.77ZM31.42,101.79l-4.24-1.93c.69-1.53,1.43-3.08,2.2-4.61l4.17,2.07C32.81,98.81,32.09,100.31,31.42,101.79Zm258-1.26c-.69-1.49-1.42-3-2.18-4.47L291.4,94c.78,1.52,1.54,3.07,2.25,4.61ZM36.17,92.31l-4.08-2.24c.81-1.47,1.66-3,2.54-4.43l4,2.38C37.78,89.44,37,90.89,36.17,92.31Zm248.4-1.25c-.8-1.43-1.65-2.87-2.5-4.28l4-2.42c.89,1.45,1.76,2.94,2.59,4.42ZM41.62,83.21l-3.91-2.53c.93-1.43,1.9-2.86,2.87-4.24l3.81,2.67C43.45,80.45,42.52,81.83,41.62,83.21ZM279,82c-.91-1.37-1.86-2.74-2.82-4.09L280,75.2c1,1.39,2,2.81,2.91,4.22ZM47.73,74.54,44,71.72c1-1.34,2.09-2.69,3.17-4l3.6,3C49.75,71.93,48.72,73.24,47.73,74.54ZM272.8,73.37c-1-1.3-2.06-2.6-3.11-3.85l3.57-3c1.08,1.29,2.17,2.64,3.22,4Zm-218.32-7L51,63.25c1.13-1.27,2.29-2.54,3.46-3.77l3.38,3.21C56.69,63.88,55.57,65.11,54.48,66.34ZM266,65.24c-1.1-1.21-2.24-2.43-3.39-3.61l3.34-3.25c1.18,1.22,2.36,2.48,3.5,3.73ZM61.81,58.66l-3.24-3.34c1.23-1.19,2.48-2.37,3.73-3.5l3.13,3.45C64.22,56.37,63,57.51,61.81,58.66Zm196.73-1c-1.19-1.13-2.42-2.25-3.65-3.35L258,50.81c1.27,1.13,2.54,2.29,3.77,3.46ZM69.7,51.55l-3-3.57c1.31-1.09,2.65-2.17,4-3.22l2.86,3.68Q71.61,50,69.7,51.55Zm180.88-.93c-1.27-1-2.58-2.06-3.89-3.07l2.82-3.7c1.36,1,2.71,2.1,4,3.17ZM78.1,45l-2.71-3.78c1.38-1,2.8-2,4.22-2.91l2.58,3.87C80.81,43.14,79.44,44.09,78.1,45Zm164-.83c-1.35-.94-2.73-1.87-4.11-2.77l2.54-3.9c1.42.92,2.85,1.89,4.24,2.86ZM87,39.18l-2.42-4c1.45-.88,2.94-1.75,4.43-2.59l2.28,4.06C89.81,37.48,88.37,38.33,87,39.18Zm146.24-.73c-1.41-.84-2.86-1.66-4.3-2.45l2.24-4.09c1.49.82,3,1.67,4.44,2.54ZM96.25,34l-2.11-4.15c1.52-.78,3.07-1.53,4.61-2.25l2,4.22C99.23,32.51,97.73,33.25,96.25,34Zm127.65-.62c-1.46-.73-3-1.45-4.46-2.13L221.36,27c1.55.7,3.11,1.44,4.62,2.2Zm-118-3.86-1.79-4.29c1.58-.66,3.18-1.3,4.77-1.9l1.64,4.36C109,28.27,107.44,28.88,105.91,29.52ZM214.24,29c-1.52-.62-3.07-1.22-4.6-1.79l1.6-4.37c1.59.59,3.19,1.21,4.76,1.85ZM115.87,25.8l-1.47-4.42c1.62-.54,3.26-1.05,4.89-1.53l1.31,4.47C119,24.78,117.43,25.28,115.87,25.8Zm88.43-.42c-1.56-.5-3.16-1-4.75-1.44l1.28-4.48c1.64.47,3.29,1,4.9,1.49Zm-78.24-2.55-1.13-4.51c1.65-.42,3.32-.81,5-1.16l1,4.55C129.28,22.06,127.65,22.43,126.06,22.83Zm68-.33c-1.59-.38-3.22-.74-4.84-1.07l.93-4.57c1.68.35,3.36.72,5,1.12Zm-57.63-1.86-.79-4.59c1.68-.29,3.38-.55,5.06-.78l.63,4.62C139.72,20.11,138.07,20.36,136.45,20.64Zm47.22-.24c-1.61-.26-3.26-.5-4.9-.71l.59-4.62c1.69.22,3.39.47,5.06.74ZM147,19.23l-.44-4.63c1.62-.16,3.28-.29,4.91-.4h.19l.28,4.65h-.18C150.15,19,148.55,19.08,147,19.23Zm26.17-.14c-1.64-.14-3.31-.26-4.94-.34l.23-4.65c1.7.09,3.41.2,5.11.35Zm-15.56-.49-.11-4.66c1.71,0,3.42,0,5.12,0l-.06,4.66C160.89,18.55,159.23,18.56,157.58,18.6Z"/><path class="cls-11" d="M160.55,321.39l-2.25,0,.06-4.3c1.41,0,2.81,0,4.23,0l.06,4.29Zm8.6-.23-.22-4.29c.9-.05,1.8-.1,2.7-.17l1.51-.11.35,4.28-1.56.12C171,321.06,170.08,321.11,169.15,321.16Zm-17.36,0c-1.45-.08-2.89-.18-4.33-.29l.35-4.29c1.4.12,2.81.21,4.22.29Zm28.17-.92-.51-4.27c1.41-.17,2.8-.35,4.19-.56l.63,4.25C182.84,319.87,181.41,320.06,180,320.23Zm-39,0c-1.44-.18-2.87-.38-4.3-.59l.64-4.25c1.39.21,2.78.4,4.18.57Zm49.71-1.62-.8-4.23c1.39-.26,2.77-.54,4.15-.84l.9,4.2C193.53,318,192.12,318.31,190.69,318.58Zm-60.43-.07c-1.42-.27-2.84-.57-4.25-.88l.92-4.2c1.38.31,2.76.59,4.14.86Zm71-2.3-1.08-4.16c1.37-.36,2.72-.73,4.08-1.12l1.19,4.13C204.08,315.46,202.68,315.84,201.28,316.21Zm-81.6-.11c-1.41-.37-2.8-.76-4.19-1.17l1.21-4.12c1.35.39,2.71.77,4.07,1.13Zm92-3-1.36-4.07c1.33-.45,2.66-.91,4-1.4l1.47,4C214.43,312.19,213.06,312.66,211.69,313.12ZM109.3,313q-2.05-.69-4.08-1.44l1.48-4c1.32.49,2.64,1,4,1.41Zm112.58-3.65-1.64-4c1.31-.54,2.61-1.1,3.9-1.67l1.74,3.93C224.56,308.21,223.22,308.78,221.88,309.33Zm-122.72-.16c-1.33-.56-2.66-1.13-4-1.72l1.75-3.92c1.28.57,2.57,1.13,3.87,1.67Zm132.64-4.32L229.89,301c1.27-.63,2.53-1.27,3.78-1.93l2,3.8Q233.75,303.89,231.8,304.85Zm-142.49-.18c-1.3-.64-2.58-1.3-3.86-2l2-3.79c1.24.66,2.49,1.3,3.75,1.93Zm152.07-5L239.22,296c1.22-.71,2.43-1.43,3.63-2.18l2.26,3.66C243.88,298.23,242.63,299,241.38,299.71Zm-161.61-.18c-1.25-.73-2.49-1.48-3.72-2.24l2.27-3.65c1.2.74,2.4,1.47,3.62,2.18Zm170.82-5.6-2.41-3.56c1.17-.79,2.33-1.6,3.48-2.42l2.5,3.49Q252.39,292.72,250.59,293.93Zm-180-.18c-1.2-.82-2.39-1.64-3.56-2.49l2.5-3.49c1.15.82,2.3,1.63,3.47,2.42Zm188.78-6.21-2.64-3.39c1.11-.86,2.21-1.75,3.3-2.64l2.73,3.32Q261.09,286.21,259.38,287.54Zm-197.55-.18q-1.71-1.33-3.39-2.72l2.74-3.31c1.08.89,2.18,1.78,3.29,2.64Zm205.89-6.78-2.87-3.2c1.06-.94,2.09-1.9,3.12-2.86l2.95,3.12C269.86,278.64,268.8,279.62,267.72,280.58ZM53.51,280.4q-1.62-1.45-3.2-2.94l2.95-3.13c1,1,2.06,1.93,3.11,2.86Zm222.05-7.32-3.07-3c1-1,2-2,2.92-3.06l3.15,2.92Q277.09,271.53,275.56,273.08Zm-229.89-.19c-1-1-2-2.09-3-3.15l3.16-2.92c1,1,1.93,2.06,2.91,3.07Zm237.22-7.82-3.27-2.79c.92-1.07,1.82-2.16,2.7-3.25l3.34,2.7C284.75,262.85,283.83,264,282.89,265.07Zm-244.54-.2c-.94-1.1-1.87-2.22-2.78-3.34l3.34-2.71c.89,1.1,1.79,2.19,2.71,3.26Zm251.31-8.28L286.21,254c.84-1.13,1.66-2.27,2.48-3.42l3.51,2.48Q291,254.85,289.66,256.59Zm-258.08-.22c-.86-1.16-1.71-2.34-2.55-3.52l3.52-2.47c.81,1.15,1.64,2.3,2.48,3.43Zm264.26-8.69-3.61-2.33c.76-1.18,1.5-2.38,2.24-3.58l3.67,2.23C297.39,245.24,296.62,246.46,295.84,247.68ZM25.4,247.43c-.78-1.22-1.55-2.45-2.3-3.69l3.68-2.22c.73,1.2,1.47,2.4,2.24,3.59Zm276-9.06-3.76-2.08c.68-1.23,1.35-2.47,2-3.72l3.81,2C302.78,235.84,302.1,237.11,301.4,238.37Zm-281.56-.28c-.7-1.27-1.39-2.55-2.05-3.84l3.82-2c.65,1.26,1.31,2.5,2,3.74Zm286.49-9.37-3.89-1.82c.59-1.27,1.17-2.56,1.73-3.85l3.94,1.72C307.53,226.1,306.94,227.41,306.33,228.72Zm-291.41-.33c-.61-1.32-1.21-2.64-1.78-4l3.94-1.7c.56,1.3,1.14,2.59,1.74,3.86Zm295.67-9.63-4-1.56c.51-1.3,1-2.62,1.47-3.94l4.05,1.44C311.61,216.06,311.11,217.42,310.59,218.76Zm-299.92-.4c-.52-1.35-1-2.7-1.5-4.07l4.05-1.43c.47,1.33,1,2.65,1.46,4Zm303.49-9.82-4.1-1.28q.63-2,1.2-4l4.14,1.17C315,205.78,314.59,207.16,314.16,208.54Zm-307-.44c-.43-1.38-.84-2.77-1.23-4.16l4.15-1.16c.37,1.36.77,2.72,1.18,4.06Zm309.91-10-4.18-1c.33-1.37.64-2.74.93-4.13l4.2.89C317.7,195.26,317.38,196.67,317,198.08ZM4.29,197.63c-.33-1.4-.64-2.82-.94-4.24l4.21-.87c.29,1.38.59,2.76.91,4.13ZM319.2,187.44l-4.24-.71c.24-1.39.45-2.78.65-4.18l4.26.6C319.66,184.58,319.44,186,319.2,187.44ZM2.16,187c-.23-1.43-.45-2.86-.64-4.3l4.25-.58c.2,1.4.41,2.79.64,4.18Zm318.48-10.31-4.28-.42c.14-1.4.26-2.8.36-4.21l4.29.31C320.9,173.8,320.78,175.25,320.64,176.68ZM.76,176.23C.62,174.79.5,173.35.4,171.9l0-.26,4.29-.31,0,.29c.1,1.39.21,2.8.35,4.19Zm320.58-10.38-4.3-.13c0-1.41.07-2.81.08-4.23l4.3,0C321.41,163,321.38,164.41,321.34,165.85ZM.07,165.13c0-1.45-.07-2.9-.07-4.35H4.3c0,1.4,0,2.81.06,4.22Zm317-10c0-1.4-.12-2.81-.21-4.22l4.29-.27c.09,1.45.16,2.9.21,4.34ZM4.41,154.44l-4.29-.17c.06-1.45.13-2.89.23-4.33l4.29.28C4.54,151.62,4.47,153,4.41,154.44Zm311.88-9.83c-.15-1.4-.31-2.8-.49-4.19l4.26-.56c.19,1.43.35,2.87.5,4.32ZM5.18,143.9l-4.27-.45c.15-1.44.32-2.88.52-4.31l4.26.57C5.5,141.1,5.33,142.5,5.18,143.9Zm309.68-9.75c-.24-1.39-.5-2.78-.77-4.16l4.21-.84c.29,1.42.55,2.84.79,4.27Zm-308.2-.7-4.24-.75c.25-1.43.52-2.85.81-4.27l4.22.87C7.16,130.67,6.9,132.06,6.66,133.45Zm306.07-9.65c-.33-1.37-.68-2.73-1.05-4.09l4.15-1.12q.57,2.09,1.08,4.2ZM8.84,123.11l-4.17-1c.34-1.4.71-2.81,1.1-4.2L9.91,119C9.53,120.38,9.18,121.74,8.84,123.11Zm301.06-9.49c-.42-1.34-.86-2.68-1.32-4l4.06-1.4c.48,1.37.93,2.74,1.36,4.13ZM11.71,113l-4.09-1.31q.66-2.07,1.38-4.11L13.05,109C12.59,110.3,12.14,111.63,11.71,113Zm294.69-9.31c-.52-1.32-1-2.62-1.6-3.93l4-1.67c.56,1.34,1.11,2.68,1.64,4Zm-291.13-.61-4-1.59c.54-1.34,1.09-2.67,1.66-4l3.95,1.69C16.32,100.44,15.79,101.74,15.27,103.05ZM302.2,93.94q-.9-1.92-1.86-3.81l3.84-1.94c.65,1.29,1.29,2.6,1.91,3.91ZM19.49,93.39l-3.88-1.85c.62-1.31,1.26-2.6,1.92-3.89l3.83,2C20.72,90.86,20.1,92.12,19.49,93.39Zm277.87-8.87c-.69-1.23-1.39-2.45-2.11-3.67l3.69-2.19c.74,1.24,1.47,2.5,2.18,3.77ZM24.35,84l-3.74-2.11c.71-1.26,1.43-2.51,2.18-3.75l3.68,2.21C25.75,81.59,25,82.81,24.35,84Zm267.54-8.57c-.77-1.18-1.55-2.35-2.35-3.51l3.53-2.44c.83,1.19,1.63,2.39,2.42,3.61ZM29.84,75l-3.6-2.36q1.2-1.81,2.43-3.59l3.53,2.45C31.4,72.67,30.61,73.84,29.84,75Zm256-8.22c-.85-1.13-1.71-2.24-2.59-3.35l3.36-2.67q1.35,1.69,2.66,3.44ZM35.92,66.39l-3.43-2.6c.88-1.15,1.76-2.29,2.67-3.42l3.35,2.68C37.63,64.15,36.77,65.26,35.92,66.39Zm243.27-7.82c-.92-1.07-1.86-2.12-2.8-3.17l3.17-2.89q1.47,1.6,2.89,3.25ZM42.57,58.18l-3.25-2.81c1-1.1,1.92-2.18,2.89-3.24L45.38,55C44.43,56.07,43.49,57.12,42.57,58.18ZM272,50.8c-1-1-2-2-3-3l3-3.11c1,1,2.08,2,3.1,3.05ZM49.76,50.44l-3-3q1.53-1.54,3.1-3l3,3.11C51.76,48.45,50.75,49.44,49.76,50.44Zm214.59-6.9q-1.59-1.4-3.21-2.76l2.76-3.29q1.67,1.4,3.29,2.83Zm-206.9-.35L54.61,40q1.64-1.44,3.3-2.83l2.75,3.3C59.58,41.35,58.51,42.26,57.45,43.19Zm198.76-6.38c-1.12-.86-2.25-1.7-3.38-2.53l2.53-3.47c1.17.85,2.32,1.72,3.47,2.6ZM65.62,36.48,63,33.07q1.73-1.32,3.49-2.6L69,34C67.87,34.78,66.74,35.62,65.62,36.48Zm182-5.83c-1.16-.79-2.34-1.55-3.54-2.3l2.3-3.64q1.83,1.16,3.64,2.37ZM74.22,30.33l-2.38-3.58q1.81-1.2,3.66-2.36L77.78,28C76.58,28.78,75.4,29.55,74.22,30.33Zm164.45-5.26c-1.22-.7-2.45-1.38-3.68-2.05l2-3.78c1.27.68,2.54,1.39,3.79,2.11Zm-155.45-.3L81.09,21Q83,20,84.9,18.94l2,3.78C85.68,23.39,84.45,24.08,83.22,24.77Zm146.14-4.65q-1.89-.93-3.81-1.8l1.78-3.91c1.32.6,2.62,1.21,3.92,1.85ZM92.59,19.84,90.72,16c1.3-.63,2.62-1.24,3.94-1.84l1.77,3.92C95.14,18.63,93.86,19.23,92.59,19.84Zm127.15-4c-1.3-.54-2.61-1.05-3.92-1.54l1.51-4c1.36.51,2.7,1,4,1.59Zm-117.47-.25-1.6-4c1.35-.54,2.7-1.07,4.06-1.57l1.5,4Q104.24,14.77,102.27,15.56Zm107.59-3.41c-1.33-.44-2.67-.86-4-1.27l1.24-4.11c1.39.42,2.76.85,4.13,1.3Zm-97.65-.21-1.32-4.09c1.37-.44,2.75-.87,4.14-1.28l1.22,4.12C114.9,11.09,113.55,11.51,112.21,11.94Zm87.53-2.76c-1.37-.35-2.73-.68-4.11-1l1-4.19c1.41.32,2.82.67,4.22,1ZM122.36,9l-1-4.17c1.4-.35,2.81-.68,4.22-1l.94,4.2C125.1,8.35,123.73,8.68,122.36,9ZM189.43,6.9c-1.39-.26-2.77-.5-4.17-.72l.67-4.25c1.44.23,2.86.48,4.28.74Zm-56.74-.11-.77-4.23c1.43-.25,2.85-.49,4.29-.71l.65,4.25Q134.76,6.41,132.69,6.79ZM179,5.32c-1.39-.16-2.8-.31-4.2-.43L175.16.6q2.18.19,4.32.45Zm-35.84-.06L142.66,1Q144.82.75,147,.57l.37,4.28C145.94,5,144.54,5.11,143.14,5.26Zm25.32-.81c-1.4-.07-2.81-.12-4.22-.15L164.33,0c1.45,0,2.9.08,4.33.15Zm-14.78,0-.2-4.29c1.45-.07,2.9-.11,4.34-.14l.08,4.3C156.5,4.32,155.09,4.37,153.68,4.43Z"/></g></g></svg>