<?xml version="1.0" encoding="utf-8"?>
<!-- Generator: Adobe Illustrator 22.1.0, SVG Export Plug-In . SVG Version: 6.00 Build 0)  -->
<svg version="1.1" id="Layer_1" xmlns="http://www.w3.org/2000/svg" xmlns:xlink="http://www.w3.org/1999/xlink" x="0px" y="0px"
	 viewBox="0 0 405.9 102.6" style="enable-background:new 0 0 405.9 102.6;" xml:space="preserve">
<style type="text/css">
	.st0{fill:#445464;}
	.st1{fill:#74B959;}
</style>
<g>
	<g>
		<path class="st0" d="M106.7,44h-6.2c-1.3,0-1.5,0.3-1.6,1.2c-0.1,1.1-0.4,2.4-1.3,3.3c-0.6,0.6-1.8,1.1-3.2,1.3v8.5
			c7.7-0.4,13.5-4.4,13.5-12.8v-0.2C108.1,44.4,107.7,44,106.7,44"/>
		<path class="st0" d="M60.1,15.5c-2.1,0-4,0.4-5.6,1.1v8.3c0.8-0.4,1.9-0.5,2.9-0.5c1.6,0,3.2,0.4,4.1,1.3c1,1,1.4,2.3,1.4,4.8
			v25.9c0,0.9,0.4,1.3,1.3,1.3h7.2c0.9,0,1.3-0.4,1.3-1.3V29.1c0-4.6-1.2-7.6-3.4-10C67.2,16.8,63.8,15.5,60.1,15.5"/>
		<path class="st0" d="M94.5,15.5V24c1.3,0.2,2.3,0.7,3.1,1.6c0.9,1.1,1.2,2.5,1.2,5.1v1.7h-11v-1.7c0-2.6,0.3-4,1.2-5.1
			c0.7-0.9,1.7-1.3,2.9-1.5v-8.6c-4.7,0.2-8.3,1.8-10.7,4.4c-2.4,2.5-3.3,5.7-3.3,10.7v12.2c0,5.4,1,8.6,3.2,11
			c2.4,2.6,6.2,4.2,10.8,4.4v-8.6c-1.3-0.2-2.2-0.7-2.9-1.5c-0.9-1-1.2-2.4-1.2-4.9v-3.1h19.4c1,0,1.4-0.4,1.4-1.3v-8.3
			c0-5-0.9-8.2-3.3-10.7C102.9,17.3,99.3,15.7,94.5,15.5"/>
		<path class="st0" d="M132.3,0.6H126c-4.5,0-7.6,0.8-9.5,2.7c-1.8,1.8-2.6,4.5-2.6,8.4v44.6c0,0.9,0.4,1.3,1.3,1.3h7.3
			c0.9,0,1.3-0.4,1.3-1.3v-32h7.7c0.9,0,1.3-0.4,1.3-1.3v-5.6c0-0.9-0.4-1.3-1.3-1.3h-7.7v-2.7c0-1.9,0.2-2.8,0.9-3.4
			c0.7-0.6,1.6-0.7,3.4-0.7h4.1c0.9,0,1.3-0.4,1.3-1.3v-6C133.6,1,133.2,0.6,132.3,0.6"/>
		<path class="st0" d="M19.3,9.4c4.6,0.5,6.9,3.5,6.9,8.2v0.6c0,1,0.5,1.5,1.5,1.5h6.7c1,0,1.5-0.5,1.5-1.5v-1.3
			C35.8,6.6,29.5,0.5,19.3,0V9.4z"/>
		<path class="st0" d="M51.9,18.1L51.9,18.1l0-16.1c0-0.9-0.4-1.3-1.3-1.3h-7.2C42.4,0.6,42,1,42,1.9v54.4c0,0.9,0.4,1.3,1.3,1.3
			h7.2c0.9,0,1.3-0.4,1.3-1.3V30.4c0-0.2,0-0.4,0-0.5V18.1z"/>
		<path class="st0" d="M23.4,25.4L17.6,23c-4.5-1.9-7.3-3.3-7.3-7.5c0-3.7,2.7-5.8,6.4-6.1V0C6.9,0.4,0.2,6.1,0.2,15.5
			C0.2,24.1,4,28.3,13,31.9l6.1,2.5c4.7,1.9,7.4,3.7,7.4,7.8c0,3.8-2.4,6.4-7.2,6.6v9.4c10.1-0.3,17.3-5.4,17.3-16.4
			C36.6,33.8,32.9,29.3,23.4,25.4"/>
		<path class="st0" d="M16.7,48.8c-5.2-0.6-6.9-4.2-6.9-8.5v-0.4c0-1-0.5-1.5-1.5-1.5H1.5c-1,0-1.5,0.5-1.5,1.5v1.2
			c0,9.7,5.4,16.6,16.7,17.2V48.8z"/>
		<path class="st0" d="M244.7,49c-0.9,0.5-2,0.7-3.2,0.7c-1.9,0-3.5-0.5-4.4-1.7c-0.9-1.1-1.3-2.5-1.3-5.1v-12c0-2.6,0.4-4,1.3-5.1
			c1-1.2,2.6-1.6,4.4-1.6c1.2,0,2.3,0.2,3.2,0.7v-8.2c-1.7-0.7-3.7-1.1-5.9-1.1c-3.7,0-7.3,1.3-9.6,3.7c-2.2,2.4-3.4,5.4-3.4,10
			v15.5c0,4.6,1.2,7.6,3.4,10c2.2,2.4,5.8,3.7,9.5,3.7c2.2,0,4.2-0.4,6-1.1V49z"/>
		<path class="st0" d="M219,0.6h-7.3c-0.9,0-1.3,0.4-1.3,1.3v54.4c0,0.9,0.4,1.3,1.3,1.3h7.3c0.9,0,1.3-0.4,1.3-1.3V1.9
			C220.3,1,219.9,0.6,219,0.6"/>
		<path class="st0" d="M255.8,0.6h-7.3c-0.9,0-1.3,0.4-1.3,1.3v54.8c0.1,0.7,0.5,1,1.3,1h2.2h5c0.9,0,1.3-0.4,1.3-1.3V1.9
			C257.2,1,256.7,0.6,255.8,0.6"/>
		<path class="st0" d="M154.7,0.6h-6.3c-4.4,0-7.6,0.8-9.5,2.7c-1.8,1.8-2.6,4.5-2.6,8.4v44.6c0,0.9,0.4,1.3,1.3,1.3h7.2
			c0.9,0,1.3-0.4,1.3-1.3v-32h7.7c0.9,0,1.3-0.4,1.3-1.3v-5.6c0-0.9-0.4-1.3-1.3-1.3h-7.7v-2.7c0-1.9,0.2-2.8,0.9-3.4
			c0.7-0.6,1.6-0.7,3.4-0.7h4.1c0.9,0,1.3-0.4,1.3-1.3v-6C156,1,155.6,0.6,154.7,0.6"/>
		<path class="st0" d="M190.9,15.5V24c1.3,0.2,2.3,0.7,3.1,1.6c0.9,1.1,1.2,2.5,1.2,5.1v1.7h-11v-1.7c0-2.6,0.3-4,1.2-5.1
			c0.7-0.9,1.7-1.3,2.9-1.5v-8.6c-4.7,0.2-8.3,1.8-10.7,4.4c-2.4,2.5-3.3,5.7-3.3,10.7v12.2c0,5.4,1,8.6,3.2,11
			c2.4,2.6,6.2,4.2,10.8,4.4v-8.6c-1.3-0.2-2.2-0.7-2.9-1.4c-0.9-1-1.2-2.4-1.2-4.9v-3.1h19.4c1,0,1.4-0.4,1.4-1.3v-8.3
			c0-5-0.9-8.2-3.3-10.7C199.2,17.3,195.7,15.7,190.9,15.5"/>
		<path class="st0" d="M203.1,44h-6.2c-1.3,0-1.5,0.3-1.6,1.2c-0.1,1.1-0.4,2.4-1.3,3.3c-0.6,0.6-1.8,1.1-3.2,1.3v8.5
			c7.7-0.4,13.6-4.4,13.6-12.8v-0.2C204.4,44.4,204,44,203.1,44"/>
		<path class="st0" d="M167.5,16.1h-7.2c-0.9,0-1.3,0.4-1.3,1.3v38.9c0,0.9,0.4,1.3,1.3,1.3h7.2c0.9,0,1.3-0.4,1.3-1.3V17.4
			C168.8,16.5,168.4,16.1,167.5,16.1"/>
		<path class="st0" d="M167.5,0.6h-7.2c-0.9,0-1.3,0.4-1.3,1.3v6.8c0,0.9,0.4,1.3,1.3,1.3h7.2c0.9,0,1.3-0.4,1.3-1.3V1.9
			C168.8,1,168.4,0.6,167.5,0.6"/>
		<path class="st1" d="M301.2,39.7c0-2-1.5-3.7-4-3.7h-13.8v7.3h13.8C299.7,43.3,301.2,41.8,301.2,39.7 M300.1,18.2
			c0-2-1.6-3.2-3.4-3.2h-13.3v6.7h13.3C298.5,21.7,300.1,20.3,300.1,18.2 M266.1,57.6v-57h34.6c11.8,0,16.9,7.9,16.9,14.5
			c0,7.1-4.2,11.9-9.7,13.1c6.2,0.9,10.9,6.6,10.9,13.9c0,7.9-5.4,15.5-16.8,15.5H266.1z"/>
	</g>
	<polygon class="st1" points="323.7,57.6 323.7,0.6 341,0.6 341,57.6 323.7,57.6 	"/>
	<g>
		<path class="st1" d="M388.4,29.1c0-7.7-4.4-13.4-13.7-13.4h-8.3v26.9h8.2C383.2,42.6,388.4,36.3,388.4,29.1 M349.1,57.6v-57h25.5
			c17.9,0,31.3,10.3,31.3,28.5c0,18.2-13.3,28.5-31.2,28.5H349.1z"/>
		<path class="st0" d="M7.1,94.2h2.8c1.7,0,2.7-1.2,2.7-2.8c0-1.6-1-2.8-2.7-2.8H6.5v5C6.5,94,6.7,94.2,7.1,94.2 M9.6,85.8
			c1.5,0,2.3-1.1,2.3-2.5c0-1.4-0.8-2.4-2.4-2.4h-3v4.9H9.6z M3,80.9H1.2v-3h8.4c3.5,0,6,1.8,6,5c0,2.2-1.2,3.5-2.3,4.1V87
			c2.1,0.6,3.1,2.6,3.1,4.5c0,3.9-3.1,5.6-6.7,5.6H4.8c-1.3,0-1.8-0.5-1.8-1.9V80.9z"/>
		<path class="st0" d="M19.6,86.9c0-0.4-0.2-0.6-0.6-0.6h-1.1v-2.9h3.3c1.3,0,1.8,0.6,1.8,1.8v6.4c0,1.7,0.4,2.8,2.1,2.8
			c2.5,0,3.9-2.2,3.9-4.7v-6.4h3.5v10.4c0,0.4,0.2,0.6,0.6,0.6h1.1v2.9H31c-1.2,0-1.8-0.6-1.8-1.6v-0.4c0-0.3,0-0.6,0-0.6h-0.1
			c-0.7,1.4-2.4,2.9-4.8,2.9c-3,0-4.8-1.5-4.8-5.3V86.9z"/>
		<path class="st0" d="M37.1,92.8c0,0,1.8,2,4.1,2c1.1,0,1.9-0.4,1.9-1.4c0-2-7.3-1.9-7.3-6.4c0-2.8,2.5-4.1,5.4-4.1
			c1.9,0,4.9,0.6,4.9,2.9v1.4h-3v-0.7c0-0.7-1-1-1.7-1c-1.2,0-2.1,0.4-2.1,1.2c0,2.2,7.4,1.7,7.4,6.4c0,2.6-2.3,4.2-5.3,4.2
			c-3.8,0-5.8-2.5-5.8-2.5L37.1,92.8z"/>
		<path class="st0" d="M50,77.9h3v3.2h-3V77.9z M49.9,86.9c0-0.4-0.2-0.6-0.6-0.6h-1.1v-2.9h3.3c1.3,0,1.8,0.6,1.8,1.8v8.5
			c0,0.4,0.2,0.6,0.6,0.6H55v2.9h-3.3c-1.3,0-1.8-0.5-1.8-1.8V86.9z"/>
		<path class="st0" d="M57.9,86.9c0-0.4-0.2-0.6-0.6-0.6h-1.1v-2.9h3.2c1.2,0,1.8,0.6,1.8,1.6v0.4c0,0.3-0.1,0.6-0.1,0.6h0.1
			c0.6-1.2,2.1-2.9,4.9-2.9c3.1,0,4.8,1.6,4.8,5.3v5.4c0,0.4,0.2,0.6,0.6,0.6h1.1v2.9h-3.3c-1.3,0-1.9-0.5-1.9-1.9V89
			c0-1.7-0.4-2.8-2.2-2.8c-1.9,0-3.2,1.2-3.7,2.8c-0.2,0.6-0.3,1.2-0.3,1.9v6.4h-3.4V86.9z"/>
		<path class="st0" d="M83.7,88.5c-0.1-1.7-1.2-2.8-2.6-2.8c-1.8,0-3,1.1-3.4,2.8H83.7z M81.1,83c4,0,6.2,2.9,6.2,6.6
			c0,0.4-0.1,1.3-0.1,1.3h-9.6c0.3,2.4,2.1,3.7,4.2,3.7c2.2,0,3.9-1.6,3.9-1.6l1.4,2.4c0,0-2.1,2.1-5.6,2.1c-4.6,0-7.5-3.3-7.5-7.3
			C74,86,76.9,83,81.1,83"/>
		<path class="st0" d="M90.6,92.8c0,0,1.8,2,4.1,2c1.1,0,1.9-0.4,1.9-1.4c0-2-7.3-1.9-7.3-6.4c0-2.8,2.5-4.1,5.4-4.1
			c1.9,0,4.9,0.6,4.9,2.9v1.4h-3v-0.7c0-0.7-1-1-1.7-1c-1.2,0-2.1,0.4-2.1,1.2c0,2.2,7.4,1.7,7.4,6.4c0,2.6-2.3,4.2-5.3,4.2
			c-3.8,0-5.8-2.5-5.8-2.5L90.6,92.8z"/>
		<path class="st0" d="M103.4,92.8c0,0,1.8,2,4.1,2c1.1,0,1.9-0.4,1.9-1.4c0-2-7.3-1.9-7.3-6.4c0-2.8,2.5-4.1,5.4-4.1
			c1.9,0,4.9,0.6,4.9,2.9v1.4h-3v-0.7c0-0.7-1-1-1.7-1c-1.2,0-2.1,0.4-2.1,1.2c0,2.2,7.4,1.7,7.4,6.4c0,2.6-2.3,4.2-5.3,4.2
			c-3.8,0-5.8-2.5-5.8-2.5L103.4,92.8z"/>
	</g>
	<polygon class="st0" points="122,94.2 124,94.2 124,80.9 122,80.9 122,77.9 129.3,77.9 129.3,80.9 127.3,80.9 127.3,94.2 
		129.3,94.2 129.3,97.2 122,97.2 	"/>
	<g>
		<path class="st0" d="M132.6,86.9c0-0.4-0.2-0.6-0.6-0.6h-1.1v-2.9h3.2c1.2,0,1.8,0.6,1.8,1.6v0.4c0,0.3,0,0.6,0,0.6h0.1
			c0.7-1.4,2.3-2.9,4.5-2.9c2.1,0,3.5,1,4.1,2.9h0.1c0.7-1.5,2.5-2.9,4.7-2.9c2.9,0,4.5,1.6,4.5,5.3v5.4c0,0.4,0.2,0.6,0.6,0.6h1.1
			v2.9h-3.3c-1.3,0-1.9-0.5-1.9-1.9v-6.4c0-1.6-0.3-2.8-1.9-2.8c-1.7,0-2.9,1.4-3.3,3.2c-0.2,0.5-0.2,1.1-0.2,1.8v6.1h-3.5v-8.3
			c0-1.5-0.2-2.8-1.9-2.8c-1.7,0-2.9,1.4-3.4,3.2c-0.1,0.5-0.2,1.1-0.2,1.7v6.1h-3.4V86.9z"/>
		<path class="st0" d="M165,94.6c1.9,0,3.5-1.6,3.5-4.3c0-2.6-1.4-4.4-3.5-4.4c-1.8,0-3.5,1.3-3.5,4.4
			C161.6,92.5,162.7,94.6,165,94.6 M158.2,86.9c0-0.4-0.2-0.6-0.6-0.6h-1.1v-2.9h3.1c1.3,0,1.7,0.6,1.7,1.3v0.5h0.1
			c0,0,1.2-2.2,4.4-2.2c3.8,0,6.2,3,6.2,7.3c0,4.4-2.7,7.3-6.4,7.3c-2.8,0-4-1.8-4-1.8h-0.1c0,0,0.1,0.5,0.1,1.2v5.7h-3.4V86.9z"/>
		<path class="st0" d="M175.1,86.9c0-0.4-0.2-0.6-0.6-0.6h-1.1v-2.9h3.2c1.2,0,1.9,0.5,1.9,1.7v0.8c0,0.5-0.1,0.9-0.1,0.9h0.1
			c0.6-2,2.3-3.6,4.4-3.6c0.3,0,0.6,0.1,0.6,0.1v3.4c0,0-0.4-0.1-0.8-0.1c-1.5,0-3.2,0.8-3.8,2.9c-0.2,0.7-0.3,1.4-0.3,2.3v5.5h-3.4
			V86.9z"/>
		<path class="st0" d="M192.1,94.6c2.3,0,4.1-1.7,4.1-4.3c0-2.6-1.9-4.3-4.1-4.3c-2.2,0-4.1,1.8-4.1,4.3
			C187.9,92.8,189.8,94.6,192.1,94.6 M192.1,83c4.2,0,7.6,3,7.6,7.3c0,4.3-3.4,7.3-7.6,7.3c-4.2,0-7.6-3-7.6-7.3
			C184.5,86,187.8,83,192.1,83"/>
		<path class="st0" d="M201.7,86.7c-0.1-0.4-0.4-0.5-0.8-0.5h-0.3v-2.9h2c1.1,0,1.7,0.4,2,1.3l2.6,7.3c0.3,0.8,0.5,2,0.5,2h0.1
			c0,0,0.2-1.2,0.5-2l2.6-7.3c0.4-1,0.9-1.3,2-1.3h1.9v2.9h-0.3c-0.4,0-0.6,0.1-0.8,0.5l-4,10.5h-4.1L201.7,86.7z"/>
		<path class="st0" d="M225.4,88.5c-0.1-1.7-1.2-2.8-2.6-2.8c-1.8,0-3,1.1-3.4,2.8H225.4z M222.8,83c4,0,6.2,2.9,6.2,6.6
			c0,0.4-0.1,1.3-0.1,1.3h-9.6c0.3,2.4,2.1,3.7,4.2,3.7c2.2,0,3.9-1.6,3.9-1.6l1.4,2.4c0,0-2.1,2.1-5.6,2.1c-4.6,0-7.5-3.3-7.5-7.3
			C215.7,86,218.6,83,222.8,83"/>
		<path class="st0" d="M232.3,86.9c0-0.4-0.2-0.6-0.6-0.6h-1.1v-2.9h3.2c1.2,0,1.8,0.6,1.8,1.6v0.4c0,0.3,0,0.6,0,0.6h0.1
			c0.7-1.4,2.3-2.9,4.5-2.9c2.1,0,3.5,1,4.1,2.9h0.1c0.7-1.5,2.5-2.9,4.7-2.9c2.9,0,4.5,1.6,4.5,5.3v5.4c0,0.4,0.2,0.6,0.6,0.6h1.1
			v2.9h-3.3c-1.3,0-1.9-0.5-1.9-1.9v-6.4c0-1.6-0.3-2.8-1.9-2.8c-1.7,0-2.9,1.4-3.3,3.2c-0.2,0.5-0.2,1.1-0.2,1.8v6.1h-3.5v-8.3
			c0-1.5-0.2-2.8-1.9-2.8c-1.7,0-2.9,1.4-3.4,3.2c-0.1,0.5-0.2,1.1-0.2,1.7v6.1h-3.4V86.9z"/>
		<path class="st0" d="M266.2,88.5c-0.1-1.7-1.2-2.8-2.6-2.8c-1.8,0-3,1.1-3.4,2.8H266.2z M263.6,83c4,0,6.2,2.9,6.2,6.6
			c0,0.4-0.1,1.3-0.1,1.3h-9.6c0.3,2.4,2.1,3.7,4.2,3.7c2.2,0,3.9-1.6,3.9-1.6l1.4,2.4c0,0-2.1,2.1-5.6,2.1c-4.6,0-7.5-3.3-7.5-7.3
			C256.5,86,259.4,83,263.6,83"/>
		<path class="st0" d="M273.1,86.9c0-0.4-0.2-0.6-0.6-0.6h-1.1v-2.9h3.2c1.2,0,1.8,0.6,1.8,1.6v0.4c0,0.3-0.1,0.6-0.1,0.6h0.1
			c0.6-1.2,2.1-2.9,4.9-2.9c3.1,0,4.8,1.6,4.8,5.3v5.4c0,0.4,0.2,0.6,0.6,0.6h1.1v2.9h-3.3c-1.3,0-1.9-0.5-1.9-1.9V89
			c0-1.7-0.4-2.8-2.2-2.8c-1.9,0-3.2,1.2-3.7,2.8c-0.2,0.6-0.3,1.2-0.3,1.9v6.4h-3.4V86.9z"/>
		<path class="st0" d="M290.6,86.1h-1.8v-2.7h1.9v-3.8h3.4v3.8h3.2v2.7h-3.2v5.6c0,2.3,1.8,2.6,2.8,2.6c0.4,0,0.6-0.1,0.6-0.1v3
			c0,0-0.4,0.1-1.1,0.1c-1.9,0-5.8-0.6-5.8-5.2V86.1z"/>
		<path class="st0" d="M312.5,94.2h1.7c3.9,0,6.3-2.3,6.3-6.7c0-4.3-2.5-6.6-6.3-6.6h-2.3v12.7C311.9,94,312.1,94.2,312.5,94.2
			 M308.3,80.9h-1.8v-3h7.9c6,0,9.9,3.5,9.9,9.6c0,6.1-3.9,9.7-9.9,9.7h-4.3c-1.3,0-1.9-0.5-1.9-1.9V80.9z"/>
		<path class="st0" d="M327.8,77.9h3v3.2h-3V77.9z M327.6,86.9c0-0.4-0.2-0.6-0.6-0.6h-1.1v-2.9h3.3c1.3,0,1.8,0.6,1.8,1.8v8.5
			c0,0.4,0.2,0.6,0.6,0.6h1.1v2.9h-3.3c-1.3,0-1.8-0.5-1.8-1.8V86.9z"/>
		<path class="st0" d="M335.7,92.8c0,0,1.8,2,4.1,2c1.1,0,1.9-0.4,1.9-1.4c0-2-7.3-1.9-7.3-6.4c0-2.8,2.5-4.1,5.4-4.1
			c1.9,0,4.9,0.6,4.9,2.9v1.4h-3v-0.7c0-0.7-1-1-1.7-1c-1.2,0-2.1,0.4-2.1,1.2c0,2.2,7.4,1.7,7.4,6.4c0,2.6-2.3,4.2-5.3,4.2
			c-3.8,0-5.8-2.5-5.8-2.5L335.7,92.8z"/>
		<path class="st0" d="M348.5,86.1h-1.8v-2.7h1.9v-3.8h3.4v3.8h3.2v2.7h-3.2v5.6c0,2.3,1.8,2.6,2.7,2.6c0.4,0,0.6-0.1,0.6-0.1v3
			c0,0-0.4,0.1-1.1,0.1c-1.9,0-5.8-0.6-5.8-5.2V86.1z"/>
		<path class="st0" d="M358.5,86.9c0-0.4-0.2-0.6-0.6-0.6h-1.1v-2.9h3.2c1.2,0,1.9,0.5,1.9,1.7v0.8c0,0.5-0.1,0.9-0.1,0.9h0.1
			c0.6-2,2.3-3.6,4.4-3.6c0.3,0,0.6,0.1,0.6,0.1v3.4c0,0-0.4-0.1-0.8-0.1c-1.5,0-3.2,0.8-3.8,2.9c-0.2,0.7-0.3,1.4-0.3,2.3v5.5h-3.4
			V86.9z"/>
		<path class="st0" d="M370,77.9h3v3.2h-3V77.9z M369.8,86.9c0-0.4-0.2-0.6-0.6-0.6h-1.1v-2.9h3.3c1.3,0,1.8,0.6,1.8,1.8v8.5
			c0,0.4,0.2,0.6,0.6,0.6h1.1v2.9h-3.3c-1.3,0-1.8-0.5-1.8-1.8V86.9z"/>
		<path class="st0" d="M384,83c1.8,0,5,0.7,5,3.1v1.6h-3V87c0-0.8-1.1-1.1-2-1.1c-2.4,0-4.1,1.8-4.1,4.3c0,2.8,2.1,4.3,4.3,4.3
			c2.4,0,4.1-1.9,4.1-1.9l1.4,2.4c0,0-2.1,2.5-5.9,2.5c-4.6,0-7.5-3.2-7.5-7.3C376.4,86.3,379.3,83,384,83"/>
		<path class="st0" d="M392.5,86.1h-1.8v-2.7h1.9v-3.8h3.4v3.8h3.2v2.7H396v5.6c0,2.3,1.8,2.6,2.8,2.6c0.4,0,0.6-0.1,0.6-0.1v3
			c0,0-0.4,0.1-1.1,0.1c-1.9,0-5.8-0.6-5.8-5.2V86.1z"/>
	</g>
</g>
</svg>
