<svg xmlns="http://www.w3.org/2000/svg" viewBox="0 0 105.39 62.95">
  <title>Asset 1</title>
  <g id="Layer_2" data-name="Layer 2">
    <g id="Layer_1-2" data-name="Layer 1">
      <g>
        <path d="M6,62.27V8.83H0V.67H20.06V8.83H14.15V62.27Z" style="fill: #231f20"/>
        <path d="M35.63,62.27C34.8,53.14,34,43.93,32.78,34.8H31.44V62.27H23.28V.67H33c7.33,0,11,3,11,11.08V24.47c0,4.72-1,7.19-3.52,8.69,1.57,9.73,2.85,19.53,4,29.11Zm.15-50.52c0-1.94-.9-2.92-2.77-2.92H31.44V27.39h1.64c1.8,0,2.7-1,2.7-2.84Z" style="fill: #231f20"/>
        <path d="M48.35,62.27V.67h8.16v61.6Z" style="fill: #231f20"/>
        <path d="M61.75,62.27V.67H71.93c6.74,0,9.43,3.52,9.43,10.86V24.25c0,2.84-1,5.31-2.84,6.14,1.87.6,3.59,2.69,3.59,6.13V51.87c0,7.26-3.44,10.4-10.18,10.4Zm12-51.12c0-1.49-.6-2.32-1.87-2.32h-2V27.32H72c1.2,0,1.8-.75,1.8-2.32Zm0,25.6c0-1.57-.6-2.32-1.8-2.32H69.91V54.11h2c1.27,0,1.87-.82,1.87-2.32Z" style="fill: #231f20"/>
        <path d="M97.45,37.05c0-1.5-.6-2.32-1.94-2.32H92.36V27h3.52c1.05,0,1.5-.82,1.5-2.32V10.48c0-1.57-.6-2.32-1.87-2.32s-1.8.75-1.8,2.32v11h-8V10.63C85.7,3.14,88.77,0,95.51,0s9.73,3.14,9.73,10.7v14c0,3-1,4.86-3.59,6.21,2.46.9,3.74,3,3.74,6.44V52.47c0,6.28-3.15,10.48-9.88,10.48s-10-4.2-10-10.41V40.42h8.23v12c0,1.57.6,2.32,1.8,2.32s1.94-.75,1.94-2.32Z" style="fill: #231f20"/>
      </g>
    </g>
  </g>
</svg>
