<svg xmlns="http://www.w3.org/2000/svg" xmlns:xlink="http://www.w3.org/1999/xlink" viewBox="0 0 379.2 99.51">
  <defs>
    <linearGradient id="linear-gradient" x1="47.47" y1="2.77" x2="47.47" y2="98.42" gradientUnits="userSpaceOnUse">
      <stop offset="0" stop-color="#f58220"/>
      <stop offset="0.04" stop-color="#f57f21"/>
      <stop offset="0.36" stop-color="#f36b25"/>
      <stop offset="0.69" stop-color="#f15e28"/>
      <stop offset="1" stop-color="#f15a29"/>
    </linearGradient>
    <clipPath id="clip-path">
      <rect x="37.93" y="3.15" width="19.07" height="27.65" style="fill: url(#linear-gradient)"/>
    </clipPath>
    <linearGradient id="linear-gradient-3" x1="-232.01" y1="668.14" x2="-231.46" y2="668.14" gradientTransform="matrix(0, 174.1, 174.1, 0, -116278.83, 40396.73)" xlink:href="#linear-gradient"/>
    <linearGradient id="linear-gradient-4" x1="47.3" y1="2.73" x2="47.3" y2="99.99" xlink:href="#linear-gradient"/>
  </defs>
  <title>Asset 1</title>
  <g id="Layer_2" data-name="Layer 2">
    <g id="Layer_1-2" data-name="Layer 1">
      <path d="M135,7.57a6.44,6.44,0,0,1,1.83-3.48,5.6,5.6,0,0,1,3.58-1,8.25,8.25,0,0,1,3,.41,9.08,9.08,0,0,1,1.36.64c.26,1.17.57,2.59,1,4.29S146.55,12,147,14s1,4.08,1.45,6.21,1,4.2,1.5,6.2,1,3.89,1.4,5.62.81,3.19,1.15,4.34c.49-1.45,1-3.11,1.6-5s1.16-3.83,1.74-5.84,1.15-4,1.71-6,1.07-3.84,1.52-5.52.85-3.12,1.18-4.34.57-2.06.74-2.51a6.92,6.92,0,0,1,1.77-3,5.34,5.34,0,0,1,3.64-1.05,6.69,6.69,0,0,1,1.91.25,9,9,0,0,1,1.53.56,6.15,6.15,0,0,1,1,.59l.43.34q-2.43,9-6,19.43c-2,5.9-4.22,12-6.71,18.16A6.71,6.71,0,0,1,146,42c-.63-2.2-1.52-5.48-2.23-8.19s-1.39-5.44-2.07-8.19-1.24-5.13-1.65-7.11c-.5,2.12-1,4.44-1.67,7s-1.27,5.06-2,7.54-2.46,8.54-2.65,9.11a6.31,6.31,0,0,1-6.18,4.49,6.75,6.75,0,0,1-6.39-4.21c-.27-.71-2.26-6-3-8.18l-2.29-6.51c-.77-2.18-1.47-4.19-2.12-6.05s-1.18-3.48-1.64-4.88-.78-2.39-1-3q-.69-2.1-1.11-3.72a11.33,11.33,0,0,1-.44-3,4.55,4.55,0,0,1,.22-1.43,3.18,3.18,0,0,1,.74-1.24,4,4,0,0,1,1.37-.9A5.64,5.64,0,0,1,114,3.1a9.38,9.38,0,0,1,2.92.37,6.77,6.77,0,0,1,1.11.44c.33,1.28.74,2.82,1.24,4.59s1,3.68,1.61,5.71,1.19,4.11,1.83,6.26,1.26,4.22,1.87,6.18,1.16,3.8,1.7,5.5,1,3.08,1.43,4.16c.66-2.16,1.34-4.54,2-7.15s1.33-5.22,2-7.85,1.24-5.13,1.81-7.54S134.59,9.31,135,7.57Z" style="fill: #546670"/>
      <path d="M200.11,25.25a11.06,11.06,0,0,1-.52,3.48,6.5,6.5,0,0,1-1.68,2.64,7.71,7.71,0,0,1-3,1.67,15.73,15.73,0,0,1-4.69.6H177.77a7.22,7.22,0,0,0,3,4.31,10.56,10.56,0,0,0,6.39,1.76,26.94,26.94,0,0,0,6.91-.76,3.29,3.29,0,0,1,4,2.29,3.4,3.4,0,0,1-2.3,4.16,32.67,32.67,0,0,1-4.87,1.05,33.81,33.81,0,0,1-4.84.34,22.7,22.7,0,0,1-6.86-1,15.24,15.24,0,0,1-5.47-3,14.07,14.07,0,0,1-3.62-5.15,18.8,18.8,0,0,1-1.31-7.32A19.84,19.84,0,0,1,170,23.21a15.64,15.64,0,0,1,3.42-5.43,15.16,15.16,0,0,1,5.3-3.51,18.39,18.39,0,0,1,6.9-1.24,18.57,18.57,0,0,1,6.23,1,13.22,13.22,0,0,1,4.54,2.64,11.08,11.08,0,0,1,2.75,3.91A12,12,0,0,1,200.11,25.25Zm-8.2-.74a5.94,5.94,0,0,0-.33-1.86,5.09,5.09,0,0,0-1.09-1.8,5.66,5.66,0,0,0-2-1.34,7.87,7.87,0,0,0-3-.52,6.75,6.75,0,0,0-3.47.87A8.39,8.39,0,0,0,179.51,22,9.25,9.25,0,0,0,178,24.88a9.82,9.82,0,0,0-.49,3h11.11c1.36,0,2.24-.27,2.66-.83A4.28,4.28,0,0,0,191.91,24.51Z" style="fill: #546670"/>
      <path d="M330.72,25.25a10.78,10.78,0,0,1-.53,3.48,6.38,6.38,0,0,1-1.67,2.64,7.71,7.71,0,0,1-3,1.67,15.78,15.78,0,0,1-4.69.6H308.38a7.22,7.22,0,0,0,3,4.31,10.56,10.56,0,0,0,6.39,1.76,27,27,0,0,0,6.91-.76,3.27,3.27,0,0,1,4,2.29,3.39,3.39,0,0,1-2.29,4.16,33,33,0,0,1-4.87,1.05,33.84,33.84,0,0,1-4.85.34,22.68,22.68,0,0,1-6.85-1,15.2,15.2,0,0,1-5.46-3,13.86,13.86,0,0,1-3.63-5.15,18.81,18.81,0,0,1-1.3-7.32,19.84,19.84,0,0,1,1.2-7.08,15.64,15.64,0,0,1,3.42-5.43,15,15,0,0,1,5.3-3.51A18.33,18.33,0,0,1,316.26,13a18.59,18.59,0,0,1,6.24,1A13.08,13.08,0,0,1,327,16.63a11,11,0,0,1,2.76,3.91A12.14,12.14,0,0,1,330.72,25.25Zm-8.2-.74a5.67,5.67,0,0,0-.33-1.86,5.09,5.09,0,0,0-1.09-1.8,5.7,5.7,0,0,0-2-1.34,7.78,7.78,0,0,0-3-.52,6.75,6.75,0,0,0-3.47.87A8.27,8.27,0,0,0,310.12,22a9.25,9.25,0,0,0-1.49,2.85,9.55,9.55,0,0,0-.5,3h11.11c1.36,0,2.26-.27,2.66-.83A4.2,4.2,0,0,0,322.52,24.51Z" style="fill: #546670"/>
      <path d="M217.92,19.55c-2.44,0-4.11.29-5,.89a2.65,2.65,0,0,0-1.33,2.27,2.2,2.2,0,0,0,1.11,2,9.32,9.32,0,0,0,3.72,1l5.34.68c3.88.5,6.73,1.52,8.5,3a7.86,7.86,0,0,1,2.67,6.27,9.58,9.58,0,0,1-3.81,7.91q-3.82,3-11.34,3a32,32,0,0,1-6.29-.56,38.47,38.47,0,0,1-4.72-1.28,14.53,14.53,0,0,1-1.85-.78,3.39,3.39,0,0,1-1.65-4.35,3.28,3.28,0,0,1,4.44-1.77c.46.16,1.06.39,1.61.61a24.7,24.7,0,0,0,3.72,1.08,22.11,22.11,0,0,0,4.69.47,10.24,10.24,0,0,0,4.68-.78A2.45,2.45,0,0,0,223.81,37a2.36,2.36,0,0,0-1.14-2.15,11.08,11.08,0,0,0-4.07-1.08l-4.09-.5a24.73,24.73,0,0,1-4.81-1,11.78,11.78,0,0,1-3.63-1.83,7.94,7.94,0,0,1-2.3-2.82,9.21,9.21,0,0,1-.8-4,10.19,10.19,0,0,1,.78-4,8.37,8.37,0,0,1,2.44-3.29,12.49,12.49,0,0,1,4.41-2.23,22.4,22.4,0,0,1,6.64-.84,33,33,0,0,1,7,.61A21,21,0,0,1,228,15q3.36,1.42,3.36,3.91a3.81,3.81,0,0,1-.88,2.6A7.45,7.45,0,0,1,228.66,23l-.81-.68a10,10,0,0,0-2-1.18A19,19,0,0,0,222.58,20,19.49,19.49,0,0,0,217.92,19.55Z" style="fill: #546670"/>
      <path d="M248.39,21.16V34.87c0,1.83.43,3.06,1.28,3.7a5.35,5.35,0,0,0,3.31,1,6.47,6.47,0,0,0,1.71-.22,9.27,9.27,0,0,0,1.49-.5,3.27,3.27,0,0,1,4.37,1.27,3.17,3.17,0,0,1-1.26,4.35,16.91,16.91,0,0,1-4.16,1.68,15.84,15.84,0,0,1-4.13.5q-6,0-8.63-3a11.48,11.48,0,0,1-2.66-7.88V21.16h-2.05a3.85,3.85,0,0,1-2.95-.93,3.8,3.8,0,0,1-.83-2.61,6.42,6.42,0,0,1,.36-2.26l.5-1.27h5V8.63a3.22,3.22,0,0,1,1.23-2.92,6,6,0,0,1,3.3-.81,11,11,0,0,1,2.64.31c.8.21,1.31.35,1.51.43v8.45H255a3.82,3.82,0,0,1,3,.93,3.79,3.79,0,0,1,.83,2.6,6.28,6.28,0,0,1-.37,2.27c-.25.64-.41,1.07-.5,1.27Z" style="fill: #546670"/>
      <path d="M287.49,21.16H274.82v21a4.34,4.34,0,1,1-8.68,0v-21h-2.05a3.86,3.86,0,0,1-2.95-.93,3.81,3.81,0,0,1-.84-2.61,6,6,0,0,1,.39-2.26c.24-.64.4-1.07.49-1.27h5V12.23A12.41,12.41,0,0,1,267.2,7a10,10,0,0,1,3-3.82A14,14,0,0,1,274.93.8,22,22,0,0,1,281,0a20,20,0,0,1,6,.68c1.35.46,2.24.79,2.7,1a7.89,7.89,0,0,1,1.46,1A2.82,2.82,0,0,1,292,5a4.55,4.55,0,0,1-.62,2.39A5.79,5.79,0,0,1,290,9a7.71,7.71,0,0,1-.77-.49,10.77,10.77,0,0,0-1.78-.9,18.9,18.9,0,0,0-2.54-.84,12,12,0,0,0-3-.37q-3.72,0-5.36,1.61a5.23,5.23,0,0,0-1.66,3.85v2.24h17.57a3.81,3.81,0,0,1,2.95.93,3.75,3.75,0,0,1,.84,2.6V42.25a4.33,4.33,0,0,1-4.29,4.33,4.42,4.42,0,0,1-4.4-4.33Z" style="fill: #546670"/>
      <path d="M334.27,3.72A3.22,3.22,0,0,1,335.51.8a6,6,0,0,1,3.28-.8,10.39,10.39,0,0,1,2.64.31c.81.21,1.32.35,1.53.43V42.27a4.38,4.38,0,0,1-4.32,4.38,4.44,4.44,0,0,1-4.37-4.38Z" style="fill: #546670"/>
      <path d="M379.2,40.42a5.48,5.48,0,0,1-4.88,5.79c-2.16.24-5.73.4-7.22.4q-10.17,0-15.27-4.69t-5.08-13a18.13,18.13,0,0,1,1.17-6.76,14.65,14.65,0,0,1,3.19-4.9,13.68,13.68,0,0,1,4.66-3,15.44,15.44,0,0,1,5.62-1A12.59,12.59,0,0,1,368,15a10.37,10.37,0,0,1,1.77,1.33c.41.41.66.69.75.8V3.72A3.22,3.22,0,0,1,371.75.8,6,6,0,0,1,375,0a10.5,10.5,0,0,1,2.64.31c.8.21,1.31.35,1.52.43ZM355.68,29.85a12.76,12.76,0,0,0,.59,4,8.69,8.69,0,0,0,1.8,3.2,8,8,0,0,0,3.1,2.11,12.44,12.44,0,0,0,4.5.74,21.67,21.67,0,0,0,3.23-.19,6.34,6.34,0,0,0,1.62-.37V28.49a9.38,9.38,0,0,0-1.81-5.9,6.37,6.37,0,0,0-5.4-2.36,6.68,6.68,0,0,0-5.62,2.64A11.26,11.26,0,0,0,355.68,29.85Z" style="fill: #546670"/>
      <g>
        <g>
          <rect x="37.93" y="3.15" width="19.07" height="27.65" style="fill: url(#linear-gradient)"/>
          <g style="clip-path: url(#clip-path)">
            <rect x="37.93" y="3.15" width="19.07" height="27.65" style="fill: url(#linear-gradient-3)"/>
          </g>
        </g>
        <path d="M75.54,3.15V72.07c0,4.4-2.71,6.91-5.44,6.91H63a6,6,0,0,1-6-6V46.93H37.93V73a5.59,5.59,0,0,1-6,6h-7c-3.75,0-5.8-3.11-5.8-7.09V3.15H0V75.06C0,90.62,12.19,99.51,28.49,99.51c8.72,0,14.7-4.16,18.84-7.3,4.15,3.14,10.4,7.3,19.21,7.3C82.84,99.51,94.59,91,94.59,76V3.11Z" style="fill: url(#linear-gradient-4)"/>
      </g>
      <path d="M142.42,96.4v-19H116.15v19A2.12,2.12,0,0,1,114,98.59a2.23,2.23,0,0,1-2.18-2.16V57.11a2.44,2.44,0,0,1,.54-1.64,2.28,2.28,0,0,1,1.8-.62,3.92,3.92,0,0,1,2,.5V73.67h26.27V57.11a2.43,2.43,0,0,1,.53-1.64,2.16,2.16,0,0,1,1.72-.62,3.9,3.9,0,0,1,1.24.18,4.92,4.92,0,0,1,.84.38v41a2.17,2.17,0,1,1-4.33,0Z" style="fill: #546670"/>
      <path d="M155.54,84.88q.63,5.36,3.62,7.84c2,1.65,4.75,2.48,8.28,2.48a16.78,16.78,0,0,0,5.54-.85c1.1-.38,1.92-.73,2.63-1a1.77,1.77,0,1,1,1.63,3.14,17.85,17.85,0,0,1-3,1.3,27.69,27.69,0,0,1-3.34.82,22,22,0,0,1-4,.35,18.84,18.84,0,0,1-6.23-1,13.9,13.9,0,0,1-5-3A14.36,14.36,0,0,1,152.2,90a17.34,17.34,0,0,1-1.26-6.83,19.11,19.11,0,0,1,1.23-6.93,16.74,16.74,0,0,1,3.37-5.41,15,15,0,0,1,5.11-3.53A16,16,0,0,1,167,66.05c4.29,0,7.53,1,9.76,3.09s3.34,4.93,3.34,8.62A7.25,7.25,0,0,1,178.3,83c-1.19,1.24-3.14,1.86-5.82,1.86Zm15.24-3.34a7.5,7.5,0,0,0,3.87-.82c.9-.54,1.35-1.7,1.35-3.46a9.35,9.35,0,0,0-.46-2.93A6.67,6.67,0,0,0,174,71.84a7.44,7.44,0,0,0-2.77-1.72,11.54,11.54,0,0,0-4.19-.67,10.88,10.88,0,0,0-4.91,1.07,11.28,11.28,0,0,0-3.59,2.77,12.56,12.56,0,0,0-2.23,3.88,13.72,13.72,0,0,0-.85,4.37Z" style="fill: #546670"/>
      <path d="M195,69.52a13.64,13.64,0,0,0-5.57.91,11.65,11.65,0,0,0-2.81,1.67,3.1,3.1,0,0,1-.78-.91,2.56,2.56,0,0,1-.35-1.3,2.06,2.06,0,0,1,.35-1.19,4,4,0,0,1,.85-.89,9.48,9.48,0,0,1,2.52-1.13,18.54,18.54,0,0,1,5.54-.63q7.54,0,11.39,3.09T210,79.08V94.15a4.2,4.2,0,0,1-4,4.22,62.57,62.57,0,0,1-9.13.55,25.36,25.36,0,0,1-7.71-.94,11.56,11.56,0,0,1-4.37-2.4,6.63,6.63,0,0,1-2-3.24,14.32,14.32,0,0,1-.44-3.49,12.08,12.08,0,0,1,.66-4,7.86,7.86,0,0,1,2.27-3.31,11.13,11.13,0,0,1,4.34-2.2,24.93,24.93,0,0,1,6.83-.79c.92,0,1.87,0,2.84.06l2.7.13,2.26.12c.68,0,1.2.06,1.59.06v-.12c0-3-.85-5.32-2.52-6.9S198.89,69.52,195,69.52Zm10.9,13a12.15,12.15,0,0,0-1.26-.16c-.63-.06-1.37-.13-2.21-.19s-1.75-.11-2.74-.16-1.92-.06-2.8-.06a15.82,15.82,0,0,0-7.49,1.51c-1.86,1-2.78,2.81-2.78,5.42a5.94,5.94,0,0,0,2.28,5.09c1.5,1.14,4.22,1.7,8.12,1.7a43.93,43.93,0,0,0,6.1-.31,18.76,18.76,0,0,0,2.78-.56Z" style="fill: #546670"/>
      <path d="M216.42,53.77a2,2,0,0,1,2.26-2.14,3.82,3.82,0,0,1,1.11.16,5.13,5.13,0,0,1,.78.29V96.47a2.08,2.08,0,1,1-4.15,0Z" style="fill: #546670"/>
      <path d="M230.1,58.75a2,2,0,0,1,2.26-2.15,4.19,4.19,0,0,1,1.11.16,5.38,5.38,0,0,1,.78.29v9.89h9.44a2.58,2.58,0,0,1,1.48.4,1.61,1.61,0,0,1,.6,1.42,2.88,2.88,0,0,1-.21,1.17c-.16.31-.27.53-.35.65h-11V89.16c0,2.31.5,3.92,1.51,4.85a5.77,5.77,0,0,0,4.16,1.38,9.16,9.16,0,0,0,5-1.39,1.63,1.63,0,0,1,2.31.68,1.69,1.69,0,0,1-.56,2.09,8.52,8.52,0,0,1-2,1.14,12,12,0,0,1-2.36.73,14.91,14.91,0,0,1-3.06.28,10.9,10.9,0,0,1-4.12-.7,7.47,7.47,0,0,1-2.83-1.88,7.61,7.61,0,0,1-1.64-2.83A11.05,11.05,0,0,1,230.1,90V70.58h-3.84a2.51,2.51,0,0,1-1.48-.41,1.58,1.58,0,0,1-.6-1.41,2.67,2.67,0,0,1,.22-1.16,6,6,0,0,1,.34-.66h5.36Z" style="fill: #546670"/>
      <path d="M250.25,53.77a2.24,2.24,0,0,1,.52-1.54,2.27,2.27,0,0,1,1.74-.6,3.71,3.71,0,0,1,1.1.16,4.93,4.93,0,0,1,.79.29V71.46a10.64,10.64,0,0,1,1.64-2,10.42,10.42,0,0,1,2.42-1.74,15.18,15.18,0,0,1,3.24-1.23,16.86,16.86,0,0,1,4.15-.47c3.95,0,7,1.08,9.23,3.21s3.31,5.13,3.31,8.95V96.49a2,2,0,0,1-2.06,2,2,2,0,0,1-2.1-2V79.78a18.89,18.89,0,0,0-.43-4.22,8.21,8.21,0,0,0-1.49-3.21,6.43,6.43,0,0,0-2.83-2,12.43,12.43,0,0,0-4.44-.69,11.63,11.63,0,0,0-4.76.88,9.47,9.47,0,0,0-3.3,2.4,9.64,9.64,0,0,0-2,3.52,14.57,14.57,0,0,0-.62,4.28V96.49a2.1,2.1,0,0,1-2.09,2.06,2.06,2.06,0,0,1-2.06-2.06Z" style="fill: #546670"/>
    </g>
  </g>
</svg>
