<svg xmlns="http://www.w3.org/2000/svg" xmlns:xlink="http://www.w3.org/1999/xlink" viewBox="0 0 379.2 153.83">
  <defs>
    <linearGradient id="linear-gradient" x1="47.47" y1="2.77" x2="47.47" y2="98.42" gradientUnits="userSpaceOnUse">
      <stop offset="0" stop-color="#f58220"/>
      <stop offset="0.04" stop-color="#f57f21"/>
      <stop offset="0.36" stop-color="#f36b25"/>
      <stop offset="0.69" stop-color="#f15e28"/>
      <stop offset="1" stop-color="#f15a29"/>
    </linearGradient>
    <clipPath id="clip-path">
      <rect x="37.93" y="3.15" width="19.07" height="27.65" style="fill: url(#linear-gradient)"/>
    </clipPath>
    <linearGradient id="linear-gradient-3" x1="-232.01" y1="668.14" x2="-231.46" y2="668.14" gradientTransform="matrix(0, 174.1, 174.1, 0, -116278.83, 40396.73)" xlink:href="#linear-gradient"/>
    <linearGradient id="linear-gradient-4" x1="47.3" y1="2.73" x2="47.3" y2="99.99" xlink:href="#linear-gradient"/>
  </defs>
  <title>Asset 1</title>
  <g id="Layer_2" data-name="Layer 2">
    <g id="Layer_1-2" data-name="Layer 1">
      <path d="M135,7.57a6.44,6.44,0,0,1,1.83-3.48,5.6,5.6,0,0,1,3.58-1,8.25,8.25,0,0,1,3,.41,9.08,9.08,0,0,1,1.36.64c.26,1.17.57,2.59,1,4.29S146.55,12,147,14s1,4.08,1.45,6.21,1,4.2,1.5,6.2,1,3.89,1.4,5.62.81,3.19,1.15,4.34c.49-1.45,1-3.11,1.6-5s1.16-3.83,1.74-5.84,1.15-4,1.71-6,1.07-3.84,1.52-5.52.85-3.12,1.18-4.34.57-2.06.74-2.51a6.92,6.92,0,0,1,1.77-3,5.34,5.34,0,0,1,3.64-1.05,6.69,6.69,0,0,1,1.91.25,9,9,0,0,1,1.53.56,6.15,6.15,0,0,1,1,.59l.43.34q-2.43,9-6,19.43c-2,5.9-4.22,12-6.71,18.16A6.71,6.71,0,0,1,146,42c-.63-2.2-1.52-5.48-2.23-8.19s-1.39-5.44-2.07-8.19-1.24-5.13-1.65-7.11c-.5,2.12-1,4.44-1.67,7s-1.27,5.06-2,7.54-2.46,8.54-2.65,9.11a6.31,6.31,0,0,1-6.18,4.49,6.75,6.75,0,0,1-6.39-4.21c-.27-.71-2.26-6-3-8.18l-2.29-6.51c-.77-2.18-1.47-4.19-2.12-6.05s-1.18-3.48-1.64-4.88-.78-2.39-1-3q-.69-2.1-1.11-3.72a11.33,11.33,0,0,1-.44-3,4.55,4.55,0,0,1,.22-1.43,3.18,3.18,0,0,1,.74-1.24,4,4,0,0,1,1.37-.9A5.64,5.64,0,0,1,114,3.1a9.38,9.38,0,0,1,2.92.37,6.77,6.77,0,0,1,1.11.44c.33,1.28.74,2.82,1.24,4.59s1,3.68,1.61,5.71,1.19,4.11,1.83,6.26,1.26,4.22,1.87,6.18,1.16,3.8,1.7,5.5,1,3.08,1.43,4.16c.66-2.16,1.34-4.54,2-7.15s1.33-5.22,2-7.85,1.24-5.13,1.81-7.54S134.59,9.31,135,7.57Z" style="fill: #546670"/>
      <path d="M200.11,25.25a11.06,11.06,0,0,1-.52,3.48,6.5,6.5,0,0,1-1.68,2.64,7.71,7.71,0,0,1-3,1.67,15.73,15.73,0,0,1-4.69.6H177.77a7.22,7.22,0,0,0,3,4.31,10.56,10.56,0,0,0,6.39,1.76,26.94,26.94,0,0,0,6.91-.76,3.29,3.29,0,0,1,4,2.29,3.4,3.4,0,0,1-2.3,4.16,32.67,32.67,0,0,1-4.87,1.05,33.81,33.81,0,0,1-4.84.34,22.7,22.7,0,0,1-6.86-1,15.24,15.24,0,0,1-5.47-3,14.07,14.07,0,0,1-3.62-5.15,18.8,18.8,0,0,1-1.31-7.32A19.84,19.84,0,0,1,170,23.21a15.64,15.64,0,0,1,3.42-5.43,15.16,15.16,0,0,1,5.3-3.51,18.39,18.39,0,0,1,6.9-1.24,18.57,18.57,0,0,1,6.23,1,13.22,13.22,0,0,1,4.54,2.64,11.08,11.08,0,0,1,2.75,3.91A12,12,0,0,1,200.11,25.25Zm-8.2-.74a5.94,5.94,0,0,0-.33-1.86,5.09,5.09,0,0,0-1.09-1.8,5.66,5.66,0,0,0-2-1.34,7.87,7.87,0,0,0-3-.52,6.75,6.75,0,0,0-3.47.87A8.39,8.39,0,0,0,179.51,22,9.25,9.25,0,0,0,178,24.88a9.82,9.82,0,0,0-.49,3h11.11c1.36,0,2.24-.27,2.66-.83A4.28,4.28,0,0,0,191.91,24.51Z" style="fill: #546670"/>
      <path d="M330.72,25.25a10.78,10.78,0,0,1-.53,3.48,6.38,6.38,0,0,1-1.67,2.64,7.71,7.71,0,0,1-3,1.67,15.78,15.78,0,0,1-4.69.6H308.38a7.22,7.22,0,0,0,3,4.31,10.56,10.56,0,0,0,6.39,1.76,27,27,0,0,0,6.91-.76,3.27,3.27,0,0,1,4,2.29,3.39,3.39,0,0,1-2.29,4.16,33,33,0,0,1-4.87,1.05,33.84,33.84,0,0,1-4.85.34,22.68,22.68,0,0,1-6.85-1,15.2,15.2,0,0,1-5.46-3,13.86,13.86,0,0,1-3.63-5.15,18.81,18.81,0,0,1-1.3-7.32,19.84,19.84,0,0,1,1.2-7.08,15.64,15.64,0,0,1,3.42-5.43,15,15,0,0,1,5.3-3.51A18.33,18.33,0,0,1,316.26,13a18.59,18.59,0,0,1,6.24,1A13.08,13.08,0,0,1,327,16.63a11,11,0,0,1,2.76,3.91A12.14,12.14,0,0,1,330.72,25.25Zm-8.2-.74a5.67,5.67,0,0,0-.33-1.86,5.09,5.09,0,0,0-1.09-1.8,5.7,5.7,0,0,0-2-1.34,7.78,7.78,0,0,0-3-.52,6.75,6.75,0,0,0-3.47.87A8.27,8.27,0,0,0,310.12,22a9.25,9.25,0,0,0-1.49,2.85,9.55,9.55,0,0,0-.5,3h11.11c1.36,0,2.26-.27,2.66-.83A4.2,4.2,0,0,0,322.52,24.51Z" style="fill: #546670"/>
      <path d="M217.92,19.55c-2.44,0-4.11.29-5,.89a2.65,2.65,0,0,0-1.33,2.27,2.2,2.2,0,0,0,1.11,2,9.32,9.32,0,0,0,3.72,1l5.34.68c3.88.5,6.73,1.52,8.5,3a7.86,7.86,0,0,1,2.67,6.27,9.58,9.58,0,0,1-3.81,7.91q-3.82,3-11.34,3a32,32,0,0,1-6.29-.56,38.47,38.47,0,0,1-4.72-1.28,14.53,14.53,0,0,1-1.85-.78,3.39,3.39,0,0,1-1.65-4.35,3.28,3.28,0,0,1,4.44-1.77c.46.16,1.06.39,1.61.61a24.7,24.7,0,0,0,3.72,1.08,22.11,22.11,0,0,0,4.69.47,10.24,10.24,0,0,0,4.68-.78A2.45,2.45,0,0,0,223.81,37a2.36,2.36,0,0,0-1.14-2.15,11.08,11.08,0,0,0-4.07-1.08l-4.09-.5a24.73,24.73,0,0,1-4.81-1,11.78,11.78,0,0,1-3.63-1.83,7.94,7.94,0,0,1-2.3-2.82,9.21,9.21,0,0,1-.8-4,10.19,10.19,0,0,1,.78-4,8.37,8.37,0,0,1,2.44-3.29,12.49,12.49,0,0,1,4.41-2.23,22.4,22.4,0,0,1,6.64-.84,33,33,0,0,1,7,.61A21,21,0,0,1,228,15q3.36,1.42,3.36,3.91a3.81,3.81,0,0,1-.88,2.6A7.45,7.45,0,0,1,228.66,23l-.81-.68a10,10,0,0,0-2-1.18A19,19,0,0,0,222.58,20,19.49,19.49,0,0,0,217.92,19.55Z" style="fill: #546670"/>
      <path d="M248.39,21.16V34.87c0,1.83.43,3.06,1.28,3.7a5.35,5.35,0,0,0,3.31,1,6.47,6.47,0,0,0,1.71-.22,9.27,9.27,0,0,0,1.49-.5,3.27,3.27,0,0,1,4.37,1.27,3.17,3.17,0,0,1-1.26,4.35,16.91,16.91,0,0,1-4.16,1.68,15.84,15.84,0,0,1-4.13.5q-6,0-8.63-3a11.48,11.48,0,0,1-2.66-7.88V21.16h-2.05a3.85,3.85,0,0,1-2.95-.93,3.8,3.8,0,0,1-.83-2.61,6.42,6.42,0,0,1,.36-2.26l.5-1.27h5V8.63a3.22,3.22,0,0,1,1.23-2.92,6,6,0,0,1,3.3-.81,11,11,0,0,1,2.64.31c.8.21,1.31.35,1.51.43v8.45H255a3.82,3.82,0,0,1,3,.93,3.79,3.79,0,0,1,.83,2.6,6.28,6.28,0,0,1-.37,2.27c-.25.64-.41,1.07-.5,1.27Z" style="fill: #546670"/>
      <path d="M287.49,21.16H274.82v21a4.34,4.34,0,1,1-8.68,0v-21h-2.05a3.86,3.86,0,0,1-2.95-.93,3.81,3.81,0,0,1-.84-2.61,6,6,0,0,1,.39-2.26c.24-.64.4-1.07.49-1.27h5V12.23A12.41,12.41,0,0,1,267.2,7a10,10,0,0,1,3-3.82A14,14,0,0,1,274.93.8,22,22,0,0,1,281,0a20,20,0,0,1,6,.68c1.35.46,2.24.79,2.7,1a7.89,7.89,0,0,1,1.46,1A2.82,2.82,0,0,1,292,5a4.55,4.55,0,0,1-.62,2.39A5.79,5.79,0,0,1,290,9a7.71,7.71,0,0,1-.77-.49,10.77,10.77,0,0,0-1.78-.9,18.9,18.9,0,0,0-2.54-.84,12,12,0,0,0-3-.37q-3.72,0-5.36,1.61a5.23,5.23,0,0,0-1.66,3.85v2.24h17.57a3.81,3.81,0,0,1,2.95.93,3.75,3.75,0,0,1,.84,2.6V42.25a4.33,4.33,0,0,1-4.29,4.33,4.42,4.42,0,0,1-4.4-4.33Z" style="fill: #546670"/>
      <path d="M334.27,3.72A3.22,3.22,0,0,1,335.51.8a6,6,0,0,1,3.28-.8,10.39,10.39,0,0,1,2.64.31c.81.21,1.32.35,1.53.43V42.27a4.38,4.38,0,0,1-4.32,4.38,4.44,4.44,0,0,1-4.37-4.38Z" style="fill: #546670"/>
      <path d="M379.2,40.42a5.48,5.48,0,0,1-4.88,5.79c-2.16.24-5.73.4-7.22.4q-10.17,0-15.27-4.69t-5.08-13a18.13,18.13,0,0,1,1.17-6.76,14.65,14.65,0,0,1,3.19-4.9,13.68,13.68,0,0,1,4.66-3,15.44,15.44,0,0,1,5.62-1A12.59,12.59,0,0,1,368,15a10.37,10.37,0,0,1,1.77,1.33c.41.41.66.69.75.8V3.72A3.22,3.22,0,0,1,371.75.8,6,6,0,0,1,375,0a10.5,10.5,0,0,1,2.64.31c.8.21,1.31.35,1.52.43ZM355.68,29.85a12.76,12.76,0,0,0,.59,4,8.69,8.69,0,0,0,1.8,3.2,8,8,0,0,0,3.1,2.11,12.44,12.44,0,0,0,4.5.74,21.67,21.67,0,0,0,3.23-.19,6.34,6.34,0,0,0,1.62-.37V28.49a9.38,9.38,0,0,0-1.81-5.9,6.37,6.37,0,0,0-5.4-2.36,6.68,6.68,0,0,0-5.62,2.64A11.26,11.26,0,0,0,355.68,29.85Z" style="fill: #546670"/>
      <g>
        <g>
          <rect x="37.93" y="3.15" width="19.07" height="27.65" style="fill: url(#linear-gradient)"/>
          <g style="clip-path: url(#clip-path)">
            <rect x="37.93" y="3.15" width="19.07" height="27.65" style="fill: url(#linear-gradient-3)"/>
          </g>
        </g>
        <path d="M75.54,3.15V72.07c0,4.4-2.71,6.91-5.44,6.91H63a6,6,0,0,1-6-6V46.93H37.93V73a5.59,5.59,0,0,1-6,6h-7c-3.75,0-5.8-3.11-5.8-7.09V3.15H0V75.06C0,90.62,12.19,99.51,28.49,99.51c8.72,0,14.7-4.16,18.84-7.3,4.15,3.14,10.4,7.3,19.21,7.3C82.84,99.51,94.59,91,94.59,76V3.11Z" style="fill: url(#linear-gradient-4)"/>
      </g>
      <path d="M142.42,96.4v-19H116.15v19A2.12,2.12,0,0,1,114,98.59a2.23,2.23,0,0,1-2.18-2.16V57.11a2.44,2.44,0,0,1,.54-1.64,2.28,2.28,0,0,1,1.8-.62,3.92,3.92,0,0,1,2,.5V73.67h26.27V57.11a2.43,2.43,0,0,1,.53-1.64,2.16,2.16,0,0,1,1.72-.62,3.9,3.9,0,0,1,1.24.18,4.92,4.92,0,0,1,.84.38v41a2.17,2.17,0,1,1-4.33,0Z" style="fill: #546670"/>
      <path d="M155.54,84.88q.63,5.36,3.62,7.84c2,1.65,4.75,2.48,8.28,2.48a16.78,16.78,0,0,0,5.54-.85c1.1-.38,1.92-.73,2.63-1a1.77,1.77,0,1,1,1.63,3.14,17.85,17.85,0,0,1-3,1.3,27.69,27.69,0,0,1-3.34.82,22,22,0,0,1-4,.35,18.84,18.84,0,0,1-6.23-1,13.9,13.9,0,0,1-5-3A14.36,14.36,0,0,1,152.2,90a17.34,17.34,0,0,1-1.26-6.83,19.11,19.11,0,0,1,1.23-6.93,16.74,16.74,0,0,1,3.37-5.41,15,15,0,0,1,5.11-3.53A16,16,0,0,1,167,66.05c4.29,0,7.53,1,9.76,3.09s3.34,4.93,3.34,8.62A7.25,7.25,0,0,1,178.3,83c-1.19,1.24-3.14,1.86-5.82,1.86Zm15.24-3.34a7.5,7.5,0,0,0,3.87-.82c.9-.54,1.35-1.7,1.35-3.46a9.35,9.35,0,0,0-.46-2.93A6.67,6.67,0,0,0,174,71.84a7.44,7.44,0,0,0-2.77-1.72,11.54,11.54,0,0,0-4.19-.67,10.88,10.88,0,0,0-4.91,1.07,11.28,11.28,0,0,0-3.59,2.77,12.56,12.56,0,0,0-2.23,3.88,13.72,13.72,0,0,0-.85,4.37Z" style="fill: #546670"/>
      <path d="M195,69.52a13.64,13.64,0,0,0-5.57.91,11.65,11.65,0,0,0-2.81,1.67,3.1,3.1,0,0,1-.78-.91,2.56,2.56,0,0,1-.35-1.3,2.06,2.06,0,0,1,.35-1.19,4,4,0,0,1,.85-.89,9.48,9.48,0,0,1,2.52-1.13,18.54,18.54,0,0,1,5.54-.63q7.54,0,11.39,3.09T210,79.08V94.15a4.2,4.2,0,0,1-4,4.22,62.57,62.57,0,0,1-9.13.55,25.36,25.36,0,0,1-7.71-.94,11.56,11.56,0,0,1-4.37-2.4,6.63,6.63,0,0,1-2-3.24,14.32,14.32,0,0,1-.44-3.49,12.08,12.08,0,0,1,.66-4,7.86,7.86,0,0,1,2.27-3.31,11.13,11.13,0,0,1,4.34-2.2,24.93,24.93,0,0,1,6.83-.79c.92,0,1.87,0,2.84.06l2.7.13,2.26.12c.68,0,1.2.06,1.59.06v-.12c0-3-.85-5.32-2.52-6.9S198.89,69.52,195,69.52Zm10.9,13a12.15,12.15,0,0,0-1.26-.16c-.63-.06-1.37-.13-2.21-.19s-1.75-.11-2.74-.16-1.92-.06-2.8-.06a15.82,15.82,0,0,0-7.49,1.51c-1.86,1-2.78,2.81-2.78,5.42a5.94,5.94,0,0,0,2.28,5.09c1.5,1.14,4.22,1.7,8.12,1.7a43.93,43.93,0,0,0,6.1-.31,18.76,18.76,0,0,0,2.78-.56Z" style="fill: #546670"/>
      <path d="M216.42,53.77a2,2,0,0,1,2.26-2.14,3.82,3.82,0,0,1,1.11.16,5.13,5.13,0,0,1,.78.29V96.47a2.08,2.08,0,1,1-4.15,0Z" style="fill: #546670"/>
      <path d="M230.1,58.75a2,2,0,0,1,2.26-2.15,4.19,4.19,0,0,1,1.11.16,5.38,5.38,0,0,1,.78.29v9.89h9.44a2.58,2.58,0,0,1,1.48.4,1.61,1.61,0,0,1,.6,1.42,2.88,2.88,0,0,1-.21,1.17c-.16.31-.27.53-.35.65h-11V89.16c0,2.31.5,3.92,1.51,4.85a5.77,5.77,0,0,0,4.16,1.38,9.16,9.16,0,0,0,5-1.39,1.63,1.63,0,0,1,2.31.68,1.69,1.69,0,0,1-.56,2.09,8.52,8.52,0,0,1-2,1.14,12,12,0,0,1-2.36.73,14.91,14.91,0,0,1-3.06.28,10.9,10.9,0,0,1-4.12-.7,7.47,7.47,0,0,1-2.83-1.88,7.61,7.61,0,0,1-1.64-2.83A11.05,11.05,0,0,1,230.1,90V70.58h-3.84a2.51,2.51,0,0,1-1.48-.41,1.58,1.58,0,0,1-.6-1.41,2.67,2.67,0,0,1,.22-1.16,6,6,0,0,1,.34-.66h5.36Z" style="fill: #546670"/>
      <path d="M250.25,53.77a2.24,2.24,0,0,1,.52-1.54,2.27,2.27,0,0,1,1.74-.6,3.71,3.71,0,0,1,1.1.16,4.93,4.93,0,0,1,.79.29V71.46a10.64,10.64,0,0,1,1.64-2,10.42,10.42,0,0,1,2.42-1.74,15.18,15.18,0,0,1,3.24-1.23,16.86,16.86,0,0,1,4.15-.47c3.95,0,7,1.08,9.23,3.21s3.31,5.13,3.31,8.95V96.49a2,2,0,0,1-2.06,2,2,2,0,0,1-2.1-2V79.78a18.89,18.89,0,0,0-.43-4.22,8.21,8.21,0,0,0-1.49-3.21,6.43,6.43,0,0,0-2.83-2,12.43,12.43,0,0,0-4.44-.69,11.63,11.63,0,0,0-4.76.88,9.47,9.47,0,0,0-3.3,2.4,9.64,9.64,0,0,0-2,3.52,14.57,14.57,0,0,0-.62,4.28V96.49a2.1,2.1,0,0,1-2.09,2.06,2.06,2.06,0,0,1-2.06-2.06Z" style="fill: #546670"/>
      <g>
        <path d="M1.74,129.82a1.42,1.42,0,0,1,.49-1.18,2,2,0,0,1,1.31-.39,3.5,3.5,0,0,1,1,.14l.6.2v7.51H15.19v-6.28a1.44,1.44,0,0,1,.47-1.18,2,2,0,0,1,1.3-.39,3.66,3.66,0,0,1,1,.14,3.81,3.81,0,0,1,.6.23v19.22h-3.4v-8.63h-10v8.63H1.74Z" style="fill: #f15a29"/>
        <path d="M34.09,147.78c-.19,0-.49.08-.9.13l-1.44.14c-.55,0-1.17.09-1.86.13s-1.4.06-2.14.06a14,14,0,0,1-3.64-.39,6.2,6.2,0,0,1-2.22-1,3.27,3.27,0,0,1-1.12-1.48,5.12,5.12,0,0,1-.3-1.73,5.49,5.49,0,0,1,.36-2.06A3.42,3.42,0,0,1,22,140.07a5.66,5.66,0,0,1,2.13-.9,14.52,14.52,0,0,1,3.19-.3c.73,0,1.41,0,2.06.07s1.13.09,1.46.13a3.64,3.64,0,0,0-.33-1.65,2.52,2.52,0,0,0-.9-1,3.73,3.73,0,0,0-1.37-.52,10.68,10.68,0,0,0-1.77-.14,7.45,7.45,0,0,0-2.61.37,5.33,5.33,0,0,0-1.3.63,3.22,3.22,0,0,1-.47-.54,1.58,1.58,0,0,1-.3-1,1.64,1.64,0,0,1,.21-.79,1.84,1.84,0,0,1,.76-.68,4.74,4.74,0,0,1,1.45-.47,12.29,12.29,0,0,1,2.31-.18,13.2,13.2,0,0,1,3.07.33,6.85,6.85,0,0,1,2.39,1,4.88,4.88,0,0,1,1.55,1.89,6.41,6.41,0,0,1,.56,2.83Zm-3.23-6.34-1.07-.17a16.8,16.8,0,0,0-2.35-.12,5.26,5.26,0,0,0-2.83.59,2.05,2.05,0,0,0-.88,1.84,2.39,2.39,0,0,0,.18.94,1.67,1.67,0,0,0,.65.73,3.54,3.54,0,0,0,1.24.46,10.48,10.48,0,0,0,1.95.16,18.62,18.62,0,0,0,2.09-.1c.51-.07.85-.12,1-.16Z" style="fill: #f15a29"/>
        <path d="M36.86,138.61a5.17,5.17,0,0,1,1.61-4.06,6.5,6.5,0,0,1,4.47-1.45,7.38,7.38,0,0,1,2.93.5A1.63,1.63,0,0,1,47,135.13a2.26,2.26,0,0,1-.71,1.51,7.47,7.47,0,0,0-1.2-.42,5.77,5.77,0,0,0-1.63-.2c-2.22,0-3.34,1.18-3.34,3.54v8.28H36.86Z" style="fill: #f15a29"/>
        <path d="M60.07,128.31a1.4,1.4,0,0,1,.44-1.14,1.92,1.92,0,0,1,1.27-.38,3.44,3.44,0,0,1,.94.13l.58.19V140a10.23,10.23,0,0,1-.59,3.63,7.18,7.18,0,0,1-1.61,2.57,6.58,6.58,0,0,1-2.43,1.54,8.83,8.83,0,0,1-3.05.52,8.19,8.19,0,0,1-3.1-.58,7.37,7.37,0,0,1-2.44-1.57,7,7,0,0,1-1.62-2.39,7.82,7.82,0,0,1-.58-3,7.91,7.91,0,0,1,.56-3,7.32,7.32,0,0,1,1.54-2.4,6.86,6.86,0,0,1,2.31-1.57,7.46,7.46,0,0,1,2.9-.56,6.3,6.3,0,0,1,2.91.65,5.81,5.81,0,0,1,2,1.55Zm0,12.36a5,5,0,0,0-.33-1.83,4.7,4.7,0,0,0-.9-1.48,4.06,4.06,0,0,0-1.38-1,4.78,4.78,0,0,0-3.59,0,4.36,4.36,0,0,0-1.38,1,4.22,4.22,0,0,0-.9,1.47,5.34,5.34,0,0,0-.31,1.86,5.19,5.19,0,0,0,.31,1.84,4.27,4.27,0,0,0,.9,1.46,4.22,4.22,0,0,0,3.18,1.32,4.57,4.57,0,0,0,1.79-.34,4.07,4.07,0,0,0,1.38-.94,4.29,4.29,0,0,0,.9-1.46A5.19,5.19,0,0,0,60.07,140.67Z" style="fill: #f15a29"/>
        <path d="M79.05,146.78c-.15.1-.39.23-.71.4a7.25,7.25,0,0,1-1.21.48,12.06,12.06,0,0,1-1.69.4,11.26,11.26,0,0,1-2.1.18,9,9,0,0,1-3-.49A6.81,6.81,0,0,1,66.29,144a8.66,8.66,0,0,1,0-6.31,7.17,7.17,0,0,1,1.63-2.43,7.36,7.36,0,0,1,2.45-1.57,8.42,8.42,0,0,1,3.1-.56,8.17,8.17,0,0,1,2.63.39,6,6,0,0,1,1.92,1A4.17,4.17,0,0,1,79.2,136a4.35,4.35,0,0,1,.4,1.82,4.48,4.48,0,0,1-.37,1.82,3.24,3.24,0,0,1-1.32,1.39,7.61,7.61,0,0,1-2.54.92,20.56,20.56,0,0,1-4.05.33l-1.07,0-1.07,0a3.5,3.5,0,0,0,1.41,2.35,5.5,5.5,0,0,0,3.38.91,7.28,7.28,0,0,0,1.37-.12,6.41,6.41,0,0,0,1.13-.29,6.7,6.7,0,0,0,.86-.34l.53-.25ZM69,140l1.26,0h1.2a12.52,12.52,0,0,0,2.54-.2,5,5,0,0,0,1.51-.51,1.66,1.66,0,0,0,.72-.72,2.11,2.11,0,0,0,.17-.82,1.79,1.79,0,0,0-.87-1.63,4,4,0,0,0-2.16-.54,4.3,4.3,0,0,0-1.85.37,4.09,4.09,0,0,0-1.35,1,4.55,4.55,0,0,0-.84,1.41A5.2,5.2,0,0,0,69,140Z" style="fill: #f15a29"/>
        <path d="M82,138.61a5.14,5.14,0,0,1,1.62-4.06,6.45,6.45,0,0,1,4.46-1.45,7.35,7.35,0,0,1,2.93.5,1.64,1.64,0,0,1,1.13,1.53,1.79,1.79,0,0,1-.27.94,1.66,1.66,0,0,1-.45.57,7.68,7.68,0,0,0-1.19-.42,5.82,5.82,0,0,0-1.63-.2q-3.34,0-3.34,3.54v8.28H82Z" style="fill: #f15a29"/>
        <path d="M133.53,133.1a8.33,8.33,0,0,1,3.1.57,7.79,7.79,0,0,1,2.5,1.59,7.34,7.34,0,0,1,1.65,2.4,7.46,7.46,0,0,1,.6,3,7.38,7.38,0,0,1-.6,3,7.24,7.24,0,0,1-1.65,2.4,7.82,7.82,0,0,1-2.5,1.6,8.41,8.41,0,0,1-6.19,0,7.6,7.6,0,0,1-2.5-1.6,7.12,7.12,0,0,1-1.66-2.4,7.38,7.38,0,0,1-.6-3,7.46,7.46,0,0,1,.6-3,7.22,7.22,0,0,1,1.66-2.4,7.58,7.58,0,0,1,2.5-1.59A8.32,8.32,0,0,1,133.53,133.1Zm0,12.25a4.62,4.62,0,0,0,1.8-.35,4.21,4.21,0,0,0,1.41-1,4.84,4.84,0,0,0,.92-1.49,5,5,0,0,0,.33-1.84,5.22,5.22,0,0,0-.33-1.87,4.56,4.56,0,0,0-.92-1.5,4,4,0,0,0-1.41-1,4.71,4.71,0,0,0-3.61,0,4.07,4.07,0,0,0-1.4,1,4.53,4.53,0,0,0-.91,1.5,5.22,5.22,0,0,0-.33,1.87,5,5,0,0,0,.33,1.84,4.81,4.81,0,0,0,.91,1.49,4.27,4.27,0,0,0,1.4,1A4.6,4.6,0,0,0,133.53,145.35Z" style="fill: #f15a29"/>
        <path d="M143.55,138.61a5.14,5.14,0,0,1,1.62-4.06,6.45,6.45,0,0,1,4.46-1.45,7.35,7.35,0,0,1,2.93.5,1.64,1.64,0,0,1,1.13,1.53,1.79,1.79,0,0,1-.27.94,1.66,1.66,0,0,1-.45.57,7.68,7.68,0,0,0-1.19-.42,5.82,5.82,0,0,0-1.63-.2q-3.35,0-3.34,3.54v8.28h-3.26Z" style="fill: #f15a29"/>
        <path d="M155.43,128.31a1.35,1.35,0,0,1,.46-1.14,2,2,0,0,1,1.28-.38,3.44,3.44,0,0,1,.94.13c.29.09.48.15.57.19v11.68l1-.76c.44-.33.94-.7,1.5-1.1l1.71-1.26,1.68-1.22a6.56,6.56,0,0,1,1.15-.7,3.14,3.14,0,0,1,1.34-.25,2.08,2.08,0,0,1,1.31.42,2.25,2.25,0,0,1,.68.7c-.4.36-.94.8-1.64,1.32s-1.4,1.05-2.12,1.57-1.41,1-2.06,1.46l-1.4,1a33.88,33.88,0,0,1,4.43,3.89,40.72,40.72,0,0,1,3.37,4h-4.06c-.44-.54-.93-1.09-1.47-1.67s-1.12-1.16-1.74-1.72-1.25-1.1-1.88-1.62-1.26-1-1.85-1.45v6.46h-3.25Z" style="fill: #f15a29"/>
        <path d="M173.1,127.08a1.95,1.95,0,1,1-1.4.57A1.91,1.91,0,0,1,173.1,127.08ZM171.47,135a1.39,1.39,0,0,1,.46-1.16,2,2,0,0,1,1.29-.36,3.5,3.5,0,0,1,.94.13l.57.19v14h-3.26Z" style="fill: #f15a29"/>
        <path d="M177.07,139.19a5.83,5.83,0,0,1,.53-2.56,5.6,5.6,0,0,1,1.45-1.91,6.25,6.25,0,0,1,2.2-1.2,9.48,9.48,0,0,1,5.58,0,6.25,6.25,0,0,1,2.22,1.2,5.58,5.58,0,0,1,1.44,1.91,6.13,6.13,0,0,1,.51,2.56v8.65h-3.25V140a4.21,4.21,0,0,0-.94-2.95,4.3,4.3,0,0,0-5.56,0,4.21,4.21,0,0,0-.93,2.95v7.83h-3.25Z" style="fill: #f15a29"/>
        <path d="M195.54,150.29l.5.21a8.48,8.48,0,0,0,1,.32c.39.1.85.19,1.37.27a11.34,11.34,0,0,0,1.7.12A8.67,8.67,0,0,0,202,151a4.42,4.42,0,0,0,1.69-.77,4,4,0,0,0,1.21-1.56,5.93,5.93,0,0,0,.47-2.57v-.34a6.72,6.72,0,0,1-1.9,1.46,6.13,6.13,0,0,1-3,.68,7.77,7.77,0,0,1-2.94-.53,6.64,6.64,0,0,1-3.83-3.78,7.85,7.85,0,0,1-.54-3,7.53,7.53,0,0,1,.59-3,7,7,0,0,1,1.61-2.37,7.58,7.58,0,0,1,2.47-1.58,8.48,8.48,0,0,1,3.15-.57,9.19,9.19,0,0,1,3,.49,6.58,6.58,0,0,1,2.41,1.48,6.86,6.86,0,0,1,1.6,2.55,10.38,10.38,0,0,1,.57,3.62v4.11a10.91,10.91,0,0,1-.62,3.87,7,7,0,0,1-1.69,2.64,6.52,6.52,0,0,1-2.59,1.5,11,11,0,0,1-3.27.47,15.17,15.17,0,0,1-2.12-.13,15,15,0,0,1-1.7-.31c-.5-.13-.91-.25-1.23-.37l-.71-.3Zm5.43-5.14a4.38,4.38,0,0,0,1.76-.34,4,4,0,0,0,1.37-.94,4.32,4.32,0,0,0,.91-1.43,5.34,5.34,0,0,0,0-3.64,4.45,4.45,0,0,0-.91-1.46,3.92,3.92,0,0,0-1.37-1A4.39,4.39,0,0,0,201,136a4.45,4.45,0,0,0-1.82.36,4.06,4.06,0,0,0-1.38,1,4.46,4.46,0,0,0-.89,1.45,5,5,0,0,0-.31,1.77,4.55,4.55,0,0,0,1.2,3.3A4.23,4.23,0,0,0,201,145.15Z" style="fill: #f15a29"/>
        <path d="M247.3,146.78c-.15.1-.39.23-.71.4a7.39,7.39,0,0,1-1.22.48,11.9,11.9,0,0,1-1.68.4,11.41,11.41,0,0,1-2.1.18,9,9,0,0,1-3-.49,6.85,6.85,0,0,1-2.43-1.44,6.77,6.77,0,0,1-1.64-2.34,8.73,8.73,0,0,1,0-6.31,7.14,7.14,0,0,1,4.09-4,8.37,8.37,0,0,1,3.09-.56,8.13,8.13,0,0,1,2.63.39,6.21,6.21,0,0,1,1.93,1,4.14,4.14,0,0,1,1.18,1.5,4.2,4.2,0,0,1,.4,1.82,4.32,4.32,0,0,1-.37,1.82,3.21,3.21,0,0,1-1.31,1.39,7.7,7.7,0,0,1-2.54.92,20.67,20.67,0,0,1-4.06.33l-1.07,0-1.07,0a3.52,3.52,0,0,0,1.42,2.35,5.48,5.48,0,0,0,3.38.91,7.35,7.35,0,0,0,1.37-.12,6.64,6.64,0,0,0,1.13-.29,6.52,6.52,0,0,0,.85-.34l.53-.25Zm-10-6.77,1.26,0h1.2a12.42,12.42,0,0,0,2.53-.2,5.06,5.06,0,0,0,1.52-.51,1.58,1.58,0,0,0,.71-.72,2,2,0,0,0,.17-.82,1.79,1.79,0,0,0-.87-1.63,4,4,0,0,0-2.15-.54,4.32,4.32,0,0,0-1.86.37,4,4,0,0,0-1.34,1,4.55,4.55,0,0,0-.84,1.41A5.2,5.2,0,0,0,237.28,140Z" style="fill: #f15a29"/>
        <path d="M262.6,147.78c-.19,0-.49.08-.9.13l-1.44.14c-.55,0-1.17.09-1.86.13s-1.39.06-2.13.06a14.12,14.12,0,0,1-3.65-.39,6.2,6.2,0,0,1-2.22-1,3.27,3.27,0,0,1-1.12-1.48,5.12,5.12,0,0,1-.3-1.73,5.49,5.49,0,0,1,.36-2.06,3.42,3.42,0,0,1,1.17-1.48,5.73,5.73,0,0,1,2.13-.9,14.56,14.56,0,0,1,3.2-.3c.72,0,1.4,0,2,.07s1.14.09,1.46.13a3.64,3.64,0,0,0-.33-1.65,2.52,2.52,0,0,0-.9-1,3.73,3.73,0,0,0-1.37-.52,10.59,10.59,0,0,0-1.77-.14,7.45,7.45,0,0,0-2.61.37,5.33,5.33,0,0,0-1.3.63,3.77,3.77,0,0,1-.47-.54,1.58,1.58,0,0,1-.3-1,1.64,1.64,0,0,1,.21-.79,2,2,0,0,1,.76-.68,4.84,4.84,0,0,1,1.45-.47,12.33,12.33,0,0,1,2.32-.18,13.32,13.32,0,0,1,3.07.33,6.88,6.88,0,0,1,2.38,1,4.82,4.82,0,0,1,1.56,1.89,6.55,6.55,0,0,1,.55,2.83Zm-3.22-6.34-1.07-.17a17.06,17.06,0,0,0-2.36-.12,5.28,5.28,0,0,0-2.83.59,2.05,2.05,0,0,0-.88,1.84,2.39,2.39,0,0,0,.18.94,1.67,1.67,0,0,0,.65.73,3.54,3.54,0,0,0,1.24.46,10.52,10.52,0,0,0,2,.16,18.43,18.43,0,0,0,2.08-.1c.51-.07.85-.12,1-.16Z" style="fill: #f15a29"/>
        <path d="M266.09,128.31a1.37,1.37,0,0,1,.45-1.14,2,2,0,0,1,1.29-.38,3.5,3.5,0,0,1,.94.13c.28.09.48.15.57.19v20.73h-3.25Z" style="fill: #f15a29"/>
        <path d="M272.34,131a1.38,1.38,0,0,1,.45-1.15,2,2,0,0,1,1.26-.36,3.32,3.32,0,0,1,1,.13c.29.08.49.15.58.18v3.74h4.14a1.84,1.84,0,0,1,1.33.39,1.52,1.52,0,0,1,.38,1.13,2.65,2.65,0,0,1-.14.9,4,4,0,0,1-.23.58h-5.48v6.37a3.18,3.18,0,0,0,.2,1.21,1.91,1.91,0,0,0,.56.76,2.14,2.14,0,0,0,.83.4,4.46,4.46,0,0,0,1,.11,4.29,4.29,0,0,0,1.54-.26,4.38,4.38,0,0,0,1-.48l1.31,2.17c-.15.11-.36.26-.64.43a5.63,5.63,0,0,1-1,.48,10.21,10.21,0,0,1-1.34.39,8.26,8.26,0,0,1-1.63.16,5.15,5.15,0,0,1-3.8-1.3,4.69,4.69,0,0,1-1.28-3.42Z" style="fill: #f15a29"/>
        <path d="M283.73,128.31a1.37,1.37,0,0,1,.45-1.14,2,2,0,0,1,1.29-.38,3.44,3.44,0,0,1,.94.13l.57.19V135a5.62,5.62,0,0,1,1.72-1.29,6.49,6.49,0,0,1,3-.59,7.49,7.49,0,0,1,2.42.37,5.36,5.36,0,0,1,1.9,1.1,4.71,4.71,0,0,1,1.22,1.81,6.79,6.79,0,0,1,.43,2.54v8.94h-3.25v-8a4.44,4.44,0,0,0-.79-2.85,3.28,3.28,0,0,0-2.7-1,3.68,3.68,0,0,0-2.92,1.13,4.37,4.37,0,0,0-1,3v7.68h-3.25Z" style="fill: #f15a29"/>
        <path d="M328.55,133.1a8.37,8.37,0,0,1,3.1.57,7.79,7.79,0,0,1,2.5,1.59,7.34,7.34,0,0,1,1.65,2.4,7.46,7.46,0,0,1,.6,3,7.38,7.38,0,0,1-.6,3,7.24,7.24,0,0,1-1.65,2.4,7.82,7.82,0,0,1-2.5,1.6,8.44,8.44,0,0,1-6.2,0,7.66,7.66,0,0,1-2.49-1.6,7.12,7.12,0,0,1-1.66-2.4,7.38,7.38,0,0,1-.6-3,7.46,7.46,0,0,1,.6-3,7.22,7.22,0,0,1,1.66-2.4,7.64,7.64,0,0,1,2.49-1.59A8.33,8.33,0,0,1,328.55,133.1Zm0,12.25a4.62,4.62,0,0,0,1.8-.35,4.21,4.21,0,0,0,1.41-1,4.84,4.84,0,0,0,.92-1.49,5.19,5.19,0,0,0,.32-1.84,5.44,5.44,0,0,0-.32-1.87,4.56,4.56,0,0,0-.92-1.5,4,4,0,0,0-1.41-1,4.45,4.45,0,0,0-1.8-.36,4.4,4.4,0,0,0-1.81.36,4,4,0,0,0-1.4,1,4.56,4.56,0,0,0-.92,1.5,5.44,5.44,0,0,0-.32,1.87,5.19,5.19,0,0,0,.32,1.84,4.84,4.84,0,0,0,.92,1.49,4.16,4.16,0,0,0,1.4,1A4.56,4.56,0,0,0,328.55,145.35Z" style="fill: #f15a29"/>
        <path d="M343,147.84q-1.33-2.49-2.45-4.67c-.74-1.46-1.38-2.76-1.91-3.9s-1-2.09-1.23-2.85a5.62,5.62,0,0,1-.43-1.49,1.37,1.37,0,0,1,.4-1,1.64,1.64,0,0,1,1.23-.42,3.31,3.31,0,0,1,1,.12,1.7,1.7,0,0,1,.45.17c.38,1,.79,2.07,1.22,3.13s.87,2.05,1.3,3,.83,1.8,1.2,2.57.68,1.41.93,1.9c.36-.68.75-1.49,1.17-2.42s.82-1.86,1.21-2.77l1.06-2.5c.31-.75.54-1.3.67-1.64a3.3,3.3,0,0,1,.69-1.13,1.64,1.64,0,0,1,1.25-.42,2.73,2.73,0,0,1,1.3.27l.56.33c-.12.4-.31,1-.59,1.65s-.61,1.47-1,2.32-.81,1.75-1.25,2.68-.89,1.85-1.33,2.73-.85,1.71-1.24,2.47-.72,1.39-1,1.89Z" style="fill: #f15a29"/>
        <path d="M366.55,146.78c-.15.1-.39.23-.71.4a7.39,7.39,0,0,1-1.22.48,11.9,11.9,0,0,1-1.68.4,11.41,11.41,0,0,1-2.1.18,9.1,9.1,0,0,1-3-.49,6.76,6.76,0,0,1-4.06-3.78,8.73,8.73,0,0,1,0-6.31,7.17,7.17,0,0,1,4.08-4,8.46,8.46,0,0,1,3.1-.56,8.13,8.13,0,0,1,2.63.39,6.21,6.21,0,0,1,1.93,1,4.14,4.14,0,0,1,1.18,1.5,4.2,4.2,0,0,1,.4,1.82,4.32,4.32,0,0,1-.37,1.82,3.21,3.21,0,0,1-1.31,1.39,7.68,7.68,0,0,1-2.55.92,20.49,20.49,0,0,1-4.05.33l-1.07,0-1.07,0a3.5,3.5,0,0,0,1.41,2.35,5.52,5.52,0,0,0,3.39.91,7.35,7.35,0,0,0,1.37-.12,6.29,6.29,0,0,0,1.12-.29,6.16,6.16,0,0,0,.86-.34l.53-.25Zm-10-6.77,1.25,0H359a12.46,12.46,0,0,0,2.54-.2,5.06,5.06,0,0,0,1.52-.51,1.58,1.58,0,0,0,.71-.72,2.11,2.11,0,0,0,.17-.82,1.79,1.79,0,0,0-.87-1.63,4,4,0,0,0-2.15-.54A4.32,4.32,0,0,0,359,136a4,4,0,0,0-1.34,1,4.78,4.78,0,0,0-.85,1.41A5.48,5.48,0,0,0,356.53,140Z" style="fill: #f15a29"/>
        <path d="M369,138.61a5.14,5.14,0,0,1,1.61-4.06A6.48,6.48,0,0,1,375,133.1a7.3,7.3,0,0,1,2.92.5,1.64,1.64,0,0,1,1.13,1.53,2.26,2.26,0,0,1-.71,1.51,8.24,8.24,0,0,0-1.2-.42,5.82,5.82,0,0,0-1.63-.2q-3.35,0-3.34,3.54v8.28H369Z" style="fill: #f15a29"/>
        <path d="M106.09,147.84q-1.44-3.41-2.37-5.76c-.62-1.58-1.12-2.88-1.48-3.92s-.62-1.83-.77-2.39a5.33,5.33,0,0,1-.22-1.19,1.65,1.65,0,0,1,.41-1.1,1.62,1.62,0,0,1,1.27-.47,3.37,3.37,0,0,1,1,.12,4,4,0,0,1,.49.18c.24.86.5,1.78.8,2.76s.6,1.94.91,2.91.63,1.88.93,2.76.58,1.66.82,2.34c.21-.6.44-1.3.69-2.09s.5-1.6.77-2.44.52-1.68.78-2.54l.71-2.43a2.61,2.61,0,0,1,.66-1.17,2,2,0,0,1,1.38-.4,3.52,3.52,0,0,1,1.06.16c.31.11.51.19.59.23.25.88.53,1.81.83,2.79s.59,1.93.88,2.87.59,1.86.87,2.72.55,1.64.79,2.3c.51-1.35,1-2.84,1.58-4.45s1-3.23,1.49-4.85a3,3,0,0,1,.69-1.34A1.78,1.78,0,0,1,123,133a2.76,2.76,0,0,1,1.3.27,3.87,3.87,0,0,1,.56.32c-.16.65-.44,1.55-.83,2.69s-.84,2.38-1.33,3.71-1,2.68-1.57,4.07-1.07,2.64-1.56,3.77h-3.48c-.16-.42-.37-1-.64-1.82l-.87-2.61q-.48-1.42-.93-2.91c-.31-1-.59-1.91-.84-2.74-.26.83-.54,1.74-.84,2.74s-.61,2-.92,2.91-.59,1.81-.84,2.61-.46,1.4-.62,1.82Z" style="fill: #f15a29"/>
        <path d="M217.56,127.64a1.42,1.42,0,0,1,.47-1.18,2,2,0,0,1,1.33-.39,3.67,3.67,0,0,1,1,.13l.6.2v8.12a5.52,5.52,0,0,1,1.77-1.33,6.62,6.62,0,0,1,3.07-.62,7.88,7.88,0,0,1,2.49.38,5.58,5.58,0,0,1,2,1.14A5,5,0,0,1,231.5,136a7.28,7.28,0,0,1,.44,2.63v9.25h-3.37V139.6a4.64,4.64,0,0,0-.81-3,3.39,3.39,0,0,0-2.79-1,3.8,3.8,0,0,0-3,1.17,4.53,4.53,0,0,0-1,3.08v8h-3.37Z" style="fill: #f15a29"/>
        <path d="M319.76,146.87a8.2,8.2,0,0,1-.87.49,8.79,8.79,0,0,1-1.18.47,10.72,10.72,0,0,1-3.41.52,9.46,9.46,0,0,1-3.1-.5,7.39,7.39,0,0,1-2.55-1.49,7.18,7.18,0,0,1-1.72-2.44,8.12,8.12,0,0,1-.64-3.34,8.64,8.64,0,0,1,.62-3.36,7,7,0,0,1,1.72-2.48,7.34,7.34,0,0,1,2.58-1.53,9.8,9.8,0,0,1,3.2-.51,11.59,11.59,0,0,1,2.47.23,6.24,6.24,0,0,1,1.65.6,2.45,2.45,0,0,1,.92.79,1.63,1.63,0,0,1,.28.89,1.69,1.69,0,0,1-.4,1.09,4.25,4.25,0,0,1-.75.77,5.77,5.77,0,0,0-1.54-1,5.87,5.87,0,0,0-2.48-.46,5.68,5.68,0,0,0-1.87.3,3.78,3.78,0,0,0-1.51.9,4.2,4.2,0,0,0-1,1.5,5.59,5.59,0,0,0-.37,2.15,5.83,5.83,0,0,0,.38,2.21,4,4,0,0,0,1.06,1.5,4.42,4.42,0,0,0,1.57.88,6.55,6.55,0,0,0,1.92.28,6.08,6.08,0,0,0,2.38-.4,11,11,0,0,0,1.22-.61Z" style="fill: #f15a29"/>
      </g>
    </g>
  </g>
</svg>
